M48
; DRILL file {KiCad 5.1.9} date Sun Mar 28 15:13:36 2021
; FORMAT={-:-/ absolute / inch / decimal}
; #@! TF.CreationDate,2021-03-28T15:13:36+02:00
; #@! TF.GenerationSoftware,Kicad,Pcbnew,5.1.9
; #@! TF.FileFunction,Plated,1,2,PTH
FMAT,2
INCH
T1C0.0157
T2C0.0236
T3C0.0315
T4C0.0335
T5C0.0394
%
G90
G05
T1
X4.31Y-2.54
X4.31Y-2.57
X4.31Y-2.7
X4.31Y-2.74
X4.34Y-2.54
X4.34Y-2.57
X4.34Y-2.7
X4.34Y-2.74
X4.37Y-2.54
X4.37Y-2.57
X4.38Y-2.7
X4.38Y-2.74
X4.4Y-2.54
X4.4Y-2.57
X4.4Y-3.99
X4.42Y-2.61
X4.42Y-2.65
X4.42Y-2.7
X4.42Y-2.74
X4.42Y-3.3
X4.42Y-3.34
X4.42Y-3.38
X4.42Y-3.42
X4.42Y-3.46
X4.42Y-4.01
X4.42Y-4.04
X4.43Y-2.54
X4.43Y-2.57
X4.44Y-3.0
X4.44Y-4.07
X4.45Y-4.04
X4.46Y-2.54
X4.46Y-2.57
X4.46Y-2.61
X4.46Y-2.65
X4.46Y-2.7
X4.46Y-2.74
X4.46Y-3.3
X4.46Y-3.34
X4.46Y-3.38
X4.46Y-3.42
X4.46Y-4.39
X4.47Y-4.07
X4.48Y-3.0
X4.49Y-2.54
X4.49Y-2.57
X4.49Y-4.36
X4.49Y-4.39
X4.5Y-2.61
X4.5Y-2.65
X4.5Y-2.7
X4.5Y-2.74
X4.5Y-3.3
X4.5Y-3.34
X4.5Y-3.38
X4.51Y-4.28
X4.52Y-2.54
X4.52Y-2.57
X4.52Y-3.0
X4.52Y-4.36
X4.52Y-4.39
X4.5241Y-3.9159
X4.54Y-2.61
X4.54Y-2.65
X4.54Y-2.7
X4.54Y-2.74
X4.55Y-2.54
X4.55Y-2.57
X4.55Y-4.36
X4.55Y-4.39
X4.56Y-3.0
X4.56Y-3.04
X4.56Y-3.58
X4.56Y-3.84
X4.58Y-2.54
X4.58Y-2.57
X4.58Y-2.61
X4.58Y-2.65
X4.58Y-2.7
X4.58Y-2.74
X4.58Y-4.36
X4.58Y-4.39
X4.5936Y-3.9536
X4.5936Y-4.0
X4.6Y-3.0
X4.6Y-3.04
X4.6Y-3.6
X4.6Y-3.63
X4.6Y-3.66
X4.6Y-3.69
X4.6Y-3.72
X4.6Y-3.75
X4.6Y-3.78
X4.6Y-4.24
X4.61Y-2.54
X4.61Y-2.57
X4.61Y-3.32
X4.61Y-3.35
X4.61Y-3.38
X4.61Y-3.41
X4.61Y-3.81
X4.61Y-3.84
X4.61Y-3.87
X4.61Y-4.36
X4.61Y-4.39
X4.62Y-2.7
X4.62Y-2.74
X4.62Y-3.57
X4.63Y-3.6
X4.63Y-3.63
X4.63Y-3.66
X4.63Y-3.69
X4.63Y-3.72
X4.63Y-3.75
X4.63Y-3.78
X4.64Y-2.54
X4.64Y-2.57
X4.64Y-3.0
X4.64Y-3.04
X4.64Y-3.35
X4.64Y-3.38
X4.64Y-3.41
X4.64Y-4.39
X4.66Y-2.7
X4.66Y-2.74
X4.66Y-3.61
X4.66Y-3.64
X4.66Y-3.67
X4.66Y-3.7
X4.66Y-3.73
X4.67Y-2.54
X4.67Y-2.57
X4.67Y-4.39
X4.68Y-3.0
X4.68Y-3.04
X4.69Y-3.57
X4.69Y-3.63
X4.69Y-3.66
X4.69Y-3.69
X4.69Y-3.72
X4.7Y-2.54
X4.7Y-2.57
X4.7Y-2.7
X4.7Y-2.74
X4.72Y-3.0
X4.72Y-3.04
X4.72Y-3.66
X4.72Y-3.69
X4.73Y-2.54
X4.73Y-2.57
X4.73Y-4.36
X4.74Y-2.61
X4.74Y-2.65
X4.74Y-2.69
X4.74Y-2.73
X4.74Y-2.77
X4.74Y-2.81
X4.74Y-2.85
X4.74Y-2.89
X4.75Y-3.67
X4.75Y-3.87
X4.76Y-3.0
X4.76Y-3.04
X4.76Y-3.2
X4.78Y-2.69
X4.78Y-2.73
X4.78Y-2.77
X4.78Y-2.81
X4.78Y-2.85
X4.78Y-2.89
X4.78Y-3.17
X4.78Y-3.67
X4.79Y-3.22
X4.8Y-3.0
X4.8Y-3.04
X4.81Y-3.19
X4.81Y-3.25
X4.81Y-3.67
X4.82Y-2.69
X4.82Y-2.73
X4.83Y-3.22
X4.84Y-3.0
X4.84Y-3.67
X4.85Y-2.54
X4.85Y-3.25
X4.86Y-2.71
X4.86Y-2.75
X4.87Y-3.67
X4.88Y-3.0
X4.88Y-3.04
X4.88Y-3.3
X4.88Y-3.34
X4.89Y-2.54
X4.89Y-2.68
X4.9Y-2.72
X4.9Y-2.76
X4.9Y-3.08
X4.9198Y-3.7702
X4.92Y-3.0
X4.92Y-3.04
X4.92Y-4.16
X4.93Y-2.54
X4.93Y-2.68
X4.93Y-2.72
X4.93Y-2.76
X4.93Y-3.93
X4.94Y-3.08
X4.96Y-3.85
X4.97Y-2.56
X4.97Y-2.6
X4.97Y-2.64
X4.97Y-2.68
X4.97Y-3.63
X4.98Y-4.28
X5.0Y-3.73
X5.0Y-4.11
X5.01Y-2.54
X5.01Y-2.68
X5.02Y-3.89
X5.02Y-4.2
X5.03Y-3.26
X5.03Y-3.7
X5.03Y-4.34
X5.05Y-2.54
X5.06Y-2.68
X5.08Y-3.6
X5.08Y-3.63
X5.08Y-3.66
X5.08Y-3.69
X5.09Y-2.54
X5.11Y-3.6
X5.11Y-3.63
X5.11Y-3.66
X5.12Y-3.4
X5.12Y-3.94
X5.13Y-3.99
X5.14Y-3.6
X5.14Y-3.63
X5.17Y-3.8064
X5.17Y-4.27
X5.18Y-4.0
X5.22Y-2.9
X5.22Y-3.76
X5.24Y-2.88
X5.24Y-3.81
X5.24Y-4.32
X5.26Y-2.9
X5.27Y-2.61
X5.27Y-2.74
X5.27Y-2.88
X5.27Y-4.2
X5.2764Y-3.53
X5.28Y-3.24
X5.28Y-3.27
X5.29Y-2.9
X5.3Y-2.61
X5.3Y-2.88
X5.3Y-3.21
X5.31Y-3.18
X5.31Y-3.24
X5.31Y-3.27
X5.31Y-4.03
X5.32Y-2.9
X5.32Y-3.42
X5.32Y-3.45
X5.32Y-3.48
X5.32Y-3.51
X5.32Y-3.54
X5.32Y-4.32
X5.33Y-2.61
X5.33Y-2.88
X5.34Y-3.15
X5.34Y-3.18
X5.34Y-3.21
X5.34Y-3.9206
X5.36Y-2.61
X5.36Y-2.88
X5.37Y-3.75
X5.37Y-3.99
X5.37Y-4.28
X5.38Y-2.73
X5.39Y-2.61
X5.4Y-3.36
X5.4036Y-4.0736
X5.41Y-3.97
X5.41Y-4.16
X5.42Y-2.61
X5.42Y-3.81
X5.43Y-3.34
X5.43Y-3.39
X5.43Y-3.85
X5.46Y-2.88
X5.46Y-2.92
X5.46Y-3.37
X5.47Y-3.08
X5.47Y-3.11
X5.47Y-3.77
X5.47Y-3.9219
X5.48Y-4.04
X5.49Y-4.12
X5.49Y-4.21
X5.5Y-3.08
X5.5Y-3.27
X5.5Y-3.6
X5.51Y-2.94
X5.52Y-3.27
X5.53Y-2.63
X5.53Y-2.67
X5.53Y-3.08
X5.54Y-2.86
X5.54Y-2.89
X5.55Y-2.94
X5.55Y-2.98
X5.55Y-3.02
X5.58Y-2.54
X5.58Y-2.58
X5.5907Y-2.7524
X5.6Y-2.93
X5.6Y-2.96
X5.62Y-2.54
X5.62Y-2.58
X5.6236Y-4.0064
X5.63Y-2.93
X5.63Y-2.96
X5.6492Y-4.0208
X5.65Y-2.54
X5.65Y-2.58
X5.65Y-4.11
X5.65Y-4.18
X5.66Y-2.93
X5.66Y-2.96
X5.66Y-3.1557
X5.68Y-2.54
X5.68Y-2.57
X5.68Y-2.6
X5.68Y-3.07
X5.7Y-3.09
X5.71Y-2.54
X5.71Y-2.57
X5.71Y-2.6
X5.72Y-4.16
X5.73Y-3.82
X5.73Y-3.84
X5.74Y-2.54
X5.74Y-2.57
X5.74Y-2.6
X5.74Y-3.96
X5.75Y-3.8
X5.77Y-2.54
X5.77Y-2.57
X5.78Y-3.02
X5.78Y-3.05
X5.78Y-3.08
X5.78Y-3.8
X5.79Y-3.11
X5.8Y-2.54
X5.8Y-2.74
X5.81Y-3.05
X5.81Y-3.08
X5.83Y-2.73
X5.83Y-2.76
X5.83Y-2.79
X5.83Y-3.14
X5.83Y-3.76
X5.83Y-3.9798
X5.84Y-2.54
X5.86Y-2.73
X5.86Y-2.76
X5.86Y-2.79
X5.86Y-2.94
X5.87Y-2.54
X5.87Y-3.79
X5.88Y-3.96
X5.89Y-2.76
X5.89Y-2.94
X5.89Y-2.97
X5.89Y-3.76
X5.9Y-2.54
X5.9Y-3.79
X5.92Y-2.76
X5.92Y-2.94
X5.92Y-2.97
X5.92Y-3.0
X5.93Y-2.54
X5.93Y-3.32
X5.93Y-3.83
X5.95Y-2.76
X5.95Y-2.94
X5.95Y-2.97
X5.95Y-3.0
X5.96Y-2.54
X5.96Y-3.29
X5.96Y-3.32
X5.96Y-3.96
X5.96Y-4.09
X5.98Y-2.73
X5.98Y-2.76
X5.98Y-2.79
X5.98Y-2.82
X5.98Y-2.85
X5.98Y-2.88
X5.98Y-2.91
X5.98Y-2.94
X5.98Y-2.97
X5.98Y-3.0
X5.99Y-2.54
X5.99Y-3.29
X5.99Y-3.32
X6.01Y-2.73
X6.01Y-2.76
X6.01Y-2.79
X6.01Y-2.82
X6.01Y-2.85
X6.01Y-2.88
X6.01Y-2.91
X6.01Y-2.94
X6.01Y-2.97
X6.01Y-3.0
X6.01Y-3.03
X6.01Y-3.06
X6.01Y-3.09
X6.02Y-2.54
X6.02Y-3.19
X6.02Y-3.22
X6.02Y-3.25
X6.02Y-3.28
X6.02Y-3.31
X6.02Y-3.83
X6.03Y-3.52
X6.03Y-3.65
X6.04Y-2.73
X6.04Y-2.76
X6.04Y-2.79
X6.04Y-2.82
X6.04Y-2.85
X6.04Y-2.88
X6.04Y-2.91
X6.04Y-2.94
X6.04Y-2.97
X6.04Y-3.0
X6.04Y-3.03
X6.04Y-3.06
X6.04Y-3.09
X6.05Y-2.54
X6.06Y-3.75
X6.06Y-3.78
X6.07Y-2.73
X6.07Y-2.76
X6.07Y-2.79
X6.07Y-2.82
X6.07Y-2.85
X6.07Y-2.88
X6.07Y-2.91
X6.07Y-2.94
X6.07Y-2.97
X6.07Y-3.0
X6.07Y-3.03
X6.07Y-3.06
X6.08Y-2.54
X6.08Y-3.65
X6.08Y-3.68
X6.08Y-3.71
X6.1Y-2.73
X6.1Y-2.76
X6.1Y-2.79
X6.1Y-2.82
X6.1Y-2.85
X6.1Y-2.88
X6.1Y-2.91
X6.1Y-2.94
X6.1Y-2.97
X6.1Y-3.0
X6.1Y-3.03
X6.1Y-3.52
X6.1Y-3.74
X6.1Y-3.77
X6.11Y-2.54
X6.11Y-3.65
X6.11Y-3.68
X6.11Y-3.71
X6.1136Y-3.3964
X6.13Y-2.73
X6.13Y-2.76
X6.13Y-2.79
X6.13Y-2.82
X6.13Y-2.85
X6.13Y-2.88
X6.13Y-2.91
X6.13Y-2.94
X6.13Y-2.97
X6.13Y-3.0
X6.13Y-3.03
X6.14Y-2.54
X6.14Y-3.97
X6.14Y-4.13
X6.14Y-4.24
X6.15Y-3.19
X6.15Y-4.34
X6.16Y-2.73
X6.16Y-2.76
X6.16Y-2.79
X6.16Y-2.82
X6.16Y-2.85
X6.16Y-2.88
X6.16Y-2.91
X6.16Y-2.94
X6.16Y-2.97
X6.16Y-3.0
X6.16Y-3.03
X6.1659Y-3.686
X6.17Y-2.54
X6.19Y-2.73
X6.19Y-2.76
X6.19Y-2.79
X6.19Y-2.82
X6.19Y-2.85
X6.19Y-2.88
X6.19Y-2.91
X6.19Y-2.94
X6.19Y-2.97
X6.19Y-3.0
X6.19Y-3.03
X6.2Y-2.54
X6.2Y-3.52
T3
X4.69Y-3.12
X4.69Y-3.22
T4
X5.2616Y-2.6663
X5.4584Y-2.6663
T5
X4.35Y-2.94
X4.35Y-3.04
X4.35Y-3.14
X4.35Y-3.24
X4.35Y-3.34
X4.35Y-3.44
X4.35Y-3.54
X4.35Y-3.64
X4.35Y-3.74
X4.35Y-3.84
X4.35Y-3.94
X4.35Y-4.04
X4.35Y-4.14
X4.35Y-4.24
X4.35Y-4.34
X4.83Y-3.53
X4.93Y-3.53
X5.03Y-3.53
X5.13Y-3.53
X6.2594Y-3.64
X6.2594Y-3.74
X6.2594Y-3.84
X6.2594Y-3.94
X6.2594Y-4.04
X6.2594Y-4.14
X6.2594Y-4.24
X6.2594Y-4.34
X6.26Y-2.5802
X6.26Y-2.6802
X6.26Y-2.7802
X6.26Y-2.8802
X6.26Y-2.9802
X6.26Y-3.0802
X6.26Y-3.1802
X6.26Y-3.2802
X6.26Y-3.3802
X6.26Y-3.4802
T2
G00X5.2222Y-2.5738
M15
G01X5.2222Y-2.5462
M16
G05
G00X5.4978Y-2.5462
M15
G01X5.4978Y-2.5738
M16
G05
T0
M30
