G04 #@! TF.GenerationSoftware,KiCad,Pcbnew,5.1.9*
G04 #@! TF.CreationDate,2021-03-28T15:13:34+02:00*
G04 #@! TF.ProjectId,dwm1001-devboard,64776d31-3030-4312-9d64-6576626f6172,1*
G04 #@! TF.SameCoordinates,Original*
G04 #@! TF.FileFunction,Copper,L2,Bot*
G04 #@! TF.FilePolarity,Positive*
%FSLAX46Y46*%
G04 Gerber Fmt 4.6, Leading zero omitted, Abs format (unit mm)*
G04 Created by KiCad (PCBNEW 5.1.9) date 2021-03-28 15:13:34*
%MOMM*%
%LPD*%
G01*
G04 APERTURE LIST*
G04 #@! TA.AperFunction,ComponentPad*
%ADD10C,1.450000*%
G04 #@! TD*
G04 #@! TA.AperFunction,ComponentPad*
%ADD11O,1.200000X1.900000*%
G04 #@! TD*
G04 #@! TA.AperFunction,ComponentPad*
%ADD12O,1.700000X1.700000*%
G04 #@! TD*
G04 #@! TA.AperFunction,ComponentPad*
%ADD13R,1.700000X1.700000*%
G04 #@! TD*
G04 #@! TA.AperFunction,ComponentPad*
%ADD14C,1.400000*%
G04 #@! TD*
G04 #@! TA.AperFunction,ViaPad*
%ADD15C,0.800000*%
G04 #@! TD*
G04 #@! TA.AperFunction,Conductor*
%ADD16C,0.254000*%
G04 #@! TD*
G04 #@! TA.AperFunction,Conductor*
%ADD17C,0.508000*%
G04 #@! TD*
G04 #@! TA.AperFunction,Conductor*
%ADD18C,1.016000*%
G04 #@! TD*
G04 #@! TA.AperFunction,Conductor*
%ADD19C,0.762000*%
G04 #@! TD*
G04 #@! TA.AperFunction,Conductor*
%ADD20C,1.270000*%
G04 #@! TD*
G04 #@! TA.AperFunction,Conductor*
%ADD21C,0.100000*%
G04 #@! TD*
G04 APERTURE END LIST*
D10*
X138644000Y-67724000D03*
X133644000Y-67724000D03*
D11*
X139644000Y-65024000D03*
X132644000Y-65024000D03*
D12*
X122682000Y-89662000D03*
X125222000Y-89662000D03*
X127762000Y-89662000D03*
D13*
X130302000Y-89662000D03*
D14*
X119126000Y-81788000D03*
X119126000Y-79248000D03*
D12*
X159004000Y-65536000D03*
X159004000Y-68076000D03*
X159004000Y-70616000D03*
X159004000Y-73156000D03*
X159004000Y-75696000D03*
X159004000Y-78236000D03*
X159004000Y-80776000D03*
X159004000Y-83316000D03*
X159004000Y-85856000D03*
D13*
X159004000Y-88396000D03*
X158990000Y-110236000D03*
D12*
X158990000Y-107696000D03*
X158990000Y-105156000D03*
X158990000Y-102616000D03*
X158990000Y-100076000D03*
X158990000Y-97536000D03*
X158990000Y-94996000D03*
X158990000Y-92456000D03*
X110490000Y-74676000D03*
X110490000Y-77216000D03*
X110490000Y-79756000D03*
X110490000Y-82296000D03*
X110490000Y-84836000D03*
X110490000Y-87376000D03*
X110490000Y-89916000D03*
X110490000Y-92456000D03*
X110490000Y-94996000D03*
X110490000Y-97536000D03*
X110490000Y-100076000D03*
X110490000Y-102616000D03*
X110490000Y-105156000D03*
X110490000Y-107696000D03*
D13*
X110490000Y-110236000D03*
D15*
X140970000Y-76708000D03*
X139954000Y-74676000D03*
X140970000Y-75692000D03*
X140970000Y-74676000D03*
X133096000Y-73152000D03*
X133858000Y-73152000D03*
X132588000Y-73660000D03*
X133604000Y-73660000D03*
X134366000Y-73660000D03*
X134620000Y-73152000D03*
X135128000Y-73660000D03*
X135382000Y-73152000D03*
X136144000Y-73152000D03*
X133858000Y-69596000D03*
X136652000Y-69342000D03*
X142002902Y-69910752D03*
X114911231Y-99464769D03*
X127000000Y-104394000D03*
X116840000Y-107696000D03*
X114554000Y-108712000D03*
X120650000Y-98298000D03*
X133858000Y-106680000D03*
X135128000Y-109728000D03*
X130048000Y-100076000D03*
X131318000Y-96682000D03*
X127000000Y-94742000D03*
X125984000Y-97790000D03*
X138684000Y-74168000D03*
X116678000Y-101600000D03*
X124964000Y-95762000D03*
X116678000Y-100422000D03*
X138684000Y-73152000D03*
X120142000Y-110744000D03*
X115824000Y-97536000D03*
X115824000Y-90932000D03*
X155956000Y-100838000D03*
X139446000Y-106934000D03*
X136398000Y-101346000D03*
X124968000Y-105664000D03*
X137252001Y-103470001D03*
X137414000Y-105664000D03*
X130302000Y-101346000D03*
X131318000Y-108458000D03*
X126492000Y-108712000D03*
X131572000Y-101600000D03*
X155956000Y-104902000D03*
X127508000Y-98806000D03*
X155956000Y-107696000D03*
X133096000Y-109728000D03*
X136398000Y-108712000D03*
X125222000Y-99822000D03*
X156210000Y-110236000D03*
X127762000Y-110236000D03*
X127508000Y-106680000D03*
X130048000Y-86360000D03*
X133096000Y-96774000D03*
X134020000Y-89662000D03*
X139192000Y-102616000D03*
X156615130Y-93623130D03*
X138938000Y-99616000D03*
X137668000Y-96774000D03*
X139446000Y-104648000D03*
X134874000Y-102362000D03*
X135636000Y-99584001D03*
X153162000Y-89408000D03*
X155286000Y-86268000D03*
X156210000Y-81026000D03*
X148082000Y-79756000D03*
X139700000Y-91440000D03*
X148082000Y-95504000D03*
X148082000Y-101086990D03*
X143510000Y-106172000D03*
X153162000Y-92710000D03*
X154940000Y-89408000D03*
X157480000Y-89408000D03*
X138938000Y-95758000D03*
X143510000Y-104394000D03*
X145542000Y-97028000D03*
X145542000Y-97536000D03*
X117094000Y-98298000D03*
X114300000Y-83820000D03*
X114300000Y-84836000D03*
X114300000Y-85852000D03*
X113284000Y-85852000D03*
X112268000Y-85852000D03*
X112268000Y-84836000D03*
X113284000Y-84836000D03*
X113284000Y-83820000D03*
X112268000Y-83820000D03*
X112268000Y-86868000D03*
X112268000Y-87884000D03*
X113284000Y-86868000D03*
X112776000Y-76200000D03*
X113792000Y-76200000D03*
X114808000Y-76200000D03*
X115824000Y-76200000D03*
X116840000Y-76200000D03*
X117856000Y-76200000D03*
X118872000Y-76200000D03*
X119888000Y-76200000D03*
X121412000Y-73406000D03*
X120396000Y-73406000D03*
X120396000Y-72390000D03*
X121412000Y-72390000D03*
X121412000Y-71374000D03*
X120396000Y-71374000D03*
X120396000Y-70358000D03*
X121412000Y-70358000D03*
X120904000Y-76200000D03*
X121920000Y-76200000D03*
X122936000Y-76200000D03*
X123952000Y-76200000D03*
X124968000Y-76200000D03*
X124968000Y-77216000D03*
X123952000Y-77216000D03*
X121920000Y-77216000D03*
X120904000Y-77216000D03*
X119888000Y-77216000D03*
X118872000Y-77216000D03*
X117856000Y-77216000D03*
X116840000Y-77216000D03*
X115824000Y-77216000D03*
X124460000Y-78232000D03*
X125476000Y-78232000D03*
X146050000Y-96520000D03*
X146812000Y-96520000D03*
X149098000Y-96266000D03*
X149860000Y-96266000D03*
X149606000Y-95504000D03*
X117856000Y-111506000D03*
X117094000Y-110744000D03*
X117094000Y-111506000D03*
X116332000Y-110744000D03*
X116332000Y-111506000D03*
X115570000Y-110744000D03*
X115570000Y-111506000D03*
X114808000Y-110744000D03*
X114808000Y-111506000D03*
X114046000Y-110744000D03*
X114046000Y-111506000D03*
X113284000Y-111506000D03*
X118618000Y-111506000D03*
X129032000Y-91440000D03*
X129794000Y-91440000D03*
X130556000Y-91440000D03*
X130556000Y-92202000D03*
X129794000Y-92202000D03*
X129032000Y-92202000D03*
X129032000Y-92964000D03*
X129794000Y-92964000D03*
X129032000Y-93726000D03*
X152908000Y-81026000D03*
X152654000Y-77724000D03*
X142840000Y-101762000D03*
X143488500Y-102129500D03*
X145796000Y-100584000D03*
X140716000Y-72644000D03*
X140716000Y-73406000D03*
X143764000Y-74422000D03*
X143764000Y-75184000D03*
X142240000Y-75184000D03*
X142240000Y-74422000D03*
X143002000Y-74422000D03*
X143002000Y-75184000D03*
X111760000Y-101346000D03*
X112268000Y-101854000D03*
X112268000Y-102616000D03*
X113030000Y-102616000D03*
X112776000Y-103378000D03*
X113538000Y-103378000D03*
X146812000Y-76708000D03*
X146812000Y-77470000D03*
X147574000Y-77470000D03*
X147574000Y-78232000D03*
X146812000Y-78232000D03*
X147066000Y-78994000D03*
X140208000Y-83058000D03*
X139700000Y-83058000D03*
X137922000Y-84836000D03*
X138684000Y-85598000D03*
X137160000Y-85344000D03*
X137922000Y-86106000D03*
X123190000Y-82550000D03*
X122174000Y-82550000D03*
X122682000Y-81788000D03*
X121666000Y-81788000D03*
X122174000Y-81026000D03*
X120904000Y-81280000D03*
X121412000Y-80518000D03*
X138938000Y-78994000D03*
X138938000Y-78232000D03*
X139700000Y-78232000D03*
X140462000Y-78232000D03*
X144272000Y-77978000D03*
X144780000Y-78486000D03*
X143764000Y-80156000D03*
X109474000Y-64516000D03*
X110236000Y-64516000D03*
X110998000Y-64516000D03*
X111760000Y-64516000D03*
X112522000Y-64516000D03*
X113284000Y-64516000D03*
X114046000Y-64516000D03*
X114808000Y-64516000D03*
X115570000Y-64516000D03*
X116332000Y-64516000D03*
X117094000Y-64516000D03*
X117856000Y-64516000D03*
X118618000Y-64516000D03*
X119380000Y-64516000D03*
X120142000Y-64516000D03*
X120142000Y-65278000D03*
X119380000Y-65278000D03*
X118618000Y-65278000D03*
X117856000Y-65278000D03*
X117094000Y-65278000D03*
X116332000Y-65278000D03*
X115570000Y-65278000D03*
X114808000Y-65278000D03*
X114046000Y-65278000D03*
X113284000Y-65278000D03*
X112522000Y-65278000D03*
X111760000Y-65278000D03*
X110998000Y-65278000D03*
X110236000Y-65278000D03*
X109474000Y-65278000D03*
X120396000Y-69342000D03*
X120396000Y-68326000D03*
X120396000Y-67310000D03*
X120396000Y-66294000D03*
X119380000Y-69596000D03*
X119380000Y-68580000D03*
X112268000Y-66294000D03*
X113284000Y-66294000D03*
X114300000Y-66294000D03*
X115316000Y-66294000D03*
X116332000Y-66294000D03*
X112268000Y-67310000D03*
X113284000Y-67310000D03*
X114300000Y-67310000D03*
X115316000Y-67310000D03*
X116332000Y-67310000D03*
X118364000Y-68580000D03*
X117348000Y-68580000D03*
X116332000Y-68580000D03*
X115316000Y-68580000D03*
X114300000Y-68580000D03*
X113284000Y-68580000D03*
X112268000Y-68580000D03*
X111252000Y-68580000D03*
X110236000Y-68580000D03*
X109474000Y-68580000D03*
X109474000Y-69596000D03*
X110236000Y-69596000D03*
X111252000Y-69596000D03*
X112268000Y-69596000D03*
X113284000Y-69596000D03*
X114300000Y-69596000D03*
X115316000Y-69596000D03*
X116332000Y-69596000D03*
X117348000Y-69596000D03*
X118364000Y-69596000D03*
X121412000Y-69342000D03*
X121412000Y-68326000D03*
X122428000Y-68326000D03*
X122428000Y-69342000D03*
X123444000Y-69850000D03*
X123444000Y-68834000D03*
X124460000Y-70104000D03*
X125222000Y-70104000D03*
X124460000Y-69088000D03*
X125222000Y-69088000D03*
X125222000Y-68072000D03*
X124206000Y-68072000D03*
X126238000Y-68072000D03*
X127254000Y-68072000D03*
X128524000Y-68072000D03*
X126238000Y-67056000D03*
X126238000Y-66040000D03*
X126238000Y-65024000D03*
X123190000Y-64516000D03*
X124206000Y-64516000D03*
X125222000Y-64516000D03*
X127254000Y-64516000D03*
X128270000Y-64516000D03*
X129286000Y-64516000D03*
X145796000Y-66040000D03*
X146558000Y-65278000D03*
X147320000Y-64516000D03*
X146558000Y-64516000D03*
X145796000Y-65278000D03*
X145796000Y-64516000D03*
X145034000Y-66040000D03*
X144272000Y-66040000D03*
X142748000Y-65532000D03*
X141732000Y-65532000D03*
X140462000Y-66802000D03*
X140462000Y-67818000D03*
X141732000Y-64516000D03*
X142748000Y-64516000D03*
X145034000Y-65278000D03*
X144272000Y-65278000D03*
X148336000Y-64516000D03*
X145034000Y-64516000D03*
X144272000Y-64516000D03*
X143510000Y-64516000D03*
X143510000Y-65532000D03*
X149098000Y-64516000D03*
X149860000Y-64516000D03*
X150622000Y-64516000D03*
X151384000Y-64516000D03*
X152146000Y-64516000D03*
X152908000Y-64516000D03*
X153670000Y-64516000D03*
X154432000Y-64516000D03*
X155194000Y-64516000D03*
X155956000Y-64516000D03*
X156718000Y-64516000D03*
X157480000Y-64516000D03*
X157226000Y-69342000D03*
X157226000Y-70104000D03*
X157226000Y-70866000D03*
X157226000Y-71628000D03*
X157226000Y-72390000D03*
X157226000Y-73152000D03*
X157226000Y-73914000D03*
X157226000Y-74676000D03*
X157226000Y-75438000D03*
X157226000Y-76200000D03*
X157226000Y-76962000D03*
X156464000Y-76962000D03*
X155702000Y-76962000D03*
X154940000Y-76962000D03*
X154178000Y-76962000D03*
X153416000Y-76962000D03*
X152654000Y-76962000D03*
X152654000Y-76200000D03*
X152654000Y-75438000D03*
X152654000Y-74676000D03*
X152654000Y-73914000D03*
X152654000Y-73152000D03*
X152654000Y-72390000D03*
X152654000Y-71628000D03*
X152654000Y-70866000D03*
X152654000Y-70104000D03*
X152654000Y-69342000D03*
X153416000Y-69342000D03*
X154178000Y-69342000D03*
X154940000Y-69342000D03*
X155702000Y-69342000D03*
X156464000Y-69342000D03*
X154178000Y-70104000D03*
X155702000Y-70104000D03*
X154940000Y-70104000D03*
X156464000Y-70104000D03*
X153416000Y-70104000D03*
X154178000Y-70866000D03*
X155702000Y-70866000D03*
X156464000Y-70866000D03*
X154940000Y-70866000D03*
X153416000Y-70866000D03*
X156464000Y-71628000D03*
X154178000Y-71628000D03*
X153416000Y-71628000D03*
X154940000Y-71628000D03*
X155702000Y-71628000D03*
X153416000Y-72390000D03*
X156464000Y-72390000D03*
X154178000Y-72390000D03*
X154940000Y-72390000D03*
X155702000Y-72390000D03*
X155702000Y-73152000D03*
X154940000Y-73152000D03*
X156464000Y-73152000D03*
X154178000Y-73152000D03*
X153416000Y-73152000D03*
X153416000Y-73914000D03*
X156464000Y-73914000D03*
X155702000Y-73914000D03*
X154940000Y-73914000D03*
X154178000Y-73914000D03*
X154178000Y-74676000D03*
X155702000Y-74676000D03*
X153416000Y-74676000D03*
X156464000Y-74676000D03*
X154940000Y-74676000D03*
X156464000Y-75438000D03*
X153416000Y-75438000D03*
X154178000Y-75438000D03*
X154940000Y-75438000D03*
X155702000Y-75438000D03*
X153416000Y-76200000D03*
X154178000Y-76200000D03*
X156464000Y-76200000D03*
X155702000Y-76200000D03*
X154940000Y-76200000D03*
X151892000Y-70866000D03*
X151892000Y-70104000D03*
X151892000Y-71628000D03*
X151892000Y-69342000D03*
X151892000Y-75438000D03*
X151892000Y-74676000D03*
X151892000Y-73914000D03*
X151892000Y-73152000D03*
X151892000Y-76200000D03*
X151892000Y-72390000D03*
X152654000Y-78486000D03*
X153416000Y-78486000D03*
X153416000Y-77724000D03*
X154178000Y-77724000D03*
X152908000Y-81788000D03*
X152908000Y-82550000D03*
X152908000Y-83312000D03*
X152908000Y-84074000D03*
X152146000Y-83566000D03*
X152146000Y-84328000D03*
X151384000Y-83566000D03*
X151384000Y-84328000D03*
X150622000Y-84328000D03*
X148082000Y-69342000D03*
X148082000Y-70104000D03*
X148082000Y-70866000D03*
X148844000Y-70104000D03*
X149606000Y-70104000D03*
X150368000Y-70104000D03*
X151130000Y-70104000D03*
X148844000Y-69342000D03*
X148844000Y-70866000D03*
X147320000Y-69596000D03*
X151130000Y-74676000D03*
X150368000Y-74676000D03*
X149606000Y-74676000D03*
X148844000Y-74676000D03*
X149606000Y-75438000D03*
X150368000Y-75438000D03*
X151130000Y-75438000D03*
X151130000Y-76200000D03*
X150368000Y-76200000D03*
X154432000Y-92710000D03*
X155194000Y-92710000D03*
X155194000Y-93472000D03*
X154432000Y-93472000D03*
X155194000Y-94234000D03*
X154432000Y-94234000D03*
X154940000Y-94996000D03*
X153924000Y-96012000D03*
X153924000Y-95250000D03*
X154940000Y-95758000D03*
X150622000Y-97282000D03*
X152908000Y-97282000D03*
X117094000Y-97536000D03*
X117094000Y-96774000D03*
X117602000Y-96012000D03*
X116840000Y-96012000D03*
X116840000Y-95250000D03*
X117602000Y-95250000D03*
X116840000Y-94488000D03*
X117602000Y-94488000D03*
X116840000Y-93726000D03*
X117602000Y-93726000D03*
X117602000Y-92964000D03*
X116840000Y-92964000D03*
X116840000Y-92202000D03*
X117602000Y-92202000D03*
X117602000Y-91440000D03*
X116840000Y-91440000D03*
X117348000Y-90678000D03*
X118364000Y-91694000D03*
X118364000Y-92456000D03*
X118364000Y-93218000D03*
X118364000Y-93980000D03*
X118364000Y-94742000D03*
X119126000Y-92202000D03*
X119126000Y-92964000D03*
X119126000Y-93726000D03*
X119126000Y-94488000D03*
X119888000Y-92964000D03*
X119888000Y-93726000D03*
X120650000Y-93218000D03*
X121412000Y-93218000D03*
X122174000Y-93218000D03*
X122936000Y-93218000D03*
X123698000Y-93218000D03*
X135128000Y-89916000D03*
X135128000Y-89154000D03*
X135128000Y-88392000D03*
X135128000Y-87630000D03*
X135128000Y-86868000D03*
X137668000Y-66294000D03*
X136906000Y-66294000D03*
X136144000Y-66294000D03*
X135382000Y-66294000D03*
X134620000Y-66294000D03*
X133858000Y-66294000D03*
X134112000Y-83058000D03*
X134874000Y-83058000D03*
X134874000Y-82296000D03*
X134112000Y-82296000D03*
X135636000Y-81534000D03*
X134620000Y-81534000D03*
X134874000Y-80772000D03*
X135636000Y-80772000D03*
X135636000Y-80010000D03*
X117094000Y-86614000D03*
X117856000Y-86614000D03*
X117856000Y-85852000D03*
X117094000Y-85852000D03*
X117094000Y-85090000D03*
X117856000Y-85090000D03*
X117094000Y-84328000D03*
X123952000Y-84836000D03*
X123952000Y-83820000D03*
X127762000Y-82804000D03*
X137414000Y-100838000D03*
X132588000Y-95504000D03*
X127762000Y-93980000D03*
X126238000Y-92202000D03*
X119126000Y-90678000D03*
X137922000Y-97790000D03*
X136398000Y-95250000D03*
X149352000Y-100584000D03*
X145288000Y-105664000D03*
X151384000Y-103886000D03*
X151384000Y-100584000D03*
D16*
X136398000Y-69596000D02*
X136652000Y-69342000D01*
X133858000Y-69596000D02*
X136398000Y-69596000D01*
D17*
X137220752Y-69910752D02*
X136652000Y-69342000D01*
X142002902Y-69910752D02*
X137220752Y-69910752D01*
X120142000Y-104394000D02*
X116840000Y-107696000D01*
X114554000Y-99822000D02*
X114911231Y-99464769D01*
X114554000Y-108712000D02*
X114554000Y-99822000D01*
X120142000Y-104394000D02*
X127000000Y-104394000D01*
X125222000Y-93726000D02*
X120650000Y-98298000D01*
X125222000Y-91948000D02*
X125222000Y-93726000D01*
X125222000Y-89662000D02*
X125222000Y-91948000D01*
X135128000Y-107950000D02*
X133858000Y-106680000D01*
X135128000Y-109728000D02*
X135128000Y-107950000D01*
X130048000Y-97952000D02*
X131318000Y-96682000D01*
X130048000Y-100076000D02*
X130048000Y-97952000D01*
X126238000Y-94742000D02*
X125222000Y-93726000D01*
X127000000Y-94742000D02*
X126238000Y-94742000D01*
X125984000Y-97790000D02*
X121986699Y-101787301D01*
X121666000Y-102108000D02*
X118872000Y-102108000D01*
X121986699Y-101787301D02*
X121666000Y-102108000D01*
X138684000Y-75438000D02*
X138684000Y-74168000D01*
X133096000Y-81026000D02*
X138684000Y-75438000D01*
X133096000Y-93218000D02*
X133096000Y-81026000D01*
X128524000Y-97790000D02*
X133096000Y-93218000D01*
X125984000Y-97790000D02*
X128524000Y-97790000D01*
X117186000Y-102108000D02*
X116678000Y-101600000D01*
X118872000Y-102108000D02*
X117186000Y-102108000D01*
X124964000Y-97166966D02*
X122562966Y-99568000D01*
X124964000Y-95762000D02*
X124964000Y-97166966D01*
X117532000Y-99568000D02*
X116678000Y-100422000D01*
X122562966Y-99568000D02*
X117532000Y-99568000D01*
X133350000Y-74676000D02*
X132080000Y-75946000D01*
X136144000Y-74676000D02*
X133350000Y-74676000D01*
X137668000Y-73152000D02*
X136144000Y-74676000D01*
X138684000Y-73152000D02*
X137668000Y-73152000D01*
X132080000Y-89916000D02*
X132080000Y-90401202D01*
X132080000Y-75946000D02*
X132080000Y-89916000D01*
X132080000Y-91694000D02*
X132080000Y-89916000D01*
X132080000Y-92456000D02*
X132080000Y-91694000D01*
X128774000Y-95762000D02*
X132080000Y-92456000D01*
X124964000Y-95762000D02*
X128774000Y-95762000D01*
X113792000Y-79756000D02*
X110490000Y-79756000D01*
X115824000Y-81788000D02*
X113792000Y-79756000D01*
X118618000Y-110744000D02*
X115824000Y-107950000D01*
X120142000Y-110744000D02*
X118618000Y-110744000D01*
X115824000Y-107950000D02*
X115824000Y-97536000D01*
X115824000Y-90932000D02*
X115824000Y-81788000D01*
X152053999Y-104740001D02*
X149005999Y-104740001D01*
X155956000Y-100838000D02*
X152053999Y-104740001D01*
X139538001Y-107026001D02*
X139446000Y-106934000D01*
X146719999Y-107026001D02*
X139538001Y-107026001D01*
X149005999Y-104740001D02*
X146719999Y-107026001D01*
X155857921Y-91601999D02*
X148682001Y-91601999D01*
X157685999Y-93430077D02*
X155857921Y-91601999D01*
X157685999Y-93691999D02*
X157685999Y-93430077D01*
X158990000Y-94996000D02*
X157685999Y-93691999D01*
X136744001Y-101692001D02*
X136398000Y-101346000D01*
X138591999Y-101692001D02*
X136744001Y-101692001D01*
X148682001Y-91601999D02*
X138591999Y-101692001D01*
X158990000Y-100076000D02*
X160531990Y-101617990D01*
X160531990Y-111756010D02*
X160524010Y-111763990D01*
X160531990Y-101617990D02*
X160531990Y-111756010D01*
X125730000Y-110236000D02*
X125222000Y-109728000D01*
X125222000Y-109728000D02*
X125222000Y-105918000D01*
X125222000Y-105918000D02*
X124968000Y-105664000D01*
X125730000Y-110236000D02*
X126492000Y-110998000D01*
X126492000Y-110998000D02*
X126746000Y-111252000D01*
X160531990Y-111756010D02*
X142744010Y-111756010D01*
X141751999Y-110763999D02*
X137140001Y-110763999D01*
X142744010Y-111756010D02*
X141751999Y-110763999D01*
X137140001Y-110763999D02*
X136144000Y-111760000D01*
X127254000Y-111760000D02*
X126746000Y-111252000D01*
X136144000Y-111760000D02*
X127254000Y-111760000D01*
X156103999Y-99729999D02*
X147920001Y-99729999D01*
X158990000Y-102616000D02*
X156103999Y-99729999D01*
X144179999Y-103470001D02*
X137252001Y-103470001D01*
X147920001Y-99729999D02*
X144179999Y-103470001D01*
X137252001Y-103470001D02*
X137252001Y-103470001D01*
X136848315Y-105664000D02*
X132842000Y-101657685D01*
X137414000Y-105664000D02*
X136848315Y-105664000D01*
X130902001Y-100745999D02*
X130302000Y-101346000D01*
X131930314Y-100745999D02*
X130902001Y-100745999D01*
X132842000Y-101657685D02*
X131930314Y-100745999D01*
X131064000Y-108712000D02*
X131318000Y-108458000D01*
X126492000Y-108712000D02*
X131064000Y-108712000D01*
X154686000Y-104902000D02*
X155956000Y-104902000D01*
X153162000Y-106426000D02*
X154686000Y-104902000D01*
X147574000Y-107950000D02*
X149098000Y-106426000D01*
X137160000Y-107950000D02*
X147574000Y-107950000D01*
X131572000Y-102362000D02*
X137160000Y-107950000D01*
X149098000Y-106426000D02*
X153162000Y-106426000D01*
X131572000Y-101600000D02*
X131572000Y-102362000D01*
X155956000Y-107696000D02*
X155448000Y-108204000D01*
X132696001Y-109328001D02*
X132696001Y-107550001D01*
X133096000Y-109728000D02*
X132696001Y-109328001D01*
X132696001Y-107550001D02*
X132334000Y-107188000D01*
X132334000Y-107188000D02*
X130302000Y-107188000D01*
X130302000Y-107188000D02*
X130048000Y-106934000D01*
X130048000Y-106934000D02*
X130048000Y-102616000D01*
X127508000Y-100076000D02*
X127508000Y-98806000D01*
X130048000Y-102616000D02*
X127508000Y-100076000D01*
X154940000Y-108712000D02*
X155448000Y-108204000D01*
X136398000Y-108712000D02*
X154940000Y-108712000D01*
X156210000Y-110236000D02*
X155702000Y-109728000D01*
X128108001Y-110582001D02*
X127762000Y-110236000D01*
X135537921Y-110582001D02*
X128108001Y-110582001D01*
X136391922Y-109728000D02*
X135537921Y-110582001D01*
X155702000Y-109728000D02*
X136391922Y-109728000D01*
X127508000Y-106680000D02*
X128524000Y-105664000D01*
X128524000Y-103124000D02*
X125222000Y-99822000D01*
X128524000Y-105664000D02*
X128524000Y-103124000D01*
D18*
X125476000Y-74676000D02*
X110490000Y-74676000D01*
X130048000Y-79248000D02*
X125476000Y-74676000D01*
X130048000Y-86360000D02*
X130048000Y-79248000D01*
D17*
X134020000Y-95850000D02*
X134020000Y-89662000D01*
X133096000Y-96774000D02*
X134020000Y-95850000D01*
X139192000Y-102616000D02*
X143002000Y-98806000D01*
X143002000Y-98806000D02*
X149098000Y-98806000D01*
X149098000Y-98806000D02*
X150114000Y-98806000D01*
X150114000Y-98806000D02*
X155448000Y-98806000D01*
X156615130Y-97638870D02*
X156615130Y-93623130D01*
X155448000Y-98806000D02*
X156615130Y-97638870D01*
X138938000Y-99616000D02*
X148130000Y-90424000D01*
X159493202Y-90424000D02*
X160531990Y-89385212D01*
X148130000Y-90424000D02*
X159493202Y-90424000D01*
X160531990Y-77223990D02*
X159004000Y-75696000D01*
X160531990Y-89385212D02*
X160531990Y-77223990D01*
X137668000Y-95764078D02*
X146056078Y-87376000D01*
X137668000Y-96774000D02*
X137668000Y-95764078D01*
X146056078Y-87376000D02*
X153162000Y-87376000D01*
X153162000Y-87376000D02*
X154432000Y-86106000D01*
X154432000Y-86106000D02*
X154432000Y-79502000D01*
X155698000Y-78236000D02*
X159004000Y-78236000D01*
X154432000Y-79502000D02*
X155698000Y-78236000D01*
X137160000Y-104648000D02*
X134874000Y-102362000D01*
X139446000Y-104648000D02*
X137160000Y-104648000D01*
X147882078Y-89408000D02*
X153162000Y-89408000D01*
X137706077Y-99584001D02*
X147882078Y-89408000D01*
X135636000Y-99584001D02*
X137706077Y-99584001D01*
X157984000Y-79756000D02*
X159004000Y-80776000D01*
X155286000Y-80426000D02*
X155956000Y-79756000D01*
X155956000Y-79756000D02*
X157984000Y-79756000D01*
X155286000Y-86268000D02*
X155286000Y-80426000D01*
D19*
X158500000Y-83316000D02*
X156210000Y-81026000D01*
X159004000Y-83316000D02*
X158500000Y-83316000D01*
X148082000Y-81026000D02*
X140208000Y-88900000D01*
X148082000Y-79756000D02*
X148082000Y-81026000D01*
D17*
X139700000Y-89408000D02*
X140208000Y-88900000D01*
X139700000Y-91440000D02*
X139700000Y-89408000D01*
X143510000Y-105658990D02*
X143510000Y-106172000D01*
X148082000Y-101086990D02*
X143510000Y-105658990D01*
X150876000Y-92710000D02*
X148082000Y-95504000D01*
X153162000Y-92710000D02*
X150876000Y-92710000D01*
X154940000Y-89408000D02*
X157480000Y-89408000D01*
X146300000Y-88396000D02*
X159004000Y-88396000D01*
X138938000Y-95758000D02*
X146300000Y-88396000D01*
D20*
X127762000Y-89662000D02*
X127762000Y-84836000D01*
X122174000Y-79248000D02*
X119126000Y-79248000D01*
X127762000Y-84836000D02*
X122174000Y-79248000D01*
D19*
X140208000Y-83058000D02*
X139700000Y-83058000D01*
X139700000Y-83058000D02*
X137922000Y-84836000D01*
X137668000Y-84836000D02*
X137160000Y-85344000D01*
X137922000Y-84836000D02*
X137668000Y-84836000D01*
X137922000Y-86106000D02*
X137160000Y-85344000D01*
X138176000Y-86106000D02*
X138684000Y-85598000D01*
X137922000Y-86106000D02*
X138176000Y-86106000D01*
X137922000Y-84836000D02*
X138684000Y-85598000D01*
X137922000Y-86106000D02*
X137922000Y-84836000D01*
D17*
X138938000Y-78994000D02*
X138938000Y-78232000D01*
X139700000Y-78232000D02*
X140462000Y-78232000D01*
X137668000Y-66294000D02*
X133858000Y-66294000D01*
X137014001Y-100438001D02*
X135236001Y-100438001D01*
X137414000Y-100838000D02*
X137014001Y-100438001D01*
X132241999Y-95850001D02*
X132588000Y-95504000D01*
X132241999Y-97443999D02*
X132241999Y-95850001D01*
X135236001Y-100438001D02*
X132241999Y-97443999D01*
X127762000Y-93726000D02*
X126238000Y-92202000D01*
X127762000Y-93980000D02*
X127762000Y-93726000D01*
X119126000Y-84088724D02*
X117094000Y-82056724D01*
X119126000Y-90678000D02*
X119126000Y-84088724D01*
X117094000Y-82056724D02*
X117094000Y-80010000D01*
X114300000Y-77216000D02*
X110490000Y-77216000D01*
X117094000Y-80010000D02*
X114300000Y-77216000D01*
X136305999Y-83912001D02*
X144780000Y-75438000D01*
X148078000Y-65536000D02*
X148086000Y-65536000D01*
X136305999Y-91855999D02*
X136305999Y-83912001D01*
X148086000Y-65536000D02*
X159004000Y-65536000D01*
X144780000Y-68834000D02*
X148078000Y-65536000D01*
X136398000Y-91948000D02*
X136305999Y-91855999D01*
X135543999Y-92802001D02*
X136398000Y-91948000D01*
X144780000Y-75438000D02*
X144780000Y-68834000D01*
X135543999Y-96427999D02*
X135543999Y-92802001D01*
X136906000Y-97790000D02*
X135543999Y-96427999D01*
X137922000Y-97790000D02*
X136906000Y-97790000D01*
X147062000Y-68076000D02*
X159004000Y-68076000D01*
X145796000Y-69342000D02*
X147062000Y-68076000D01*
X145796000Y-80264000D02*
X145796000Y-69342000D01*
X138684000Y-87376000D02*
X145796000Y-80264000D01*
X138684000Y-92964000D02*
X138684000Y-87376000D01*
X136398000Y-95250000D02*
X138684000Y-92964000D01*
D16*
X149352000Y-101600000D02*
X149352000Y-100584000D01*
X145288000Y-105664000D02*
X149352000Y-101600000D01*
X151384000Y-103886000D02*
X151384000Y-100584000D01*
X126492001Y-85362052D02*
X126492000Y-88889760D01*
X126375475Y-88715368D01*
X126168632Y-88508525D01*
X125925411Y-88346010D01*
X125655158Y-88234068D01*
X125368260Y-88177000D01*
X125075740Y-88177000D01*
X124788842Y-88234068D01*
X124518589Y-88346010D01*
X124275368Y-88508525D01*
X124068525Y-88715368D01*
X123952000Y-88889760D01*
X123835475Y-88715368D01*
X123628632Y-88508525D01*
X123385411Y-88346010D01*
X123115158Y-88234068D01*
X122828260Y-88177000D01*
X122535740Y-88177000D01*
X122248842Y-88234068D01*
X121978589Y-88346010D01*
X121735368Y-88508525D01*
X121528525Y-88715368D01*
X121366010Y-88958589D01*
X121254068Y-89228842D01*
X121197000Y-89515740D01*
X121197000Y-89808260D01*
X121254068Y-90095158D01*
X121366010Y-90365411D01*
X121528525Y-90608632D01*
X121735368Y-90815475D01*
X121978589Y-90977990D01*
X122248842Y-91089932D01*
X122535740Y-91147000D01*
X122828260Y-91147000D01*
X123115158Y-91089932D01*
X123385411Y-90977990D01*
X123628632Y-90815475D01*
X123835475Y-90608632D01*
X123952000Y-90434240D01*
X124068525Y-90608632D01*
X124275368Y-90815475D01*
X124333001Y-90853984D01*
X124333001Y-91904324D01*
X124333000Y-91904334D01*
X124333001Y-93357764D01*
X120397895Y-97292870D01*
X120348102Y-97302774D01*
X120159744Y-97380795D01*
X119990226Y-97494063D01*
X119846063Y-97638226D01*
X119732795Y-97807744D01*
X119654774Y-97996102D01*
X119615000Y-98196061D01*
X119615000Y-98399939D01*
X119654774Y-98599898D01*
X119687539Y-98679000D01*
X117575659Y-98679000D01*
X117531999Y-98674700D01*
X117488339Y-98679000D01*
X117488333Y-98679000D01*
X117390924Y-98688594D01*
X117357724Y-98691864D01*
X117258323Y-98722017D01*
X117190149Y-98742697D01*
X117035709Y-98825247D01*
X116900341Y-98936341D01*
X116872501Y-98970264D01*
X116713000Y-99129765D01*
X116713000Y-98068468D01*
X116741205Y-98026256D01*
X116819226Y-97837898D01*
X116859000Y-97637939D01*
X116859000Y-97434061D01*
X116819226Y-97234102D01*
X116741205Y-97045744D01*
X116627937Y-96876226D01*
X116483774Y-96732063D01*
X116314256Y-96618795D01*
X116125898Y-96540774D01*
X115925939Y-96501000D01*
X115722061Y-96501000D01*
X115522102Y-96540774D01*
X115333744Y-96618795D01*
X115164226Y-96732063D01*
X115020063Y-96876226D01*
X114906795Y-97045744D01*
X114828774Y-97234102D01*
X114789000Y-97434061D01*
X114789000Y-97637939D01*
X114828774Y-97837898D01*
X114906795Y-98026256D01*
X114935001Y-98068469D01*
X114935001Y-98429769D01*
X114809292Y-98429769D01*
X114609333Y-98469543D01*
X114420975Y-98547564D01*
X114251457Y-98660832D01*
X114107294Y-98804995D01*
X113994026Y-98974513D01*
X113916005Y-99162871D01*
X113906766Y-99209321D01*
X113894507Y-99224258D01*
X113894505Y-99224260D01*
X113811248Y-99325709D01*
X113728698Y-99480148D01*
X113677864Y-99647726D01*
X113660700Y-99822000D01*
X113665001Y-99865670D01*
X113665000Y-108179532D01*
X113636795Y-108221744D01*
X113558774Y-108410102D01*
X113519000Y-108610061D01*
X113519000Y-108813939D01*
X113558774Y-109013898D01*
X113636795Y-109202256D01*
X113750063Y-109371774D01*
X113894226Y-109515937D01*
X114063744Y-109629205D01*
X114252102Y-109707226D01*
X114452061Y-109747000D01*
X114655939Y-109747000D01*
X114855898Y-109707226D01*
X115044256Y-109629205D01*
X115213774Y-109515937D01*
X115357937Y-109371774D01*
X115471205Y-109202256D01*
X115549226Y-109013898D01*
X115562737Y-108945972D01*
X117958506Y-111341742D01*
X117986341Y-111375659D01*
X118121709Y-111486753D01*
X118276149Y-111569303D01*
X118321303Y-111583000D01*
X111735359Y-111583000D01*
X111791185Y-111537185D01*
X111870537Y-111440494D01*
X111929502Y-111330180D01*
X111965812Y-111210482D01*
X111978072Y-111086000D01*
X111978072Y-109386000D01*
X111965812Y-109261518D01*
X111929502Y-109141820D01*
X111870537Y-109031506D01*
X111791185Y-108934815D01*
X111694494Y-108855463D01*
X111584180Y-108796498D01*
X111511620Y-108774487D01*
X111643475Y-108642632D01*
X111805990Y-108399411D01*
X111917932Y-108129158D01*
X111975000Y-107842260D01*
X111975000Y-107549740D01*
X111917932Y-107262842D01*
X111805990Y-106992589D01*
X111643475Y-106749368D01*
X111436632Y-106542525D01*
X111262240Y-106426000D01*
X111436632Y-106309475D01*
X111643475Y-106102632D01*
X111805990Y-105859411D01*
X111917932Y-105589158D01*
X111975000Y-105302260D01*
X111975000Y-105009740D01*
X111917932Y-104722842D01*
X111805990Y-104452589D01*
X111643475Y-104209368D01*
X111436632Y-104002525D01*
X111262240Y-103886000D01*
X111436632Y-103769475D01*
X111643475Y-103562632D01*
X111805990Y-103319411D01*
X111917932Y-103049158D01*
X111975000Y-102762260D01*
X111975000Y-102469740D01*
X111917932Y-102182842D01*
X111805990Y-101912589D01*
X111643475Y-101669368D01*
X111436632Y-101462525D01*
X111262240Y-101346000D01*
X111436632Y-101229475D01*
X111643475Y-101022632D01*
X111805990Y-100779411D01*
X111917932Y-100509158D01*
X111975000Y-100222260D01*
X111975000Y-99929740D01*
X111917932Y-99642842D01*
X111805990Y-99372589D01*
X111643475Y-99129368D01*
X111436632Y-98922525D01*
X111262240Y-98806000D01*
X111436632Y-98689475D01*
X111643475Y-98482632D01*
X111805990Y-98239411D01*
X111917932Y-97969158D01*
X111975000Y-97682260D01*
X111975000Y-97389740D01*
X111917932Y-97102842D01*
X111805990Y-96832589D01*
X111643475Y-96589368D01*
X111436632Y-96382525D01*
X111262240Y-96266000D01*
X111436632Y-96149475D01*
X111643475Y-95942632D01*
X111805990Y-95699411D01*
X111827833Y-95646675D01*
X117741700Y-95646675D01*
X117741700Y-95869325D01*
X117785137Y-96087696D01*
X117870341Y-96293398D01*
X117994039Y-96478524D01*
X118151476Y-96635961D01*
X118336602Y-96759659D01*
X118542304Y-96844863D01*
X118760675Y-96888300D01*
X118983325Y-96888300D01*
X119201696Y-96844863D01*
X119407398Y-96759659D01*
X119592524Y-96635961D01*
X119749961Y-96478524D01*
X119873659Y-96293398D01*
X119958863Y-96087696D01*
X120002300Y-95869325D01*
X120002300Y-95646675D01*
X119958863Y-95428304D01*
X119873659Y-95222602D01*
X119749961Y-95037476D01*
X119592524Y-94880039D01*
X119407398Y-94756341D01*
X119201696Y-94671137D01*
X118983325Y-94627700D01*
X118760675Y-94627700D01*
X118542304Y-94671137D01*
X118336602Y-94756341D01*
X118151476Y-94880039D01*
X117994039Y-95037476D01*
X117870341Y-95222602D01*
X117785137Y-95428304D01*
X117741700Y-95646675D01*
X111827833Y-95646675D01*
X111917932Y-95429158D01*
X111975000Y-95142260D01*
X111975000Y-94849740D01*
X111917932Y-94562842D01*
X111805990Y-94292589D01*
X111643475Y-94049368D01*
X111436632Y-93842525D01*
X111262240Y-93726000D01*
X111436632Y-93609475D01*
X111643475Y-93402632D01*
X111805990Y-93159411D01*
X111917932Y-92889158D01*
X111975000Y-92602260D01*
X111975000Y-92309740D01*
X111917932Y-92022842D01*
X111805990Y-91752589D01*
X111643475Y-91509368D01*
X111436632Y-91302525D01*
X111254466Y-91180805D01*
X111371355Y-91111178D01*
X111587588Y-90916269D01*
X111761641Y-90682920D01*
X111886825Y-90420099D01*
X111931476Y-90272890D01*
X111810155Y-90043000D01*
X110617000Y-90043000D01*
X110617000Y-90063000D01*
X110363000Y-90063000D01*
X110363000Y-90043000D01*
X110343000Y-90043000D01*
X110343000Y-89789000D01*
X110363000Y-89789000D01*
X110363000Y-87503000D01*
X110617000Y-87503000D01*
X110617000Y-89789000D01*
X111810155Y-89789000D01*
X111931476Y-89559110D01*
X111886825Y-89411901D01*
X111761641Y-89149080D01*
X111587588Y-88915731D01*
X111371355Y-88720822D01*
X111245745Y-88646000D01*
X111371355Y-88571178D01*
X111587588Y-88376269D01*
X111761641Y-88142920D01*
X111886825Y-87880099D01*
X111931476Y-87732890D01*
X111810155Y-87503000D01*
X110617000Y-87503000D01*
X110363000Y-87503000D01*
X110343000Y-87503000D01*
X110343000Y-87249000D01*
X110363000Y-87249000D01*
X110363000Y-87229000D01*
X110617000Y-87229000D01*
X110617000Y-87249000D01*
X111810155Y-87249000D01*
X111931476Y-87019110D01*
X111886825Y-86871901D01*
X111761641Y-86609080D01*
X111587588Y-86375731D01*
X111371355Y-86180822D01*
X111254466Y-86111195D01*
X111436632Y-85989475D01*
X111643475Y-85782632D01*
X111805990Y-85539411D01*
X111917932Y-85269158D01*
X111975000Y-84982260D01*
X111975000Y-84689740D01*
X111917932Y-84402842D01*
X111805990Y-84132589D01*
X111643475Y-83889368D01*
X111436632Y-83682525D01*
X111262240Y-83566000D01*
X111436632Y-83449475D01*
X111643475Y-83242632D01*
X111805990Y-82999411D01*
X111917932Y-82729158D01*
X111975000Y-82442260D01*
X111975000Y-82149740D01*
X111917932Y-81862842D01*
X111805990Y-81592589D01*
X111643475Y-81349368D01*
X111436632Y-81142525D01*
X111262240Y-81026000D01*
X111436632Y-80909475D01*
X111643475Y-80702632D01*
X111681983Y-80645000D01*
X113423765Y-80645000D01*
X114935001Y-82156237D01*
X114935000Y-90399532D01*
X114906795Y-90441744D01*
X114828774Y-90630102D01*
X114789000Y-90830061D01*
X114789000Y-91033939D01*
X114828774Y-91233898D01*
X114906795Y-91422256D01*
X115020063Y-91591774D01*
X115164226Y-91735937D01*
X115333744Y-91849205D01*
X115522102Y-91927226D01*
X115722061Y-91967000D01*
X115925939Y-91967000D01*
X116125898Y-91927226D01*
X116314256Y-91849205D01*
X116483774Y-91735937D01*
X116627937Y-91591774D01*
X116741205Y-91422256D01*
X116819226Y-91233898D01*
X116859000Y-91033939D01*
X116859000Y-90830061D01*
X116819226Y-90630102D01*
X116741205Y-90441744D01*
X116713000Y-90399532D01*
X116713000Y-82932959D01*
X118237001Y-84456961D01*
X118237000Y-90145532D01*
X118208795Y-90187744D01*
X118130774Y-90376102D01*
X118091000Y-90576061D01*
X118091000Y-90779939D01*
X118130774Y-90979898D01*
X118208795Y-91168256D01*
X118322063Y-91337774D01*
X118466226Y-91481937D01*
X118635744Y-91595205D01*
X118824102Y-91673226D01*
X119024061Y-91713000D01*
X119227939Y-91713000D01*
X119427898Y-91673226D01*
X119616256Y-91595205D01*
X119785774Y-91481937D01*
X119929937Y-91337774D01*
X120043205Y-91168256D01*
X120121226Y-90979898D01*
X120161000Y-90779939D01*
X120161000Y-90576061D01*
X120121226Y-90376102D01*
X120043205Y-90187744D01*
X120015000Y-90145532D01*
X120015000Y-84132384D01*
X120019300Y-84088724D01*
X120015000Y-84045064D01*
X120015000Y-84045057D01*
X120002136Y-83914450D01*
X119951303Y-83746873D01*
X119868753Y-83592433D01*
X119757659Y-83457065D01*
X119723742Y-83429230D01*
X119390962Y-83096450D01*
X119515405Y-83071696D01*
X119758359Y-82971061D01*
X119977013Y-82824962D01*
X120162962Y-82639013D01*
X120309061Y-82420359D01*
X120409696Y-82177405D01*
X120461000Y-81919486D01*
X120461000Y-81656514D01*
X120409696Y-81398595D01*
X120309061Y-81155641D01*
X120162962Y-80936987D01*
X119977013Y-80751038D01*
X119758359Y-80604939D01*
X119548470Y-80518000D01*
X121647950Y-80518000D01*
X126492001Y-85362052D01*
G04 #@! TA.AperFunction,Conductor*
D21*
G36*
X126492001Y-85362052D02*
G01*
X126492000Y-88889760D01*
X126375475Y-88715368D01*
X126168632Y-88508525D01*
X125925411Y-88346010D01*
X125655158Y-88234068D01*
X125368260Y-88177000D01*
X125075740Y-88177000D01*
X124788842Y-88234068D01*
X124518589Y-88346010D01*
X124275368Y-88508525D01*
X124068525Y-88715368D01*
X123952000Y-88889760D01*
X123835475Y-88715368D01*
X123628632Y-88508525D01*
X123385411Y-88346010D01*
X123115158Y-88234068D01*
X122828260Y-88177000D01*
X122535740Y-88177000D01*
X122248842Y-88234068D01*
X121978589Y-88346010D01*
X121735368Y-88508525D01*
X121528525Y-88715368D01*
X121366010Y-88958589D01*
X121254068Y-89228842D01*
X121197000Y-89515740D01*
X121197000Y-89808260D01*
X121254068Y-90095158D01*
X121366010Y-90365411D01*
X121528525Y-90608632D01*
X121735368Y-90815475D01*
X121978589Y-90977990D01*
X122248842Y-91089932D01*
X122535740Y-91147000D01*
X122828260Y-91147000D01*
X123115158Y-91089932D01*
X123385411Y-90977990D01*
X123628632Y-90815475D01*
X123835475Y-90608632D01*
X123952000Y-90434240D01*
X124068525Y-90608632D01*
X124275368Y-90815475D01*
X124333001Y-90853984D01*
X124333001Y-91904324D01*
X124333000Y-91904334D01*
X124333001Y-93357764D01*
X120397895Y-97292870D01*
X120348102Y-97302774D01*
X120159744Y-97380795D01*
X119990226Y-97494063D01*
X119846063Y-97638226D01*
X119732795Y-97807744D01*
X119654774Y-97996102D01*
X119615000Y-98196061D01*
X119615000Y-98399939D01*
X119654774Y-98599898D01*
X119687539Y-98679000D01*
X117575659Y-98679000D01*
X117531999Y-98674700D01*
X117488339Y-98679000D01*
X117488333Y-98679000D01*
X117390924Y-98688594D01*
X117357724Y-98691864D01*
X117258323Y-98722017D01*
X117190149Y-98742697D01*
X117035709Y-98825247D01*
X116900341Y-98936341D01*
X116872501Y-98970264D01*
X116713000Y-99129765D01*
X116713000Y-98068468D01*
X116741205Y-98026256D01*
X116819226Y-97837898D01*
X116859000Y-97637939D01*
X116859000Y-97434061D01*
X116819226Y-97234102D01*
X116741205Y-97045744D01*
X116627937Y-96876226D01*
X116483774Y-96732063D01*
X116314256Y-96618795D01*
X116125898Y-96540774D01*
X115925939Y-96501000D01*
X115722061Y-96501000D01*
X115522102Y-96540774D01*
X115333744Y-96618795D01*
X115164226Y-96732063D01*
X115020063Y-96876226D01*
X114906795Y-97045744D01*
X114828774Y-97234102D01*
X114789000Y-97434061D01*
X114789000Y-97637939D01*
X114828774Y-97837898D01*
X114906795Y-98026256D01*
X114935001Y-98068469D01*
X114935001Y-98429769D01*
X114809292Y-98429769D01*
X114609333Y-98469543D01*
X114420975Y-98547564D01*
X114251457Y-98660832D01*
X114107294Y-98804995D01*
X113994026Y-98974513D01*
X113916005Y-99162871D01*
X113906766Y-99209321D01*
X113894507Y-99224258D01*
X113894505Y-99224260D01*
X113811248Y-99325709D01*
X113728698Y-99480148D01*
X113677864Y-99647726D01*
X113660700Y-99822000D01*
X113665001Y-99865670D01*
X113665000Y-108179532D01*
X113636795Y-108221744D01*
X113558774Y-108410102D01*
X113519000Y-108610061D01*
X113519000Y-108813939D01*
X113558774Y-109013898D01*
X113636795Y-109202256D01*
X113750063Y-109371774D01*
X113894226Y-109515937D01*
X114063744Y-109629205D01*
X114252102Y-109707226D01*
X114452061Y-109747000D01*
X114655939Y-109747000D01*
X114855898Y-109707226D01*
X115044256Y-109629205D01*
X115213774Y-109515937D01*
X115357937Y-109371774D01*
X115471205Y-109202256D01*
X115549226Y-109013898D01*
X115562737Y-108945972D01*
X117958506Y-111341742D01*
X117986341Y-111375659D01*
X118121709Y-111486753D01*
X118276149Y-111569303D01*
X118321303Y-111583000D01*
X111735359Y-111583000D01*
X111791185Y-111537185D01*
X111870537Y-111440494D01*
X111929502Y-111330180D01*
X111965812Y-111210482D01*
X111978072Y-111086000D01*
X111978072Y-109386000D01*
X111965812Y-109261518D01*
X111929502Y-109141820D01*
X111870537Y-109031506D01*
X111791185Y-108934815D01*
X111694494Y-108855463D01*
X111584180Y-108796498D01*
X111511620Y-108774487D01*
X111643475Y-108642632D01*
X111805990Y-108399411D01*
X111917932Y-108129158D01*
X111975000Y-107842260D01*
X111975000Y-107549740D01*
X111917932Y-107262842D01*
X111805990Y-106992589D01*
X111643475Y-106749368D01*
X111436632Y-106542525D01*
X111262240Y-106426000D01*
X111436632Y-106309475D01*
X111643475Y-106102632D01*
X111805990Y-105859411D01*
X111917932Y-105589158D01*
X111975000Y-105302260D01*
X111975000Y-105009740D01*
X111917932Y-104722842D01*
X111805990Y-104452589D01*
X111643475Y-104209368D01*
X111436632Y-104002525D01*
X111262240Y-103886000D01*
X111436632Y-103769475D01*
X111643475Y-103562632D01*
X111805990Y-103319411D01*
X111917932Y-103049158D01*
X111975000Y-102762260D01*
X111975000Y-102469740D01*
X111917932Y-102182842D01*
X111805990Y-101912589D01*
X111643475Y-101669368D01*
X111436632Y-101462525D01*
X111262240Y-101346000D01*
X111436632Y-101229475D01*
X111643475Y-101022632D01*
X111805990Y-100779411D01*
X111917932Y-100509158D01*
X111975000Y-100222260D01*
X111975000Y-99929740D01*
X111917932Y-99642842D01*
X111805990Y-99372589D01*
X111643475Y-99129368D01*
X111436632Y-98922525D01*
X111262240Y-98806000D01*
X111436632Y-98689475D01*
X111643475Y-98482632D01*
X111805990Y-98239411D01*
X111917932Y-97969158D01*
X111975000Y-97682260D01*
X111975000Y-97389740D01*
X111917932Y-97102842D01*
X111805990Y-96832589D01*
X111643475Y-96589368D01*
X111436632Y-96382525D01*
X111262240Y-96266000D01*
X111436632Y-96149475D01*
X111643475Y-95942632D01*
X111805990Y-95699411D01*
X111827833Y-95646675D01*
X117741700Y-95646675D01*
X117741700Y-95869325D01*
X117785137Y-96087696D01*
X117870341Y-96293398D01*
X117994039Y-96478524D01*
X118151476Y-96635961D01*
X118336602Y-96759659D01*
X118542304Y-96844863D01*
X118760675Y-96888300D01*
X118983325Y-96888300D01*
X119201696Y-96844863D01*
X119407398Y-96759659D01*
X119592524Y-96635961D01*
X119749961Y-96478524D01*
X119873659Y-96293398D01*
X119958863Y-96087696D01*
X120002300Y-95869325D01*
X120002300Y-95646675D01*
X119958863Y-95428304D01*
X119873659Y-95222602D01*
X119749961Y-95037476D01*
X119592524Y-94880039D01*
X119407398Y-94756341D01*
X119201696Y-94671137D01*
X118983325Y-94627700D01*
X118760675Y-94627700D01*
X118542304Y-94671137D01*
X118336602Y-94756341D01*
X118151476Y-94880039D01*
X117994039Y-95037476D01*
X117870341Y-95222602D01*
X117785137Y-95428304D01*
X117741700Y-95646675D01*
X111827833Y-95646675D01*
X111917932Y-95429158D01*
X111975000Y-95142260D01*
X111975000Y-94849740D01*
X111917932Y-94562842D01*
X111805990Y-94292589D01*
X111643475Y-94049368D01*
X111436632Y-93842525D01*
X111262240Y-93726000D01*
X111436632Y-93609475D01*
X111643475Y-93402632D01*
X111805990Y-93159411D01*
X111917932Y-92889158D01*
X111975000Y-92602260D01*
X111975000Y-92309740D01*
X111917932Y-92022842D01*
X111805990Y-91752589D01*
X111643475Y-91509368D01*
X111436632Y-91302525D01*
X111254466Y-91180805D01*
X111371355Y-91111178D01*
X111587588Y-90916269D01*
X111761641Y-90682920D01*
X111886825Y-90420099D01*
X111931476Y-90272890D01*
X111810155Y-90043000D01*
X110617000Y-90043000D01*
X110617000Y-90063000D01*
X110363000Y-90063000D01*
X110363000Y-90043000D01*
X110343000Y-90043000D01*
X110343000Y-89789000D01*
X110363000Y-89789000D01*
X110363000Y-87503000D01*
X110617000Y-87503000D01*
X110617000Y-89789000D01*
X111810155Y-89789000D01*
X111931476Y-89559110D01*
X111886825Y-89411901D01*
X111761641Y-89149080D01*
X111587588Y-88915731D01*
X111371355Y-88720822D01*
X111245745Y-88646000D01*
X111371355Y-88571178D01*
X111587588Y-88376269D01*
X111761641Y-88142920D01*
X111886825Y-87880099D01*
X111931476Y-87732890D01*
X111810155Y-87503000D01*
X110617000Y-87503000D01*
X110363000Y-87503000D01*
X110343000Y-87503000D01*
X110343000Y-87249000D01*
X110363000Y-87249000D01*
X110363000Y-87229000D01*
X110617000Y-87229000D01*
X110617000Y-87249000D01*
X111810155Y-87249000D01*
X111931476Y-87019110D01*
X111886825Y-86871901D01*
X111761641Y-86609080D01*
X111587588Y-86375731D01*
X111371355Y-86180822D01*
X111254466Y-86111195D01*
X111436632Y-85989475D01*
X111643475Y-85782632D01*
X111805990Y-85539411D01*
X111917932Y-85269158D01*
X111975000Y-84982260D01*
X111975000Y-84689740D01*
X111917932Y-84402842D01*
X111805990Y-84132589D01*
X111643475Y-83889368D01*
X111436632Y-83682525D01*
X111262240Y-83566000D01*
X111436632Y-83449475D01*
X111643475Y-83242632D01*
X111805990Y-82999411D01*
X111917932Y-82729158D01*
X111975000Y-82442260D01*
X111975000Y-82149740D01*
X111917932Y-81862842D01*
X111805990Y-81592589D01*
X111643475Y-81349368D01*
X111436632Y-81142525D01*
X111262240Y-81026000D01*
X111436632Y-80909475D01*
X111643475Y-80702632D01*
X111681983Y-80645000D01*
X113423765Y-80645000D01*
X114935001Y-82156237D01*
X114935000Y-90399532D01*
X114906795Y-90441744D01*
X114828774Y-90630102D01*
X114789000Y-90830061D01*
X114789000Y-91033939D01*
X114828774Y-91233898D01*
X114906795Y-91422256D01*
X115020063Y-91591774D01*
X115164226Y-91735937D01*
X115333744Y-91849205D01*
X115522102Y-91927226D01*
X115722061Y-91967000D01*
X115925939Y-91967000D01*
X116125898Y-91927226D01*
X116314256Y-91849205D01*
X116483774Y-91735937D01*
X116627937Y-91591774D01*
X116741205Y-91422256D01*
X116819226Y-91233898D01*
X116859000Y-91033939D01*
X116859000Y-90830061D01*
X116819226Y-90630102D01*
X116741205Y-90441744D01*
X116713000Y-90399532D01*
X116713000Y-82932959D01*
X118237001Y-84456961D01*
X118237000Y-90145532D01*
X118208795Y-90187744D01*
X118130774Y-90376102D01*
X118091000Y-90576061D01*
X118091000Y-90779939D01*
X118130774Y-90979898D01*
X118208795Y-91168256D01*
X118322063Y-91337774D01*
X118466226Y-91481937D01*
X118635744Y-91595205D01*
X118824102Y-91673226D01*
X119024061Y-91713000D01*
X119227939Y-91713000D01*
X119427898Y-91673226D01*
X119616256Y-91595205D01*
X119785774Y-91481937D01*
X119929937Y-91337774D01*
X120043205Y-91168256D01*
X120121226Y-90979898D01*
X120161000Y-90779939D01*
X120161000Y-90576061D01*
X120121226Y-90376102D01*
X120043205Y-90187744D01*
X120015000Y-90145532D01*
X120015000Y-84132384D01*
X120019300Y-84088724D01*
X120015000Y-84045064D01*
X120015000Y-84045057D01*
X120002136Y-83914450D01*
X119951303Y-83746873D01*
X119868753Y-83592433D01*
X119757659Y-83457065D01*
X119723742Y-83429230D01*
X119390962Y-83096450D01*
X119515405Y-83071696D01*
X119758359Y-82971061D01*
X119977013Y-82824962D01*
X120162962Y-82639013D01*
X120309061Y-82420359D01*
X120409696Y-82177405D01*
X120461000Y-81919486D01*
X120461000Y-81656514D01*
X120409696Y-81398595D01*
X120309061Y-81155641D01*
X120162962Y-80936987D01*
X119977013Y-80751038D01*
X119758359Y-80604939D01*
X119548470Y-80518000D01*
X121647950Y-80518000D01*
X126492001Y-85362052D01*
G37*
G04 #@! TD.AperFunction*
D16*
X142912264Y-104999491D02*
X142878341Y-105027331D01*
X142767247Y-105162700D01*
X142684697Y-105317140D01*
X142683178Y-105322148D01*
X142634460Y-105482753D01*
X142633864Y-105484717D01*
X142621000Y-105615324D01*
X142621000Y-105615330D01*
X142618204Y-105643716D01*
X142592795Y-105681744D01*
X142514774Y-105870102D01*
X142475000Y-106070061D01*
X142475000Y-106137001D01*
X140112712Y-106137001D01*
X140105774Y-106130063D01*
X139936256Y-106016795D01*
X139747898Y-105938774D01*
X139547939Y-105899000D01*
X139344061Y-105899000D01*
X139144102Y-105938774D01*
X138955744Y-106016795D01*
X138786226Y-106130063D01*
X138642063Y-106274226D01*
X138528795Y-106443744D01*
X138450774Y-106632102D01*
X138411000Y-106832061D01*
X138411000Y-107035939D01*
X138415985Y-107061000D01*
X137528235Y-107061000D01*
X137130026Y-106662791D01*
X137312061Y-106699000D01*
X137515939Y-106699000D01*
X137715898Y-106659226D01*
X137904256Y-106581205D01*
X138073774Y-106467937D01*
X138217937Y-106323774D01*
X138331205Y-106154256D01*
X138409226Y-105965898D01*
X138449000Y-105765939D01*
X138449000Y-105562061D01*
X138444015Y-105537000D01*
X138913532Y-105537000D01*
X138955744Y-105565205D01*
X139144102Y-105643226D01*
X139344061Y-105683000D01*
X139547939Y-105683000D01*
X139747898Y-105643226D01*
X139936256Y-105565205D01*
X140105774Y-105451937D01*
X140249937Y-105307774D01*
X140363205Y-105138256D01*
X140441226Y-104949898D01*
X140481000Y-104749939D01*
X140481000Y-104546061D01*
X140443792Y-104359001D01*
X143552754Y-104359001D01*
X142912264Y-104999491D01*
G04 #@! TA.AperFunction,Conductor*
D21*
G36*
X142912264Y-104999491D02*
G01*
X142878341Y-105027331D01*
X142767247Y-105162700D01*
X142684697Y-105317140D01*
X142683178Y-105322148D01*
X142634460Y-105482753D01*
X142633864Y-105484717D01*
X142621000Y-105615324D01*
X142621000Y-105615330D01*
X142618204Y-105643716D01*
X142592795Y-105681744D01*
X142514774Y-105870102D01*
X142475000Y-106070061D01*
X142475000Y-106137001D01*
X140112712Y-106137001D01*
X140105774Y-106130063D01*
X139936256Y-106016795D01*
X139747898Y-105938774D01*
X139547939Y-105899000D01*
X139344061Y-105899000D01*
X139144102Y-105938774D01*
X138955744Y-106016795D01*
X138786226Y-106130063D01*
X138642063Y-106274226D01*
X138528795Y-106443744D01*
X138450774Y-106632102D01*
X138411000Y-106832061D01*
X138411000Y-107035939D01*
X138415985Y-107061000D01*
X137528235Y-107061000D01*
X137130026Y-106662791D01*
X137312061Y-106699000D01*
X137515939Y-106699000D01*
X137715898Y-106659226D01*
X137904256Y-106581205D01*
X138073774Y-106467937D01*
X138217937Y-106323774D01*
X138331205Y-106154256D01*
X138409226Y-105965898D01*
X138449000Y-105765939D01*
X138449000Y-105562061D01*
X138444015Y-105537000D01*
X138913532Y-105537000D01*
X138955744Y-105565205D01*
X139144102Y-105643226D01*
X139344061Y-105683000D01*
X139547939Y-105683000D01*
X139747898Y-105643226D01*
X139936256Y-105565205D01*
X140105774Y-105451937D01*
X140249937Y-105307774D01*
X140363205Y-105138256D01*
X140441226Y-104949898D01*
X140481000Y-104749939D01*
X140481000Y-104546061D01*
X140443792Y-104359001D01*
X143552754Y-104359001D01*
X142912264Y-104999491D01*
G37*
G04 #@! TD.AperFunction*
D16*
X143811764Y-102581001D02*
X140484234Y-102581001D01*
X143370236Y-99695000D01*
X146697764Y-99695000D01*
X143811764Y-102581001D01*
G04 #@! TA.AperFunction,Conductor*
D21*
G36*
X143811764Y-102581001D02*
G01*
X140484234Y-102581001D01*
X143370236Y-99695000D01*
X146697764Y-99695000D01*
X143811764Y-102581001D01*
G37*
G04 #@! TD.AperFunction*
D16*
X147829895Y-94498870D02*
X147780102Y-94508774D01*
X147591744Y-94586795D01*
X147422226Y-94700063D01*
X147278063Y-94844226D01*
X147164795Y-95013744D01*
X147086774Y-95202102D01*
X147047000Y-95402061D01*
X147047000Y-95605939D01*
X147086774Y-95805898D01*
X147164795Y-95994256D01*
X147278063Y-96163774D01*
X147422226Y-96307937D01*
X147591744Y-96421205D01*
X147780102Y-96499226D01*
X147980061Y-96539000D01*
X148183939Y-96539000D01*
X148383898Y-96499226D01*
X148572256Y-96421205D01*
X148741774Y-96307937D01*
X148885937Y-96163774D01*
X148999205Y-95994256D01*
X149077226Y-95805898D01*
X149087130Y-95756105D01*
X151244236Y-93599000D01*
X152629532Y-93599000D01*
X152671744Y-93627205D01*
X152860102Y-93705226D01*
X153060061Y-93745000D01*
X153263939Y-93745000D01*
X153463898Y-93705226D01*
X153652256Y-93627205D01*
X153821774Y-93513937D01*
X153965937Y-93369774D01*
X154079205Y-93200256D01*
X154157226Y-93011898D01*
X154197000Y-92811939D01*
X154197000Y-92608061D01*
X154173715Y-92490999D01*
X155489686Y-92490999D01*
X155886618Y-92887931D01*
X155811193Y-92963356D01*
X155697925Y-93132874D01*
X155619904Y-93321232D01*
X155580130Y-93521191D01*
X155580130Y-93725069D01*
X155619904Y-93925028D01*
X155697925Y-94113386D01*
X155726131Y-94155599D01*
X155726130Y-97270634D01*
X155079765Y-97917000D01*
X143624235Y-97917000D01*
X149050237Y-92490999D01*
X149837765Y-92490999D01*
X147829895Y-94498870D01*
G04 #@! TA.AperFunction,Conductor*
D21*
G36*
X147829895Y-94498870D02*
G01*
X147780102Y-94508774D01*
X147591744Y-94586795D01*
X147422226Y-94700063D01*
X147278063Y-94844226D01*
X147164795Y-95013744D01*
X147086774Y-95202102D01*
X147047000Y-95402061D01*
X147047000Y-95605939D01*
X147086774Y-95805898D01*
X147164795Y-95994256D01*
X147278063Y-96163774D01*
X147422226Y-96307937D01*
X147591744Y-96421205D01*
X147780102Y-96499226D01*
X147980061Y-96539000D01*
X148183939Y-96539000D01*
X148383898Y-96499226D01*
X148572256Y-96421205D01*
X148741774Y-96307937D01*
X148885937Y-96163774D01*
X148999205Y-95994256D01*
X149077226Y-95805898D01*
X149087130Y-95756105D01*
X151244236Y-93599000D01*
X152629532Y-93599000D01*
X152671744Y-93627205D01*
X152860102Y-93705226D01*
X153060061Y-93745000D01*
X153263939Y-93745000D01*
X153463898Y-93705226D01*
X153652256Y-93627205D01*
X153821774Y-93513937D01*
X153965937Y-93369774D01*
X154079205Y-93200256D01*
X154157226Y-93011898D01*
X154197000Y-92811939D01*
X154197000Y-92608061D01*
X154173715Y-92490999D01*
X155489686Y-92490999D01*
X155886618Y-92887931D01*
X155811193Y-92963356D01*
X155697925Y-93132874D01*
X155619904Y-93321232D01*
X155580130Y-93521191D01*
X155580130Y-93725069D01*
X155619904Y-93925028D01*
X155697925Y-94113386D01*
X155726131Y-94155599D01*
X155726130Y-97270634D01*
X155079765Y-97917000D01*
X143624235Y-97917000D01*
X149050237Y-92490999D01*
X149837765Y-92490999D01*
X147829895Y-94498870D01*
G37*
G04 #@! TD.AperFunction*
D16*
X131152000Y-88173928D02*
X130587750Y-88177000D01*
X130429000Y-88335750D01*
X130429000Y-89535000D01*
X130449000Y-89535000D01*
X130449000Y-89789000D01*
X130429000Y-89789000D01*
X130429000Y-90988250D01*
X130587750Y-91147000D01*
X131152000Y-91150072D01*
X131191000Y-91146231D01*
X131191000Y-92087764D01*
X128405765Y-94873000D01*
X128288481Y-94873000D01*
X128421774Y-94783937D01*
X128565937Y-94639774D01*
X128679205Y-94470256D01*
X128757226Y-94281898D01*
X128797000Y-94081939D01*
X128797000Y-93878061D01*
X128757226Y-93678102D01*
X128679205Y-93489744D01*
X128565937Y-93320226D01*
X128538436Y-93292725D01*
X128504753Y-93229709D01*
X128393659Y-93094341D01*
X128359741Y-93066505D01*
X127243130Y-91949895D01*
X127233226Y-91900102D01*
X127155205Y-91711744D01*
X127041937Y-91542226D01*
X126897774Y-91398063D01*
X126728256Y-91284795D01*
X126539898Y-91206774D01*
X126339939Y-91167000D01*
X126136061Y-91167000D01*
X126111000Y-91171985D01*
X126111000Y-90853983D01*
X126168632Y-90815475D01*
X126375475Y-90608632D01*
X126492000Y-90434240D01*
X126608525Y-90608632D01*
X126815368Y-90815475D01*
X127058589Y-90977990D01*
X127328842Y-91089932D01*
X127615740Y-91147000D01*
X127908260Y-91147000D01*
X128195158Y-91089932D01*
X128465411Y-90977990D01*
X128708632Y-90815475D01*
X128840487Y-90683620D01*
X128862498Y-90756180D01*
X128921463Y-90866494D01*
X129000815Y-90963185D01*
X129097506Y-91042537D01*
X129207820Y-91101502D01*
X129327518Y-91137812D01*
X129452000Y-91150072D01*
X130016250Y-91147000D01*
X130175000Y-90988250D01*
X130175000Y-89789000D01*
X130155000Y-89789000D01*
X130155000Y-89535000D01*
X130175000Y-89535000D01*
X130175000Y-88335750D01*
X130016250Y-88177000D01*
X129452000Y-88173928D01*
X129327518Y-88186188D01*
X129207820Y-88222498D01*
X129097506Y-88281463D01*
X129032000Y-88335222D01*
X129032000Y-86883904D01*
X129093032Y-86998088D01*
X129235867Y-87172133D01*
X129409911Y-87314968D01*
X129608477Y-87421103D01*
X129823933Y-87486461D01*
X130048000Y-87508530D01*
X130272066Y-87486461D01*
X130487522Y-87421103D01*
X130686088Y-87314968D01*
X130860133Y-87172133D01*
X131002968Y-86998089D01*
X131109103Y-86799523D01*
X131174461Y-86584067D01*
X131191000Y-86416146D01*
X131191001Y-88177769D01*
X131152000Y-88173928D01*
G04 #@! TA.AperFunction,Conductor*
D21*
G36*
X131152000Y-88173928D02*
G01*
X130587750Y-88177000D01*
X130429000Y-88335750D01*
X130429000Y-89535000D01*
X130449000Y-89535000D01*
X130449000Y-89789000D01*
X130429000Y-89789000D01*
X130429000Y-90988250D01*
X130587750Y-91147000D01*
X131152000Y-91150072D01*
X131191000Y-91146231D01*
X131191000Y-92087764D01*
X128405765Y-94873000D01*
X128288481Y-94873000D01*
X128421774Y-94783937D01*
X128565937Y-94639774D01*
X128679205Y-94470256D01*
X128757226Y-94281898D01*
X128797000Y-94081939D01*
X128797000Y-93878061D01*
X128757226Y-93678102D01*
X128679205Y-93489744D01*
X128565937Y-93320226D01*
X128538436Y-93292725D01*
X128504753Y-93229709D01*
X128393659Y-93094341D01*
X128359741Y-93066505D01*
X127243130Y-91949895D01*
X127233226Y-91900102D01*
X127155205Y-91711744D01*
X127041937Y-91542226D01*
X126897774Y-91398063D01*
X126728256Y-91284795D01*
X126539898Y-91206774D01*
X126339939Y-91167000D01*
X126136061Y-91167000D01*
X126111000Y-91171985D01*
X126111000Y-90853983D01*
X126168632Y-90815475D01*
X126375475Y-90608632D01*
X126492000Y-90434240D01*
X126608525Y-90608632D01*
X126815368Y-90815475D01*
X127058589Y-90977990D01*
X127328842Y-91089932D01*
X127615740Y-91147000D01*
X127908260Y-91147000D01*
X128195158Y-91089932D01*
X128465411Y-90977990D01*
X128708632Y-90815475D01*
X128840487Y-90683620D01*
X128862498Y-90756180D01*
X128921463Y-90866494D01*
X129000815Y-90963185D01*
X129097506Y-91042537D01*
X129207820Y-91101502D01*
X129327518Y-91137812D01*
X129452000Y-91150072D01*
X130016250Y-91147000D01*
X130175000Y-90988250D01*
X130175000Y-89789000D01*
X130155000Y-89789000D01*
X130155000Y-89535000D01*
X130175000Y-89535000D01*
X130175000Y-88335750D01*
X130016250Y-88177000D01*
X129452000Y-88173928D01*
X129327518Y-88186188D01*
X129207820Y-88222498D01*
X129097506Y-88281463D01*
X129032000Y-88335222D01*
X129032000Y-86883904D01*
X129093032Y-86998088D01*
X129235867Y-87172133D01*
X129409911Y-87314968D01*
X129608477Y-87421103D01*
X129823933Y-87486461D01*
X130048000Y-87508530D01*
X130272066Y-87486461D01*
X130487522Y-87421103D01*
X130686088Y-87314968D01*
X130860133Y-87172133D01*
X131002968Y-86998089D01*
X131109103Y-86799523D01*
X131174461Y-86584067D01*
X131191000Y-86416146D01*
X131191001Y-88177769D01*
X131152000Y-88173928D01*
G37*
G04 #@! TD.AperFunction*
D16*
X144907000Y-79895764D02*
X138086260Y-86716505D01*
X138052342Y-86744341D01*
X138024507Y-86778258D01*
X138024505Y-86778260D01*
X137941248Y-86879709D01*
X137858698Y-87034148D01*
X137807864Y-87201726D01*
X137790700Y-87376000D01*
X137795001Y-87419670D01*
X137795000Y-92595764D01*
X136432999Y-93957766D01*
X136432999Y-93170236D01*
X136995744Y-92607492D01*
X137029659Y-92579659D01*
X137057491Y-92545745D01*
X137057495Y-92545741D01*
X137140752Y-92444292D01*
X137223302Y-92289853D01*
X137274136Y-92122275D01*
X137291300Y-91948000D01*
X137289553Y-91930256D01*
X137278792Y-91821000D01*
X137274136Y-91773725D01*
X137223302Y-91606148D01*
X137194999Y-91553197D01*
X137194999Y-84280236D01*
X144907000Y-76568236D01*
X144907000Y-79895764D01*
G04 #@! TA.AperFunction,Conductor*
D21*
G36*
X144907000Y-79895764D02*
G01*
X138086260Y-86716505D01*
X138052342Y-86744341D01*
X138024507Y-86778258D01*
X138024505Y-86778260D01*
X137941248Y-86879709D01*
X137858698Y-87034148D01*
X137807864Y-87201726D01*
X137790700Y-87376000D01*
X137795001Y-87419670D01*
X137795000Y-92595764D01*
X136432999Y-93957766D01*
X136432999Y-93170236D01*
X136995744Y-92607492D01*
X137029659Y-92579659D01*
X137057491Y-92545745D01*
X137057495Y-92545741D01*
X137140752Y-92444292D01*
X137223302Y-92289853D01*
X137274136Y-92122275D01*
X137291300Y-91948000D01*
X137289553Y-91930256D01*
X137278792Y-91821000D01*
X137274136Y-91773725D01*
X137223302Y-91606148D01*
X137194999Y-91553197D01*
X137194999Y-84280236D01*
X144907000Y-76568236D01*
X144907000Y-79895764D01*
G37*
G04 #@! TD.AperFunction*
D16*
X139446000Y-76073000D02*
X139827000Y-76073000D01*
X139827000Y-77470000D01*
X139839201Y-77593882D01*
X139875336Y-77713004D01*
X139934017Y-77822787D01*
X140012987Y-77919013D01*
X140109213Y-77997983D01*
X140218996Y-78056664D01*
X140338118Y-78092799D01*
X140462000Y-78105000D01*
X140855764Y-78105000D01*
X135708258Y-83252507D01*
X135674341Y-83280342D01*
X135646506Y-83314259D01*
X135646504Y-83314261D01*
X135563247Y-83415710D01*
X135480697Y-83570149D01*
X135429863Y-83737727D01*
X135412699Y-83912001D01*
X135417000Y-83955671D01*
X135416999Y-91671765D01*
X134946258Y-92142507D01*
X134912341Y-92170342D01*
X134909000Y-92174413D01*
X134909000Y-90194468D01*
X134937205Y-90152256D01*
X135015226Y-89963898D01*
X135055000Y-89763939D01*
X135055000Y-89560061D01*
X135015226Y-89360102D01*
X134937205Y-89171744D01*
X134823937Y-89002226D01*
X134679774Y-88858063D01*
X134510256Y-88744795D01*
X134321898Y-88666774D01*
X134121939Y-88627000D01*
X133985000Y-88627000D01*
X133985000Y-81394235D01*
X139281737Y-76097498D01*
X139315659Y-76069659D01*
X139322869Y-76060873D01*
X139446000Y-76073000D01*
G04 #@! TA.AperFunction,Conductor*
D21*
G36*
X139446000Y-76073000D02*
G01*
X139827000Y-76073000D01*
X139827000Y-77470000D01*
X139839201Y-77593882D01*
X139875336Y-77713004D01*
X139934017Y-77822787D01*
X140012987Y-77919013D01*
X140109213Y-77997983D01*
X140218996Y-78056664D01*
X140338118Y-78092799D01*
X140462000Y-78105000D01*
X140855764Y-78105000D01*
X135708258Y-83252507D01*
X135674341Y-83280342D01*
X135646506Y-83314259D01*
X135646504Y-83314261D01*
X135563247Y-83415710D01*
X135480697Y-83570149D01*
X135429863Y-83737727D01*
X135412699Y-83912001D01*
X135417000Y-83955671D01*
X135416999Y-91671765D01*
X134946258Y-92142507D01*
X134912341Y-92170342D01*
X134909000Y-92174413D01*
X134909000Y-90194468D01*
X134937205Y-90152256D01*
X135015226Y-89963898D01*
X135055000Y-89763939D01*
X135055000Y-89560061D01*
X135015226Y-89360102D01*
X134937205Y-89171744D01*
X134823937Y-89002226D01*
X134679774Y-88858063D01*
X134510256Y-88744795D01*
X134321898Y-88666774D01*
X134121939Y-88627000D01*
X133985000Y-88627000D01*
X133985000Y-81394235D01*
X139281737Y-76097498D01*
X139315659Y-76069659D01*
X139322869Y-76060873D01*
X139446000Y-76073000D01*
G37*
G04 #@! TD.AperFunction*
D16*
X157850525Y-69022632D02*
X158057368Y-69229475D01*
X158231760Y-69346000D01*
X158057368Y-69462525D01*
X157850525Y-69669368D01*
X157688010Y-69912589D01*
X157576068Y-70182842D01*
X157519000Y-70469740D01*
X157519000Y-70762260D01*
X157576068Y-71049158D01*
X157688010Y-71319411D01*
X157850525Y-71562632D01*
X158057368Y-71769475D01*
X158239534Y-71891195D01*
X158122645Y-71960822D01*
X157906412Y-72155731D01*
X157732359Y-72389080D01*
X157607175Y-72651901D01*
X157562524Y-72799110D01*
X157683845Y-73029000D01*
X158877000Y-73029000D01*
X158877000Y-73009000D01*
X159131000Y-73009000D01*
X159131000Y-73029000D01*
X159151000Y-73029000D01*
X159151000Y-73283000D01*
X159131000Y-73283000D01*
X159131000Y-73303000D01*
X158877000Y-73303000D01*
X158877000Y-73283000D01*
X157683845Y-73283000D01*
X157562524Y-73512890D01*
X157607175Y-73660099D01*
X157732359Y-73922920D01*
X157906412Y-74156269D01*
X158122645Y-74351178D01*
X158239534Y-74420805D01*
X158057368Y-74542525D01*
X157850525Y-74749368D01*
X157688010Y-74992589D01*
X157576068Y-75262842D01*
X157519000Y-75549740D01*
X157519000Y-75842260D01*
X157576068Y-76129158D01*
X157688010Y-76399411D01*
X157850525Y-76642632D01*
X158057368Y-76849475D01*
X158231760Y-76966000D01*
X158057368Y-77082525D01*
X157850525Y-77289368D01*
X157812017Y-77347000D01*
X155741659Y-77347000D01*
X155697999Y-77342700D01*
X155654339Y-77347000D01*
X155654333Y-77347000D01*
X155556924Y-77356594D01*
X155523724Y-77359864D01*
X155423476Y-77390274D01*
X155356149Y-77410697D01*
X155201709Y-77493247D01*
X155066341Y-77604341D01*
X155038501Y-77638264D01*
X153834259Y-78842506D01*
X153800342Y-78870341D01*
X153772507Y-78904258D01*
X153772505Y-78904260D01*
X153689248Y-79005709D01*
X153606698Y-79160148D01*
X153555864Y-79327726D01*
X153538700Y-79502000D01*
X153543001Y-79545670D01*
X153543000Y-85737764D01*
X152793765Y-86487000D01*
X146099738Y-86487000D01*
X146056078Y-86482700D01*
X146012418Y-86487000D01*
X146012411Y-86487000D01*
X145898403Y-86498229D01*
X145881803Y-86499864D01*
X145830970Y-86515284D01*
X145714227Y-86550697D01*
X145559787Y-86633247D01*
X145424419Y-86744341D01*
X145396584Y-86778258D01*
X140735000Y-91439843D01*
X140735000Y-91338061D01*
X140695226Y-91138102D01*
X140617205Y-90949744D01*
X140589000Y-90907532D01*
X140589000Y-89846140D01*
X140598687Y-89843201D01*
X140775189Y-89748859D01*
X140891134Y-89653706D01*
X148765133Y-81779708D01*
X148803896Y-81747896D01*
X148930860Y-81593190D01*
X149025202Y-81416687D01*
X149083298Y-81225171D01*
X149098000Y-81075902D01*
X149102915Y-81026000D01*
X149098000Y-80976098D01*
X149098000Y-79953459D01*
X149117000Y-79857939D01*
X149117000Y-79654061D01*
X149077226Y-79454102D01*
X148999205Y-79265744D01*
X148885937Y-79096226D01*
X148741774Y-78952063D01*
X148572256Y-78838795D01*
X148383898Y-78760774D01*
X148183939Y-78721000D01*
X147980061Y-78721000D01*
X147780102Y-78760774D01*
X147591744Y-78838795D01*
X147422226Y-78952063D01*
X147278063Y-79096226D01*
X147164795Y-79265744D01*
X147086774Y-79454102D01*
X147047000Y-79654061D01*
X147047000Y-79857939D01*
X147066000Y-79953460D01*
X147066001Y-80605158D01*
X139573000Y-88098160D01*
X139573000Y-87744235D01*
X146393743Y-80923493D01*
X146427659Y-80895659D01*
X146538753Y-80760291D01*
X146621303Y-80605851D01*
X146665724Y-80459411D01*
X146672136Y-80438275D01*
X146674352Y-80415774D01*
X146685000Y-80307667D01*
X146685000Y-80307660D01*
X146689300Y-80264000D01*
X146685000Y-80220340D01*
X146685000Y-69710235D01*
X147430235Y-68965000D01*
X157812017Y-68965000D01*
X157850525Y-69022632D01*
G04 #@! TA.AperFunction,Conductor*
D21*
G36*
X157850525Y-69022632D02*
G01*
X158057368Y-69229475D01*
X158231760Y-69346000D01*
X158057368Y-69462525D01*
X157850525Y-69669368D01*
X157688010Y-69912589D01*
X157576068Y-70182842D01*
X157519000Y-70469740D01*
X157519000Y-70762260D01*
X157576068Y-71049158D01*
X157688010Y-71319411D01*
X157850525Y-71562632D01*
X158057368Y-71769475D01*
X158239534Y-71891195D01*
X158122645Y-71960822D01*
X157906412Y-72155731D01*
X157732359Y-72389080D01*
X157607175Y-72651901D01*
X157562524Y-72799110D01*
X157683845Y-73029000D01*
X158877000Y-73029000D01*
X158877000Y-73009000D01*
X159131000Y-73009000D01*
X159131000Y-73029000D01*
X159151000Y-73029000D01*
X159151000Y-73283000D01*
X159131000Y-73283000D01*
X159131000Y-73303000D01*
X158877000Y-73303000D01*
X158877000Y-73283000D01*
X157683845Y-73283000D01*
X157562524Y-73512890D01*
X157607175Y-73660099D01*
X157732359Y-73922920D01*
X157906412Y-74156269D01*
X158122645Y-74351178D01*
X158239534Y-74420805D01*
X158057368Y-74542525D01*
X157850525Y-74749368D01*
X157688010Y-74992589D01*
X157576068Y-75262842D01*
X157519000Y-75549740D01*
X157519000Y-75842260D01*
X157576068Y-76129158D01*
X157688010Y-76399411D01*
X157850525Y-76642632D01*
X158057368Y-76849475D01*
X158231760Y-76966000D01*
X158057368Y-77082525D01*
X157850525Y-77289368D01*
X157812017Y-77347000D01*
X155741659Y-77347000D01*
X155697999Y-77342700D01*
X155654339Y-77347000D01*
X155654333Y-77347000D01*
X155556924Y-77356594D01*
X155523724Y-77359864D01*
X155423476Y-77390274D01*
X155356149Y-77410697D01*
X155201709Y-77493247D01*
X155066341Y-77604341D01*
X155038501Y-77638264D01*
X153834259Y-78842506D01*
X153800342Y-78870341D01*
X153772507Y-78904258D01*
X153772505Y-78904260D01*
X153689248Y-79005709D01*
X153606698Y-79160148D01*
X153555864Y-79327726D01*
X153538700Y-79502000D01*
X153543001Y-79545670D01*
X153543000Y-85737764D01*
X152793765Y-86487000D01*
X146099738Y-86487000D01*
X146056078Y-86482700D01*
X146012418Y-86487000D01*
X146012411Y-86487000D01*
X145898403Y-86498229D01*
X145881803Y-86499864D01*
X145830970Y-86515284D01*
X145714227Y-86550697D01*
X145559787Y-86633247D01*
X145424419Y-86744341D01*
X145396584Y-86778258D01*
X140735000Y-91439843D01*
X140735000Y-91338061D01*
X140695226Y-91138102D01*
X140617205Y-90949744D01*
X140589000Y-90907532D01*
X140589000Y-89846140D01*
X140598687Y-89843201D01*
X140775189Y-89748859D01*
X140891134Y-89653706D01*
X148765133Y-81779708D01*
X148803896Y-81747896D01*
X148930860Y-81593190D01*
X149025202Y-81416687D01*
X149083298Y-81225171D01*
X149098000Y-81075902D01*
X149102915Y-81026000D01*
X149098000Y-80976098D01*
X149098000Y-79953459D01*
X149117000Y-79857939D01*
X149117000Y-79654061D01*
X149077226Y-79454102D01*
X148999205Y-79265744D01*
X148885937Y-79096226D01*
X148741774Y-78952063D01*
X148572256Y-78838795D01*
X148383898Y-78760774D01*
X148183939Y-78721000D01*
X147980061Y-78721000D01*
X147780102Y-78760774D01*
X147591744Y-78838795D01*
X147422226Y-78952063D01*
X147278063Y-79096226D01*
X147164795Y-79265744D01*
X147086774Y-79454102D01*
X147047000Y-79654061D01*
X147047000Y-79857939D01*
X147066000Y-79953460D01*
X147066001Y-80605158D01*
X139573000Y-88098160D01*
X139573000Y-87744235D01*
X146393743Y-80923493D01*
X146427659Y-80895659D01*
X146538753Y-80760291D01*
X146621303Y-80605851D01*
X146665724Y-80459411D01*
X146672136Y-80438275D01*
X146674352Y-80415774D01*
X146685000Y-80307667D01*
X146685000Y-80307660D01*
X146689300Y-80264000D01*
X146685000Y-80220340D01*
X146685000Y-69710235D01*
X147430235Y-68965000D01*
X157812017Y-68965000D01*
X157850525Y-69022632D01*
G37*
G04 #@! TD.AperFunction*
D16*
X128905001Y-79721447D02*
X128905000Y-84280284D01*
X128823075Y-84127012D01*
X128664370Y-83933630D01*
X128615914Y-83893863D01*
X123116141Y-78394091D01*
X123076370Y-78345630D01*
X122882988Y-78186925D01*
X122662359Y-78068997D01*
X122422963Y-77996377D01*
X122236380Y-77978000D01*
X122236373Y-77978000D01*
X122174000Y-77971857D01*
X122111627Y-77978000D01*
X119548470Y-77978000D01*
X119515405Y-77964304D01*
X119257486Y-77913000D01*
X118994514Y-77913000D01*
X118736595Y-77964304D01*
X118493641Y-78064939D01*
X118274987Y-78211038D01*
X118089038Y-78396987D01*
X117942939Y-78615641D01*
X117842304Y-78858595D01*
X117791000Y-79116514D01*
X117791000Y-79379486D01*
X117811603Y-79483064D01*
X117725659Y-79378341D01*
X117691742Y-79350506D01*
X114959499Y-76618264D01*
X114931659Y-76584341D01*
X114796291Y-76473247D01*
X114641851Y-76390697D01*
X114474274Y-76339864D01*
X114343667Y-76327000D01*
X114343660Y-76327000D01*
X114300000Y-76322700D01*
X114256340Y-76327000D01*
X111681983Y-76327000D01*
X111643475Y-76269368D01*
X111436632Y-76062525D01*
X111262240Y-75946000D01*
X111436632Y-75829475D01*
X111447107Y-75819000D01*
X125002555Y-75819000D01*
X128905001Y-79721447D01*
G04 #@! TA.AperFunction,Conductor*
D21*
G36*
X128905001Y-79721447D02*
G01*
X128905000Y-84280284D01*
X128823075Y-84127012D01*
X128664370Y-83933630D01*
X128615914Y-83893863D01*
X123116141Y-78394091D01*
X123076370Y-78345630D01*
X122882988Y-78186925D01*
X122662359Y-78068997D01*
X122422963Y-77996377D01*
X122236380Y-77978000D01*
X122236373Y-77978000D01*
X122174000Y-77971857D01*
X122111627Y-77978000D01*
X119548470Y-77978000D01*
X119515405Y-77964304D01*
X119257486Y-77913000D01*
X118994514Y-77913000D01*
X118736595Y-77964304D01*
X118493641Y-78064939D01*
X118274987Y-78211038D01*
X118089038Y-78396987D01*
X117942939Y-78615641D01*
X117842304Y-78858595D01*
X117791000Y-79116514D01*
X117791000Y-79379486D01*
X117811603Y-79483064D01*
X117725659Y-79378341D01*
X117691742Y-79350506D01*
X114959499Y-76618264D01*
X114931659Y-76584341D01*
X114796291Y-76473247D01*
X114641851Y-76390697D01*
X114474274Y-76339864D01*
X114343667Y-76327000D01*
X114343660Y-76327000D01*
X114300000Y-76322700D01*
X114256340Y-76327000D01*
X111681983Y-76327000D01*
X111643475Y-76269368D01*
X111436632Y-76062525D01*
X111262240Y-75946000D01*
X111436632Y-75829475D01*
X111447107Y-75819000D01*
X125002555Y-75819000D01*
X128905001Y-79721447D01*
G37*
G04 #@! TD.AperFunction*
D16*
X131457507Y-64308504D02*
X131409000Y-64547000D01*
X131409000Y-64897000D01*
X132517000Y-64897000D01*
X132517000Y-64877000D01*
X132771000Y-64877000D01*
X132771000Y-64897000D01*
X133879000Y-64897000D01*
X133879000Y-64547000D01*
X133830493Y-64308504D01*
X133778713Y-64185000D01*
X138509287Y-64185000D01*
X138457507Y-64308504D01*
X138409000Y-64547000D01*
X138409000Y-64897000D01*
X139517000Y-64897000D01*
X139517000Y-64877000D01*
X139771000Y-64877000D01*
X139771000Y-64897000D01*
X140879000Y-64897000D01*
X140879000Y-64547000D01*
X140830493Y-64308504D01*
X140778713Y-64185000D01*
X158385111Y-64185000D01*
X158300589Y-64220010D01*
X158057368Y-64382525D01*
X157850525Y-64589368D01*
X157812017Y-64647000D01*
X148121659Y-64647000D01*
X148077999Y-64642700D01*
X148034339Y-64647000D01*
X148034333Y-64647000D01*
X147936924Y-64656594D01*
X147903724Y-64659864D01*
X147802058Y-64690704D01*
X147736149Y-64710697D01*
X147581709Y-64793247D01*
X147446341Y-64904341D01*
X147418501Y-64938264D01*
X144182259Y-68174506D01*
X144148342Y-68202341D01*
X144120507Y-68236258D01*
X144120505Y-68236260D01*
X144037248Y-68337709D01*
X143954698Y-68492148D01*
X143903864Y-68659726D01*
X143886700Y-68834000D01*
X143891001Y-68877670D01*
X143891000Y-75069764D01*
X142113000Y-76847764D01*
X142113000Y-74168000D01*
X142100799Y-74044118D01*
X142064664Y-73924996D01*
X142005983Y-73815213D01*
X141927013Y-73718987D01*
X141830787Y-73640017D01*
X141721004Y-73581336D01*
X141601882Y-73545201D01*
X141478000Y-73533000D01*
X140589000Y-73533000D01*
X140589000Y-71374000D01*
X140576799Y-71250118D01*
X140540664Y-71130996D01*
X140481983Y-71021213D01*
X140403013Y-70924987D01*
X140306787Y-70846017D01*
X140220232Y-70799752D01*
X141470434Y-70799752D01*
X141512646Y-70827957D01*
X141701004Y-70905978D01*
X141900963Y-70945752D01*
X142104841Y-70945752D01*
X142304800Y-70905978D01*
X142493158Y-70827957D01*
X142662676Y-70714689D01*
X142806839Y-70570526D01*
X142920107Y-70401008D01*
X142998128Y-70212650D01*
X143037902Y-70012691D01*
X143037902Y-69808813D01*
X142998128Y-69608854D01*
X142920107Y-69420496D01*
X142806839Y-69250978D01*
X142662676Y-69106815D01*
X142493158Y-68993547D01*
X142304800Y-68915526D01*
X142104841Y-68875752D01*
X141900963Y-68875752D01*
X141701004Y-68915526D01*
X141512646Y-68993547D01*
X141470434Y-69021752D01*
X139054706Y-69021752D01*
X139234100Y-68956609D01*
X139341035Y-68899450D01*
X139403528Y-68663133D01*
X138644000Y-67903605D01*
X137884472Y-68663133D01*
X137946965Y-68899450D01*
X138189678Y-69012850D01*
X138225940Y-69021752D01*
X137639625Y-69021752D01*
X137569205Y-68851744D01*
X137455937Y-68682226D01*
X137311774Y-68538063D01*
X137142256Y-68424795D01*
X136953898Y-68346774D01*
X136753939Y-68307000D01*
X136550061Y-68307000D01*
X136350102Y-68346774D01*
X136161744Y-68424795D01*
X135992226Y-68538063D01*
X135848063Y-68682226D01*
X135746651Y-68834000D01*
X134559711Y-68834000D01*
X134517774Y-68792063D01*
X134391708Y-68707829D01*
X134403528Y-68663133D01*
X133644000Y-67903605D01*
X132884472Y-68663133D01*
X132946965Y-68899450D01*
X133047310Y-68946333D01*
X132940795Y-69105744D01*
X132862774Y-69294102D01*
X132823000Y-69494061D01*
X132823000Y-69697939D01*
X132862774Y-69897898D01*
X132940795Y-70086256D01*
X133054063Y-70255774D01*
X133198226Y-70399937D01*
X133367744Y-70513205D01*
X133556102Y-70591226D01*
X133756061Y-70631000D01*
X133959939Y-70631000D01*
X134159898Y-70591226D01*
X134348256Y-70513205D01*
X134517774Y-70399937D01*
X134559711Y-70358000D01*
X136360577Y-70358000D01*
X136398000Y-70361686D01*
X136412976Y-70360211D01*
X136561253Y-70508488D01*
X136589093Y-70542411D01*
X136724461Y-70653505D01*
X136878901Y-70736055D01*
X136888610Y-70739000D01*
X135636000Y-70739000D01*
X135512118Y-70751201D01*
X135392996Y-70787336D01*
X135283213Y-70846017D01*
X135186987Y-70924987D01*
X135108017Y-71021213D01*
X135049336Y-71130996D01*
X135013201Y-71250118D01*
X135001000Y-71374000D01*
X135001000Y-72009000D01*
X133096000Y-72009000D01*
X132972118Y-72021201D01*
X132852996Y-72057336D01*
X132743213Y-72116017D01*
X132646987Y-72194987D01*
X132608194Y-72233780D01*
X132605744Y-72234795D01*
X132436226Y-72348063D01*
X132292063Y-72492226D01*
X132178795Y-72661744D01*
X132177780Y-72664194D01*
X132100194Y-72741780D01*
X132097744Y-72742795D01*
X131928226Y-72856063D01*
X131784063Y-73000226D01*
X131670795Y-73169744D01*
X131669780Y-73172194D01*
X131376987Y-73464987D01*
X131298017Y-73561213D01*
X131239336Y-73670996D01*
X131203201Y-73790118D01*
X131191000Y-73914000D01*
X131203201Y-74037882D01*
X131239336Y-74157004D01*
X131298017Y-74266787D01*
X131376987Y-74363013D01*
X131473213Y-74441983D01*
X131582996Y-74500664D01*
X131702118Y-74536799D01*
X131826000Y-74549000D01*
X132055532Y-74549000D01*
X132097744Y-74577205D01*
X132164081Y-74604683D01*
X131482264Y-75286501D01*
X131448341Y-75314341D01*
X131337247Y-75449710D01*
X131309670Y-75501303D01*
X131254698Y-75604148D01*
X131203864Y-75771726D01*
X131202057Y-75790074D01*
X131191000Y-75902334D01*
X131191000Y-75902340D01*
X131186700Y-75946000D01*
X131191000Y-75989660D01*
X131191000Y-79191854D01*
X131174461Y-79023933D01*
X131171220Y-79013247D01*
X131139032Y-78907140D01*
X131109103Y-78808477D01*
X131002968Y-78609911D01*
X130860133Y-78435867D01*
X130816523Y-78400077D01*
X126323927Y-73907482D01*
X126288133Y-73863867D01*
X126114089Y-73721032D01*
X125915523Y-73614897D01*
X125700067Y-73549539D01*
X125532146Y-73533000D01*
X125532139Y-73533000D01*
X125476000Y-73527471D01*
X125419861Y-73533000D01*
X111447107Y-73533000D01*
X111436632Y-73522525D01*
X111193411Y-73360010D01*
X110923158Y-73248068D01*
X110636260Y-73191000D01*
X110343740Y-73191000D01*
X110056842Y-73248068D01*
X109786589Y-73360010D01*
X109543368Y-73522525D01*
X109336525Y-73729368D01*
X109174010Y-73972589D01*
X109143000Y-74047454D01*
X109143000Y-67797482D01*
X132279396Y-67797482D01*
X132319952Y-68062291D01*
X132411391Y-68314100D01*
X132468550Y-68421035D01*
X132704867Y-68483528D01*
X133464395Y-67724000D01*
X133823605Y-67724000D01*
X134583133Y-68483528D01*
X134819450Y-68421035D01*
X134932850Y-68178322D01*
X134996719Y-67918151D01*
X135002077Y-67797482D01*
X137279396Y-67797482D01*
X137319952Y-68062291D01*
X137411391Y-68314100D01*
X137468550Y-68421035D01*
X137704867Y-68483528D01*
X138464395Y-67724000D01*
X138823605Y-67724000D01*
X139583133Y-68483528D01*
X139819450Y-68421035D01*
X139932850Y-68178322D01*
X139996719Y-67918151D01*
X140008604Y-67650518D01*
X139968048Y-67385709D01*
X139876609Y-67133900D01*
X139819450Y-67026965D01*
X139583133Y-66964472D01*
X138823605Y-67724000D01*
X138464395Y-67724000D01*
X137704867Y-66964472D01*
X137468550Y-67026965D01*
X137355150Y-67269678D01*
X137291281Y-67529849D01*
X137279396Y-67797482D01*
X135002077Y-67797482D01*
X135008604Y-67650518D01*
X134968048Y-67385709D01*
X134876609Y-67133900D01*
X134819450Y-67026965D01*
X134583133Y-66964472D01*
X133823605Y-67724000D01*
X133464395Y-67724000D01*
X132704867Y-66964472D01*
X132468550Y-67026965D01*
X132355150Y-67269678D01*
X132291281Y-67529849D01*
X132279396Y-67797482D01*
X109143000Y-67797482D01*
X109143000Y-65151000D01*
X131409000Y-65151000D01*
X131409000Y-65501000D01*
X131457507Y-65739496D01*
X131551610Y-65963946D01*
X131687693Y-66165725D01*
X131860526Y-66337078D01*
X132063467Y-66471421D01*
X132288718Y-66563591D01*
X132326391Y-66567462D01*
X132517000Y-66442731D01*
X132517000Y-65151000D01*
X132771000Y-65151000D01*
X132771000Y-66442731D01*
X132944862Y-66556503D01*
X132884472Y-66784867D01*
X133644000Y-67544395D01*
X134403528Y-66784867D01*
X137884472Y-66784867D01*
X138644000Y-67544395D01*
X139403528Y-66784867D01*
X139343138Y-66556503D01*
X139517000Y-66442731D01*
X139517000Y-65151000D01*
X139771000Y-65151000D01*
X139771000Y-66442731D01*
X139961609Y-66567462D01*
X139999282Y-66563591D01*
X140224533Y-66471421D01*
X140427474Y-66337078D01*
X140600307Y-66165725D01*
X140736390Y-65963946D01*
X140830493Y-65739496D01*
X140879000Y-65501000D01*
X140879000Y-65151000D01*
X139771000Y-65151000D01*
X139517000Y-65151000D01*
X138409000Y-65151000D01*
X138409000Y-65501000D01*
X138457507Y-65739496D01*
X138551610Y-65963946D01*
X138687693Y-66165725D01*
X138860526Y-66337078D01*
X138955836Y-66400171D01*
X138838151Y-66371281D01*
X138570518Y-66359396D01*
X138305709Y-66399952D01*
X138053900Y-66491391D01*
X137946965Y-66548550D01*
X137884472Y-66784867D01*
X134403528Y-66784867D01*
X134341035Y-66548550D01*
X134098322Y-66435150D01*
X133838151Y-66371281D01*
X133570518Y-66359396D01*
X133340558Y-66394615D01*
X133427474Y-66337078D01*
X133600307Y-66165725D01*
X133736390Y-65963946D01*
X133830493Y-65739496D01*
X133879000Y-65501000D01*
X133879000Y-65151000D01*
X132771000Y-65151000D01*
X132517000Y-65151000D01*
X131409000Y-65151000D01*
X109143000Y-65151000D01*
X109143000Y-64185000D01*
X131509287Y-64185000D01*
X131457507Y-64308504D01*
G04 #@! TA.AperFunction,Conductor*
D21*
G36*
X131457507Y-64308504D02*
G01*
X131409000Y-64547000D01*
X131409000Y-64897000D01*
X132517000Y-64897000D01*
X132517000Y-64877000D01*
X132771000Y-64877000D01*
X132771000Y-64897000D01*
X133879000Y-64897000D01*
X133879000Y-64547000D01*
X133830493Y-64308504D01*
X133778713Y-64185000D01*
X138509287Y-64185000D01*
X138457507Y-64308504D01*
X138409000Y-64547000D01*
X138409000Y-64897000D01*
X139517000Y-64897000D01*
X139517000Y-64877000D01*
X139771000Y-64877000D01*
X139771000Y-64897000D01*
X140879000Y-64897000D01*
X140879000Y-64547000D01*
X140830493Y-64308504D01*
X140778713Y-64185000D01*
X158385111Y-64185000D01*
X158300589Y-64220010D01*
X158057368Y-64382525D01*
X157850525Y-64589368D01*
X157812017Y-64647000D01*
X148121659Y-64647000D01*
X148077999Y-64642700D01*
X148034339Y-64647000D01*
X148034333Y-64647000D01*
X147936924Y-64656594D01*
X147903724Y-64659864D01*
X147802058Y-64690704D01*
X147736149Y-64710697D01*
X147581709Y-64793247D01*
X147446341Y-64904341D01*
X147418501Y-64938264D01*
X144182259Y-68174506D01*
X144148342Y-68202341D01*
X144120507Y-68236258D01*
X144120505Y-68236260D01*
X144037248Y-68337709D01*
X143954698Y-68492148D01*
X143903864Y-68659726D01*
X143886700Y-68834000D01*
X143891001Y-68877670D01*
X143891000Y-75069764D01*
X142113000Y-76847764D01*
X142113000Y-74168000D01*
X142100799Y-74044118D01*
X142064664Y-73924996D01*
X142005983Y-73815213D01*
X141927013Y-73718987D01*
X141830787Y-73640017D01*
X141721004Y-73581336D01*
X141601882Y-73545201D01*
X141478000Y-73533000D01*
X140589000Y-73533000D01*
X140589000Y-71374000D01*
X140576799Y-71250118D01*
X140540664Y-71130996D01*
X140481983Y-71021213D01*
X140403013Y-70924987D01*
X140306787Y-70846017D01*
X140220232Y-70799752D01*
X141470434Y-70799752D01*
X141512646Y-70827957D01*
X141701004Y-70905978D01*
X141900963Y-70945752D01*
X142104841Y-70945752D01*
X142304800Y-70905978D01*
X142493158Y-70827957D01*
X142662676Y-70714689D01*
X142806839Y-70570526D01*
X142920107Y-70401008D01*
X142998128Y-70212650D01*
X143037902Y-70012691D01*
X143037902Y-69808813D01*
X142998128Y-69608854D01*
X142920107Y-69420496D01*
X142806839Y-69250978D01*
X142662676Y-69106815D01*
X142493158Y-68993547D01*
X142304800Y-68915526D01*
X142104841Y-68875752D01*
X141900963Y-68875752D01*
X141701004Y-68915526D01*
X141512646Y-68993547D01*
X141470434Y-69021752D01*
X139054706Y-69021752D01*
X139234100Y-68956609D01*
X139341035Y-68899450D01*
X139403528Y-68663133D01*
X138644000Y-67903605D01*
X137884472Y-68663133D01*
X137946965Y-68899450D01*
X138189678Y-69012850D01*
X138225940Y-69021752D01*
X137639625Y-69021752D01*
X137569205Y-68851744D01*
X137455937Y-68682226D01*
X137311774Y-68538063D01*
X137142256Y-68424795D01*
X136953898Y-68346774D01*
X136753939Y-68307000D01*
X136550061Y-68307000D01*
X136350102Y-68346774D01*
X136161744Y-68424795D01*
X135992226Y-68538063D01*
X135848063Y-68682226D01*
X135746651Y-68834000D01*
X134559711Y-68834000D01*
X134517774Y-68792063D01*
X134391708Y-68707829D01*
X134403528Y-68663133D01*
X133644000Y-67903605D01*
X132884472Y-68663133D01*
X132946965Y-68899450D01*
X133047310Y-68946333D01*
X132940795Y-69105744D01*
X132862774Y-69294102D01*
X132823000Y-69494061D01*
X132823000Y-69697939D01*
X132862774Y-69897898D01*
X132940795Y-70086256D01*
X133054063Y-70255774D01*
X133198226Y-70399937D01*
X133367744Y-70513205D01*
X133556102Y-70591226D01*
X133756061Y-70631000D01*
X133959939Y-70631000D01*
X134159898Y-70591226D01*
X134348256Y-70513205D01*
X134517774Y-70399937D01*
X134559711Y-70358000D01*
X136360577Y-70358000D01*
X136398000Y-70361686D01*
X136412976Y-70360211D01*
X136561253Y-70508488D01*
X136589093Y-70542411D01*
X136724461Y-70653505D01*
X136878901Y-70736055D01*
X136888610Y-70739000D01*
X135636000Y-70739000D01*
X135512118Y-70751201D01*
X135392996Y-70787336D01*
X135283213Y-70846017D01*
X135186987Y-70924987D01*
X135108017Y-71021213D01*
X135049336Y-71130996D01*
X135013201Y-71250118D01*
X135001000Y-71374000D01*
X135001000Y-72009000D01*
X133096000Y-72009000D01*
X132972118Y-72021201D01*
X132852996Y-72057336D01*
X132743213Y-72116017D01*
X132646987Y-72194987D01*
X132608194Y-72233780D01*
X132605744Y-72234795D01*
X132436226Y-72348063D01*
X132292063Y-72492226D01*
X132178795Y-72661744D01*
X132177780Y-72664194D01*
X132100194Y-72741780D01*
X132097744Y-72742795D01*
X131928226Y-72856063D01*
X131784063Y-73000226D01*
X131670795Y-73169744D01*
X131669780Y-73172194D01*
X131376987Y-73464987D01*
X131298017Y-73561213D01*
X131239336Y-73670996D01*
X131203201Y-73790118D01*
X131191000Y-73914000D01*
X131203201Y-74037882D01*
X131239336Y-74157004D01*
X131298017Y-74266787D01*
X131376987Y-74363013D01*
X131473213Y-74441983D01*
X131582996Y-74500664D01*
X131702118Y-74536799D01*
X131826000Y-74549000D01*
X132055532Y-74549000D01*
X132097744Y-74577205D01*
X132164081Y-74604683D01*
X131482264Y-75286501D01*
X131448341Y-75314341D01*
X131337247Y-75449710D01*
X131309670Y-75501303D01*
X131254698Y-75604148D01*
X131203864Y-75771726D01*
X131202057Y-75790074D01*
X131191000Y-75902334D01*
X131191000Y-75902340D01*
X131186700Y-75946000D01*
X131191000Y-75989660D01*
X131191000Y-79191854D01*
X131174461Y-79023933D01*
X131171220Y-79013247D01*
X131139032Y-78907140D01*
X131109103Y-78808477D01*
X131002968Y-78609911D01*
X130860133Y-78435867D01*
X130816523Y-78400077D01*
X126323927Y-73907482D01*
X126288133Y-73863867D01*
X126114089Y-73721032D01*
X125915523Y-73614897D01*
X125700067Y-73549539D01*
X125532146Y-73533000D01*
X125532139Y-73533000D01*
X125476000Y-73527471D01*
X125419861Y-73533000D01*
X111447107Y-73533000D01*
X111436632Y-73522525D01*
X111193411Y-73360010D01*
X110923158Y-73248068D01*
X110636260Y-73191000D01*
X110343740Y-73191000D01*
X110056842Y-73248068D01*
X109786589Y-73360010D01*
X109543368Y-73522525D01*
X109336525Y-73729368D01*
X109174010Y-73972589D01*
X109143000Y-74047454D01*
X109143000Y-67797482D01*
X132279396Y-67797482D01*
X132319952Y-68062291D01*
X132411391Y-68314100D01*
X132468550Y-68421035D01*
X132704867Y-68483528D01*
X133464395Y-67724000D01*
X133823605Y-67724000D01*
X134583133Y-68483528D01*
X134819450Y-68421035D01*
X134932850Y-68178322D01*
X134996719Y-67918151D01*
X135002077Y-67797482D01*
X137279396Y-67797482D01*
X137319952Y-68062291D01*
X137411391Y-68314100D01*
X137468550Y-68421035D01*
X137704867Y-68483528D01*
X138464395Y-67724000D01*
X138823605Y-67724000D01*
X139583133Y-68483528D01*
X139819450Y-68421035D01*
X139932850Y-68178322D01*
X139996719Y-67918151D01*
X140008604Y-67650518D01*
X139968048Y-67385709D01*
X139876609Y-67133900D01*
X139819450Y-67026965D01*
X139583133Y-66964472D01*
X138823605Y-67724000D01*
X138464395Y-67724000D01*
X137704867Y-66964472D01*
X137468550Y-67026965D01*
X137355150Y-67269678D01*
X137291281Y-67529849D01*
X137279396Y-67797482D01*
X135002077Y-67797482D01*
X135008604Y-67650518D01*
X134968048Y-67385709D01*
X134876609Y-67133900D01*
X134819450Y-67026965D01*
X134583133Y-66964472D01*
X133823605Y-67724000D01*
X133464395Y-67724000D01*
X132704867Y-66964472D01*
X132468550Y-67026965D01*
X132355150Y-67269678D01*
X132291281Y-67529849D01*
X132279396Y-67797482D01*
X109143000Y-67797482D01*
X109143000Y-65151000D01*
X131409000Y-65151000D01*
X131409000Y-65501000D01*
X131457507Y-65739496D01*
X131551610Y-65963946D01*
X131687693Y-66165725D01*
X131860526Y-66337078D01*
X132063467Y-66471421D01*
X132288718Y-66563591D01*
X132326391Y-66567462D01*
X132517000Y-66442731D01*
X132517000Y-65151000D01*
X132771000Y-65151000D01*
X132771000Y-66442731D01*
X132944862Y-66556503D01*
X132884472Y-66784867D01*
X133644000Y-67544395D01*
X134403528Y-66784867D01*
X137884472Y-66784867D01*
X138644000Y-67544395D01*
X139403528Y-66784867D01*
X139343138Y-66556503D01*
X139517000Y-66442731D01*
X139517000Y-65151000D01*
X139771000Y-65151000D01*
X139771000Y-66442731D01*
X139961609Y-66567462D01*
X139999282Y-66563591D01*
X140224533Y-66471421D01*
X140427474Y-66337078D01*
X140600307Y-66165725D01*
X140736390Y-65963946D01*
X140830493Y-65739496D01*
X140879000Y-65501000D01*
X140879000Y-65151000D01*
X139771000Y-65151000D01*
X139517000Y-65151000D01*
X138409000Y-65151000D01*
X138409000Y-65501000D01*
X138457507Y-65739496D01*
X138551610Y-65963946D01*
X138687693Y-66165725D01*
X138860526Y-66337078D01*
X138955836Y-66400171D01*
X138838151Y-66371281D01*
X138570518Y-66359396D01*
X138305709Y-66399952D01*
X138053900Y-66491391D01*
X137946965Y-66548550D01*
X137884472Y-66784867D01*
X134403528Y-66784867D01*
X134341035Y-66548550D01*
X134098322Y-66435150D01*
X133838151Y-66371281D01*
X133570518Y-66359396D01*
X133340558Y-66394615D01*
X133427474Y-66337078D01*
X133600307Y-66165725D01*
X133736390Y-65963946D01*
X133830493Y-65739496D01*
X133879000Y-65501000D01*
X133879000Y-65151000D01*
X132771000Y-65151000D01*
X132517000Y-65151000D01*
X131409000Y-65151000D01*
X109143000Y-65151000D01*
X109143000Y-64185000D01*
X131509287Y-64185000D01*
X131457507Y-64308504D01*
G37*
G04 #@! TD.AperFunction*
D16*
X143129000Y-80772000D02*
X143131440Y-80796776D01*
X143138667Y-80820601D01*
X143150403Y-80842557D01*
X143166197Y-80861803D01*
X143185443Y-80877597D01*
X143207399Y-80889333D01*
X143231224Y-80896560D01*
X143256000Y-80899000D01*
X144056499Y-80899000D01*
X142786499Y-82169000D01*
X141351000Y-82169000D01*
X141351000Y-79971500D01*
X141439500Y-79883000D01*
X143129000Y-79883000D01*
X143129000Y-80772000D01*
G04 #@! TA.AperFunction,Conductor*
D21*
G36*
X143129000Y-80772000D02*
G01*
X143131440Y-80796776D01*
X143138667Y-80820601D01*
X143150403Y-80842557D01*
X143166197Y-80861803D01*
X143185443Y-80877597D01*
X143207399Y-80889333D01*
X143231224Y-80896560D01*
X143256000Y-80899000D01*
X144056499Y-80899000D01*
X142786499Y-82169000D01*
X141351000Y-82169000D01*
X141351000Y-79971500D01*
X141439500Y-79883000D01*
X143129000Y-79883000D01*
X143129000Y-80772000D01*
G37*
G04 #@! TD.AperFunction*
D16*
X146044177Y-100501323D02*
X143856499Y-102689001D01*
X140295380Y-102689001D01*
X141229828Y-101682672D01*
X143325501Y-99587000D01*
X146893191Y-99587000D01*
X146044177Y-100501323D01*
G04 #@! TA.AperFunction,Conductor*
D21*
G36*
X146044177Y-100501323D02*
G01*
X143856499Y-102689001D01*
X140295380Y-102689001D01*
X141229828Y-101682672D01*
X143325501Y-99587000D01*
X146893191Y-99587000D01*
X146044177Y-100501323D01*
G37*
G04 #@! TD.AperFunction*
D16*
X139827000Y-72367868D02*
X139824624Y-72373604D01*
X139789000Y-72552699D01*
X139789000Y-72735301D01*
X139824624Y-72914396D01*
X139827000Y-72920132D01*
X139827000Y-73129868D01*
X139824624Y-73135604D01*
X139789000Y-73314699D01*
X139789000Y-73497301D01*
X139824624Y-73676396D01*
X139827000Y-73682132D01*
X139827000Y-74168000D01*
X139829440Y-74192776D01*
X139836667Y-74216601D01*
X139848403Y-74238557D01*
X139864197Y-74257803D01*
X139883443Y-74273597D01*
X139905399Y-74285333D01*
X139929224Y-74292560D01*
X139954000Y-74295000D01*
X140439868Y-74295000D01*
X140445604Y-74297376D01*
X140624699Y-74333000D01*
X140807301Y-74333000D01*
X140986396Y-74297376D01*
X140992132Y-74295000D01*
X141320101Y-74295000D01*
X141313000Y-74330699D01*
X141313000Y-74513301D01*
X141348624Y-74692396D01*
X141351000Y-74698132D01*
X141351000Y-74907868D01*
X141348624Y-74913604D01*
X141313000Y-75092699D01*
X141313000Y-75275301D01*
X141348624Y-75454396D01*
X141351000Y-75460132D01*
X141351000Y-77343000D01*
X140738132Y-77343000D01*
X140732396Y-77340624D01*
X140589000Y-77312101D01*
X140589000Y-75438000D01*
X140586560Y-75413224D01*
X140579333Y-75389399D01*
X140567597Y-75367443D01*
X140551803Y-75348197D01*
X140532557Y-75332403D01*
X140510601Y-75320667D01*
X140486776Y-75313440D01*
X140462000Y-75311000D01*
X139573000Y-75311000D01*
X139573000Y-74444132D01*
X139575376Y-74438396D01*
X139611000Y-74259301D01*
X139611000Y-74076699D01*
X139575376Y-73897604D01*
X139573000Y-73891868D01*
X139573000Y-73428132D01*
X139575376Y-73422396D01*
X139611000Y-73243301D01*
X139611000Y-73060699D01*
X139575376Y-72881604D01*
X139573000Y-72875868D01*
X139573000Y-72644000D01*
X139570560Y-72619224D01*
X139563333Y-72595399D01*
X139551597Y-72573443D01*
X139535803Y-72554197D01*
X139516557Y-72538403D01*
X139494601Y-72526667D01*
X139470776Y-72519440D01*
X139446000Y-72517000D01*
X139359976Y-72517000D01*
X139274928Y-72431952D01*
X139123099Y-72330504D01*
X138954396Y-72260624D01*
X138775301Y-72225000D01*
X138592699Y-72225000D01*
X138413604Y-72260624D01*
X138244901Y-72330504D01*
X138184294Y-72371000D01*
X137706348Y-72371000D01*
X137667999Y-72367223D01*
X137629650Y-72371000D01*
X137629640Y-72371000D01*
X137514897Y-72382301D01*
X137367678Y-72426960D01*
X137232000Y-72499481D01*
X137210653Y-72517000D01*
X136906000Y-72517000D01*
X136881224Y-72519440D01*
X136857399Y-72526667D01*
X136835443Y-72538403D01*
X136816197Y-72554197D01*
X135583394Y-73787000D01*
X132132606Y-73787000D01*
X133148606Y-72771000D01*
X135636000Y-72771000D01*
X135660776Y-72768560D01*
X135684601Y-72761333D01*
X135706557Y-72749597D01*
X135725803Y-72733803D01*
X135741597Y-72714557D01*
X135753333Y-72692601D01*
X135760560Y-72668776D01*
X135763000Y-72644000D01*
X135763000Y-71501000D01*
X139827000Y-71501000D01*
X139827000Y-72367868D01*
G04 #@! TA.AperFunction,Conductor*
D21*
G36*
X139827000Y-72367868D02*
G01*
X139824624Y-72373604D01*
X139789000Y-72552699D01*
X139789000Y-72735301D01*
X139824624Y-72914396D01*
X139827000Y-72920132D01*
X139827000Y-73129868D01*
X139824624Y-73135604D01*
X139789000Y-73314699D01*
X139789000Y-73497301D01*
X139824624Y-73676396D01*
X139827000Y-73682132D01*
X139827000Y-74168000D01*
X139829440Y-74192776D01*
X139836667Y-74216601D01*
X139848403Y-74238557D01*
X139864197Y-74257803D01*
X139883443Y-74273597D01*
X139905399Y-74285333D01*
X139929224Y-74292560D01*
X139954000Y-74295000D01*
X140439868Y-74295000D01*
X140445604Y-74297376D01*
X140624699Y-74333000D01*
X140807301Y-74333000D01*
X140986396Y-74297376D01*
X140992132Y-74295000D01*
X141320101Y-74295000D01*
X141313000Y-74330699D01*
X141313000Y-74513301D01*
X141348624Y-74692396D01*
X141351000Y-74698132D01*
X141351000Y-74907868D01*
X141348624Y-74913604D01*
X141313000Y-75092699D01*
X141313000Y-75275301D01*
X141348624Y-75454396D01*
X141351000Y-75460132D01*
X141351000Y-77343000D01*
X140738132Y-77343000D01*
X140732396Y-77340624D01*
X140589000Y-77312101D01*
X140589000Y-75438000D01*
X140586560Y-75413224D01*
X140579333Y-75389399D01*
X140567597Y-75367443D01*
X140551803Y-75348197D01*
X140532557Y-75332403D01*
X140510601Y-75320667D01*
X140486776Y-75313440D01*
X140462000Y-75311000D01*
X139573000Y-75311000D01*
X139573000Y-74444132D01*
X139575376Y-74438396D01*
X139611000Y-74259301D01*
X139611000Y-74076699D01*
X139575376Y-73897604D01*
X139573000Y-73891868D01*
X139573000Y-73428132D01*
X139575376Y-73422396D01*
X139611000Y-73243301D01*
X139611000Y-73060699D01*
X139575376Y-72881604D01*
X139573000Y-72875868D01*
X139573000Y-72644000D01*
X139570560Y-72619224D01*
X139563333Y-72595399D01*
X139551597Y-72573443D01*
X139535803Y-72554197D01*
X139516557Y-72538403D01*
X139494601Y-72526667D01*
X139470776Y-72519440D01*
X139446000Y-72517000D01*
X139359976Y-72517000D01*
X139274928Y-72431952D01*
X139123099Y-72330504D01*
X138954396Y-72260624D01*
X138775301Y-72225000D01*
X138592699Y-72225000D01*
X138413604Y-72260624D01*
X138244901Y-72330504D01*
X138184294Y-72371000D01*
X137706348Y-72371000D01*
X137667999Y-72367223D01*
X137629650Y-72371000D01*
X137629640Y-72371000D01*
X137514897Y-72382301D01*
X137367678Y-72426960D01*
X137232000Y-72499481D01*
X137210653Y-72517000D01*
X136906000Y-72517000D01*
X136881224Y-72519440D01*
X136857399Y-72526667D01*
X136835443Y-72538403D01*
X136816197Y-72554197D01*
X135583394Y-73787000D01*
X132132606Y-73787000D01*
X133148606Y-72771000D01*
X135636000Y-72771000D01*
X135660776Y-72768560D01*
X135684601Y-72761333D01*
X135706557Y-72749597D01*
X135725803Y-72733803D01*
X135741597Y-72714557D01*
X135753333Y-72692601D01*
X135760560Y-72668776D01*
X135763000Y-72644000D01*
X135763000Y-71501000D01*
X139827000Y-71501000D01*
X139827000Y-72367868D01*
G37*
G04 #@! TD.AperFunction*
M02*
