G04 #@! TF.GenerationSoftware,KiCad,Pcbnew,5.1.9*
G04 #@! TF.CreationDate,2021-03-23T19:43:02+01:00*
G04 #@! TF.ProjectId,dwm1001-devboard,64776d31-3030-4312-9d64-6576626f6172,1*
G04 #@! TF.SameCoordinates,Original*
G04 #@! TF.FileFunction,Soldermask,Top*
G04 #@! TF.FilePolarity,Negative*
%FSLAX46Y46*%
G04 Gerber Fmt 4.6, Leading zero omitted, Abs format (unit mm)*
G04 Created by KiCad (PCBNEW 5.1.9) date 2021-03-23 19:43:02*
%MOMM*%
%LPD*%
G01*
G04 APERTURE LIST*
%ADD10R,2.000000X4.500000*%
%ADD11R,1.500000X1.900000*%
%ADD12C,1.450000*%
%ADD13R,0.400000X1.350000*%
%ADD14O,1.200000X1.900000*%
%ADD15R,1.200000X1.900000*%
%ADD16R,1.300000X1.550000*%
%ADD17R,1.550000X1.300000*%
%ADD18O,1.700000X1.700000*%
%ADD19R,1.700000X1.700000*%
%ADD20R,1.500000X2.000000*%
%ADD21R,3.800000X2.000000*%
%ADD22R,2.540000X0.650000*%
%ADD23C,1.000000*%
%ADD24R,1.400000X1.000000*%
%ADD25R,1.000000X1.400000*%
%ADD26C,0.100000*%
%ADD27C,1.400000*%
%ADD28C,0.787400*%
%ADD29C,0.990600*%
G04 APERTURE END LIST*
G36*
G01*
X152574500Y-95471000D02*
X152574500Y-94521000D01*
G75*
G02*
X152824500Y-94271000I250000J0D01*
G01*
X153499500Y-94271000D01*
G75*
G02*
X153749500Y-94521000I0J-250000D01*
G01*
X153749500Y-95471000D01*
G75*
G02*
X153499500Y-95721000I-250000J0D01*
G01*
X152824500Y-95721000D01*
G75*
G02*
X152574500Y-95471000I0J250000D01*
G01*
G37*
G36*
G01*
X150499500Y-95471000D02*
X150499500Y-94521000D01*
G75*
G02*
X150749500Y-94271000I250000J0D01*
G01*
X151424500Y-94271000D01*
G75*
G02*
X151674500Y-94521000I0J-250000D01*
G01*
X151674500Y-95471000D01*
G75*
G02*
X151424500Y-95721000I-250000J0D01*
G01*
X150749500Y-95721000D01*
G75*
G02*
X150499500Y-95471000I0J250000D01*
G01*
G37*
D10*
X127254000Y-79874000D03*
X127254000Y-71374000D03*
G36*
G01*
X139804000Y-75349000D02*
X140104000Y-75349000D01*
G75*
G02*
X140254000Y-75499000I0J-150000D01*
G01*
X140254000Y-77149000D01*
G75*
G02*
X140104000Y-77299000I-150000J0D01*
G01*
X139804000Y-77299000D01*
G75*
G02*
X139654000Y-77149000I0J150000D01*
G01*
X139654000Y-75499000D01*
G75*
G02*
X139804000Y-75349000I150000J0D01*
G01*
G37*
G36*
G01*
X138534000Y-75349000D02*
X138834000Y-75349000D01*
G75*
G02*
X138984000Y-75499000I0J-150000D01*
G01*
X138984000Y-77149000D01*
G75*
G02*
X138834000Y-77299000I-150000J0D01*
G01*
X138534000Y-77299000D01*
G75*
G02*
X138384000Y-77149000I0J150000D01*
G01*
X138384000Y-75499000D01*
G75*
G02*
X138534000Y-75349000I150000J0D01*
G01*
G37*
G36*
G01*
X137264000Y-75349000D02*
X137564000Y-75349000D01*
G75*
G02*
X137714000Y-75499000I0J-150000D01*
G01*
X137714000Y-77149000D01*
G75*
G02*
X137564000Y-77299000I-150000J0D01*
G01*
X137264000Y-77299000D01*
G75*
G02*
X137114000Y-77149000I0J150000D01*
G01*
X137114000Y-75499000D01*
G75*
G02*
X137264000Y-75349000I150000J0D01*
G01*
G37*
G36*
G01*
X135994000Y-75349000D02*
X136294000Y-75349000D01*
G75*
G02*
X136444000Y-75499000I0J-150000D01*
G01*
X136444000Y-77149000D01*
G75*
G02*
X136294000Y-77299000I-150000J0D01*
G01*
X135994000Y-77299000D01*
G75*
G02*
X135844000Y-77149000I0J150000D01*
G01*
X135844000Y-75499000D01*
G75*
G02*
X135994000Y-75349000I150000J0D01*
G01*
G37*
G36*
G01*
X134724000Y-75349000D02*
X135024000Y-75349000D01*
G75*
G02*
X135174000Y-75499000I0J-150000D01*
G01*
X135174000Y-77149000D01*
G75*
G02*
X135024000Y-77299000I-150000J0D01*
G01*
X134724000Y-77299000D01*
G75*
G02*
X134574000Y-77149000I0J150000D01*
G01*
X134574000Y-75499000D01*
G75*
G02*
X134724000Y-75349000I150000J0D01*
G01*
G37*
G36*
G01*
X133454000Y-75349000D02*
X133754000Y-75349000D01*
G75*
G02*
X133904000Y-75499000I0J-150000D01*
G01*
X133904000Y-77149000D01*
G75*
G02*
X133754000Y-77299000I-150000J0D01*
G01*
X133454000Y-77299000D01*
G75*
G02*
X133304000Y-77149000I0J150000D01*
G01*
X133304000Y-75499000D01*
G75*
G02*
X133454000Y-75349000I150000J0D01*
G01*
G37*
G36*
G01*
X132184000Y-75349000D02*
X132484000Y-75349000D01*
G75*
G02*
X132634000Y-75499000I0J-150000D01*
G01*
X132634000Y-77149000D01*
G75*
G02*
X132484000Y-77299000I-150000J0D01*
G01*
X132184000Y-77299000D01*
G75*
G02*
X132034000Y-77149000I0J150000D01*
G01*
X132034000Y-75499000D01*
G75*
G02*
X132184000Y-75349000I150000J0D01*
G01*
G37*
G36*
G01*
X130914000Y-75349000D02*
X131214000Y-75349000D01*
G75*
G02*
X131364000Y-75499000I0J-150000D01*
G01*
X131364000Y-77149000D01*
G75*
G02*
X131214000Y-77299000I-150000J0D01*
G01*
X130914000Y-77299000D01*
G75*
G02*
X130764000Y-77149000I0J150000D01*
G01*
X130764000Y-75499000D01*
G75*
G02*
X130914000Y-75349000I150000J0D01*
G01*
G37*
G36*
G01*
X130914000Y-70399000D02*
X131214000Y-70399000D01*
G75*
G02*
X131364000Y-70549000I0J-150000D01*
G01*
X131364000Y-72199000D01*
G75*
G02*
X131214000Y-72349000I-150000J0D01*
G01*
X130914000Y-72349000D01*
G75*
G02*
X130764000Y-72199000I0J150000D01*
G01*
X130764000Y-70549000D01*
G75*
G02*
X130914000Y-70399000I150000J0D01*
G01*
G37*
G36*
G01*
X132184000Y-70399000D02*
X132484000Y-70399000D01*
G75*
G02*
X132634000Y-70549000I0J-150000D01*
G01*
X132634000Y-72199000D01*
G75*
G02*
X132484000Y-72349000I-150000J0D01*
G01*
X132184000Y-72349000D01*
G75*
G02*
X132034000Y-72199000I0J150000D01*
G01*
X132034000Y-70549000D01*
G75*
G02*
X132184000Y-70399000I150000J0D01*
G01*
G37*
G36*
G01*
X133454000Y-70399000D02*
X133754000Y-70399000D01*
G75*
G02*
X133904000Y-70549000I0J-150000D01*
G01*
X133904000Y-72199000D01*
G75*
G02*
X133754000Y-72349000I-150000J0D01*
G01*
X133454000Y-72349000D01*
G75*
G02*
X133304000Y-72199000I0J150000D01*
G01*
X133304000Y-70549000D01*
G75*
G02*
X133454000Y-70399000I150000J0D01*
G01*
G37*
G36*
G01*
X134724000Y-70399000D02*
X135024000Y-70399000D01*
G75*
G02*
X135174000Y-70549000I0J-150000D01*
G01*
X135174000Y-72199000D01*
G75*
G02*
X135024000Y-72349000I-150000J0D01*
G01*
X134724000Y-72349000D01*
G75*
G02*
X134574000Y-72199000I0J150000D01*
G01*
X134574000Y-70549000D01*
G75*
G02*
X134724000Y-70399000I150000J0D01*
G01*
G37*
G36*
G01*
X135994000Y-70399000D02*
X136294000Y-70399000D01*
G75*
G02*
X136444000Y-70549000I0J-150000D01*
G01*
X136444000Y-72199000D01*
G75*
G02*
X136294000Y-72349000I-150000J0D01*
G01*
X135994000Y-72349000D01*
G75*
G02*
X135844000Y-72199000I0J150000D01*
G01*
X135844000Y-70549000D01*
G75*
G02*
X135994000Y-70399000I150000J0D01*
G01*
G37*
G36*
G01*
X137264000Y-70399000D02*
X137564000Y-70399000D01*
G75*
G02*
X137714000Y-70549000I0J-150000D01*
G01*
X137714000Y-72199000D01*
G75*
G02*
X137564000Y-72349000I-150000J0D01*
G01*
X137264000Y-72349000D01*
G75*
G02*
X137114000Y-72199000I0J150000D01*
G01*
X137114000Y-70549000D01*
G75*
G02*
X137264000Y-70399000I150000J0D01*
G01*
G37*
G36*
G01*
X138534000Y-70399000D02*
X138834000Y-70399000D01*
G75*
G02*
X138984000Y-70549000I0J-150000D01*
G01*
X138984000Y-72199000D01*
G75*
G02*
X138834000Y-72349000I-150000J0D01*
G01*
X138534000Y-72349000D01*
G75*
G02*
X138384000Y-72199000I0J150000D01*
G01*
X138384000Y-70549000D01*
G75*
G02*
X138534000Y-70399000I150000J0D01*
G01*
G37*
G36*
G01*
X139804000Y-70399000D02*
X140104000Y-70399000D01*
G75*
G02*
X140254000Y-70549000I0J-150000D01*
G01*
X140254000Y-72199000D01*
G75*
G02*
X140104000Y-72349000I-150000J0D01*
G01*
X139804000Y-72349000D01*
G75*
G02*
X139654000Y-72199000I0J150000D01*
G01*
X139654000Y-70549000D01*
G75*
G02*
X139804000Y-70399000I150000J0D01*
G01*
G37*
D11*
X135144000Y-65024000D03*
D12*
X138644000Y-67724000D03*
D13*
X136794000Y-67724000D03*
X137444000Y-67724000D03*
X134844000Y-67724000D03*
X135494000Y-67724000D03*
X136144000Y-67724000D03*
D12*
X133644000Y-67724000D03*
D11*
X137144000Y-65024000D03*
D14*
X139644000Y-65024000D03*
X132644000Y-65024000D03*
D15*
X133244000Y-65024000D03*
X139044000Y-65024000D03*
D16*
X136470000Y-91351000D03*
X140970000Y-91351000D03*
X140970000Y-83401000D03*
X136470000Y-83401000D03*
D17*
X118440000Y-71374000D03*
X118440000Y-66874000D03*
X110490000Y-66874000D03*
X110490000Y-71374000D03*
G36*
G01*
X143618000Y-92259999D02*
X143618000Y-93160001D01*
G75*
G02*
X143368001Y-93410000I-249999J0D01*
G01*
X142667999Y-93410000D01*
G75*
G02*
X142418000Y-93160001I0J249999D01*
G01*
X142418000Y-92259999D01*
G75*
G02*
X142667999Y-92010000I249999J0D01*
G01*
X143368001Y-92010000D01*
G75*
G02*
X143618000Y-92259999I0J-249999D01*
G01*
G37*
G36*
G01*
X145618000Y-92259999D02*
X145618000Y-93160001D01*
G75*
G02*
X145368001Y-93410000I-249999J0D01*
G01*
X144667999Y-93410000D01*
G75*
G02*
X144418000Y-93160001I0J249999D01*
G01*
X144418000Y-92259999D01*
G75*
G02*
X144667999Y-92010000I249999J0D01*
G01*
X145368001Y-92010000D01*
G75*
G02*
X145618000Y-92259999I0J-249999D01*
G01*
G37*
G36*
G01*
X153473999Y-98714000D02*
X154374001Y-98714000D01*
G75*
G02*
X154624000Y-98963999I0J-249999D01*
G01*
X154624000Y-99664001D01*
G75*
G02*
X154374001Y-99914000I-249999J0D01*
G01*
X153473999Y-99914000D01*
G75*
G02*
X153224000Y-99664001I0J249999D01*
G01*
X153224000Y-98963999D01*
G75*
G02*
X153473999Y-98714000I249999J0D01*
G01*
G37*
G36*
G01*
X153473999Y-96714000D02*
X154374001Y-96714000D01*
G75*
G02*
X154624000Y-96963999I0J-249999D01*
G01*
X154624000Y-97664001D01*
G75*
G02*
X154374001Y-97914000I-249999J0D01*
G01*
X153473999Y-97914000D01*
G75*
G02*
X153224000Y-97664001I0J249999D01*
G01*
X153224000Y-96963999D01*
G75*
G02*
X153473999Y-96714000I249999J0D01*
G01*
G37*
G36*
G01*
X151187999Y-98714000D02*
X152088001Y-98714000D01*
G75*
G02*
X152338000Y-98963999I0J-249999D01*
G01*
X152338000Y-99664001D01*
G75*
G02*
X152088001Y-99914000I-249999J0D01*
G01*
X151187999Y-99914000D01*
G75*
G02*
X150938000Y-99664001I0J249999D01*
G01*
X150938000Y-98963999D01*
G75*
G02*
X151187999Y-98714000I249999J0D01*
G01*
G37*
G36*
G01*
X151187999Y-96714000D02*
X152088001Y-96714000D01*
G75*
G02*
X152338000Y-96963999I0J-249999D01*
G01*
X152338000Y-97664001D01*
G75*
G02*
X152088001Y-97914000I-249999J0D01*
G01*
X151187999Y-97914000D01*
G75*
G02*
X150938000Y-97664001I0J249999D01*
G01*
X150938000Y-96963999D01*
G75*
G02*
X151187999Y-96714000I249999J0D01*
G01*
G37*
G36*
G01*
X148901999Y-98714000D02*
X149802001Y-98714000D01*
G75*
G02*
X150052000Y-98963999I0J-249999D01*
G01*
X150052000Y-99664001D01*
G75*
G02*
X149802001Y-99914000I-249999J0D01*
G01*
X148901999Y-99914000D01*
G75*
G02*
X148652000Y-99664001I0J249999D01*
G01*
X148652000Y-98963999D01*
G75*
G02*
X148901999Y-98714000I249999J0D01*
G01*
G37*
G36*
G01*
X148901999Y-96714000D02*
X149802001Y-96714000D01*
G75*
G02*
X150052000Y-96963999I0J-249999D01*
G01*
X150052000Y-97664001D01*
G75*
G02*
X149802001Y-97914000I-249999J0D01*
G01*
X148901999Y-97914000D01*
G75*
G02*
X148652000Y-97664001I0J249999D01*
G01*
X148652000Y-96963999D01*
G75*
G02*
X148901999Y-96714000I249999J0D01*
G01*
G37*
G36*
G01*
X146361999Y-98714000D02*
X147262001Y-98714000D01*
G75*
G02*
X147512000Y-98963999I0J-249999D01*
G01*
X147512000Y-99664001D01*
G75*
G02*
X147262001Y-99914000I-249999J0D01*
G01*
X146361999Y-99914000D01*
G75*
G02*
X146112000Y-99664001I0J249999D01*
G01*
X146112000Y-98963999D01*
G75*
G02*
X146361999Y-98714000I249999J0D01*
G01*
G37*
G36*
G01*
X146361999Y-96714000D02*
X147262001Y-96714000D01*
G75*
G02*
X147512000Y-96963999I0J-249999D01*
G01*
X147512000Y-97664001D01*
G75*
G02*
X147262001Y-97914000I-249999J0D01*
G01*
X146361999Y-97914000D01*
G75*
G02*
X146112000Y-97664001I0J249999D01*
G01*
X146112000Y-96963999D01*
G75*
G02*
X146361999Y-96714000I249999J0D01*
G01*
G37*
G36*
G01*
X133487000Y-78560000D02*
X133487000Y-81460000D01*
G75*
G02*
X133237000Y-81710000I-250000J0D01*
G01*
X132437000Y-81710000D01*
G75*
G02*
X132187000Y-81460000I0J250000D01*
G01*
X132187000Y-78560000D01*
G75*
G02*
X132437000Y-78310000I250000J0D01*
G01*
X133237000Y-78310000D01*
G75*
G02*
X133487000Y-78560000I0J-250000D01*
G01*
G37*
G36*
G01*
X137937000Y-78560000D02*
X137937000Y-81460000D01*
G75*
G02*
X137687000Y-81710000I-250000J0D01*
G01*
X136887000Y-81710000D01*
G75*
G02*
X136637000Y-81460000I0J250000D01*
G01*
X136637000Y-78560000D01*
G75*
G02*
X136887000Y-78310000I250000J0D01*
G01*
X137687000Y-78310000D01*
G75*
G02*
X137937000Y-78560000I0J-250000D01*
G01*
G37*
G36*
G01*
X151564000Y-78308000D02*
X148664000Y-78308000D01*
G75*
G02*
X148414000Y-78058000I0J250000D01*
G01*
X148414000Y-77258000D01*
G75*
G02*
X148664000Y-77008000I250000J0D01*
G01*
X151564000Y-77008000D01*
G75*
G02*
X151814000Y-77258000I0J-250000D01*
G01*
X151814000Y-78058000D01*
G75*
G02*
X151564000Y-78308000I-250000J0D01*
G01*
G37*
G36*
G01*
X151564000Y-82758000D02*
X148664000Y-82758000D01*
G75*
G02*
X148414000Y-82508000I0J250000D01*
G01*
X148414000Y-81708000D01*
G75*
G02*
X148664000Y-81458000I250000J0D01*
G01*
X151564000Y-81458000D01*
G75*
G02*
X151814000Y-81708000I0J-250000D01*
G01*
X151814000Y-82508000D01*
G75*
G02*
X151564000Y-82758000I-250000J0D01*
G01*
G37*
D18*
X122682000Y-89662000D03*
X125222000Y-89662000D03*
X127762000Y-89662000D03*
D19*
X130302000Y-89662000D03*
D20*
X152795000Y-86385000D03*
X148195000Y-86385000D03*
X150495000Y-86385000D03*
D21*
X150495000Y-92685000D03*
D22*
X122660000Y-111762000D03*
X122660000Y-110762000D03*
X122660000Y-109762000D03*
X122660000Y-108762000D03*
X122660000Y-107762000D03*
X122660000Y-106762000D03*
X122660000Y-105762000D03*
X122660000Y-104762000D03*
X122660000Y-103762000D03*
X122660000Y-102762000D03*
X122660000Y-101762000D03*
X122660000Y-100762000D03*
X122660000Y-99762000D03*
X122660000Y-98762000D03*
X122660000Y-97762000D03*
X122660000Y-96762000D03*
X122660000Y-95762000D03*
X141500000Y-95762000D03*
X141500000Y-96762000D03*
X141500000Y-97762000D03*
X141500000Y-98762000D03*
X141500000Y-99762000D03*
X141500000Y-100762000D03*
X141500000Y-101762000D03*
X141500000Y-102762000D03*
X141500000Y-103762000D03*
X141500000Y-104762000D03*
X141500000Y-105762000D03*
X141500000Y-106762000D03*
X141500000Y-107762000D03*
X141500000Y-108762000D03*
X141500000Y-109762000D03*
X141500000Y-110762000D03*
X141500000Y-111762000D03*
D23*
X134515000Y-96812000D03*
G36*
G01*
X140277001Y-79483000D02*
X139376999Y-79483000D01*
G75*
G02*
X139127000Y-79233001I0J249999D01*
G01*
X139127000Y-78532999D01*
G75*
G02*
X139376999Y-78283000I249999J0D01*
G01*
X140277001Y-78283000D01*
G75*
G02*
X140527000Y-78532999I0J-249999D01*
G01*
X140527000Y-79233001D01*
G75*
G02*
X140277001Y-79483000I-249999J0D01*
G01*
G37*
G36*
G01*
X140277001Y-81483000D02*
X139376999Y-81483000D01*
G75*
G02*
X139127000Y-81233001I0J249999D01*
G01*
X139127000Y-80532999D01*
G75*
G02*
X139376999Y-80283000I249999J0D01*
G01*
X140277001Y-80283000D01*
G75*
G02*
X140527000Y-80532999I0J-249999D01*
G01*
X140527000Y-81233001D01*
G75*
G02*
X140277001Y-81483000I-249999J0D01*
G01*
G37*
D24*
X144485000Y-82992000D03*
X146685000Y-82042000D03*
X146685000Y-83942000D03*
D25*
X121478000Y-86444000D03*
X123378000Y-86444000D03*
X122428000Y-84244000D03*
D26*
G36*
X143734000Y-87109398D02*
G01*
X143709466Y-87109398D01*
X143660635Y-87104588D01*
X143612510Y-87095016D01*
X143565555Y-87080772D01*
X143520222Y-87061995D01*
X143476949Y-87038864D01*
X143436150Y-87011604D01*
X143398221Y-86980476D01*
X143363524Y-86945779D01*
X143332396Y-86907850D01*
X143305136Y-86867051D01*
X143282005Y-86823778D01*
X143263228Y-86778445D01*
X143248984Y-86731490D01*
X143239412Y-86683365D01*
X143234602Y-86634534D01*
X143234602Y-86610000D01*
X143234000Y-86610000D01*
X143234000Y-86110000D01*
X143234602Y-86110000D01*
X143234602Y-86085466D01*
X143239412Y-86036635D01*
X143248984Y-85988510D01*
X143263228Y-85941555D01*
X143282005Y-85896222D01*
X143305136Y-85852949D01*
X143332396Y-85812150D01*
X143363524Y-85774221D01*
X143398221Y-85739524D01*
X143436150Y-85708396D01*
X143476949Y-85681136D01*
X143520222Y-85658005D01*
X143565555Y-85639228D01*
X143612510Y-85624984D01*
X143660635Y-85615412D01*
X143709466Y-85610602D01*
X143734000Y-85610602D01*
X143734000Y-85610000D01*
X144234000Y-85610000D01*
X144234000Y-87110000D01*
X143734000Y-87110000D01*
X143734000Y-87109398D01*
G37*
G36*
X144534000Y-85610000D02*
G01*
X145034000Y-85610000D01*
X145034000Y-85610602D01*
X145058534Y-85610602D01*
X145107365Y-85615412D01*
X145155490Y-85624984D01*
X145202445Y-85639228D01*
X145247778Y-85658005D01*
X145291051Y-85681136D01*
X145331850Y-85708396D01*
X145369779Y-85739524D01*
X145404476Y-85774221D01*
X145435604Y-85812150D01*
X145462864Y-85852949D01*
X145485995Y-85896222D01*
X145504772Y-85941555D01*
X145519016Y-85988510D01*
X145528588Y-86036635D01*
X145533398Y-86085466D01*
X145533398Y-86110000D01*
X145534000Y-86110000D01*
X145534000Y-86610000D01*
X145533398Y-86610000D01*
X145533398Y-86634534D01*
X145528588Y-86683365D01*
X145519016Y-86731490D01*
X145504772Y-86778445D01*
X145485995Y-86823778D01*
X145462864Y-86867051D01*
X145435604Y-86907850D01*
X145404476Y-86945779D01*
X145369779Y-86980476D01*
X145331850Y-87011604D01*
X145291051Y-87038864D01*
X145247778Y-87061995D01*
X145202445Y-87080772D01*
X145155490Y-87095016D01*
X145107365Y-87104588D01*
X145058534Y-87109398D01*
X145034000Y-87109398D01*
X145034000Y-87110000D01*
X144534000Y-87110000D01*
X144534000Y-85610000D01*
G37*
G36*
X154574000Y-101358602D02*
G01*
X154598534Y-101358602D01*
X154647365Y-101363412D01*
X154695490Y-101372984D01*
X154742445Y-101387228D01*
X154787778Y-101406005D01*
X154831051Y-101429136D01*
X154871850Y-101456396D01*
X154909779Y-101487524D01*
X154944476Y-101522221D01*
X154975604Y-101560150D01*
X155002864Y-101600949D01*
X155025995Y-101644222D01*
X155044772Y-101689555D01*
X155059016Y-101736510D01*
X155068588Y-101784635D01*
X155073398Y-101833466D01*
X155073398Y-101858000D01*
X155074000Y-101858000D01*
X155074000Y-102358000D01*
X155073398Y-102358000D01*
X155073398Y-102382534D01*
X155068588Y-102431365D01*
X155059016Y-102479490D01*
X155044772Y-102526445D01*
X155025995Y-102571778D01*
X155002864Y-102615051D01*
X154975604Y-102655850D01*
X154944476Y-102693779D01*
X154909779Y-102728476D01*
X154871850Y-102759604D01*
X154831051Y-102786864D01*
X154787778Y-102809995D01*
X154742445Y-102828772D01*
X154695490Y-102843016D01*
X154647365Y-102852588D01*
X154598534Y-102857398D01*
X154574000Y-102857398D01*
X154574000Y-102858000D01*
X154074000Y-102858000D01*
X154074000Y-101358000D01*
X154574000Y-101358000D01*
X154574000Y-101358602D01*
G37*
G36*
X153774000Y-102858000D02*
G01*
X153274000Y-102858000D01*
X153274000Y-102857398D01*
X153249466Y-102857398D01*
X153200635Y-102852588D01*
X153152510Y-102843016D01*
X153105555Y-102828772D01*
X153060222Y-102809995D01*
X153016949Y-102786864D01*
X152976150Y-102759604D01*
X152938221Y-102728476D01*
X152903524Y-102693779D01*
X152872396Y-102655850D01*
X152845136Y-102615051D01*
X152822005Y-102571778D01*
X152803228Y-102526445D01*
X152788984Y-102479490D01*
X152779412Y-102431365D01*
X152774602Y-102382534D01*
X152774602Y-102358000D01*
X152774000Y-102358000D01*
X152774000Y-101858000D01*
X152774602Y-101858000D01*
X152774602Y-101833466D01*
X152779412Y-101784635D01*
X152788984Y-101736510D01*
X152803228Y-101689555D01*
X152822005Y-101644222D01*
X152845136Y-101600949D01*
X152872396Y-101560150D01*
X152903524Y-101522221D01*
X152938221Y-101487524D01*
X152976150Y-101456396D01*
X153016949Y-101429136D01*
X153060222Y-101406005D01*
X153105555Y-101387228D01*
X153152510Y-101372984D01*
X153200635Y-101363412D01*
X153249466Y-101358602D01*
X153274000Y-101358602D01*
X153274000Y-101358000D01*
X153774000Y-101358000D01*
X153774000Y-102858000D01*
G37*
G36*
X154574000Y-104152602D02*
G01*
X154598534Y-104152602D01*
X154647365Y-104157412D01*
X154695490Y-104166984D01*
X154742445Y-104181228D01*
X154787778Y-104200005D01*
X154831051Y-104223136D01*
X154871850Y-104250396D01*
X154909779Y-104281524D01*
X154944476Y-104316221D01*
X154975604Y-104354150D01*
X155002864Y-104394949D01*
X155025995Y-104438222D01*
X155044772Y-104483555D01*
X155059016Y-104530510D01*
X155068588Y-104578635D01*
X155073398Y-104627466D01*
X155073398Y-104652000D01*
X155074000Y-104652000D01*
X155074000Y-105152000D01*
X155073398Y-105152000D01*
X155073398Y-105176534D01*
X155068588Y-105225365D01*
X155059016Y-105273490D01*
X155044772Y-105320445D01*
X155025995Y-105365778D01*
X155002864Y-105409051D01*
X154975604Y-105449850D01*
X154944476Y-105487779D01*
X154909779Y-105522476D01*
X154871850Y-105553604D01*
X154831051Y-105580864D01*
X154787778Y-105603995D01*
X154742445Y-105622772D01*
X154695490Y-105637016D01*
X154647365Y-105646588D01*
X154598534Y-105651398D01*
X154574000Y-105651398D01*
X154574000Y-105652000D01*
X154074000Y-105652000D01*
X154074000Y-104152000D01*
X154574000Y-104152000D01*
X154574000Y-104152602D01*
G37*
G36*
X153774000Y-105652000D02*
G01*
X153274000Y-105652000D01*
X153274000Y-105651398D01*
X153249466Y-105651398D01*
X153200635Y-105646588D01*
X153152510Y-105637016D01*
X153105555Y-105622772D01*
X153060222Y-105603995D01*
X153016949Y-105580864D01*
X152976150Y-105553604D01*
X152938221Y-105522476D01*
X152903524Y-105487779D01*
X152872396Y-105449850D01*
X152845136Y-105409051D01*
X152822005Y-105365778D01*
X152803228Y-105320445D01*
X152788984Y-105273490D01*
X152779412Y-105225365D01*
X152774602Y-105176534D01*
X152774602Y-105152000D01*
X152774000Y-105152000D01*
X152774000Y-104652000D01*
X152774602Y-104652000D01*
X152774602Y-104627466D01*
X152779412Y-104578635D01*
X152788984Y-104530510D01*
X152803228Y-104483555D01*
X152822005Y-104438222D01*
X152845136Y-104394949D01*
X152872396Y-104354150D01*
X152903524Y-104316221D01*
X152938221Y-104281524D01*
X152976150Y-104250396D01*
X153016949Y-104223136D01*
X153060222Y-104200005D01*
X153105555Y-104181228D01*
X153152510Y-104166984D01*
X153200635Y-104157412D01*
X153249466Y-104152602D01*
X153274000Y-104152602D01*
X153274000Y-104152000D01*
X153774000Y-104152000D01*
X153774000Y-105652000D01*
G37*
G36*
X154686000Y-106946602D02*
G01*
X154710534Y-106946602D01*
X154759365Y-106951412D01*
X154807490Y-106960984D01*
X154854445Y-106975228D01*
X154899778Y-106994005D01*
X154943051Y-107017136D01*
X154983850Y-107044396D01*
X155021779Y-107075524D01*
X155056476Y-107110221D01*
X155087604Y-107148150D01*
X155114864Y-107188949D01*
X155137995Y-107232222D01*
X155156772Y-107277555D01*
X155171016Y-107324510D01*
X155180588Y-107372635D01*
X155185398Y-107421466D01*
X155185398Y-107446000D01*
X155186000Y-107446000D01*
X155186000Y-107946000D01*
X155185398Y-107946000D01*
X155185398Y-107970534D01*
X155180588Y-108019365D01*
X155171016Y-108067490D01*
X155156772Y-108114445D01*
X155137995Y-108159778D01*
X155114864Y-108203051D01*
X155087604Y-108243850D01*
X155056476Y-108281779D01*
X155021779Y-108316476D01*
X154983850Y-108347604D01*
X154943051Y-108374864D01*
X154899778Y-108397995D01*
X154854445Y-108416772D01*
X154807490Y-108431016D01*
X154759365Y-108440588D01*
X154710534Y-108445398D01*
X154686000Y-108445398D01*
X154686000Y-108446000D01*
X154186000Y-108446000D01*
X154186000Y-106946000D01*
X154686000Y-106946000D01*
X154686000Y-106946602D01*
G37*
G36*
X153886000Y-108446000D02*
G01*
X153386000Y-108446000D01*
X153386000Y-108445398D01*
X153361466Y-108445398D01*
X153312635Y-108440588D01*
X153264510Y-108431016D01*
X153217555Y-108416772D01*
X153172222Y-108397995D01*
X153128949Y-108374864D01*
X153088150Y-108347604D01*
X153050221Y-108316476D01*
X153015524Y-108281779D01*
X152984396Y-108243850D01*
X152957136Y-108203051D01*
X152934005Y-108159778D01*
X152915228Y-108114445D01*
X152900984Y-108067490D01*
X152891412Y-108019365D01*
X152886602Y-107970534D01*
X152886602Y-107946000D01*
X152886000Y-107946000D01*
X152886000Y-107446000D01*
X152886602Y-107446000D01*
X152886602Y-107421466D01*
X152891412Y-107372635D01*
X152900984Y-107324510D01*
X152915228Y-107277555D01*
X152934005Y-107232222D01*
X152957136Y-107188949D01*
X152984396Y-107148150D01*
X153015524Y-107110221D01*
X153050221Y-107075524D01*
X153088150Y-107044396D01*
X153128949Y-107017136D01*
X153172222Y-106994005D01*
X153217555Y-106975228D01*
X153264510Y-106960984D01*
X153312635Y-106951412D01*
X153361466Y-106946602D01*
X153386000Y-106946602D01*
X153386000Y-106946000D01*
X153886000Y-106946000D01*
X153886000Y-108446000D01*
G37*
G36*
X154686000Y-109486602D02*
G01*
X154710534Y-109486602D01*
X154759365Y-109491412D01*
X154807490Y-109500984D01*
X154854445Y-109515228D01*
X154899778Y-109534005D01*
X154943051Y-109557136D01*
X154983850Y-109584396D01*
X155021779Y-109615524D01*
X155056476Y-109650221D01*
X155087604Y-109688150D01*
X155114864Y-109728949D01*
X155137995Y-109772222D01*
X155156772Y-109817555D01*
X155171016Y-109864510D01*
X155180588Y-109912635D01*
X155185398Y-109961466D01*
X155185398Y-109986000D01*
X155186000Y-109986000D01*
X155186000Y-110486000D01*
X155185398Y-110486000D01*
X155185398Y-110510534D01*
X155180588Y-110559365D01*
X155171016Y-110607490D01*
X155156772Y-110654445D01*
X155137995Y-110699778D01*
X155114864Y-110743051D01*
X155087604Y-110783850D01*
X155056476Y-110821779D01*
X155021779Y-110856476D01*
X154983850Y-110887604D01*
X154943051Y-110914864D01*
X154899778Y-110937995D01*
X154854445Y-110956772D01*
X154807490Y-110971016D01*
X154759365Y-110980588D01*
X154710534Y-110985398D01*
X154686000Y-110985398D01*
X154686000Y-110986000D01*
X154186000Y-110986000D01*
X154186000Y-109486000D01*
X154686000Y-109486000D01*
X154686000Y-109486602D01*
G37*
G36*
X153886000Y-110986000D02*
G01*
X153386000Y-110986000D01*
X153386000Y-110985398D01*
X153361466Y-110985398D01*
X153312635Y-110980588D01*
X153264510Y-110971016D01*
X153217555Y-110956772D01*
X153172222Y-110937995D01*
X153128949Y-110914864D01*
X153088150Y-110887604D01*
X153050221Y-110856476D01*
X153015524Y-110821779D01*
X152984396Y-110783850D01*
X152957136Y-110743051D01*
X152934005Y-110699778D01*
X152915228Y-110654445D01*
X152900984Y-110607490D01*
X152891412Y-110559365D01*
X152886602Y-110510534D01*
X152886602Y-110486000D01*
X152886000Y-110486000D01*
X152886000Y-109986000D01*
X152886602Y-109986000D01*
X152886602Y-109961466D01*
X152891412Y-109912635D01*
X152900984Y-109864510D01*
X152915228Y-109817555D01*
X152934005Y-109772222D01*
X152957136Y-109728949D01*
X152984396Y-109688150D01*
X153015524Y-109650221D01*
X153050221Y-109615524D01*
X153088150Y-109584396D01*
X153128949Y-109557136D01*
X153172222Y-109534005D01*
X153217555Y-109515228D01*
X153264510Y-109500984D01*
X153312635Y-109491412D01*
X153361466Y-109486602D01*
X153386000Y-109486602D01*
X153386000Y-109486000D01*
X153886000Y-109486000D01*
X153886000Y-110986000D01*
G37*
D27*
X119126000Y-81788000D03*
X119126000Y-79248000D03*
D18*
X159004000Y-65536000D03*
X159004000Y-68076000D03*
X159004000Y-70616000D03*
X159004000Y-73156000D03*
X159004000Y-75696000D03*
X159004000Y-78236000D03*
X159004000Y-80776000D03*
X159004000Y-83316000D03*
X159004000Y-85856000D03*
D19*
X159004000Y-88396000D03*
X158990000Y-110236000D03*
D18*
X158990000Y-107696000D03*
X158990000Y-105156000D03*
X158990000Y-102616000D03*
X158990000Y-100076000D03*
X158990000Y-97536000D03*
X158990000Y-94996000D03*
X158990000Y-92456000D03*
D28*
X119507000Y-99568000D03*
X118237000Y-99568000D03*
X119507000Y-98298000D03*
X118237000Y-98298000D03*
X119507000Y-97028000D03*
X118237000Y-97028000D03*
D29*
X118872000Y-95758000D03*
X117856000Y-100838000D03*
X119888000Y-100838000D03*
D18*
X110490000Y-74676000D03*
X110490000Y-77216000D03*
X110490000Y-79756000D03*
X110490000Y-82296000D03*
X110490000Y-84836000D03*
X110490000Y-87376000D03*
X110490000Y-89916000D03*
X110490000Y-92456000D03*
X110490000Y-94996000D03*
X110490000Y-97536000D03*
X110490000Y-100076000D03*
X110490000Y-102616000D03*
X110490000Y-105156000D03*
X110490000Y-107696000D03*
D19*
X110490000Y-110236000D03*
G36*
G01*
X144035000Y-90440500D02*
X144035000Y-90915500D01*
G75*
G02*
X143797500Y-91153000I-237500J0D01*
G01*
X143222500Y-91153000D01*
G75*
G02*
X142985000Y-90915500I0J237500D01*
G01*
X142985000Y-90440500D01*
G75*
G02*
X143222500Y-90203000I237500J0D01*
G01*
X143797500Y-90203000D01*
G75*
G02*
X144035000Y-90440500I0J-237500D01*
G01*
G37*
G36*
G01*
X145785000Y-90440500D02*
X145785000Y-90915500D01*
G75*
G02*
X145547500Y-91153000I-237500J0D01*
G01*
X144972500Y-91153000D01*
G75*
G02*
X144735000Y-90915500I0J237500D01*
G01*
X144735000Y-90440500D01*
G75*
G02*
X144972500Y-90203000I237500J0D01*
G01*
X145547500Y-90203000D01*
G75*
G02*
X145785000Y-90440500I0J-237500D01*
G01*
G37*
G36*
G01*
X147783000Y-102853500D02*
X147783000Y-102378500D01*
G75*
G02*
X148020500Y-102141000I237500J0D01*
G01*
X148595500Y-102141000D01*
G75*
G02*
X148833000Y-102378500I0J-237500D01*
G01*
X148833000Y-102853500D01*
G75*
G02*
X148595500Y-103091000I-237500J0D01*
G01*
X148020500Y-103091000D01*
G75*
G02*
X147783000Y-102853500I0J237500D01*
G01*
G37*
G36*
G01*
X146033000Y-102853500D02*
X146033000Y-102378500D01*
G75*
G02*
X146270500Y-102141000I237500J0D01*
G01*
X146845500Y-102141000D01*
G75*
G02*
X147083000Y-102378500I0J-237500D01*
G01*
X147083000Y-102853500D01*
G75*
G02*
X146845500Y-103091000I-237500J0D01*
G01*
X146270500Y-103091000D01*
G75*
G02*
X146033000Y-102853500I0J237500D01*
G01*
G37*
G36*
G01*
X147811000Y-105393500D02*
X147811000Y-104918500D01*
G75*
G02*
X148048500Y-104681000I237500J0D01*
G01*
X148623500Y-104681000D01*
G75*
G02*
X148861000Y-104918500I0J-237500D01*
G01*
X148861000Y-105393500D01*
G75*
G02*
X148623500Y-105631000I-237500J0D01*
G01*
X148048500Y-105631000D01*
G75*
G02*
X147811000Y-105393500I0J237500D01*
G01*
G37*
G36*
G01*
X146061000Y-105393500D02*
X146061000Y-104918500D01*
G75*
G02*
X146298500Y-104681000I237500J0D01*
G01*
X146873500Y-104681000D01*
G75*
G02*
X147111000Y-104918500I0J-237500D01*
G01*
X147111000Y-105393500D01*
G75*
G02*
X146873500Y-105631000I-237500J0D01*
G01*
X146298500Y-105631000D01*
G75*
G02*
X146061000Y-105393500I0J237500D01*
G01*
G37*
G36*
G01*
X146654000Y-107933500D02*
X146654000Y-107458500D01*
G75*
G02*
X146891500Y-107221000I237500J0D01*
G01*
X147466500Y-107221000D01*
G75*
G02*
X147704000Y-107458500I0J-237500D01*
G01*
X147704000Y-107933500D01*
G75*
G02*
X147466500Y-108171000I-237500J0D01*
G01*
X146891500Y-108171000D01*
G75*
G02*
X146654000Y-107933500I0J237500D01*
G01*
G37*
G36*
G01*
X144904000Y-107933500D02*
X144904000Y-107458500D01*
G75*
G02*
X145141500Y-107221000I237500J0D01*
G01*
X145716500Y-107221000D01*
G75*
G02*
X145954000Y-107458500I0J-237500D01*
G01*
X145954000Y-107933500D01*
G75*
G02*
X145716500Y-108171000I-237500J0D01*
G01*
X145141500Y-108171000D01*
G75*
G02*
X144904000Y-107933500I0J237500D01*
G01*
G37*
G36*
G01*
X146654000Y-110473500D02*
X146654000Y-109998500D01*
G75*
G02*
X146891500Y-109761000I237500J0D01*
G01*
X147466500Y-109761000D01*
G75*
G02*
X147704000Y-109998500I0J-237500D01*
G01*
X147704000Y-110473500D01*
G75*
G02*
X147466500Y-110711000I-237500J0D01*
G01*
X146891500Y-110711000D01*
G75*
G02*
X146654000Y-110473500I0J237500D01*
G01*
G37*
G36*
G01*
X144904000Y-110473500D02*
X144904000Y-109998500D01*
G75*
G02*
X145141500Y-109761000I237500J0D01*
G01*
X145716500Y-109761000D01*
G75*
G02*
X145954000Y-109998500I0J-237500D01*
G01*
X145954000Y-110473500D01*
G75*
G02*
X145716500Y-110711000I-237500J0D01*
G01*
X145141500Y-110711000D01*
G75*
G02*
X144904000Y-110473500I0J237500D01*
G01*
G37*
D26*
G36*
X125115000Y-86113000D02*
G01*
X125115000Y-83813000D01*
X128715000Y-84413000D01*
X128715000Y-85513000D01*
X125115000Y-86113000D01*
G37*
G36*
X134515000Y-83813000D02*
G01*
X134515000Y-86113000D01*
X130915000Y-85513000D01*
X130915000Y-84413000D01*
X134515000Y-83813000D01*
G37*
G36*
X150898000Y-66414000D02*
G01*
X150898000Y-68714000D01*
X147298000Y-68114000D01*
X147298000Y-67014000D01*
X150898000Y-66414000D01*
G37*
G36*
X141498000Y-68714000D02*
G01*
X141498000Y-66414000D01*
X145098000Y-67014000D01*
X145098000Y-68114000D01*
X141498000Y-68714000D01*
G37*
G36*
X121432000Y-67444000D02*
G01*
X121432000Y-65144000D01*
X125032000Y-65744000D01*
X125032000Y-66844000D01*
X121432000Y-67444000D01*
G37*
G36*
X130832000Y-65144000D02*
G01*
X130832000Y-67444000D01*
X127232000Y-66844000D01*
X127232000Y-65744000D01*
X130832000Y-65144000D01*
G37*
G36*
X150898000Y-71494000D02*
G01*
X150898000Y-73794000D01*
X147298000Y-73194000D01*
X147298000Y-72094000D01*
X150898000Y-71494000D01*
G37*
G36*
X141498000Y-73794000D02*
G01*
X141498000Y-71494000D01*
X145098000Y-72094000D01*
X145098000Y-73194000D01*
X141498000Y-73794000D01*
G37*
G36*
G01*
X145970500Y-95725000D02*
X145970500Y-94775000D01*
G75*
G02*
X146220500Y-94525000I250000J0D01*
G01*
X146895500Y-94525000D01*
G75*
G02*
X147145500Y-94775000I0J-250000D01*
G01*
X147145500Y-95725000D01*
G75*
G02*
X146895500Y-95975000I-250000J0D01*
G01*
X146220500Y-95975000D01*
G75*
G02*
X145970500Y-95725000I0J250000D01*
G01*
G37*
G36*
G01*
X143895500Y-95725000D02*
X143895500Y-94775000D01*
G75*
G02*
X144145500Y-94525000I250000J0D01*
G01*
X144820500Y-94525000D01*
G75*
G02*
X145070500Y-94775000I0J-250000D01*
G01*
X145070500Y-95725000D01*
G75*
G02*
X144820500Y-95975000I-250000J0D01*
G01*
X144145500Y-95975000D01*
G75*
G02*
X143895500Y-95725000I0J250000D01*
G01*
G37*
G36*
G01*
X143797000Y-102325500D02*
X144747000Y-102325500D01*
G75*
G02*
X144997000Y-102575500I0J-250000D01*
G01*
X144997000Y-103250500D01*
G75*
G02*
X144747000Y-103500500I-250000J0D01*
G01*
X143797000Y-103500500D01*
G75*
G02*
X143547000Y-103250500I0J250000D01*
G01*
X143547000Y-102575500D01*
G75*
G02*
X143797000Y-102325500I250000J0D01*
G01*
G37*
G36*
G01*
X143797000Y-100250500D02*
X144747000Y-100250500D01*
G75*
G02*
X144997000Y-100500500I0J-250000D01*
G01*
X144997000Y-101175500D01*
G75*
G02*
X144747000Y-101425500I-250000J0D01*
G01*
X143797000Y-101425500D01*
G75*
G02*
X143547000Y-101175500I0J250000D01*
G01*
X143547000Y-100500500D01*
G75*
G02*
X143797000Y-100250500I250000J0D01*
G01*
G37*
G36*
G01*
X143811500Y-77437000D02*
X143811500Y-76487000D01*
G75*
G02*
X144061500Y-76237000I250000J0D01*
G01*
X144736500Y-76237000D01*
G75*
G02*
X144986500Y-76487000I0J-250000D01*
G01*
X144986500Y-77437000D01*
G75*
G02*
X144736500Y-77687000I-250000J0D01*
G01*
X144061500Y-77687000D01*
G75*
G02*
X143811500Y-77437000I0J250000D01*
G01*
G37*
G36*
G01*
X141736500Y-77437000D02*
X141736500Y-76487000D01*
G75*
G02*
X141986500Y-76237000I250000J0D01*
G01*
X142661500Y-76237000D01*
G75*
G02*
X142911500Y-76487000I0J-250000D01*
G01*
X142911500Y-77437000D01*
G75*
G02*
X142661500Y-77687000I-250000J0D01*
G01*
X141986500Y-77687000D01*
G75*
G02*
X141736500Y-77437000I0J250000D01*
G01*
G37*
G36*
G01*
X143854500Y-79977000D02*
X143854500Y-79027000D01*
G75*
G02*
X144104500Y-78777000I250000J0D01*
G01*
X144779500Y-78777000D01*
G75*
G02*
X145029500Y-79027000I0J-250000D01*
G01*
X145029500Y-79977000D01*
G75*
G02*
X144779500Y-80227000I-250000J0D01*
G01*
X144104500Y-80227000D01*
G75*
G02*
X143854500Y-79977000I0J250000D01*
G01*
G37*
G36*
G01*
X141779500Y-79977000D02*
X141779500Y-79027000D01*
G75*
G02*
X142029500Y-78777000I250000J0D01*
G01*
X142704500Y-78777000D01*
G75*
G02*
X142954500Y-79027000I0J-250000D01*
G01*
X142954500Y-79977000D01*
G75*
G02*
X142704500Y-80227000I-250000J0D01*
G01*
X142029500Y-80227000D01*
G75*
G02*
X141779500Y-79977000I0J250000D01*
G01*
G37*
G36*
G01*
X122698500Y-72715000D02*
X123173500Y-72715000D01*
G75*
G02*
X123411000Y-72952500I0J-237500D01*
G01*
X123411000Y-73552500D01*
G75*
G02*
X123173500Y-73790000I-237500J0D01*
G01*
X122698500Y-73790000D01*
G75*
G02*
X122461000Y-73552500I0J237500D01*
G01*
X122461000Y-72952500D01*
G75*
G02*
X122698500Y-72715000I237500J0D01*
G01*
G37*
G36*
G01*
X122698500Y-70990000D02*
X123173500Y-70990000D01*
G75*
G02*
X123411000Y-71227500I0J-237500D01*
G01*
X123411000Y-71827500D01*
G75*
G02*
X123173500Y-72065000I-237500J0D01*
G01*
X122698500Y-72065000D01*
G75*
G02*
X122461000Y-71827500I0J237500D01*
G01*
X122461000Y-71227500D01*
G75*
G02*
X122698500Y-70990000I237500J0D01*
G01*
G37*
G36*
G01*
X123173500Y-78568500D02*
X122698500Y-78568500D01*
G75*
G02*
X122461000Y-78331000I0J237500D01*
G01*
X122461000Y-77731000D01*
G75*
G02*
X122698500Y-77493500I237500J0D01*
G01*
X123173500Y-77493500D01*
G75*
G02*
X123411000Y-77731000I0J-237500D01*
G01*
X123411000Y-78331000D01*
G75*
G02*
X123173500Y-78568500I-237500J0D01*
G01*
G37*
G36*
G01*
X123173500Y-80293500D02*
X122698500Y-80293500D01*
G75*
G02*
X122461000Y-80056000I0J237500D01*
G01*
X122461000Y-79456000D01*
G75*
G02*
X122698500Y-79218500I237500J0D01*
G01*
X123173500Y-79218500D01*
G75*
G02*
X123411000Y-79456000I0J-237500D01*
G01*
X123411000Y-80056000D01*
G75*
G02*
X123173500Y-80293500I-237500J0D01*
G01*
G37*
M02*
