G04 #@! TF.GenerationSoftware,KiCad,Pcbnew,5.1.9*
G04 #@! TF.CreationDate,2021-03-28T15:13:34+02:00*
G04 #@! TF.ProjectId,dwm1001-devboard,64776d31-3030-4312-9d64-6576626f6172,1*
G04 #@! TF.SameCoordinates,Original*
G04 #@! TF.FileFunction,Copper,L1,Top*
G04 #@! TF.FilePolarity,Positive*
%FSLAX46Y46*%
G04 Gerber Fmt 4.6, Leading zero omitted, Abs format (unit mm)*
G04 Created by KiCad (PCBNEW 5.1.9) date 2021-03-28 15:13:34*
%MOMM*%
%LPD*%
G01*
G04 APERTURE LIST*
G04 #@! TA.AperFunction,SMDPad,CuDef*
%ADD10R,2.000000X4.500000*%
G04 #@! TD*
G04 #@! TA.AperFunction,SMDPad,CuDef*
%ADD11R,1.500000X1.900000*%
G04 #@! TD*
G04 #@! TA.AperFunction,ComponentPad*
%ADD12C,1.450000*%
G04 #@! TD*
G04 #@! TA.AperFunction,SMDPad,CuDef*
%ADD13R,0.400000X1.350000*%
G04 #@! TD*
G04 #@! TA.AperFunction,ComponentPad*
%ADD14O,1.200000X1.900000*%
G04 #@! TD*
G04 #@! TA.AperFunction,SMDPad,CuDef*
%ADD15R,1.200000X1.900000*%
G04 #@! TD*
G04 #@! TA.AperFunction,SMDPad,CuDef*
%ADD16R,1.300000X1.550000*%
G04 #@! TD*
G04 #@! TA.AperFunction,SMDPad,CuDef*
%ADD17R,1.550000X1.300000*%
G04 #@! TD*
G04 #@! TA.AperFunction,ComponentPad*
%ADD18O,1.700000X1.700000*%
G04 #@! TD*
G04 #@! TA.AperFunction,ComponentPad*
%ADD19R,1.700000X1.700000*%
G04 #@! TD*
G04 #@! TA.AperFunction,SMDPad,CuDef*
%ADD20R,1.500000X2.000000*%
G04 #@! TD*
G04 #@! TA.AperFunction,SMDPad,CuDef*
%ADD21R,3.800000X2.000000*%
G04 #@! TD*
G04 #@! TA.AperFunction,SMDPad,CuDef*
%ADD22R,2.540000X0.650000*%
G04 #@! TD*
G04 #@! TA.AperFunction,SMDPad,CuDef*
%ADD23R,1.400000X1.000000*%
G04 #@! TD*
G04 #@! TA.AperFunction,SMDPad,CuDef*
%ADD24R,1.000000X1.400000*%
G04 #@! TD*
G04 #@! TA.AperFunction,ComponentPad*
%ADD25C,1.400000*%
G04 #@! TD*
G04 #@! TA.AperFunction,ConnectorPad*
%ADD26C,0.787400*%
G04 #@! TD*
G04 #@! TA.AperFunction,SMDPad,CuDef*
%ADD27C,0.100000*%
G04 #@! TD*
G04 #@! TA.AperFunction,ViaPad*
%ADD28C,0.800000*%
G04 #@! TD*
G04 #@! TA.AperFunction,Conductor*
%ADD29C,0.508000*%
G04 #@! TD*
G04 #@! TA.AperFunction,Conductor*
%ADD30C,1.016000*%
G04 #@! TD*
G04 #@! TA.AperFunction,Conductor*
%ADD31C,0.762000*%
G04 #@! TD*
G04 #@! TA.AperFunction,Conductor*
%ADD32C,0.254000*%
G04 #@! TD*
G04 #@! TA.AperFunction,Conductor*
%ADD33C,0.250000*%
G04 #@! TD*
G04 #@! TA.AperFunction,Conductor*
%ADD34C,1.270000*%
G04 #@! TD*
G04 #@! TA.AperFunction,Conductor*
%ADD35C,1.524000*%
G04 #@! TD*
G04 #@! TA.AperFunction,Conductor*
%ADD36C,0.100000*%
G04 #@! TD*
G04 APERTURE END LIST*
G04 #@! TA.AperFunction,SMDPad,CuDef*
G36*
G01*
X152574500Y-95471000D02*
X152574500Y-94521000D01*
G75*
G02*
X152824500Y-94271000I250000J0D01*
G01*
X153499500Y-94271000D01*
G75*
G02*
X153749500Y-94521000I0J-250000D01*
G01*
X153749500Y-95471000D01*
G75*
G02*
X153499500Y-95721000I-250000J0D01*
G01*
X152824500Y-95721000D01*
G75*
G02*
X152574500Y-95471000I0J250000D01*
G01*
G37*
G04 #@! TD.AperFunction*
G04 #@! TA.AperFunction,SMDPad,CuDef*
G36*
G01*
X150499500Y-95471000D02*
X150499500Y-94521000D01*
G75*
G02*
X150749500Y-94271000I250000J0D01*
G01*
X151424500Y-94271000D01*
G75*
G02*
X151674500Y-94521000I0J-250000D01*
G01*
X151674500Y-95471000D01*
G75*
G02*
X151424500Y-95721000I-250000J0D01*
G01*
X150749500Y-95721000D01*
G75*
G02*
X150499500Y-95471000I0J250000D01*
G01*
G37*
G04 #@! TD.AperFunction*
D10*
X127254000Y-79874000D03*
X127254000Y-71374000D03*
G04 #@! TA.AperFunction,SMDPad,CuDef*
G36*
G01*
X139804000Y-75349000D02*
X140104000Y-75349000D01*
G75*
G02*
X140254000Y-75499000I0J-150000D01*
G01*
X140254000Y-77149000D01*
G75*
G02*
X140104000Y-77299000I-150000J0D01*
G01*
X139804000Y-77299000D01*
G75*
G02*
X139654000Y-77149000I0J150000D01*
G01*
X139654000Y-75499000D01*
G75*
G02*
X139804000Y-75349000I150000J0D01*
G01*
G37*
G04 #@! TD.AperFunction*
G04 #@! TA.AperFunction,SMDPad,CuDef*
G36*
G01*
X138534000Y-75349000D02*
X138834000Y-75349000D01*
G75*
G02*
X138984000Y-75499000I0J-150000D01*
G01*
X138984000Y-77149000D01*
G75*
G02*
X138834000Y-77299000I-150000J0D01*
G01*
X138534000Y-77299000D01*
G75*
G02*
X138384000Y-77149000I0J150000D01*
G01*
X138384000Y-75499000D01*
G75*
G02*
X138534000Y-75349000I150000J0D01*
G01*
G37*
G04 #@! TD.AperFunction*
G04 #@! TA.AperFunction,SMDPad,CuDef*
G36*
G01*
X137264000Y-75349000D02*
X137564000Y-75349000D01*
G75*
G02*
X137714000Y-75499000I0J-150000D01*
G01*
X137714000Y-77149000D01*
G75*
G02*
X137564000Y-77299000I-150000J0D01*
G01*
X137264000Y-77299000D01*
G75*
G02*
X137114000Y-77149000I0J150000D01*
G01*
X137114000Y-75499000D01*
G75*
G02*
X137264000Y-75349000I150000J0D01*
G01*
G37*
G04 #@! TD.AperFunction*
G04 #@! TA.AperFunction,SMDPad,CuDef*
G36*
G01*
X135994000Y-75349000D02*
X136294000Y-75349000D01*
G75*
G02*
X136444000Y-75499000I0J-150000D01*
G01*
X136444000Y-77149000D01*
G75*
G02*
X136294000Y-77299000I-150000J0D01*
G01*
X135994000Y-77299000D01*
G75*
G02*
X135844000Y-77149000I0J150000D01*
G01*
X135844000Y-75499000D01*
G75*
G02*
X135994000Y-75349000I150000J0D01*
G01*
G37*
G04 #@! TD.AperFunction*
G04 #@! TA.AperFunction,SMDPad,CuDef*
G36*
G01*
X134724000Y-75349000D02*
X135024000Y-75349000D01*
G75*
G02*
X135174000Y-75499000I0J-150000D01*
G01*
X135174000Y-77149000D01*
G75*
G02*
X135024000Y-77299000I-150000J0D01*
G01*
X134724000Y-77299000D01*
G75*
G02*
X134574000Y-77149000I0J150000D01*
G01*
X134574000Y-75499000D01*
G75*
G02*
X134724000Y-75349000I150000J0D01*
G01*
G37*
G04 #@! TD.AperFunction*
G04 #@! TA.AperFunction,SMDPad,CuDef*
G36*
G01*
X133454000Y-75349000D02*
X133754000Y-75349000D01*
G75*
G02*
X133904000Y-75499000I0J-150000D01*
G01*
X133904000Y-77149000D01*
G75*
G02*
X133754000Y-77299000I-150000J0D01*
G01*
X133454000Y-77299000D01*
G75*
G02*
X133304000Y-77149000I0J150000D01*
G01*
X133304000Y-75499000D01*
G75*
G02*
X133454000Y-75349000I150000J0D01*
G01*
G37*
G04 #@! TD.AperFunction*
G04 #@! TA.AperFunction,SMDPad,CuDef*
G36*
G01*
X132184000Y-75349000D02*
X132484000Y-75349000D01*
G75*
G02*
X132634000Y-75499000I0J-150000D01*
G01*
X132634000Y-77149000D01*
G75*
G02*
X132484000Y-77299000I-150000J0D01*
G01*
X132184000Y-77299000D01*
G75*
G02*
X132034000Y-77149000I0J150000D01*
G01*
X132034000Y-75499000D01*
G75*
G02*
X132184000Y-75349000I150000J0D01*
G01*
G37*
G04 #@! TD.AperFunction*
G04 #@! TA.AperFunction,SMDPad,CuDef*
G36*
G01*
X130914000Y-75349000D02*
X131214000Y-75349000D01*
G75*
G02*
X131364000Y-75499000I0J-150000D01*
G01*
X131364000Y-77149000D01*
G75*
G02*
X131214000Y-77299000I-150000J0D01*
G01*
X130914000Y-77299000D01*
G75*
G02*
X130764000Y-77149000I0J150000D01*
G01*
X130764000Y-75499000D01*
G75*
G02*
X130914000Y-75349000I150000J0D01*
G01*
G37*
G04 #@! TD.AperFunction*
G04 #@! TA.AperFunction,SMDPad,CuDef*
G36*
G01*
X130914000Y-70399000D02*
X131214000Y-70399000D01*
G75*
G02*
X131364000Y-70549000I0J-150000D01*
G01*
X131364000Y-72199000D01*
G75*
G02*
X131214000Y-72349000I-150000J0D01*
G01*
X130914000Y-72349000D01*
G75*
G02*
X130764000Y-72199000I0J150000D01*
G01*
X130764000Y-70549000D01*
G75*
G02*
X130914000Y-70399000I150000J0D01*
G01*
G37*
G04 #@! TD.AperFunction*
G04 #@! TA.AperFunction,SMDPad,CuDef*
G36*
G01*
X132184000Y-70399000D02*
X132484000Y-70399000D01*
G75*
G02*
X132634000Y-70549000I0J-150000D01*
G01*
X132634000Y-72199000D01*
G75*
G02*
X132484000Y-72349000I-150000J0D01*
G01*
X132184000Y-72349000D01*
G75*
G02*
X132034000Y-72199000I0J150000D01*
G01*
X132034000Y-70549000D01*
G75*
G02*
X132184000Y-70399000I150000J0D01*
G01*
G37*
G04 #@! TD.AperFunction*
G04 #@! TA.AperFunction,SMDPad,CuDef*
G36*
G01*
X133454000Y-70399000D02*
X133754000Y-70399000D01*
G75*
G02*
X133904000Y-70549000I0J-150000D01*
G01*
X133904000Y-72199000D01*
G75*
G02*
X133754000Y-72349000I-150000J0D01*
G01*
X133454000Y-72349000D01*
G75*
G02*
X133304000Y-72199000I0J150000D01*
G01*
X133304000Y-70549000D01*
G75*
G02*
X133454000Y-70399000I150000J0D01*
G01*
G37*
G04 #@! TD.AperFunction*
G04 #@! TA.AperFunction,SMDPad,CuDef*
G36*
G01*
X134724000Y-70399000D02*
X135024000Y-70399000D01*
G75*
G02*
X135174000Y-70549000I0J-150000D01*
G01*
X135174000Y-72199000D01*
G75*
G02*
X135024000Y-72349000I-150000J0D01*
G01*
X134724000Y-72349000D01*
G75*
G02*
X134574000Y-72199000I0J150000D01*
G01*
X134574000Y-70549000D01*
G75*
G02*
X134724000Y-70399000I150000J0D01*
G01*
G37*
G04 #@! TD.AperFunction*
G04 #@! TA.AperFunction,SMDPad,CuDef*
G36*
G01*
X135994000Y-70399000D02*
X136294000Y-70399000D01*
G75*
G02*
X136444000Y-70549000I0J-150000D01*
G01*
X136444000Y-72199000D01*
G75*
G02*
X136294000Y-72349000I-150000J0D01*
G01*
X135994000Y-72349000D01*
G75*
G02*
X135844000Y-72199000I0J150000D01*
G01*
X135844000Y-70549000D01*
G75*
G02*
X135994000Y-70399000I150000J0D01*
G01*
G37*
G04 #@! TD.AperFunction*
G04 #@! TA.AperFunction,SMDPad,CuDef*
G36*
G01*
X137264000Y-70399000D02*
X137564000Y-70399000D01*
G75*
G02*
X137714000Y-70549000I0J-150000D01*
G01*
X137714000Y-72199000D01*
G75*
G02*
X137564000Y-72349000I-150000J0D01*
G01*
X137264000Y-72349000D01*
G75*
G02*
X137114000Y-72199000I0J150000D01*
G01*
X137114000Y-70549000D01*
G75*
G02*
X137264000Y-70399000I150000J0D01*
G01*
G37*
G04 #@! TD.AperFunction*
G04 #@! TA.AperFunction,SMDPad,CuDef*
G36*
G01*
X138534000Y-70399000D02*
X138834000Y-70399000D01*
G75*
G02*
X138984000Y-70549000I0J-150000D01*
G01*
X138984000Y-72199000D01*
G75*
G02*
X138834000Y-72349000I-150000J0D01*
G01*
X138534000Y-72349000D01*
G75*
G02*
X138384000Y-72199000I0J150000D01*
G01*
X138384000Y-70549000D01*
G75*
G02*
X138534000Y-70399000I150000J0D01*
G01*
G37*
G04 #@! TD.AperFunction*
G04 #@! TA.AperFunction,SMDPad,CuDef*
G36*
G01*
X139804000Y-70399000D02*
X140104000Y-70399000D01*
G75*
G02*
X140254000Y-70549000I0J-150000D01*
G01*
X140254000Y-72199000D01*
G75*
G02*
X140104000Y-72349000I-150000J0D01*
G01*
X139804000Y-72349000D01*
G75*
G02*
X139654000Y-72199000I0J150000D01*
G01*
X139654000Y-70549000D01*
G75*
G02*
X139804000Y-70399000I150000J0D01*
G01*
G37*
G04 #@! TD.AperFunction*
D11*
X135144000Y-65024000D03*
D12*
X138644000Y-67724000D03*
D13*
X136794000Y-67724000D03*
X137444000Y-67724000D03*
X134844000Y-67724000D03*
X135494000Y-67724000D03*
X136144000Y-67724000D03*
D12*
X133644000Y-67724000D03*
D11*
X137144000Y-65024000D03*
D14*
X139644000Y-65024000D03*
X132644000Y-65024000D03*
D15*
X133244000Y-65024000D03*
X139044000Y-65024000D03*
D16*
X136470000Y-91351000D03*
X140970000Y-91351000D03*
X140970000Y-83401000D03*
X136470000Y-83401000D03*
D17*
X118440000Y-71374000D03*
X118440000Y-66874000D03*
X110490000Y-66874000D03*
X110490000Y-71374000D03*
G04 #@! TA.AperFunction,SMDPad,CuDef*
G36*
G01*
X143888000Y-90227999D02*
X143888000Y-91128001D01*
G75*
G02*
X143638001Y-91378000I-249999J0D01*
G01*
X142937999Y-91378000D01*
G75*
G02*
X142688000Y-91128001I0J249999D01*
G01*
X142688000Y-90227999D01*
G75*
G02*
X142937999Y-89978000I249999J0D01*
G01*
X143638001Y-89978000D01*
G75*
G02*
X143888000Y-90227999I0J-249999D01*
G01*
G37*
G04 #@! TD.AperFunction*
G04 #@! TA.AperFunction,SMDPad,CuDef*
G36*
G01*
X145888000Y-90227999D02*
X145888000Y-91128001D01*
G75*
G02*
X145638001Y-91378000I-249999J0D01*
G01*
X144937999Y-91378000D01*
G75*
G02*
X144688000Y-91128001I0J249999D01*
G01*
X144688000Y-90227999D01*
G75*
G02*
X144937999Y-89978000I249999J0D01*
G01*
X145638001Y-89978000D01*
G75*
G02*
X145888000Y-90227999I0J-249999D01*
G01*
G37*
G04 #@! TD.AperFunction*
G04 #@! TA.AperFunction,SMDPad,CuDef*
G36*
G01*
X153473999Y-98714000D02*
X154374001Y-98714000D01*
G75*
G02*
X154624000Y-98963999I0J-249999D01*
G01*
X154624000Y-99664001D01*
G75*
G02*
X154374001Y-99914000I-249999J0D01*
G01*
X153473999Y-99914000D01*
G75*
G02*
X153224000Y-99664001I0J249999D01*
G01*
X153224000Y-98963999D01*
G75*
G02*
X153473999Y-98714000I249999J0D01*
G01*
G37*
G04 #@! TD.AperFunction*
G04 #@! TA.AperFunction,SMDPad,CuDef*
G36*
G01*
X153473999Y-96714000D02*
X154374001Y-96714000D01*
G75*
G02*
X154624000Y-96963999I0J-249999D01*
G01*
X154624000Y-97664001D01*
G75*
G02*
X154374001Y-97914000I-249999J0D01*
G01*
X153473999Y-97914000D01*
G75*
G02*
X153224000Y-97664001I0J249999D01*
G01*
X153224000Y-96963999D01*
G75*
G02*
X153473999Y-96714000I249999J0D01*
G01*
G37*
G04 #@! TD.AperFunction*
G04 #@! TA.AperFunction,SMDPad,CuDef*
G36*
G01*
X151187999Y-98714000D02*
X152088001Y-98714000D01*
G75*
G02*
X152338000Y-98963999I0J-249999D01*
G01*
X152338000Y-99664001D01*
G75*
G02*
X152088001Y-99914000I-249999J0D01*
G01*
X151187999Y-99914000D01*
G75*
G02*
X150938000Y-99664001I0J249999D01*
G01*
X150938000Y-98963999D01*
G75*
G02*
X151187999Y-98714000I249999J0D01*
G01*
G37*
G04 #@! TD.AperFunction*
G04 #@! TA.AperFunction,SMDPad,CuDef*
G36*
G01*
X151187999Y-96714000D02*
X152088001Y-96714000D01*
G75*
G02*
X152338000Y-96963999I0J-249999D01*
G01*
X152338000Y-97664001D01*
G75*
G02*
X152088001Y-97914000I-249999J0D01*
G01*
X151187999Y-97914000D01*
G75*
G02*
X150938000Y-97664001I0J249999D01*
G01*
X150938000Y-96963999D01*
G75*
G02*
X151187999Y-96714000I249999J0D01*
G01*
G37*
G04 #@! TD.AperFunction*
G04 #@! TA.AperFunction,SMDPad,CuDef*
G36*
G01*
X148901999Y-98714000D02*
X149802001Y-98714000D01*
G75*
G02*
X150052000Y-98963999I0J-249999D01*
G01*
X150052000Y-99664001D01*
G75*
G02*
X149802001Y-99914000I-249999J0D01*
G01*
X148901999Y-99914000D01*
G75*
G02*
X148652000Y-99664001I0J249999D01*
G01*
X148652000Y-98963999D01*
G75*
G02*
X148901999Y-98714000I249999J0D01*
G01*
G37*
G04 #@! TD.AperFunction*
G04 #@! TA.AperFunction,SMDPad,CuDef*
G36*
G01*
X148901999Y-96714000D02*
X149802001Y-96714000D01*
G75*
G02*
X150052000Y-96963999I0J-249999D01*
G01*
X150052000Y-97664001D01*
G75*
G02*
X149802001Y-97914000I-249999J0D01*
G01*
X148901999Y-97914000D01*
G75*
G02*
X148652000Y-97664001I0J249999D01*
G01*
X148652000Y-96963999D01*
G75*
G02*
X148901999Y-96714000I249999J0D01*
G01*
G37*
G04 #@! TD.AperFunction*
G04 #@! TA.AperFunction,SMDPad,CuDef*
G36*
G01*
X146361999Y-98714000D02*
X147262001Y-98714000D01*
G75*
G02*
X147512000Y-98963999I0J-249999D01*
G01*
X147512000Y-99664001D01*
G75*
G02*
X147262001Y-99914000I-249999J0D01*
G01*
X146361999Y-99914000D01*
G75*
G02*
X146112000Y-99664001I0J249999D01*
G01*
X146112000Y-98963999D01*
G75*
G02*
X146361999Y-98714000I249999J0D01*
G01*
G37*
G04 #@! TD.AperFunction*
G04 #@! TA.AperFunction,SMDPad,CuDef*
G36*
G01*
X146361999Y-96714000D02*
X147262001Y-96714000D01*
G75*
G02*
X147512000Y-96963999I0J-249999D01*
G01*
X147512000Y-97664001D01*
G75*
G02*
X147262001Y-97914000I-249999J0D01*
G01*
X146361999Y-97914000D01*
G75*
G02*
X146112000Y-97664001I0J249999D01*
G01*
X146112000Y-96963999D01*
G75*
G02*
X146361999Y-96714000I249999J0D01*
G01*
G37*
G04 #@! TD.AperFunction*
G04 #@! TA.AperFunction,SMDPad,CuDef*
G36*
G01*
X133487000Y-78559999D02*
X133487000Y-81460001D01*
G75*
G02*
X133237001Y-81710000I-249999J0D01*
G01*
X132436999Y-81710000D01*
G75*
G02*
X132187000Y-81460001I0J249999D01*
G01*
X132187000Y-78559999D01*
G75*
G02*
X132436999Y-78310000I249999J0D01*
G01*
X133237001Y-78310000D01*
G75*
G02*
X133487000Y-78559999I0J-249999D01*
G01*
G37*
G04 #@! TD.AperFunction*
G04 #@! TA.AperFunction,SMDPad,CuDef*
G36*
G01*
X137937000Y-78559999D02*
X137937000Y-81460001D01*
G75*
G02*
X137687001Y-81710000I-249999J0D01*
G01*
X136886999Y-81710000D01*
G75*
G02*
X136637000Y-81460001I0J249999D01*
G01*
X136637000Y-78559999D01*
G75*
G02*
X136886999Y-78310000I249999J0D01*
G01*
X137687001Y-78310000D01*
G75*
G02*
X137937000Y-78559999I0J-249999D01*
G01*
G37*
G04 #@! TD.AperFunction*
G04 #@! TA.AperFunction,SMDPad,CuDef*
G36*
G01*
X151564001Y-78308000D02*
X148663999Y-78308000D01*
G75*
G02*
X148414000Y-78058001I0J249999D01*
G01*
X148414000Y-77257999D01*
G75*
G02*
X148663999Y-77008000I249999J0D01*
G01*
X151564001Y-77008000D01*
G75*
G02*
X151814000Y-77257999I0J-249999D01*
G01*
X151814000Y-78058001D01*
G75*
G02*
X151564001Y-78308000I-249999J0D01*
G01*
G37*
G04 #@! TD.AperFunction*
G04 #@! TA.AperFunction,SMDPad,CuDef*
G36*
G01*
X151564001Y-82758000D02*
X148663999Y-82758000D01*
G75*
G02*
X148414000Y-82508001I0J249999D01*
G01*
X148414000Y-81707999D01*
G75*
G02*
X148663999Y-81458000I249999J0D01*
G01*
X151564001Y-81458000D01*
G75*
G02*
X151814000Y-81707999I0J-249999D01*
G01*
X151814000Y-82508001D01*
G75*
G02*
X151564001Y-82758000I-249999J0D01*
G01*
G37*
G04 #@! TD.AperFunction*
D18*
X122682000Y-89662000D03*
X125222000Y-89662000D03*
X127762000Y-89662000D03*
D19*
X130302000Y-89662000D03*
D20*
X152795000Y-86385000D03*
X148195000Y-86385000D03*
X150495000Y-86385000D03*
D21*
X150495000Y-92685000D03*
D22*
X122660000Y-111762000D03*
X122660000Y-110762000D03*
X122660000Y-109762000D03*
X122660000Y-108762000D03*
X122660000Y-107762000D03*
X122660000Y-106762000D03*
X122660000Y-105762000D03*
X122660000Y-104762000D03*
X122660000Y-103762000D03*
X122660000Y-102762000D03*
X122660000Y-101762000D03*
X122660000Y-100762000D03*
X122660000Y-99762000D03*
X122660000Y-98762000D03*
X122660000Y-97762000D03*
X122660000Y-96762000D03*
X122660000Y-95762000D03*
X141500000Y-95762000D03*
X141500000Y-96762000D03*
X141500000Y-97762000D03*
X141500000Y-98762000D03*
X141500000Y-99762000D03*
X141500000Y-100762000D03*
X141500000Y-101762000D03*
X141500000Y-102762000D03*
X141500000Y-103762000D03*
X141500000Y-104762000D03*
X141500000Y-105762000D03*
X141500000Y-106762000D03*
X141500000Y-107762000D03*
X141500000Y-108762000D03*
X141500000Y-109762000D03*
X141500000Y-110762000D03*
X141500000Y-111762000D03*
G04 #@! TA.AperFunction,SMDPad,CuDef*
G36*
G01*
X140277001Y-79483000D02*
X139376999Y-79483000D01*
G75*
G02*
X139127000Y-79233001I0J249999D01*
G01*
X139127000Y-78532999D01*
G75*
G02*
X139376999Y-78283000I249999J0D01*
G01*
X140277001Y-78283000D01*
G75*
G02*
X140527000Y-78532999I0J-249999D01*
G01*
X140527000Y-79233001D01*
G75*
G02*
X140277001Y-79483000I-249999J0D01*
G01*
G37*
G04 #@! TD.AperFunction*
G04 #@! TA.AperFunction,SMDPad,CuDef*
G36*
G01*
X140277001Y-81483000D02*
X139376999Y-81483000D01*
G75*
G02*
X139127000Y-81233001I0J249999D01*
G01*
X139127000Y-80532999D01*
G75*
G02*
X139376999Y-80283000I249999J0D01*
G01*
X140277001Y-80283000D01*
G75*
G02*
X140527000Y-80532999I0J-249999D01*
G01*
X140527000Y-81233001D01*
G75*
G02*
X140277001Y-81483000I-249999J0D01*
G01*
G37*
G04 #@! TD.AperFunction*
D23*
X144485000Y-82992000D03*
X146685000Y-82042000D03*
X146685000Y-83942000D03*
D24*
X121478000Y-86444000D03*
X123378000Y-86444000D03*
X122428000Y-84244000D03*
D25*
X119126000Y-81788000D03*
X119126000Y-79248000D03*
D18*
X159004000Y-65536000D03*
X159004000Y-68076000D03*
X159004000Y-70616000D03*
X159004000Y-73156000D03*
X159004000Y-75696000D03*
X159004000Y-78236000D03*
X159004000Y-80776000D03*
X159004000Y-83316000D03*
X159004000Y-85856000D03*
D19*
X159004000Y-88396000D03*
X158990000Y-110236000D03*
D18*
X158990000Y-107696000D03*
X158990000Y-105156000D03*
X158990000Y-102616000D03*
X158990000Y-100076000D03*
X158990000Y-97536000D03*
X158990000Y-94996000D03*
X158990000Y-92456000D03*
D26*
X119507000Y-99568000D03*
X118237000Y-99568000D03*
X119507000Y-98298000D03*
X118237000Y-98298000D03*
X119507000Y-97028000D03*
X118237000Y-97028000D03*
D18*
X110490000Y-74676000D03*
X110490000Y-77216000D03*
X110490000Y-79756000D03*
X110490000Y-82296000D03*
X110490000Y-84836000D03*
X110490000Y-87376000D03*
X110490000Y-89916000D03*
X110490000Y-92456000D03*
X110490000Y-94996000D03*
X110490000Y-97536000D03*
X110490000Y-100076000D03*
X110490000Y-102616000D03*
X110490000Y-105156000D03*
X110490000Y-107696000D03*
D19*
X110490000Y-110236000D03*
G04 #@! TA.AperFunction,SMDPad,CuDef*
G36*
G01*
X144035000Y-88154500D02*
X144035000Y-88629500D01*
G75*
G02*
X143797500Y-88867000I-237500J0D01*
G01*
X143222500Y-88867000D01*
G75*
G02*
X142985000Y-88629500I0J237500D01*
G01*
X142985000Y-88154500D01*
G75*
G02*
X143222500Y-87917000I237500J0D01*
G01*
X143797500Y-87917000D01*
G75*
G02*
X144035000Y-88154500I0J-237500D01*
G01*
G37*
G04 #@! TD.AperFunction*
G04 #@! TA.AperFunction,SMDPad,CuDef*
G36*
G01*
X145785000Y-88154500D02*
X145785000Y-88629500D01*
G75*
G02*
X145547500Y-88867000I-237500J0D01*
G01*
X144972500Y-88867000D01*
G75*
G02*
X144735000Y-88629500I0J237500D01*
G01*
X144735000Y-88154500D01*
G75*
G02*
X144972500Y-87917000I237500J0D01*
G01*
X145547500Y-87917000D01*
G75*
G02*
X145785000Y-88154500I0J-237500D01*
G01*
G37*
G04 #@! TD.AperFunction*
G04 #@! TA.AperFunction,SMDPad,CuDef*
G36*
G01*
X147783000Y-102853500D02*
X147783000Y-102378500D01*
G75*
G02*
X148020500Y-102141000I237500J0D01*
G01*
X148595500Y-102141000D01*
G75*
G02*
X148833000Y-102378500I0J-237500D01*
G01*
X148833000Y-102853500D01*
G75*
G02*
X148595500Y-103091000I-237500J0D01*
G01*
X148020500Y-103091000D01*
G75*
G02*
X147783000Y-102853500I0J237500D01*
G01*
G37*
G04 #@! TD.AperFunction*
G04 #@! TA.AperFunction,SMDPad,CuDef*
G36*
G01*
X146033000Y-102853500D02*
X146033000Y-102378500D01*
G75*
G02*
X146270500Y-102141000I237500J0D01*
G01*
X146845500Y-102141000D01*
G75*
G02*
X147083000Y-102378500I0J-237500D01*
G01*
X147083000Y-102853500D01*
G75*
G02*
X146845500Y-103091000I-237500J0D01*
G01*
X146270500Y-103091000D01*
G75*
G02*
X146033000Y-102853500I0J237500D01*
G01*
G37*
G04 #@! TD.AperFunction*
G04 #@! TA.AperFunction,SMDPad,CuDef*
G36*
G01*
X147811000Y-105393500D02*
X147811000Y-104918500D01*
G75*
G02*
X148048500Y-104681000I237500J0D01*
G01*
X148623500Y-104681000D01*
G75*
G02*
X148861000Y-104918500I0J-237500D01*
G01*
X148861000Y-105393500D01*
G75*
G02*
X148623500Y-105631000I-237500J0D01*
G01*
X148048500Y-105631000D01*
G75*
G02*
X147811000Y-105393500I0J237500D01*
G01*
G37*
G04 #@! TD.AperFunction*
G04 #@! TA.AperFunction,SMDPad,CuDef*
G36*
G01*
X146061000Y-105393500D02*
X146061000Y-104918500D01*
G75*
G02*
X146298500Y-104681000I237500J0D01*
G01*
X146873500Y-104681000D01*
G75*
G02*
X147111000Y-104918500I0J-237500D01*
G01*
X147111000Y-105393500D01*
G75*
G02*
X146873500Y-105631000I-237500J0D01*
G01*
X146298500Y-105631000D01*
G75*
G02*
X146061000Y-105393500I0J237500D01*
G01*
G37*
G04 #@! TD.AperFunction*
G04 #@! TA.AperFunction,SMDPad,CuDef*
G36*
G01*
X146654000Y-107933500D02*
X146654000Y-107458500D01*
G75*
G02*
X146891500Y-107221000I237500J0D01*
G01*
X147466500Y-107221000D01*
G75*
G02*
X147704000Y-107458500I0J-237500D01*
G01*
X147704000Y-107933500D01*
G75*
G02*
X147466500Y-108171000I-237500J0D01*
G01*
X146891500Y-108171000D01*
G75*
G02*
X146654000Y-107933500I0J237500D01*
G01*
G37*
G04 #@! TD.AperFunction*
G04 #@! TA.AperFunction,SMDPad,CuDef*
G36*
G01*
X144904000Y-107933500D02*
X144904000Y-107458500D01*
G75*
G02*
X145141500Y-107221000I237500J0D01*
G01*
X145716500Y-107221000D01*
G75*
G02*
X145954000Y-107458500I0J-237500D01*
G01*
X145954000Y-107933500D01*
G75*
G02*
X145716500Y-108171000I-237500J0D01*
G01*
X145141500Y-108171000D01*
G75*
G02*
X144904000Y-107933500I0J237500D01*
G01*
G37*
G04 #@! TD.AperFunction*
G04 #@! TA.AperFunction,SMDPad,CuDef*
G36*
G01*
X146654000Y-110473500D02*
X146654000Y-109998500D01*
G75*
G02*
X146891500Y-109761000I237500J0D01*
G01*
X147466500Y-109761000D01*
G75*
G02*
X147704000Y-109998500I0J-237500D01*
G01*
X147704000Y-110473500D01*
G75*
G02*
X147466500Y-110711000I-237500J0D01*
G01*
X146891500Y-110711000D01*
G75*
G02*
X146654000Y-110473500I0J237500D01*
G01*
G37*
G04 #@! TD.AperFunction*
G04 #@! TA.AperFunction,SMDPad,CuDef*
G36*
G01*
X144904000Y-110473500D02*
X144904000Y-109998500D01*
G75*
G02*
X145141500Y-109761000I237500J0D01*
G01*
X145716500Y-109761000D01*
G75*
G02*
X145954000Y-109998500I0J-237500D01*
G01*
X145954000Y-110473500D01*
G75*
G02*
X145716500Y-110711000I-237500J0D01*
G01*
X145141500Y-110711000D01*
G75*
G02*
X144904000Y-110473500I0J237500D01*
G01*
G37*
G04 #@! TD.AperFunction*
G04 #@! TA.AperFunction,SMDPad,CuDef*
D27*
G36*
X125115000Y-86113000D02*
G01*
X125115000Y-83813000D01*
X128715000Y-84413000D01*
X128715000Y-85513000D01*
X125115000Y-86113000D01*
G37*
G04 #@! TD.AperFunction*
G04 #@! TA.AperFunction,SMDPad,CuDef*
G36*
X134515000Y-83813000D02*
G01*
X134515000Y-86113000D01*
X130915000Y-85513000D01*
X130915000Y-84413000D01*
X134515000Y-83813000D01*
G37*
G04 #@! TD.AperFunction*
G04 #@! TA.AperFunction,SMDPad,CuDef*
G36*
X150898000Y-66414000D02*
G01*
X150898000Y-68714000D01*
X147298000Y-68114000D01*
X147298000Y-67014000D01*
X150898000Y-66414000D01*
G37*
G04 #@! TD.AperFunction*
G04 #@! TA.AperFunction,SMDPad,CuDef*
G36*
X141498000Y-68714000D02*
G01*
X141498000Y-66414000D01*
X145098000Y-67014000D01*
X145098000Y-68114000D01*
X141498000Y-68714000D01*
G37*
G04 #@! TD.AperFunction*
G04 #@! TA.AperFunction,SMDPad,CuDef*
G36*
X121432000Y-67444000D02*
G01*
X121432000Y-65144000D01*
X125032000Y-65744000D01*
X125032000Y-66844000D01*
X121432000Y-67444000D01*
G37*
G04 #@! TD.AperFunction*
G04 #@! TA.AperFunction,SMDPad,CuDef*
G36*
X130832000Y-65144000D02*
G01*
X130832000Y-67444000D01*
X127232000Y-66844000D01*
X127232000Y-65744000D01*
X130832000Y-65144000D01*
G37*
G04 #@! TD.AperFunction*
G04 #@! TA.AperFunction,SMDPad,CuDef*
G36*
X150898000Y-71494000D02*
G01*
X150898000Y-73794000D01*
X147298000Y-73194000D01*
X147298000Y-72094000D01*
X150898000Y-71494000D01*
G37*
G04 #@! TD.AperFunction*
G04 #@! TA.AperFunction,SMDPad,CuDef*
G36*
X141498000Y-73794000D02*
G01*
X141498000Y-71494000D01*
X145098000Y-72094000D01*
X145098000Y-73194000D01*
X141498000Y-73794000D01*
G37*
G04 #@! TD.AperFunction*
G04 #@! TA.AperFunction,SMDPad,CuDef*
G36*
G01*
X145970500Y-95725000D02*
X145970500Y-94775000D01*
G75*
G02*
X146220500Y-94525000I250000J0D01*
G01*
X146895500Y-94525000D01*
G75*
G02*
X147145500Y-94775000I0J-250000D01*
G01*
X147145500Y-95725000D01*
G75*
G02*
X146895500Y-95975000I-250000J0D01*
G01*
X146220500Y-95975000D01*
G75*
G02*
X145970500Y-95725000I0J250000D01*
G01*
G37*
G04 #@! TD.AperFunction*
G04 #@! TA.AperFunction,SMDPad,CuDef*
G36*
G01*
X143895500Y-95725000D02*
X143895500Y-94775000D01*
G75*
G02*
X144145500Y-94525000I250000J0D01*
G01*
X144820500Y-94525000D01*
G75*
G02*
X145070500Y-94775000I0J-250000D01*
G01*
X145070500Y-95725000D01*
G75*
G02*
X144820500Y-95975000I-250000J0D01*
G01*
X144145500Y-95975000D01*
G75*
G02*
X143895500Y-95725000I0J250000D01*
G01*
G37*
G04 #@! TD.AperFunction*
G04 #@! TA.AperFunction,SMDPad,CuDef*
G36*
G01*
X143797000Y-102325500D02*
X144747000Y-102325500D01*
G75*
G02*
X144997000Y-102575500I0J-250000D01*
G01*
X144997000Y-103250500D01*
G75*
G02*
X144747000Y-103500500I-250000J0D01*
G01*
X143797000Y-103500500D01*
G75*
G02*
X143547000Y-103250500I0J250000D01*
G01*
X143547000Y-102575500D01*
G75*
G02*
X143797000Y-102325500I250000J0D01*
G01*
G37*
G04 #@! TD.AperFunction*
G04 #@! TA.AperFunction,SMDPad,CuDef*
G36*
G01*
X143797000Y-100250500D02*
X144747000Y-100250500D01*
G75*
G02*
X144997000Y-100500500I0J-250000D01*
G01*
X144997000Y-101175500D01*
G75*
G02*
X144747000Y-101425500I-250000J0D01*
G01*
X143797000Y-101425500D01*
G75*
G02*
X143547000Y-101175500I0J250000D01*
G01*
X143547000Y-100500500D01*
G75*
G02*
X143797000Y-100250500I250000J0D01*
G01*
G37*
G04 #@! TD.AperFunction*
G04 #@! TA.AperFunction,SMDPad,CuDef*
G36*
G01*
X143811500Y-77437000D02*
X143811500Y-76487000D01*
G75*
G02*
X144061500Y-76237000I250000J0D01*
G01*
X144736500Y-76237000D01*
G75*
G02*
X144986500Y-76487000I0J-250000D01*
G01*
X144986500Y-77437000D01*
G75*
G02*
X144736500Y-77687000I-250000J0D01*
G01*
X144061500Y-77687000D01*
G75*
G02*
X143811500Y-77437000I0J250000D01*
G01*
G37*
G04 #@! TD.AperFunction*
G04 #@! TA.AperFunction,SMDPad,CuDef*
G36*
G01*
X141736500Y-77437000D02*
X141736500Y-76487000D01*
G75*
G02*
X141986500Y-76237000I250000J0D01*
G01*
X142661500Y-76237000D01*
G75*
G02*
X142911500Y-76487000I0J-250000D01*
G01*
X142911500Y-77437000D01*
G75*
G02*
X142661500Y-77687000I-250000J0D01*
G01*
X141986500Y-77687000D01*
G75*
G02*
X141736500Y-77437000I0J250000D01*
G01*
G37*
G04 #@! TD.AperFunction*
G04 #@! TA.AperFunction,SMDPad,CuDef*
G36*
G01*
X143854500Y-79977000D02*
X143854500Y-79027000D01*
G75*
G02*
X144104500Y-78777000I250000J0D01*
G01*
X144779500Y-78777000D01*
G75*
G02*
X145029500Y-79027000I0J-250000D01*
G01*
X145029500Y-79977000D01*
G75*
G02*
X144779500Y-80227000I-250000J0D01*
G01*
X144104500Y-80227000D01*
G75*
G02*
X143854500Y-79977000I0J250000D01*
G01*
G37*
G04 #@! TD.AperFunction*
G04 #@! TA.AperFunction,SMDPad,CuDef*
G36*
G01*
X141779500Y-79977000D02*
X141779500Y-79027000D01*
G75*
G02*
X142029500Y-78777000I250000J0D01*
G01*
X142704500Y-78777000D01*
G75*
G02*
X142954500Y-79027000I0J-250000D01*
G01*
X142954500Y-79977000D01*
G75*
G02*
X142704500Y-80227000I-250000J0D01*
G01*
X142029500Y-80227000D01*
G75*
G02*
X141779500Y-79977000I0J250000D01*
G01*
G37*
G04 #@! TD.AperFunction*
G04 #@! TA.AperFunction,SMDPad,CuDef*
G36*
G01*
X122698500Y-72715000D02*
X123173500Y-72715000D01*
G75*
G02*
X123411000Y-72952500I0J-237500D01*
G01*
X123411000Y-73552500D01*
G75*
G02*
X123173500Y-73790000I-237500J0D01*
G01*
X122698500Y-73790000D01*
G75*
G02*
X122461000Y-73552500I0J237500D01*
G01*
X122461000Y-72952500D01*
G75*
G02*
X122698500Y-72715000I237500J0D01*
G01*
G37*
G04 #@! TD.AperFunction*
G04 #@! TA.AperFunction,SMDPad,CuDef*
G36*
G01*
X122698500Y-70990000D02*
X123173500Y-70990000D01*
G75*
G02*
X123411000Y-71227500I0J-237500D01*
G01*
X123411000Y-71827500D01*
G75*
G02*
X123173500Y-72065000I-237500J0D01*
G01*
X122698500Y-72065000D01*
G75*
G02*
X122461000Y-71827500I0J237500D01*
G01*
X122461000Y-71227500D01*
G75*
G02*
X122698500Y-70990000I237500J0D01*
G01*
G37*
G04 #@! TD.AperFunction*
G04 #@! TA.AperFunction,SMDPad,CuDef*
G36*
G01*
X123173500Y-78568500D02*
X122698500Y-78568500D01*
G75*
G02*
X122461000Y-78331000I0J237500D01*
G01*
X122461000Y-77731000D01*
G75*
G02*
X122698500Y-77493500I237500J0D01*
G01*
X123173500Y-77493500D01*
G75*
G02*
X123411000Y-77731000I0J-237500D01*
G01*
X123411000Y-78331000D01*
G75*
G02*
X123173500Y-78568500I-237500J0D01*
G01*
G37*
G04 #@! TD.AperFunction*
G04 #@! TA.AperFunction,SMDPad,CuDef*
G36*
G01*
X123173500Y-80293500D02*
X122698500Y-80293500D01*
G75*
G02*
X122461000Y-80056000I0J237500D01*
G01*
X122461000Y-79456000D01*
G75*
G02*
X122698500Y-79218500I237500J0D01*
G01*
X123173500Y-79218500D01*
G75*
G02*
X123411000Y-79456000I0J-237500D01*
G01*
X123411000Y-80056000D01*
G75*
G02*
X123173500Y-80293500I-237500J0D01*
G01*
G37*
G04 #@! TD.AperFunction*
D28*
X140970000Y-76708000D03*
X139954000Y-74676000D03*
X140970000Y-75692000D03*
X140970000Y-74676000D03*
X133096000Y-73152000D03*
X133858000Y-73152000D03*
X132588000Y-73660000D03*
X133604000Y-73660000D03*
X134366000Y-73660000D03*
X134620000Y-73152000D03*
X135128000Y-73660000D03*
X135382000Y-73152000D03*
X136144000Y-73152000D03*
X133858000Y-69596000D03*
X136652000Y-69342000D03*
X142002902Y-69910752D03*
X114911231Y-99464769D03*
X127000000Y-104394000D03*
X116840000Y-107696000D03*
X114554000Y-108712000D03*
X120650000Y-98298000D03*
X133858000Y-106680000D03*
X135128000Y-109728000D03*
X130048000Y-100076000D03*
X131318000Y-96682000D03*
X127000000Y-94742000D03*
X125984000Y-97790000D03*
X138684000Y-74168000D03*
X116678000Y-101600000D03*
X124964000Y-95762000D03*
X116678000Y-100422000D03*
X138684000Y-73152000D03*
X120142000Y-110744000D03*
X115824000Y-97536000D03*
X115824000Y-90932000D03*
X155956000Y-100838000D03*
X139446000Y-106934000D03*
X136398000Y-101346000D03*
X124968000Y-105664000D03*
X137252001Y-103470001D03*
X137414000Y-105664000D03*
X130302000Y-101346000D03*
X131318000Y-108458000D03*
X126492000Y-108712000D03*
X131572000Y-101600000D03*
X155956000Y-104902000D03*
X127508000Y-98806000D03*
X155956000Y-107696000D03*
X133096000Y-109728000D03*
X136398000Y-108712000D03*
X125222000Y-99822000D03*
X156210000Y-110236000D03*
X127762000Y-110236000D03*
X127508000Y-106680000D03*
X130048000Y-86360000D03*
X133096000Y-96774000D03*
X134020000Y-89662000D03*
X139192000Y-102616000D03*
X156615130Y-93623130D03*
X138938000Y-99616000D03*
X137668000Y-96774000D03*
X139446000Y-104648000D03*
X134874000Y-102362000D03*
X135636000Y-99584001D03*
X153162000Y-89408000D03*
X155286000Y-86268000D03*
X156210000Y-81026000D03*
X148082000Y-79756000D03*
X139700000Y-91440000D03*
X148082000Y-95504000D03*
X148082000Y-101086990D03*
X143510000Y-106172000D03*
X153162000Y-92710000D03*
X154940000Y-89408000D03*
X157480000Y-89408000D03*
X138938000Y-95758000D03*
X143510000Y-104394000D03*
X145542000Y-97028000D03*
X145542000Y-97536000D03*
X117094000Y-98298000D03*
X114300000Y-83820000D03*
X114300000Y-84836000D03*
X114300000Y-85852000D03*
X113284000Y-85852000D03*
X112268000Y-85852000D03*
X112268000Y-84836000D03*
X113284000Y-84836000D03*
X113284000Y-83820000D03*
X112268000Y-83820000D03*
X112268000Y-86868000D03*
X112268000Y-87884000D03*
X113284000Y-86868000D03*
X112776000Y-76200000D03*
X113792000Y-76200000D03*
X114808000Y-76200000D03*
X115824000Y-76200000D03*
X116840000Y-76200000D03*
X117856000Y-76200000D03*
X118872000Y-76200000D03*
X119888000Y-76200000D03*
X121412000Y-73406000D03*
X120396000Y-73406000D03*
X120396000Y-72390000D03*
X121412000Y-72390000D03*
X121412000Y-71374000D03*
X120396000Y-71374000D03*
X120396000Y-70358000D03*
X121412000Y-70358000D03*
X120904000Y-76200000D03*
X121920000Y-76200000D03*
X122936000Y-76200000D03*
X123952000Y-76200000D03*
X124968000Y-76200000D03*
X124968000Y-77216000D03*
X123952000Y-77216000D03*
X121920000Y-77216000D03*
X120904000Y-77216000D03*
X119888000Y-77216000D03*
X118872000Y-77216000D03*
X117856000Y-77216000D03*
X116840000Y-77216000D03*
X115824000Y-77216000D03*
X124460000Y-78232000D03*
X125476000Y-78232000D03*
X146050000Y-96520000D03*
X146812000Y-96520000D03*
X149098000Y-96266000D03*
X149860000Y-96266000D03*
X149606000Y-95504000D03*
X117856000Y-111506000D03*
X117094000Y-110744000D03*
X117094000Y-111506000D03*
X116332000Y-110744000D03*
X116332000Y-111506000D03*
X115570000Y-110744000D03*
X115570000Y-111506000D03*
X114808000Y-110744000D03*
X114808000Y-111506000D03*
X114046000Y-110744000D03*
X114046000Y-111506000D03*
X113284000Y-111506000D03*
X118618000Y-111506000D03*
X129032000Y-91440000D03*
X129794000Y-91440000D03*
X130556000Y-91440000D03*
X130556000Y-92202000D03*
X129794000Y-92202000D03*
X129032000Y-92202000D03*
X129032000Y-92964000D03*
X129794000Y-92964000D03*
X129032000Y-93726000D03*
X152908000Y-81026000D03*
X152654000Y-77724000D03*
X142840000Y-101762000D03*
X143488500Y-102129500D03*
X145796000Y-100584000D03*
X140716000Y-72644000D03*
X140716000Y-73406000D03*
X143764000Y-74422000D03*
X143764000Y-75184000D03*
X142240000Y-75184000D03*
X142240000Y-74422000D03*
X143002000Y-74422000D03*
X143002000Y-75184000D03*
X111760000Y-101346000D03*
X112268000Y-101854000D03*
X112268000Y-102616000D03*
X113030000Y-102616000D03*
X112776000Y-103378000D03*
X113538000Y-103378000D03*
X146812000Y-76708000D03*
X146812000Y-77470000D03*
X147574000Y-77470000D03*
X147574000Y-78232000D03*
X146812000Y-78232000D03*
X147066000Y-78994000D03*
X140208000Y-83058000D03*
X139700000Y-83058000D03*
X137922000Y-84836000D03*
X138684000Y-85598000D03*
X137160000Y-85344000D03*
X137922000Y-86106000D03*
X123190000Y-82550000D03*
X122174000Y-82550000D03*
X122682000Y-81788000D03*
X121666000Y-81788000D03*
X122174000Y-81026000D03*
X120904000Y-81280000D03*
X121412000Y-80518000D03*
X138938000Y-78994000D03*
X138938000Y-78232000D03*
X139700000Y-78232000D03*
X140462000Y-78232000D03*
X144272000Y-77978000D03*
X144780000Y-78486000D03*
X143764000Y-80156000D03*
X109474000Y-64516000D03*
X110236000Y-64516000D03*
X110998000Y-64516000D03*
X111760000Y-64516000D03*
X112522000Y-64516000D03*
X113284000Y-64516000D03*
X114046000Y-64516000D03*
X114808000Y-64516000D03*
X115570000Y-64516000D03*
X116332000Y-64516000D03*
X117094000Y-64516000D03*
X117856000Y-64516000D03*
X118618000Y-64516000D03*
X119380000Y-64516000D03*
X120142000Y-64516000D03*
X120142000Y-65278000D03*
X119380000Y-65278000D03*
X118618000Y-65278000D03*
X117856000Y-65278000D03*
X117094000Y-65278000D03*
X116332000Y-65278000D03*
X115570000Y-65278000D03*
X114808000Y-65278000D03*
X114046000Y-65278000D03*
X113284000Y-65278000D03*
X112522000Y-65278000D03*
X111760000Y-65278000D03*
X110998000Y-65278000D03*
X110236000Y-65278000D03*
X109474000Y-65278000D03*
X120396000Y-69342000D03*
X120396000Y-68326000D03*
X120396000Y-67310000D03*
X120396000Y-66294000D03*
X119380000Y-69596000D03*
X119380000Y-68580000D03*
X112268000Y-66294000D03*
X113284000Y-66294000D03*
X114300000Y-66294000D03*
X115316000Y-66294000D03*
X116332000Y-66294000D03*
X112268000Y-67310000D03*
X113284000Y-67310000D03*
X114300000Y-67310000D03*
X115316000Y-67310000D03*
X116332000Y-67310000D03*
X118364000Y-68580000D03*
X117348000Y-68580000D03*
X116332000Y-68580000D03*
X115316000Y-68580000D03*
X114300000Y-68580000D03*
X113284000Y-68580000D03*
X112268000Y-68580000D03*
X111252000Y-68580000D03*
X110236000Y-68580000D03*
X109474000Y-68580000D03*
X109474000Y-69596000D03*
X110236000Y-69596000D03*
X111252000Y-69596000D03*
X112268000Y-69596000D03*
X113284000Y-69596000D03*
X114300000Y-69596000D03*
X115316000Y-69596000D03*
X116332000Y-69596000D03*
X117348000Y-69596000D03*
X118364000Y-69596000D03*
X121412000Y-69342000D03*
X121412000Y-68326000D03*
X122428000Y-68326000D03*
X122428000Y-69342000D03*
X123444000Y-69850000D03*
X123444000Y-68834000D03*
X124460000Y-70104000D03*
X125222000Y-70104000D03*
X124460000Y-69088000D03*
X125222000Y-69088000D03*
X125222000Y-68072000D03*
X124206000Y-68072000D03*
X126238000Y-68072000D03*
X127254000Y-68072000D03*
X128524000Y-68072000D03*
X126238000Y-67056000D03*
X126238000Y-66040000D03*
X126238000Y-65024000D03*
X123190000Y-64516000D03*
X124206000Y-64516000D03*
X125222000Y-64516000D03*
X127254000Y-64516000D03*
X128270000Y-64516000D03*
X129286000Y-64516000D03*
X145796000Y-66040000D03*
X146558000Y-65278000D03*
X147320000Y-64516000D03*
X146558000Y-64516000D03*
X145796000Y-65278000D03*
X145796000Y-64516000D03*
X145034000Y-66040000D03*
X144272000Y-66040000D03*
X142748000Y-65532000D03*
X141732000Y-65532000D03*
X140462000Y-66802000D03*
X140462000Y-67818000D03*
X141732000Y-64516000D03*
X142748000Y-64516000D03*
X145034000Y-65278000D03*
X144272000Y-65278000D03*
X148336000Y-64516000D03*
X145034000Y-64516000D03*
X144272000Y-64516000D03*
X143510000Y-64516000D03*
X143510000Y-65532000D03*
X149098000Y-64516000D03*
X149860000Y-64516000D03*
X150622000Y-64516000D03*
X151384000Y-64516000D03*
X152146000Y-64516000D03*
X152908000Y-64516000D03*
X153670000Y-64516000D03*
X154432000Y-64516000D03*
X155194000Y-64516000D03*
X155956000Y-64516000D03*
X156718000Y-64516000D03*
X157480000Y-64516000D03*
X157226000Y-69342000D03*
X157226000Y-70104000D03*
X157226000Y-70866000D03*
X157226000Y-71628000D03*
X157226000Y-72390000D03*
X157226000Y-73152000D03*
X157226000Y-73914000D03*
X157226000Y-74676000D03*
X157226000Y-75438000D03*
X157226000Y-76200000D03*
X157226000Y-76962000D03*
X156464000Y-76962000D03*
X155702000Y-76962000D03*
X154940000Y-76962000D03*
X154178000Y-76962000D03*
X153416000Y-76962000D03*
X152654000Y-76962000D03*
X152654000Y-76200000D03*
X152654000Y-75438000D03*
X152654000Y-74676000D03*
X152654000Y-73914000D03*
X152654000Y-73152000D03*
X152654000Y-72390000D03*
X152654000Y-71628000D03*
X152654000Y-70866000D03*
X152654000Y-70104000D03*
X152654000Y-69342000D03*
X153416000Y-69342000D03*
X154178000Y-69342000D03*
X154940000Y-69342000D03*
X155702000Y-69342000D03*
X156464000Y-69342000D03*
X154178000Y-70104000D03*
X155702000Y-70104000D03*
X154940000Y-70104000D03*
X156464000Y-70104000D03*
X153416000Y-70104000D03*
X154178000Y-70866000D03*
X155702000Y-70866000D03*
X156464000Y-70866000D03*
X154940000Y-70866000D03*
X153416000Y-70866000D03*
X156464000Y-71628000D03*
X154178000Y-71628000D03*
X153416000Y-71628000D03*
X154940000Y-71628000D03*
X155702000Y-71628000D03*
X153416000Y-72390000D03*
X156464000Y-72390000D03*
X154178000Y-72390000D03*
X154940000Y-72390000D03*
X155702000Y-72390000D03*
X155702000Y-73152000D03*
X154940000Y-73152000D03*
X156464000Y-73152000D03*
X154178000Y-73152000D03*
X153416000Y-73152000D03*
X153416000Y-73914000D03*
X156464000Y-73914000D03*
X155702000Y-73914000D03*
X154940000Y-73914000D03*
X154178000Y-73914000D03*
X154178000Y-74676000D03*
X155702000Y-74676000D03*
X153416000Y-74676000D03*
X156464000Y-74676000D03*
X154940000Y-74676000D03*
X156464000Y-75438000D03*
X153416000Y-75438000D03*
X154178000Y-75438000D03*
X154940000Y-75438000D03*
X155702000Y-75438000D03*
X153416000Y-76200000D03*
X154178000Y-76200000D03*
X156464000Y-76200000D03*
X155702000Y-76200000D03*
X154940000Y-76200000D03*
X151892000Y-70866000D03*
X151892000Y-70104000D03*
X151892000Y-71628000D03*
X151892000Y-69342000D03*
X151892000Y-75438000D03*
X151892000Y-74676000D03*
X151892000Y-73914000D03*
X151892000Y-73152000D03*
X151892000Y-76200000D03*
X151892000Y-72390000D03*
X152654000Y-78486000D03*
X153416000Y-78486000D03*
X153416000Y-77724000D03*
X154178000Y-77724000D03*
X152908000Y-81788000D03*
X152908000Y-82550000D03*
X152908000Y-83312000D03*
X152908000Y-84074000D03*
X152146000Y-83566000D03*
X152146000Y-84328000D03*
X151384000Y-83566000D03*
X151384000Y-84328000D03*
X150622000Y-84328000D03*
X148082000Y-69342000D03*
X148082000Y-70104000D03*
X148082000Y-70866000D03*
X148844000Y-70104000D03*
X149606000Y-70104000D03*
X150368000Y-70104000D03*
X151130000Y-70104000D03*
X148844000Y-69342000D03*
X148844000Y-70866000D03*
X147320000Y-69596000D03*
X151130000Y-74676000D03*
X150368000Y-74676000D03*
X149606000Y-74676000D03*
X148844000Y-74676000D03*
X149606000Y-75438000D03*
X150368000Y-75438000D03*
X151130000Y-75438000D03*
X151130000Y-76200000D03*
X150368000Y-76200000D03*
X154432000Y-92710000D03*
X155194000Y-92710000D03*
X155194000Y-93472000D03*
X154432000Y-93472000D03*
X155194000Y-94234000D03*
X154432000Y-94234000D03*
X154940000Y-94996000D03*
X153924000Y-96012000D03*
X153924000Y-95250000D03*
X154940000Y-95758000D03*
X150622000Y-97282000D03*
X152908000Y-97282000D03*
X117094000Y-97536000D03*
X117094000Y-96774000D03*
X117602000Y-96012000D03*
X116840000Y-96012000D03*
X116840000Y-95250000D03*
X117602000Y-95250000D03*
X116840000Y-94488000D03*
X117602000Y-94488000D03*
X116840000Y-93726000D03*
X117602000Y-93726000D03*
X117602000Y-92964000D03*
X116840000Y-92964000D03*
X116840000Y-92202000D03*
X117602000Y-92202000D03*
X117602000Y-91440000D03*
X116840000Y-91440000D03*
X117348000Y-90678000D03*
X118364000Y-91694000D03*
X118364000Y-92456000D03*
X118364000Y-93218000D03*
X118364000Y-93980000D03*
X118364000Y-94742000D03*
X119126000Y-92202000D03*
X119126000Y-92964000D03*
X119126000Y-93726000D03*
X119126000Y-94488000D03*
X119888000Y-92964000D03*
X119888000Y-93726000D03*
X120650000Y-93218000D03*
X121412000Y-93218000D03*
X122174000Y-93218000D03*
X122936000Y-93218000D03*
X123698000Y-93218000D03*
X135128000Y-89916000D03*
X135128000Y-89154000D03*
X135128000Y-88392000D03*
X135128000Y-87630000D03*
X135128000Y-86868000D03*
X137668000Y-66294000D03*
X136906000Y-66294000D03*
X136144000Y-66294000D03*
X135382000Y-66294000D03*
X134620000Y-66294000D03*
X133858000Y-66294000D03*
X134112000Y-83058000D03*
X134874000Y-83058000D03*
X134874000Y-82296000D03*
X134112000Y-82296000D03*
X135636000Y-81534000D03*
X134620000Y-81534000D03*
X134874000Y-80772000D03*
X135636000Y-80772000D03*
X135636000Y-80010000D03*
X117094000Y-86614000D03*
X117856000Y-86614000D03*
X117856000Y-85852000D03*
X117094000Y-85852000D03*
X117094000Y-85090000D03*
X117856000Y-85090000D03*
X117094000Y-84328000D03*
X123952000Y-84836000D03*
X123952000Y-83820000D03*
X127762000Y-82804000D03*
X137414000Y-100838000D03*
X132588000Y-95504000D03*
X127762000Y-93980000D03*
X126238000Y-92202000D03*
X119126000Y-90678000D03*
X137922000Y-97790000D03*
X136398000Y-95250000D03*
X149352000Y-100584000D03*
X145288000Y-105664000D03*
X151384000Y-103886000D03*
X151384000Y-100584000D03*
D29*
X144196000Y-100762000D02*
X144272000Y-100838000D01*
X141500000Y-100762000D02*
X144196000Y-100762000D01*
D30*
X144272000Y-95461000D02*
X144483000Y-95250000D01*
X144272000Y-100838000D02*
X144272000Y-95461000D01*
X151087000Y-93277000D02*
X150495000Y-92685000D01*
X151087000Y-94996000D02*
X151087000Y-93277000D01*
D31*
X147048000Y-92685000D02*
X144483000Y-95250000D01*
X150495000Y-92685000D02*
X147048000Y-92685000D01*
D30*
X150495000Y-92685000D02*
X150495000Y-89027000D01*
D32*
X139201734Y-79810009D02*
X138684000Y-80327743D01*
X142058991Y-79810009D02*
X139201734Y-79810009D01*
X142367000Y-79502000D02*
X142058991Y-79810009D01*
X138684000Y-81356018D02*
X139369982Y-82042000D01*
X138684000Y-80327743D02*
X138684000Y-81356018D01*
X139369982Y-82042000D02*
X146685000Y-82042000D01*
D33*
X136144000Y-71374000D02*
X136144000Y-70866000D01*
D32*
X145542000Y-83185000D02*
X145542000Y-84836000D01*
X146685000Y-82042000D02*
X145542000Y-83185000D01*
X145542000Y-84836000D02*
X145034000Y-85344000D01*
D31*
X143510000Y-88392000D02*
X143510000Y-87630000D01*
X143510000Y-87630000D02*
X144018000Y-87122000D01*
X147701000Y-88773000D02*
X150495000Y-88773000D01*
D30*
X150495000Y-88773000D02*
X150495000Y-86385000D01*
D31*
X146050000Y-87122000D02*
X147701000Y-88773000D01*
D30*
X150495000Y-89027000D02*
X150495000Y-88773000D01*
D29*
X145034000Y-85344000D02*
X145034000Y-86868000D01*
D31*
X144780000Y-87122000D02*
X146050000Y-87122000D01*
D29*
X145034000Y-86868000D02*
X144780000Y-87122000D01*
D31*
X144018000Y-87122000D02*
X144780000Y-87122000D01*
X127136000Y-79756000D02*
X127254000Y-79874000D01*
X122936000Y-79756000D02*
X127136000Y-79756000D01*
D29*
X132334000Y-72349000D02*
X131277000Y-73406000D01*
X132334000Y-71374000D02*
X132334000Y-72349000D01*
X131277000Y-73406000D02*
X130048000Y-73406000D01*
X127254000Y-76200000D02*
X127254000Y-79874000D01*
X130048000Y-73406000D02*
X127254000Y-76200000D01*
X131064000Y-70104000D02*
X131064000Y-71374000D01*
X130810000Y-69850000D02*
X131064000Y-70104000D01*
X127508000Y-69850000D02*
X130810000Y-69850000D01*
X127254000Y-70104000D02*
X127508000Y-69850000D01*
X127254000Y-71374000D02*
X127254000Y-70104000D01*
D31*
X127100500Y-71527500D02*
X127254000Y-71374000D01*
X122936000Y-71527500D02*
X127100500Y-71527500D01*
D29*
X133604000Y-71374000D02*
X133604000Y-69850000D01*
X133604000Y-69850000D02*
X133858000Y-69596000D01*
D32*
X136794000Y-69200000D02*
X136794000Y-67724000D01*
X136652000Y-69342000D02*
X136794000Y-69200000D01*
D30*
X142002902Y-71348902D02*
X142002902Y-70050010D01*
X143298000Y-72644000D02*
X142002902Y-71348902D01*
D29*
X134874000Y-71374000D02*
X134874000Y-70358000D01*
X134874000Y-70358000D02*
X134874000Y-70104000D01*
D32*
X136144000Y-68537602D02*
X136144000Y-67724000D01*
X135593602Y-69088000D02*
X136144000Y-68537602D01*
X135382000Y-69088000D02*
X135593602Y-69088000D01*
X134874000Y-70104000D02*
X134874000Y-69596000D01*
D33*
X131608999Y-68870999D02*
X134656999Y-68870999D01*
D32*
X135128000Y-69342000D02*
X135382000Y-69088000D01*
D33*
X134656999Y-68870999D02*
X135128000Y-69342000D01*
D32*
X134874000Y-69596000D02*
X135128000Y-69342000D01*
D33*
X131608999Y-68870999D02*
X131318000Y-68580000D01*
D32*
X131318000Y-68580000D02*
X131064000Y-68326000D01*
D29*
X131064000Y-68326000D02*
X130810000Y-68072000D01*
D31*
X130810000Y-68072000D02*
X130302000Y-67564000D01*
X130302000Y-67564000D02*
X129032000Y-66294000D01*
D32*
X137444000Y-67724000D02*
X137444000Y-68864000D01*
X137444000Y-68864000D02*
X137668000Y-69088000D01*
X137668000Y-69088000D02*
X139954000Y-69088000D01*
D29*
X141774000Y-69088000D02*
X143298000Y-67564000D01*
X139954000Y-69088000D02*
X141774000Y-69088000D01*
D30*
X143298000Y-67564000D02*
X146050000Y-70316000D01*
X146050000Y-70316000D02*
X146050000Y-73914000D01*
X149794000Y-77658000D02*
X150114000Y-77658000D01*
X146050000Y-73914000D02*
X149794000Y-77658000D01*
D34*
X125434000Y-86444000D02*
X126915000Y-84963000D01*
X123378000Y-86444000D02*
X125434000Y-86444000D01*
X126915000Y-84963000D02*
X127635000Y-84963000D01*
X132588000Y-80010000D02*
X132837000Y-80010000D01*
X127635000Y-84963000D02*
X132588000Y-80010000D01*
X148195000Y-84027000D02*
X150114000Y-82108000D01*
X148195000Y-86385000D02*
X148195000Y-84027000D01*
D31*
X148110000Y-83942000D02*
X148195000Y-84027000D01*
X146685000Y-83942000D02*
X148110000Y-83942000D01*
D32*
X148889000Y-80883000D02*
X150114000Y-82108000D01*
X139827000Y-80883000D02*
X148889000Y-80883000D01*
D31*
X144485000Y-82992000D02*
X142133000Y-85344000D01*
X137937000Y-80660000D02*
X137287000Y-80010000D01*
X137937000Y-82838802D02*
X137937000Y-80660000D01*
X140442198Y-85344000D02*
X137937000Y-82838802D01*
X142133000Y-85344000D02*
X140442198Y-85344000D01*
D29*
X115316000Y-89662000D02*
X122682000Y-89662000D01*
X114046000Y-98806000D02*
X114046000Y-90932000D01*
X114808000Y-99568000D02*
X114046000Y-98806000D01*
X114046000Y-90932000D02*
X115316000Y-89662000D01*
X118237000Y-99568000D02*
X114808000Y-99568000D01*
X130320000Y-110762000D02*
X141500000Y-110762000D01*
X128524000Y-108966000D02*
X130320000Y-110762000D01*
X128524000Y-105918000D02*
X128524000Y-108966000D01*
X127000000Y-104394000D02*
X128524000Y-105918000D01*
X115570000Y-107696000D02*
X114554000Y-108712000D01*
X116840000Y-107696000D02*
X115570000Y-107696000D01*
X120650000Y-98298000D02*
X119507000Y-98298000D01*
X141500000Y-109762000D02*
X138464000Y-109762000D01*
X135162000Y-109762000D02*
X135128000Y-109728000D01*
X138464000Y-109762000D02*
X135162000Y-109762000D01*
X133858000Y-102622078D02*
X133096000Y-101860078D01*
X133858000Y-106680000D02*
X133858000Y-102622078D01*
X133096000Y-101860078D02*
X133096000Y-100838000D01*
X132334000Y-100076000D02*
X130048000Y-100076000D01*
X133096000Y-100838000D02*
X132334000Y-100076000D01*
X128940000Y-96682000D02*
X127000000Y-94742000D01*
X131318000Y-96682000D02*
X128940000Y-96682000D01*
X124072202Y-97762000D02*
X124100202Y-97790000D01*
X122660000Y-97762000D02*
X124072202Y-97762000D01*
X124100202Y-97790000D02*
X125984000Y-97790000D01*
X112014000Y-100076000D02*
X110490000Y-100076000D01*
X138436078Y-74168000D02*
X138684000Y-74168000D01*
X137414000Y-73145922D02*
X138436078Y-74168000D01*
X137414000Y-71374000D02*
X137414000Y-73145922D01*
X113538000Y-101600000D02*
X112268000Y-100330000D01*
X116678000Y-101600000D02*
X113538000Y-101600000D01*
X112268000Y-100330000D02*
X112014000Y-100076000D01*
X122660000Y-95762000D02*
X124964000Y-95762000D01*
X114660723Y-100422000D02*
X112776000Y-98537277D01*
X116678000Y-100422000D02*
X114660723Y-100422000D01*
X112776000Y-98537277D02*
X112761277Y-98537277D01*
X111760000Y-97536000D02*
X110490000Y-97536000D01*
X112761277Y-98537277D02*
X111760000Y-97536000D01*
X138684000Y-71374000D02*
X138684000Y-73152000D01*
X132588000Y-88392000D02*
X132588000Y-90424000D01*
X133515000Y-91351000D02*
X136470000Y-91351000D01*
X114300000Y-87884000D02*
X132080000Y-87884000D01*
X132080000Y-87884000D02*
X132588000Y-88392000D01*
X112776000Y-89408000D02*
X114300000Y-87884000D01*
X112776000Y-92710000D02*
X112776000Y-89408000D01*
X132588000Y-90424000D02*
X133515000Y-91351000D01*
X110490000Y-94996000D02*
X112776000Y-92710000D01*
X108966000Y-96520000D02*
X110490000Y-94996000D01*
X108966000Y-111229202D02*
X108966000Y-96520000D01*
X109500788Y-111763990D02*
X108966000Y-111229202D01*
X111756010Y-111763990D02*
X109500788Y-111763990D01*
X113758000Y-109762000D02*
X111756010Y-111763990D01*
X122660000Y-109762000D02*
X113758000Y-109762000D01*
X120160000Y-110762000D02*
X120142000Y-110744000D01*
X122660000Y-110762000D02*
X120160000Y-110762000D01*
D32*
X110490000Y-71374000D02*
X108966000Y-72898000D01*
X108966000Y-78232000D02*
X110490000Y-79756000D01*
X108966000Y-72898000D02*
X108966000Y-78232000D01*
D29*
X115824000Y-97536000D02*
X115824000Y-90932000D01*
D30*
X110490000Y-71374000D02*
X118440000Y-71374000D01*
D29*
X112014000Y-107696000D02*
X110490000Y-107696000D01*
X113792000Y-105918000D02*
X112014000Y-107696000D01*
X118349277Y-105918000D02*
X113792000Y-105918000D01*
X118505277Y-105762000D02*
X118349277Y-105918000D01*
X122660000Y-105762000D02*
X118505277Y-105762000D01*
X111760000Y-110236000D02*
X110490000Y-110236000D01*
X115234000Y-106762000D02*
X111760000Y-110236000D01*
X122660000Y-106762000D02*
X115234000Y-106762000D01*
X155956000Y-95490000D02*
X155956000Y-100838000D01*
X158990000Y-92456000D02*
X155956000Y-95490000D01*
X139618000Y-106762000D02*
X139446000Y-106934000D01*
X141500000Y-106762000D02*
X139618000Y-106762000D01*
X139242000Y-108762000D02*
X141500000Y-108762000D01*
X136398000Y-105918000D02*
X139242000Y-108762000D01*
X136398000Y-101346000D02*
X136398000Y-105918000D01*
X160531990Y-99077990D02*
X160294001Y-98840001D01*
X160531990Y-111506000D02*
X160531990Y-99077990D01*
X160274000Y-111763990D02*
X160531990Y-111506000D01*
X144783990Y-111763990D02*
X160274000Y-111763990D01*
X143510000Y-110490000D02*
X144783990Y-111763990D01*
X143510000Y-108359798D02*
X143510000Y-110490000D01*
X142912202Y-107762000D02*
X143510000Y-108359798D01*
X160294001Y-98840001D02*
X158990000Y-97536000D01*
X141500000Y-107762000D02*
X142912202Y-107762000D01*
X124968000Y-105664000D02*
X124968000Y-103124000D01*
X124606000Y-102762000D02*
X122660000Y-102762000D01*
X124968000Y-103124000D02*
X124606000Y-102762000D01*
D30*
X154574000Y-102108000D02*
X156210000Y-102108000D01*
X156718000Y-102616000D02*
X158990000Y-102616000D01*
X156210000Y-102108000D02*
X156718000Y-102616000D01*
D29*
X125156000Y-107762000D02*
X126145999Y-106772001D01*
X122660000Y-107762000D02*
X125156000Y-107762000D01*
X137252001Y-105502001D02*
X137414000Y-105664000D01*
X137252001Y-103470001D02*
X137252001Y-105502001D01*
X128524000Y-101346000D02*
X126145999Y-103724001D01*
X130302000Y-101346000D02*
X128524000Y-101346000D01*
X126145999Y-106772001D02*
X126145999Y-103724001D01*
D30*
X158736000Y-104902000D02*
X158990000Y-105156000D01*
D29*
X125426000Y-108762000D02*
X125476000Y-108712000D01*
X122660000Y-108762000D02*
X125426000Y-108762000D01*
X126442000Y-108762000D02*
X126492000Y-108712000D01*
X125426000Y-108762000D02*
X126442000Y-108762000D01*
X131572000Y-108204000D02*
X131318000Y-108458000D01*
X131572000Y-101600000D02*
X131572000Y-108204000D01*
D30*
X155956000Y-104902000D02*
X158736000Y-104902000D01*
D29*
X122704000Y-98806000D02*
X122660000Y-98762000D01*
X127508000Y-98806000D02*
X122704000Y-98806000D01*
D30*
X155956000Y-107696000D02*
X158990000Y-107696000D01*
D29*
X133096000Y-109728000D02*
X133950001Y-108873999D01*
X134112000Y-108712000D02*
X136398000Y-108712000D01*
X133950001Y-108873999D02*
X134112000Y-108712000D01*
X122720000Y-99822000D02*
X122660000Y-99762000D01*
X125222000Y-99822000D02*
X122720000Y-99822000D01*
D30*
X156210000Y-110236000D02*
X158990000Y-110236000D01*
D29*
X127762000Y-106934000D02*
X127508000Y-106680000D01*
X127762000Y-110236000D02*
X127762000Y-106934000D01*
X134020000Y-87538000D02*
X134020000Y-89662000D01*
X132842000Y-86360000D02*
X134020000Y-87538000D01*
X130048000Y-86360000D02*
X132842000Y-86360000D01*
X132334000Y-97536000D02*
X133096000Y-96774000D01*
X128524000Y-97536000D02*
X132334000Y-97536000D01*
X127762000Y-96774000D02*
X128524000Y-97536000D01*
X125239922Y-96774000D02*
X127762000Y-96774000D01*
X125227922Y-96762000D02*
X125239922Y-96774000D01*
X122660000Y-96762000D02*
X125227922Y-96762000D01*
X139338000Y-102762000D02*
X139192000Y-102616000D01*
X141500000Y-102762000D02*
X139338000Y-102762000D01*
X160308001Y-71920001D02*
X159004000Y-70616000D01*
X160308001Y-89609201D02*
X160308001Y-71920001D01*
X159239202Y-90678000D02*
X160308001Y-89609201D01*
X156615130Y-93623130D02*
X156615130Y-92050870D01*
X157988000Y-90678000D02*
X159239202Y-90678000D01*
X156615130Y-92050870D02*
X157988000Y-90678000D01*
X139084000Y-99762000D02*
X138938000Y-99616000D01*
X141500000Y-99762000D02*
X139084000Y-99762000D01*
X137680000Y-96762000D02*
X137668000Y-96774000D01*
X141500000Y-96762000D02*
X137680000Y-96762000D01*
X139560000Y-104762000D02*
X139446000Y-104648000D01*
X141500000Y-104762000D02*
X139560000Y-104762000D01*
X134874000Y-102362000D02*
X134874000Y-100838000D01*
X134874000Y-100346001D02*
X135636000Y-99584001D01*
X134874000Y-100838000D02*
X134874000Y-100346001D01*
X154432000Y-88138000D02*
X153162000Y-89408000D01*
X155286000Y-87284000D02*
X154432000Y-88138000D01*
X155286000Y-86268000D02*
X155286000Y-87284000D01*
D31*
X154940000Y-79756000D02*
X148082000Y-79756000D01*
X156210000Y-81026000D02*
X154940000Y-79756000D01*
D29*
X126815922Y-100762000D02*
X122660000Y-100762000D01*
X128971932Y-98605990D02*
X126815922Y-100762000D01*
X134132932Y-98605990D02*
X128971932Y-98605990D01*
X135469001Y-97269921D02*
X134132932Y-98605990D01*
X135469001Y-94594201D02*
X135469001Y-97269921D01*
X135469001Y-94594201D02*
X135469001Y-94400999D01*
X135469001Y-94400999D02*
X135636000Y-94234000D01*
X135636000Y-94234000D02*
X138684000Y-94234000D01*
X139700000Y-93218000D02*
X139700000Y-91440000D01*
X138684000Y-94234000D02*
X139700000Y-93218000D01*
X148082000Y-95504000D02*
X148082000Y-101086990D01*
X143100000Y-105762000D02*
X141500000Y-105762000D01*
X143510000Y-106172000D02*
X143100000Y-105762000D01*
X153162000Y-91186000D02*
X154940000Y-89408000D01*
X153162000Y-92710000D02*
X153162000Y-91186000D01*
X157480000Y-87380000D02*
X159004000Y-85856000D01*
X157480000Y-89408000D02*
X157480000Y-87380000D01*
X138942000Y-95762000D02*
X138938000Y-95758000D01*
X141500000Y-95762000D02*
X138942000Y-95762000D01*
D34*
X121582000Y-84244000D02*
X119126000Y-81788000D01*
X122428000Y-84244000D02*
X121582000Y-84244000D01*
D31*
X153386000Y-110236000D02*
X147179000Y-110236000D01*
D33*
X147179000Y-107696000D02*
X147179000Y-107583000D01*
D31*
X153386000Y-107696000D02*
X147179000Y-107696000D01*
D33*
X148308000Y-102616000D02*
X148336000Y-102616000D01*
D31*
X153274000Y-102108000D02*
X150876000Y-102108000D01*
X150368000Y-102616000D02*
X148308000Y-102616000D01*
X150876000Y-102108000D02*
X150368000Y-102616000D01*
X153274000Y-102108000D02*
X154574000Y-102108000D01*
X154574000Y-104902000D02*
X155956000Y-104902000D01*
X151130000Y-104902000D02*
X154574000Y-104902000D01*
X150876000Y-105156000D02*
X151130000Y-104902000D01*
X148336000Y-105156000D02*
X150876000Y-105156000D01*
X153386000Y-107696000D02*
X155956000Y-107696000D01*
X153386000Y-110236000D02*
X156210000Y-110236000D01*
X145260000Y-90650000D02*
X145288000Y-90678000D01*
X145260000Y-88392000D02*
X145260000Y-90650000D01*
X119507000Y-97028000D02*
X120142000Y-96393000D01*
X120142000Y-95639198D02*
X121547198Y-94234000D01*
X120142000Y-96393000D02*
X120142000Y-95639198D01*
X121547198Y-94234000D02*
X125730000Y-94234000D01*
X127762000Y-92202000D02*
X127762000Y-89662000D01*
X125730000Y-94234000D02*
X127762000Y-92202000D01*
D35*
X110490000Y-82296000D02*
X113030000Y-82296000D01*
X116078000Y-79248000D02*
X119126000Y-79248000D01*
X113030000Y-82296000D02*
X116078000Y-79248000D01*
D29*
X144272000Y-103632000D02*
X143510000Y-104394000D01*
X144272000Y-102913000D02*
X144272000Y-103632000D01*
X143121000Y-101762000D02*
X143488500Y-102129500D01*
X141500000Y-101762000D02*
X142840000Y-101762000D01*
X145828000Y-97314000D02*
X145542000Y-97028000D01*
X146812000Y-97314000D02*
X145828000Y-97314000D01*
X145542000Y-97028000D02*
X145542000Y-97536000D01*
X118237000Y-98298000D02*
X117094000Y-98298000D01*
X146558000Y-96012000D02*
X146050000Y-96520000D01*
X146558000Y-95250000D02*
X146558000Y-96012000D01*
X113540000Y-111762000D02*
X113284000Y-111506000D01*
X122660000Y-111762000D02*
X113540000Y-111762000D01*
X141500000Y-111762000D02*
X122660000Y-111762000D01*
X143615500Y-102256500D02*
X144272000Y-102913000D01*
X142840000Y-101762000D02*
X143121000Y-101762000D01*
X143488500Y-102129500D02*
X143615500Y-102256500D01*
X153924000Y-97314000D02*
X153924000Y-97282000D01*
D30*
X153924000Y-97282000D02*
X153924000Y-96012000D01*
D32*
X153670000Y-94996000D02*
X153924000Y-95250000D01*
X153162000Y-94996000D02*
X153670000Y-94996000D01*
D33*
X140970000Y-83401000D02*
X140805000Y-83401000D01*
D31*
X140462000Y-83058000D02*
X140208000Y-83058000D01*
X140805000Y-83401000D02*
X140462000Y-83058000D01*
D29*
X139049000Y-78883000D02*
X138938000Y-78994000D01*
X139827000Y-78883000D02*
X139049000Y-78883000D01*
X138938000Y-78232000D02*
X139700000Y-78232000D01*
X144442000Y-79502000D02*
X144442000Y-79732000D01*
X144418000Y-79502000D02*
X143764000Y-80156000D01*
X144442000Y-79502000D02*
X144418000Y-79502000D01*
X144442000Y-78824000D02*
X144780000Y-78486000D01*
X144442000Y-79502000D02*
X144442000Y-78824000D01*
X144442000Y-78148000D02*
X144272000Y-77978000D01*
X144442000Y-79502000D02*
X144442000Y-78148000D01*
X144399000Y-76962000D02*
X144399000Y-77089000D01*
X144272000Y-77216000D02*
X144272000Y-77978000D01*
X144399000Y-77089000D02*
X144272000Y-77216000D01*
D30*
X153924000Y-96012000D02*
X153924000Y-95250000D01*
X153924000Y-95250000D02*
X153924000Y-95250000D01*
D29*
X133644000Y-67724000D02*
X133644000Y-67778000D01*
X133644000Y-67724000D02*
X134206000Y-67724000D01*
X134206000Y-67724000D02*
X134620000Y-67310000D01*
D33*
X134844000Y-67534000D02*
X134620000Y-67310000D01*
X134844000Y-67724000D02*
X134844000Y-67534000D01*
X134844000Y-67280000D02*
X133858000Y-66294000D01*
X134844000Y-67724000D02*
X134844000Y-67280000D01*
X134844000Y-66518000D02*
X134620000Y-66294000D01*
X134844000Y-67724000D02*
X134844000Y-66518000D01*
X134844000Y-66832000D02*
X135382000Y-66294000D01*
X134844000Y-67724000D02*
X134844000Y-66832000D01*
D29*
X137414000Y-102101922D02*
X137414000Y-100838000D01*
X139074078Y-103762000D02*
X137414000Y-102101922D01*
X141500000Y-103762000D02*
X139074078Y-103762000D01*
X129286000Y-95504000D02*
X127762000Y-93980000D01*
X132588000Y-95504000D02*
X129286000Y-95504000D01*
X120650000Y-92202000D02*
X119126000Y-90678000D01*
X126238000Y-92202000D02*
X120650000Y-92202000D01*
X141472000Y-97790000D02*
X141500000Y-97762000D01*
X138684000Y-97790000D02*
X141472000Y-97790000D01*
X138684000Y-97790000D02*
X137922000Y-97790000D01*
X136398000Y-96520000D02*
X136398000Y-98298000D01*
X136398000Y-96855922D02*
X136398000Y-96520000D01*
X136398000Y-96520000D02*
X136398000Y-95250000D01*
X136862000Y-98762000D02*
X136398000Y-98298000D01*
X141500000Y-98762000D02*
X136862000Y-98762000D01*
X112268000Y-104394000D02*
X110490000Y-102616000D01*
X117348000Y-104394000D02*
X112268000Y-104394000D01*
X117980000Y-103762000D02*
X117348000Y-104394000D01*
X122660000Y-103762000D02*
X117980000Y-103762000D01*
X116840000Y-105156000D02*
X110490000Y-105156000D01*
X118110000Y-105156000D02*
X116840000Y-105156000D01*
X118504000Y-104762000D02*
X118110000Y-105156000D01*
X122660000Y-104762000D02*
X118504000Y-104762000D01*
D32*
X145429000Y-110236000D02*
X144780000Y-110236000D01*
X144780000Y-110236000D02*
X144272000Y-109728000D01*
X144272000Y-109728000D02*
X144272000Y-105410000D01*
X145705990Y-103976010D02*
X145705990Y-101944010D01*
X144272000Y-105410000D02*
X145705990Y-103976010D01*
X146812000Y-100838000D02*
X146812000Y-99314000D01*
X145705990Y-101944010D02*
X146812000Y-100838000D01*
X149352000Y-100584000D02*
X149352000Y-99314000D01*
X145429000Y-105805000D02*
X145288000Y-105664000D01*
X145429000Y-106821000D02*
X145429000Y-105805000D01*
X145429000Y-107696000D02*
X145429000Y-106821000D01*
X145429000Y-106821000D02*
X145429000Y-106567000D01*
X147856000Y-103886000D02*
X151384000Y-103886000D01*
X146586000Y-105156000D02*
X147856000Y-103886000D01*
X151384000Y-99568000D02*
X151638000Y-99314000D01*
X151384000Y-100584000D02*
X151384000Y-99568000D01*
X147360010Y-101813990D02*
X146558000Y-102616000D01*
X148869340Y-101854000D02*
X148829330Y-101813990D01*
X150114000Y-101854000D02*
X148869340Y-101854000D01*
X148829330Y-101813990D02*
X147360010Y-101813990D01*
X152346010Y-101399990D02*
X150568010Y-101399990D01*
X150568010Y-101399990D02*
X150114000Y-101854000D01*
X153924000Y-99822000D02*
X152346010Y-101399990D01*
X153924000Y-99314000D02*
X153924000Y-99822000D01*
X125426000Y-109655300D02*
X125469660Y-109651000D01*
X126054361Y-109651000D01*
X126190102Y-109707226D01*
X126390061Y-109747000D01*
X126593939Y-109747000D01*
X126793898Y-109707226D01*
X126873000Y-109674461D01*
X126873000Y-109703532D01*
X126844795Y-109745744D01*
X126766774Y-109934102D01*
X126727000Y-110134061D01*
X126727000Y-110337939D01*
X126766774Y-110537898D01*
X126844795Y-110726256D01*
X126958063Y-110895774D01*
X127102226Y-111039937D01*
X127271744Y-111153205D01*
X127460102Y-111231226D01*
X127660061Y-111271000D01*
X127863939Y-111271000D01*
X128063898Y-111231226D01*
X128252256Y-111153205D01*
X128421774Y-111039937D01*
X128565937Y-110895774D01*
X128679205Y-110726256D01*
X128757226Y-110537898D01*
X128770737Y-110469973D01*
X129660506Y-111359742D01*
X129688341Y-111393659D01*
X129722258Y-111421494D01*
X129722259Y-111421495D01*
X129723044Y-111422139D01*
X129823709Y-111504753D01*
X129970099Y-111583000D01*
X124458250Y-111583000D01*
X124565000Y-111476250D01*
X124568072Y-111437000D01*
X124555812Y-111312518D01*
X124540488Y-111262000D01*
X124555812Y-111211482D01*
X124568072Y-111087000D01*
X124568072Y-110437000D01*
X124555812Y-110312518D01*
X124540488Y-110262000D01*
X124555812Y-110211482D01*
X124568072Y-110087000D01*
X124568072Y-109651000D01*
X125382340Y-109651000D01*
X125426000Y-109655300D01*
G04 #@! TA.AperFunction,Conductor*
D36*
G36*
X125426000Y-109655300D02*
G01*
X125469660Y-109651000D01*
X126054361Y-109651000D01*
X126190102Y-109707226D01*
X126390061Y-109747000D01*
X126593939Y-109747000D01*
X126793898Y-109707226D01*
X126873000Y-109674461D01*
X126873000Y-109703532D01*
X126844795Y-109745744D01*
X126766774Y-109934102D01*
X126727000Y-110134061D01*
X126727000Y-110337939D01*
X126766774Y-110537898D01*
X126844795Y-110726256D01*
X126958063Y-110895774D01*
X127102226Y-111039937D01*
X127271744Y-111153205D01*
X127460102Y-111231226D01*
X127660061Y-111271000D01*
X127863939Y-111271000D01*
X128063898Y-111231226D01*
X128252256Y-111153205D01*
X128421774Y-111039937D01*
X128565937Y-110895774D01*
X128679205Y-110726256D01*
X128757226Y-110537898D01*
X128770737Y-110469973D01*
X129660506Y-111359742D01*
X129688341Y-111393659D01*
X129722258Y-111421494D01*
X129722259Y-111421495D01*
X129723044Y-111422139D01*
X129823709Y-111504753D01*
X129970099Y-111583000D01*
X124458250Y-111583000D01*
X124565000Y-111476250D01*
X124568072Y-111437000D01*
X124555812Y-111312518D01*
X124540488Y-111262000D01*
X124555812Y-111211482D01*
X124568072Y-111087000D01*
X124568072Y-110437000D01*
X124555812Y-110312518D01*
X124540488Y-110262000D01*
X124555812Y-110211482D01*
X124568072Y-110087000D01*
X124568072Y-109651000D01*
X125382340Y-109651000D01*
X125426000Y-109655300D01*
G37*
G04 #@! TD.AperFunction*
D32*
X119107000Y-110845939D02*
X119146774Y-111045898D01*
X119224795Y-111234256D01*
X119338063Y-111403774D01*
X119482226Y-111547937D01*
X119534702Y-111583000D01*
X113194235Y-111583000D01*
X114126235Y-110651000D01*
X119107000Y-110651000D01*
X119107000Y-110845939D01*
G04 #@! TA.AperFunction,Conductor*
D36*
G36*
X119107000Y-110845939D02*
G01*
X119146774Y-111045898D01*
X119224795Y-111234256D01*
X119338063Y-111403774D01*
X119482226Y-111547937D01*
X119534702Y-111583000D01*
X113194235Y-111583000D01*
X114126235Y-110651000D01*
X119107000Y-110651000D01*
X119107000Y-110845939D01*
G37*
G04 #@! TD.AperFunction*
D32*
X144399000Y-102786000D02*
X144419000Y-102786000D01*
X144419000Y-103040000D01*
X144399000Y-103040000D01*
X144399000Y-103976750D01*
X144513310Y-104091060D01*
X143759649Y-104844721D01*
X143730579Y-104868578D01*
X143706722Y-104897648D01*
X143706721Y-104897649D01*
X143635355Y-104984608D01*
X143610575Y-105030969D01*
X143596291Y-105019247D01*
X143441851Y-104936697D01*
X143408072Y-104926450D01*
X143408072Y-104437000D01*
X143395812Y-104312518D01*
X143380488Y-104262000D01*
X143395812Y-104211482D01*
X143404732Y-104120917D01*
X143422518Y-104126312D01*
X143547000Y-104138572D01*
X143986250Y-104135500D01*
X144145000Y-103976750D01*
X144145000Y-103040000D01*
X144125000Y-103040000D01*
X144125000Y-102786000D01*
X144145000Y-102786000D01*
X144145000Y-102766000D01*
X144399000Y-102766000D01*
X144399000Y-102786000D01*
G04 #@! TA.AperFunction,Conductor*
D36*
G36*
X144399000Y-102786000D02*
G01*
X144419000Y-102786000D01*
X144419000Y-103040000D01*
X144399000Y-103040000D01*
X144399000Y-103976750D01*
X144513310Y-104091060D01*
X143759649Y-104844721D01*
X143730579Y-104868578D01*
X143706722Y-104897648D01*
X143706721Y-104897649D01*
X143635355Y-104984608D01*
X143610575Y-105030969D01*
X143596291Y-105019247D01*
X143441851Y-104936697D01*
X143408072Y-104926450D01*
X143408072Y-104437000D01*
X143395812Y-104312518D01*
X143380488Y-104262000D01*
X143395812Y-104211482D01*
X143404732Y-104120917D01*
X143422518Y-104126312D01*
X143547000Y-104138572D01*
X143986250Y-104135500D01*
X144145000Y-103976750D01*
X144145000Y-103040000D01*
X144125000Y-103040000D01*
X144125000Y-102786000D01*
X144145000Y-102786000D01*
X144145000Y-102766000D01*
X144399000Y-102766000D01*
X144399000Y-102786000D01*
G37*
G04 #@! TD.AperFunction*
D32*
X112878506Y-102197741D02*
X112906341Y-102231659D01*
X113041709Y-102342753D01*
X113196149Y-102425303D01*
X113257034Y-102443772D01*
X113363724Y-102476136D01*
X113396924Y-102479406D01*
X113494333Y-102489000D01*
X113494339Y-102489000D01*
X113537999Y-102493300D01*
X113581659Y-102489000D01*
X116145532Y-102489000D01*
X116187744Y-102517205D01*
X116376102Y-102595226D01*
X116576061Y-102635000D01*
X116779939Y-102635000D01*
X116979898Y-102595226D01*
X117168256Y-102517205D01*
X117337774Y-102403937D01*
X117481937Y-102259774D01*
X117595205Y-102090256D01*
X117653254Y-101950115D01*
X117744675Y-101968300D01*
X117967325Y-101968300D01*
X118185696Y-101924863D01*
X118391398Y-101839659D01*
X118576524Y-101715961D01*
X118733961Y-101558524D01*
X118857659Y-101373398D01*
X118872000Y-101338776D01*
X118886341Y-101373398D01*
X119010039Y-101558524D01*
X119167476Y-101715961D01*
X119352602Y-101839659D01*
X119558304Y-101924863D01*
X119776675Y-101968300D01*
X119999325Y-101968300D01*
X120217696Y-101924863D01*
X120423398Y-101839659D01*
X120608524Y-101715961D01*
X120765961Y-101558524D01*
X120794525Y-101515775D01*
X120913750Y-101635000D01*
X121068176Y-101635000D01*
X121145820Y-101676502D01*
X121265518Y-101712812D01*
X121390000Y-101725072D01*
X123930000Y-101725072D01*
X124054482Y-101712812D01*
X124174180Y-101676502D01*
X124221890Y-101651000D01*
X126772262Y-101651000D01*
X126815922Y-101655300D01*
X126859582Y-101651000D01*
X126859589Y-101651000D01*
X126972928Y-101639837D01*
X125801987Y-102810778D01*
X125793303Y-102782149D01*
X125710753Y-102627709D01*
X125599659Y-102492341D01*
X125565731Y-102464497D01*
X125265500Y-102164265D01*
X125237659Y-102130341D01*
X125102291Y-102019247D01*
X124947851Y-101936697D01*
X124780274Y-101885864D01*
X124649667Y-101873000D01*
X124649660Y-101873000D01*
X124606000Y-101868700D01*
X124562340Y-101873000D01*
X124221890Y-101873000D01*
X124174180Y-101847498D01*
X124054482Y-101811188D01*
X123930000Y-101798928D01*
X121390000Y-101798928D01*
X121265518Y-101811188D01*
X121145820Y-101847498D01*
X121068176Y-101889000D01*
X120913750Y-101889000D01*
X120755000Y-102047750D01*
X120751928Y-102087000D01*
X120764188Y-102211482D01*
X120779512Y-102262000D01*
X120764188Y-102312518D01*
X120751928Y-102437000D01*
X120751928Y-102873000D01*
X118023660Y-102873000D01*
X117980000Y-102868700D01*
X117936340Y-102873000D01*
X117936333Y-102873000D01*
X117822325Y-102884229D01*
X117805725Y-102885864D01*
X117763417Y-102898698D01*
X117638149Y-102936697D01*
X117483709Y-103019247D01*
X117348341Y-103130341D01*
X117320505Y-103164259D01*
X116979765Y-103505000D01*
X112636236Y-103505000D01*
X111961477Y-102830242D01*
X111975000Y-102762260D01*
X111975000Y-102469740D01*
X111917932Y-102182842D01*
X111805990Y-101912589D01*
X111643475Y-101669368D01*
X111436632Y-101462525D01*
X111262240Y-101346000D01*
X111436632Y-101229475D01*
X111643475Y-101022632D01*
X111667476Y-100986711D01*
X112878506Y-102197741D01*
G04 #@! TA.AperFunction,Conductor*
D36*
G36*
X112878506Y-102197741D02*
G01*
X112906341Y-102231659D01*
X113041709Y-102342753D01*
X113196149Y-102425303D01*
X113257034Y-102443772D01*
X113363724Y-102476136D01*
X113396924Y-102479406D01*
X113494333Y-102489000D01*
X113494339Y-102489000D01*
X113537999Y-102493300D01*
X113581659Y-102489000D01*
X116145532Y-102489000D01*
X116187744Y-102517205D01*
X116376102Y-102595226D01*
X116576061Y-102635000D01*
X116779939Y-102635000D01*
X116979898Y-102595226D01*
X117168256Y-102517205D01*
X117337774Y-102403937D01*
X117481937Y-102259774D01*
X117595205Y-102090256D01*
X117653254Y-101950115D01*
X117744675Y-101968300D01*
X117967325Y-101968300D01*
X118185696Y-101924863D01*
X118391398Y-101839659D01*
X118576524Y-101715961D01*
X118733961Y-101558524D01*
X118857659Y-101373398D01*
X118872000Y-101338776D01*
X118886341Y-101373398D01*
X119010039Y-101558524D01*
X119167476Y-101715961D01*
X119352602Y-101839659D01*
X119558304Y-101924863D01*
X119776675Y-101968300D01*
X119999325Y-101968300D01*
X120217696Y-101924863D01*
X120423398Y-101839659D01*
X120608524Y-101715961D01*
X120765961Y-101558524D01*
X120794525Y-101515775D01*
X120913750Y-101635000D01*
X121068176Y-101635000D01*
X121145820Y-101676502D01*
X121265518Y-101712812D01*
X121390000Y-101725072D01*
X123930000Y-101725072D01*
X124054482Y-101712812D01*
X124174180Y-101676502D01*
X124221890Y-101651000D01*
X126772262Y-101651000D01*
X126815922Y-101655300D01*
X126859582Y-101651000D01*
X126859589Y-101651000D01*
X126972928Y-101639837D01*
X125801987Y-102810778D01*
X125793303Y-102782149D01*
X125710753Y-102627709D01*
X125599659Y-102492341D01*
X125565731Y-102464497D01*
X125265500Y-102164265D01*
X125237659Y-102130341D01*
X125102291Y-102019247D01*
X124947851Y-101936697D01*
X124780274Y-101885864D01*
X124649667Y-101873000D01*
X124649660Y-101873000D01*
X124606000Y-101868700D01*
X124562340Y-101873000D01*
X124221890Y-101873000D01*
X124174180Y-101847498D01*
X124054482Y-101811188D01*
X123930000Y-101798928D01*
X121390000Y-101798928D01*
X121265518Y-101811188D01*
X121145820Y-101847498D01*
X121068176Y-101889000D01*
X120913750Y-101889000D01*
X120755000Y-102047750D01*
X120751928Y-102087000D01*
X120764188Y-102211482D01*
X120779512Y-102262000D01*
X120764188Y-102312518D01*
X120751928Y-102437000D01*
X120751928Y-102873000D01*
X118023660Y-102873000D01*
X117980000Y-102868700D01*
X117936340Y-102873000D01*
X117936333Y-102873000D01*
X117822325Y-102884229D01*
X117805725Y-102885864D01*
X117763417Y-102898698D01*
X117638149Y-102936697D01*
X117483709Y-103019247D01*
X117348341Y-103130341D01*
X117320505Y-103164259D01*
X116979765Y-103505000D01*
X112636236Y-103505000D01*
X111961477Y-102830242D01*
X111975000Y-102762260D01*
X111975000Y-102469740D01*
X111917932Y-102182842D01*
X111805990Y-101912589D01*
X111643475Y-101669368D01*
X111436632Y-101462525D01*
X111262240Y-101346000D01*
X111436632Y-101229475D01*
X111643475Y-101022632D01*
X111667476Y-100986711D01*
X112878506Y-102197741D01*
G37*
G04 #@! TD.AperFunction*
D32*
X141647000Y-101798928D02*
X141353000Y-101798928D01*
X141353000Y-101725072D01*
X141647000Y-101725072D01*
X141647000Y-101798928D01*
G04 #@! TA.AperFunction,Conductor*
D36*
G36*
X141647000Y-101798928D02*
G01*
X141353000Y-101798928D01*
X141353000Y-101725072D01*
X141647000Y-101725072D01*
X141647000Y-101798928D01*
G37*
G04 #@! TD.AperFunction*
D32*
X145519315Y-96426185D02*
X145537740Y-96441306D01*
X145522498Y-96469820D01*
X145486188Y-96589518D01*
X145473928Y-96714000D01*
X145477000Y-97028250D01*
X145635750Y-97187000D01*
X146685000Y-97187000D01*
X146685000Y-97167000D01*
X146939000Y-97167000D01*
X146939000Y-97187000D01*
X146959000Y-97187000D01*
X146959000Y-97441000D01*
X146939000Y-97441000D01*
X146939000Y-97461000D01*
X146685000Y-97461000D01*
X146685000Y-97441000D01*
X145635750Y-97441000D01*
X145477000Y-97599750D01*
X145473928Y-97914000D01*
X145486188Y-98038482D01*
X145522498Y-98158180D01*
X145581463Y-98268494D01*
X145660815Y-98365185D01*
X145690276Y-98389363D01*
X145623595Y-98470613D01*
X145541528Y-98624149D01*
X145490992Y-98790745D01*
X145473928Y-98963999D01*
X145473928Y-99664001D01*
X145490992Y-99837255D01*
X145541528Y-100003851D01*
X145623595Y-100157387D01*
X145734038Y-100291962D01*
X145868613Y-100402405D01*
X146022149Y-100484472D01*
X146050000Y-100492921D01*
X146050000Y-100522369D01*
X145635072Y-100937298D01*
X145635072Y-100500500D01*
X145618008Y-100327246D01*
X145567472Y-100160650D01*
X145485405Y-100007114D01*
X145415000Y-99921325D01*
X145415000Y-96380423D01*
X145448462Y-96352962D01*
X145453842Y-96346406D01*
X145519315Y-96426185D01*
G04 #@! TA.AperFunction,Conductor*
D36*
G36*
X145519315Y-96426185D02*
G01*
X145537740Y-96441306D01*
X145522498Y-96469820D01*
X145486188Y-96589518D01*
X145473928Y-96714000D01*
X145477000Y-97028250D01*
X145635750Y-97187000D01*
X146685000Y-97187000D01*
X146685000Y-97167000D01*
X146939000Y-97167000D01*
X146939000Y-97187000D01*
X146959000Y-97187000D01*
X146959000Y-97441000D01*
X146939000Y-97441000D01*
X146939000Y-97461000D01*
X146685000Y-97461000D01*
X146685000Y-97441000D01*
X145635750Y-97441000D01*
X145477000Y-97599750D01*
X145473928Y-97914000D01*
X145486188Y-98038482D01*
X145522498Y-98158180D01*
X145581463Y-98268494D01*
X145660815Y-98365185D01*
X145690276Y-98389363D01*
X145623595Y-98470613D01*
X145541528Y-98624149D01*
X145490992Y-98790745D01*
X145473928Y-98963999D01*
X145473928Y-99664001D01*
X145490992Y-99837255D01*
X145541528Y-100003851D01*
X145623595Y-100157387D01*
X145734038Y-100291962D01*
X145868613Y-100402405D01*
X146022149Y-100484472D01*
X146050000Y-100492921D01*
X146050000Y-100522369D01*
X145635072Y-100937298D01*
X145635072Y-100500500D01*
X145618008Y-100327246D01*
X145567472Y-100160650D01*
X145485405Y-100007114D01*
X145415000Y-99921325D01*
X145415000Y-96380423D01*
X145448462Y-96352962D01*
X145453842Y-96346406D01*
X145519315Y-96426185D01*
G37*
G04 #@! TD.AperFunction*
D32*
X118091000Y-90576061D02*
X118091000Y-90779939D01*
X118130774Y-90979898D01*
X118208795Y-91168256D01*
X118322063Y-91337774D01*
X118466226Y-91481937D01*
X118635744Y-91595205D01*
X118824102Y-91673226D01*
X118873895Y-91683130D01*
X119990506Y-92799741D01*
X120018341Y-92833659D01*
X120153709Y-92944753D01*
X120308149Y-93027303D01*
X120374058Y-93047296D01*
X120475724Y-93078136D01*
X120508924Y-93081406D01*
X120606333Y-93091000D01*
X120606339Y-93091000D01*
X120649999Y-93095300D01*
X120693659Y-93091000D01*
X125436160Y-93091000D01*
X125309160Y-93218000D01*
X121597099Y-93218000D01*
X121547197Y-93213085D01*
X121468319Y-93220854D01*
X121348027Y-93232702D01*
X121156511Y-93290798D01*
X120980008Y-93385140D01*
X120825302Y-93512104D01*
X120793491Y-93550866D01*
X119515671Y-94828687D01*
X119407398Y-94756341D01*
X119201696Y-94671137D01*
X118983325Y-94627700D01*
X118760675Y-94627700D01*
X118542304Y-94671137D01*
X118336602Y-94756341D01*
X118151476Y-94880039D01*
X117994039Y-95037476D01*
X117870341Y-95222602D01*
X117785137Y-95428304D01*
X117741700Y-95646675D01*
X117741700Y-95869325D01*
X117785137Y-96087696D01*
X117790092Y-96099659D01*
X117749728Y-96116378D01*
X117581242Y-96228957D01*
X117437957Y-96372242D01*
X117325378Y-96540728D01*
X117247833Y-96727939D01*
X117208300Y-96926682D01*
X117208300Y-97129318D01*
X117247833Y-97328061D01*
X117325378Y-97515272D01*
X117418856Y-97655172D01*
X117416710Y-97657318D01*
X117427500Y-97668108D01*
X117437957Y-97683758D01*
X117530397Y-97776198D01*
X117332424Y-97797768D01*
X117252215Y-97983854D01*
X117209851Y-98182012D01*
X117206959Y-98384628D01*
X117243651Y-98583914D01*
X117281456Y-98679000D01*
X115589173Y-98679000D01*
X115571005Y-98660832D01*
X115401487Y-98547564D01*
X115213129Y-98469543D01*
X115013170Y-98429769D01*
X114935000Y-98429769D01*
X114935000Y-98068468D01*
X115020063Y-98195774D01*
X115164226Y-98339937D01*
X115333744Y-98453205D01*
X115522102Y-98531226D01*
X115722061Y-98571000D01*
X115925939Y-98571000D01*
X116125898Y-98531226D01*
X116314256Y-98453205D01*
X116483774Y-98339937D01*
X116627937Y-98195774D01*
X116741205Y-98026256D01*
X116819226Y-97837898D01*
X116859000Y-97637939D01*
X116859000Y-97434061D01*
X116819226Y-97234102D01*
X116741205Y-97045744D01*
X116713000Y-97003532D01*
X116713000Y-91464468D01*
X116741205Y-91422256D01*
X116819226Y-91233898D01*
X116859000Y-91033939D01*
X116859000Y-90830061D01*
X116819226Y-90630102D01*
X116786461Y-90551000D01*
X118095985Y-90551000D01*
X118091000Y-90576061D01*
G04 #@! TA.AperFunction,Conductor*
D36*
G36*
X118091000Y-90576061D02*
G01*
X118091000Y-90779939D01*
X118130774Y-90979898D01*
X118208795Y-91168256D01*
X118322063Y-91337774D01*
X118466226Y-91481937D01*
X118635744Y-91595205D01*
X118824102Y-91673226D01*
X118873895Y-91683130D01*
X119990506Y-92799741D01*
X120018341Y-92833659D01*
X120153709Y-92944753D01*
X120308149Y-93027303D01*
X120374058Y-93047296D01*
X120475724Y-93078136D01*
X120508924Y-93081406D01*
X120606333Y-93091000D01*
X120606339Y-93091000D01*
X120649999Y-93095300D01*
X120693659Y-93091000D01*
X125436160Y-93091000D01*
X125309160Y-93218000D01*
X121597099Y-93218000D01*
X121547197Y-93213085D01*
X121468319Y-93220854D01*
X121348027Y-93232702D01*
X121156511Y-93290798D01*
X120980008Y-93385140D01*
X120825302Y-93512104D01*
X120793491Y-93550866D01*
X119515671Y-94828687D01*
X119407398Y-94756341D01*
X119201696Y-94671137D01*
X118983325Y-94627700D01*
X118760675Y-94627700D01*
X118542304Y-94671137D01*
X118336602Y-94756341D01*
X118151476Y-94880039D01*
X117994039Y-95037476D01*
X117870341Y-95222602D01*
X117785137Y-95428304D01*
X117741700Y-95646675D01*
X117741700Y-95869325D01*
X117785137Y-96087696D01*
X117790092Y-96099659D01*
X117749728Y-96116378D01*
X117581242Y-96228957D01*
X117437957Y-96372242D01*
X117325378Y-96540728D01*
X117247833Y-96727939D01*
X117208300Y-96926682D01*
X117208300Y-97129318D01*
X117247833Y-97328061D01*
X117325378Y-97515272D01*
X117418856Y-97655172D01*
X117416710Y-97657318D01*
X117427500Y-97668108D01*
X117437957Y-97683758D01*
X117530397Y-97776198D01*
X117332424Y-97797768D01*
X117252215Y-97983854D01*
X117209851Y-98182012D01*
X117206959Y-98384628D01*
X117243651Y-98583914D01*
X117281456Y-98679000D01*
X115589173Y-98679000D01*
X115571005Y-98660832D01*
X115401487Y-98547564D01*
X115213129Y-98469543D01*
X115013170Y-98429769D01*
X114935000Y-98429769D01*
X114935000Y-98068468D01*
X115020063Y-98195774D01*
X115164226Y-98339937D01*
X115333744Y-98453205D01*
X115522102Y-98531226D01*
X115722061Y-98571000D01*
X115925939Y-98571000D01*
X116125898Y-98531226D01*
X116314256Y-98453205D01*
X116483774Y-98339937D01*
X116627937Y-98195774D01*
X116741205Y-98026256D01*
X116819226Y-97837898D01*
X116859000Y-97637939D01*
X116859000Y-97434061D01*
X116819226Y-97234102D01*
X116741205Y-97045744D01*
X116713000Y-97003532D01*
X116713000Y-91464468D01*
X116741205Y-91422256D01*
X116819226Y-91233898D01*
X116859000Y-91033939D01*
X116859000Y-90830061D01*
X116819226Y-90630102D01*
X116786461Y-90551000D01*
X118095985Y-90551000D01*
X118091000Y-90576061D01*
G37*
G04 #@! TD.AperFunction*
D32*
X118430748Y-98283858D02*
X118416605Y-98298000D01*
X118430748Y-98312143D01*
X118251143Y-98491748D01*
X118237000Y-98477605D01*
X118222858Y-98491748D01*
X118043253Y-98312143D01*
X118057395Y-98298000D01*
X118043253Y-98283858D01*
X118222858Y-98104253D01*
X118237000Y-98118395D01*
X118251143Y-98104253D01*
X118430748Y-98283858D01*
G04 #@! TA.AperFunction,Conductor*
D36*
G36*
X118430748Y-98283858D02*
G01*
X118416605Y-98298000D01*
X118430748Y-98312143D01*
X118251143Y-98491748D01*
X118237000Y-98477605D01*
X118222858Y-98491748D01*
X118043253Y-98312143D01*
X118057395Y-98298000D01*
X118043253Y-98283858D01*
X118222858Y-98104253D01*
X118237000Y-98118395D01*
X118251143Y-98104253D01*
X118430748Y-98283858D01*
G37*
G04 #@! TD.AperFunction*
D32*
X147969188Y-93809482D02*
X148005498Y-93929180D01*
X148064463Y-94039494D01*
X148143815Y-94136185D01*
X148240506Y-94215537D01*
X148350820Y-94274502D01*
X148470518Y-94310812D01*
X148595000Y-94323072D01*
X149885977Y-94323072D01*
X149878492Y-94347746D01*
X149861428Y-94521000D01*
X149861428Y-95471000D01*
X149878492Y-95644254D01*
X149929028Y-95810850D01*
X150011095Y-95964386D01*
X150107087Y-96081353D01*
X150052000Y-96075928D01*
X149637750Y-96079000D01*
X149479000Y-96237750D01*
X149479000Y-97187000D01*
X151511000Y-97187000D01*
X151511000Y-97167000D01*
X151765000Y-97167000D01*
X151765000Y-97187000D01*
X153797000Y-97187000D01*
X153797000Y-97167000D01*
X154051000Y-97167000D01*
X154051000Y-97187000D01*
X154071000Y-97187000D01*
X154071000Y-97441000D01*
X154051000Y-97441000D01*
X154051000Y-97461000D01*
X153797000Y-97461000D01*
X153797000Y-97441000D01*
X151765000Y-97441000D01*
X151765000Y-97461000D01*
X151511000Y-97461000D01*
X151511000Y-97441000D01*
X149479000Y-97441000D01*
X149479000Y-97461000D01*
X149225000Y-97461000D01*
X149225000Y-97441000D01*
X149205000Y-97441000D01*
X149205000Y-97187000D01*
X149225000Y-97187000D01*
X149225000Y-96237750D01*
X149066250Y-96079000D01*
X148971000Y-96078294D01*
X148971000Y-96036468D01*
X148999205Y-95994256D01*
X149077226Y-95805898D01*
X149117000Y-95605939D01*
X149117000Y-95402061D01*
X149077226Y-95202102D01*
X148999205Y-95013744D01*
X148885937Y-94844226D01*
X148741774Y-94700063D01*
X148572256Y-94586795D01*
X148383898Y-94508774D01*
X148183939Y-94469000D01*
X147980061Y-94469000D01*
X147781938Y-94508409D01*
X147771312Y-94400518D01*
X147735002Y-94280820D01*
X147676037Y-94170506D01*
X147596685Y-94073815D01*
X147499994Y-93994463D01*
X147389680Y-93935498D01*
X147270497Y-93899344D01*
X147468841Y-93701000D01*
X147958504Y-93701000D01*
X147969188Y-93809482D01*
G04 #@! TA.AperFunction,Conductor*
D36*
G36*
X147969188Y-93809482D02*
G01*
X148005498Y-93929180D01*
X148064463Y-94039494D01*
X148143815Y-94136185D01*
X148240506Y-94215537D01*
X148350820Y-94274502D01*
X148470518Y-94310812D01*
X148595000Y-94323072D01*
X149885977Y-94323072D01*
X149878492Y-94347746D01*
X149861428Y-94521000D01*
X149861428Y-95471000D01*
X149878492Y-95644254D01*
X149929028Y-95810850D01*
X150011095Y-95964386D01*
X150107087Y-96081353D01*
X150052000Y-96075928D01*
X149637750Y-96079000D01*
X149479000Y-96237750D01*
X149479000Y-97187000D01*
X151511000Y-97187000D01*
X151511000Y-97167000D01*
X151765000Y-97167000D01*
X151765000Y-97187000D01*
X153797000Y-97187000D01*
X153797000Y-97167000D01*
X154051000Y-97167000D01*
X154051000Y-97187000D01*
X154071000Y-97187000D01*
X154071000Y-97441000D01*
X154051000Y-97441000D01*
X154051000Y-97461000D01*
X153797000Y-97461000D01*
X153797000Y-97441000D01*
X151765000Y-97441000D01*
X151765000Y-97461000D01*
X151511000Y-97461000D01*
X151511000Y-97441000D01*
X149479000Y-97441000D01*
X149479000Y-97461000D01*
X149225000Y-97461000D01*
X149225000Y-97441000D01*
X149205000Y-97441000D01*
X149205000Y-97187000D01*
X149225000Y-97187000D01*
X149225000Y-96237750D01*
X149066250Y-96079000D01*
X148971000Y-96078294D01*
X148971000Y-96036468D01*
X148999205Y-95994256D01*
X149077226Y-95805898D01*
X149117000Y-95605939D01*
X149117000Y-95402061D01*
X149077226Y-95202102D01*
X148999205Y-95013744D01*
X148885937Y-94844226D01*
X148741774Y-94700063D01*
X148572256Y-94586795D01*
X148383898Y-94508774D01*
X148183939Y-94469000D01*
X147980061Y-94469000D01*
X147781938Y-94508409D01*
X147771312Y-94400518D01*
X147735002Y-94280820D01*
X147676037Y-94170506D01*
X147596685Y-94073815D01*
X147499994Y-93994463D01*
X147389680Y-93935498D01*
X147270497Y-93899344D01*
X147468841Y-93701000D01*
X147958504Y-93701000D01*
X147969188Y-93809482D01*
G37*
G04 #@! TD.AperFunction*
D32*
X158300589Y-64220010D02*
X158057368Y-64382525D01*
X157850525Y-64589368D01*
X157688010Y-64832589D01*
X157576068Y-65102842D01*
X157519000Y-65389740D01*
X157519000Y-65682260D01*
X157576068Y-65969158D01*
X157688010Y-66239411D01*
X157850525Y-66482632D01*
X158057368Y-66689475D01*
X158231760Y-66806000D01*
X158057368Y-66922525D01*
X157850525Y-67129368D01*
X157688010Y-67372589D01*
X157576068Y-67642842D01*
X157519000Y-67929740D01*
X157519000Y-68222260D01*
X157576068Y-68509158D01*
X157688010Y-68779411D01*
X157850525Y-69022632D01*
X158057368Y-69229475D01*
X158231760Y-69346000D01*
X158057368Y-69462525D01*
X157850525Y-69669368D01*
X157688010Y-69912589D01*
X157576068Y-70182842D01*
X157519000Y-70469740D01*
X157519000Y-70762260D01*
X157576068Y-71049158D01*
X157688010Y-71319411D01*
X157850525Y-71562632D01*
X158057368Y-71769475D01*
X158239534Y-71891195D01*
X158122645Y-71960822D01*
X157906412Y-72155731D01*
X157732359Y-72389080D01*
X157607175Y-72651901D01*
X157562524Y-72799110D01*
X157683845Y-73029000D01*
X158877000Y-73029000D01*
X158877000Y-73009000D01*
X159131000Y-73009000D01*
X159131000Y-73029000D01*
X159151000Y-73029000D01*
X159151000Y-73283000D01*
X159131000Y-73283000D01*
X159131000Y-73303000D01*
X158877000Y-73303000D01*
X158877000Y-73283000D01*
X157683845Y-73283000D01*
X157562524Y-73512890D01*
X157607175Y-73660099D01*
X157732359Y-73922920D01*
X157906412Y-74156269D01*
X158122645Y-74351178D01*
X158239534Y-74420805D01*
X158057368Y-74542525D01*
X157850525Y-74749368D01*
X157688010Y-74992589D01*
X157576068Y-75262842D01*
X157519000Y-75549740D01*
X157519000Y-75842260D01*
X157576068Y-76129158D01*
X157688010Y-76399411D01*
X157850525Y-76642632D01*
X158057368Y-76849475D01*
X158231760Y-76966000D01*
X158057368Y-77082525D01*
X157850525Y-77289368D01*
X157688010Y-77532589D01*
X157576068Y-77802842D01*
X157519000Y-78089740D01*
X157519000Y-78382260D01*
X157576068Y-78669158D01*
X157688010Y-78939411D01*
X157850525Y-79182632D01*
X158057368Y-79389475D01*
X158231760Y-79506000D01*
X158057368Y-79622525D01*
X157850525Y-79829368D01*
X157688010Y-80072589D01*
X157576068Y-80342842D01*
X157519000Y-80629740D01*
X157519000Y-80922260D01*
X157576068Y-81209158D01*
X157688010Y-81479411D01*
X157850525Y-81722632D01*
X158057368Y-81929475D01*
X158231760Y-82046000D01*
X158057368Y-82162525D01*
X157850525Y-82369368D01*
X157688010Y-82612589D01*
X157576068Y-82882842D01*
X157519000Y-83169740D01*
X157519000Y-83462260D01*
X157576068Y-83749158D01*
X157688010Y-84019411D01*
X157850525Y-84262632D01*
X158057368Y-84469475D01*
X158231760Y-84586000D01*
X158057368Y-84702525D01*
X157850525Y-84909368D01*
X157688010Y-85152589D01*
X157576068Y-85422842D01*
X157519000Y-85709740D01*
X157519000Y-86002260D01*
X157532523Y-86070242D01*
X156882259Y-86720506D01*
X156848342Y-86748341D01*
X156820507Y-86782258D01*
X156820505Y-86782260D01*
X156737248Y-86883709D01*
X156654698Y-87038148D01*
X156603864Y-87205726D01*
X156586700Y-87380000D01*
X156591001Y-87423670D01*
X156591000Y-88875532D01*
X156562795Y-88917744D01*
X156484774Y-89106102D01*
X156445000Y-89306061D01*
X156445000Y-89509939D01*
X156484774Y-89709898D01*
X156562795Y-89898256D01*
X156676063Y-90067774D01*
X156820226Y-90211937D01*
X156989744Y-90325205D01*
X157056082Y-90352683D01*
X156017389Y-91391376D01*
X155983472Y-91419211D01*
X155955637Y-91453128D01*
X155955635Y-91453130D01*
X155872378Y-91554579D01*
X155789828Y-91709018D01*
X155738994Y-91876596D01*
X155721830Y-92050870D01*
X155726131Y-92094540D01*
X155726130Y-93090662D01*
X155697925Y-93132874D01*
X155619904Y-93321232D01*
X155580130Y-93521191D01*
X155580130Y-93725069D01*
X155619904Y-93925028D01*
X155697925Y-94113386D01*
X155811193Y-94282904D01*
X155858527Y-94330238D01*
X155358264Y-94830501D01*
X155324341Y-94858341D01*
X155213247Y-94993710D01*
X155130697Y-95148150D01*
X155117147Y-95192820D01*
X155090171Y-95281750D01*
X155079864Y-95315727D01*
X155067000Y-95446334D01*
X155067000Y-95446340D01*
X155062700Y-95490000D01*
X155067000Y-95533660D01*
X155067000Y-96256098D01*
X154978494Y-96183463D01*
X154868180Y-96124498D01*
X154748482Y-96088188D01*
X154624000Y-96075928D01*
X154277572Y-96078497D01*
X154280037Y-96075494D01*
X154339002Y-95965180D01*
X154375312Y-95845482D01*
X154387572Y-95721000D01*
X154384500Y-95281750D01*
X154225750Y-95123000D01*
X153289000Y-95123000D01*
X153289000Y-95143000D01*
X153035000Y-95143000D01*
X153035000Y-95123000D01*
X153015000Y-95123000D01*
X153015000Y-94869000D01*
X153035000Y-94869000D01*
X153035000Y-94849000D01*
X153289000Y-94849000D01*
X153289000Y-94869000D01*
X154225750Y-94869000D01*
X154384500Y-94710250D01*
X154387572Y-94271000D01*
X154375312Y-94146518D01*
X154339002Y-94026820D01*
X154280037Y-93916506D01*
X154200685Y-93819815D01*
X154103994Y-93740463D01*
X153993680Y-93681498D01*
X153873982Y-93645188D01*
X153749500Y-93632928D01*
X153635641Y-93634087D01*
X153652256Y-93627205D01*
X153821774Y-93513937D01*
X153965937Y-93369774D01*
X154079205Y-93200256D01*
X154157226Y-93011898D01*
X154197000Y-92811939D01*
X154197000Y-92608061D01*
X154157226Y-92408102D01*
X154079205Y-92219744D01*
X154051000Y-92177532D01*
X154051000Y-91554235D01*
X155192106Y-90413130D01*
X155241898Y-90403226D01*
X155430256Y-90325205D01*
X155599774Y-90211937D01*
X155743937Y-90067774D01*
X155857205Y-89898256D01*
X155935226Y-89709898D01*
X155975000Y-89509939D01*
X155975000Y-89306061D01*
X155935226Y-89106102D01*
X155857205Y-88917744D01*
X155743937Y-88748226D01*
X155599774Y-88604063D01*
X155430256Y-88490795D01*
X155363918Y-88463317D01*
X155883736Y-87943499D01*
X155917659Y-87915659D01*
X156028753Y-87780291D01*
X156111303Y-87625851D01*
X156137952Y-87538000D01*
X156162136Y-87458276D01*
X156165756Y-87421518D01*
X156175000Y-87327667D01*
X156175000Y-87327661D01*
X156179300Y-87284001D01*
X156175000Y-87240341D01*
X156175000Y-86800468D01*
X156203205Y-86758256D01*
X156281226Y-86569898D01*
X156321000Y-86369939D01*
X156321000Y-86166061D01*
X156281226Y-85966102D01*
X156203205Y-85777744D01*
X156089937Y-85608226D01*
X155945774Y-85464063D01*
X155776256Y-85350795D01*
X155587898Y-85272774D01*
X155387939Y-85233000D01*
X155184061Y-85233000D01*
X154984102Y-85272774D01*
X154795744Y-85350795D01*
X154626226Y-85464063D01*
X154482063Y-85608226D01*
X154368795Y-85777744D01*
X154290774Y-85966102D01*
X154251000Y-86166061D01*
X154251000Y-86369939D01*
X154290774Y-86569898D01*
X154368795Y-86758256D01*
X154397001Y-86800469D01*
X154397001Y-86915764D01*
X154181979Y-87130786D01*
X154180000Y-86670750D01*
X154021250Y-86512000D01*
X152922000Y-86512000D01*
X152922000Y-87861250D01*
X153080750Y-88020000D01*
X153291371Y-88021394D01*
X152909895Y-88402870D01*
X152860102Y-88412774D01*
X152671744Y-88490795D01*
X152502226Y-88604063D01*
X152358063Y-88748226D01*
X152244795Y-88917744D01*
X152166774Y-89106102D01*
X152127000Y-89306061D01*
X152127000Y-89509939D01*
X152166774Y-89709898D01*
X152244795Y-89898256D01*
X152358063Y-90067774D01*
X152502226Y-90211937D01*
X152671744Y-90325205D01*
X152738082Y-90352683D01*
X152564259Y-90526506D01*
X152530342Y-90554341D01*
X152502507Y-90588258D01*
X152502505Y-90588260D01*
X152419248Y-90689709D01*
X152336698Y-90844148D01*
X152285864Y-91011726D01*
X152282397Y-91046928D01*
X151638000Y-91046928D01*
X151638000Y-87883936D01*
X151645000Y-87878191D01*
X151690506Y-87915537D01*
X151800820Y-87974502D01*
X151920518Y-88010812D01*
X152045000Y-88023072D01*
X152509250Y-88020000D01*
X152668000Y-87861250D01*
X152668000Y-86512000D01*
X152648000Y-86512000D01*
X152648000Y-86258000D01*
X152668000Y-86258000D01*
X152668000Y-84908750D01*
X152922000Y-84908750D01*
X152922000Y-86258000D01*
X154021250Y-86258000D01*
X154180000Y-86099250D01*
X154183072Y-85385000D01*
X154170812Y-85260518D01*
X154134502Y-85140820D01*
X154075537Y-85030506D01*
X153996185Y-84933815D01*
X153899494Y-84854463D01*
X153789180Y-84795498D01*
X153669482Y-84759188D01*
X153545000Y-84746928D01*
X153080750Y-84750000D01*
X152922000Y-84908750D01*
X152668000Y-84908750D01*
X152509250Y-84750000D01*
X152045000Y-84746928D01*
X151920518Y-84759188D01*
X151800820Y-84795498D01*
X151690506Y-84854463D01*
X151645000Y-84891809D01*
X151599494Y-84854463D01*
X151489180Y-84795498D01*
X151369482Y-84759188D01*
X151245000Y-84746928D01*
X149745000Y-84746928D01*
X149620518Y-84759188D01*
X149500820Y-84795498D01*
X149465000Y-84814644D01*
X149465000Y-84553050D01*
X150621980Y-83396072D01*
X151564001Y-83396072D01*
X151737255Y-83379008D01*
X151903851Y-83328472D01*
X152057387Y-83246405D01*
X152191962Y-83135962D01*
X152302405Y-83001387D01*
X152384472Y-82847851D01*
X152435008Y-82681255D01*
X152452072Y-82508001D01*
X152452072Y-81707999D01*
X152435008Y-81534745D01*
X152384472Y-81368149D01*
X152302405Y-81214613D01*
X152191962Y-81080038D01*
X152057387Y-80969595D01*
X151903851Y-80887528D01*
X151737255Y-80836992D01*
X151564001Y-80819928D01*
X149903558Y-80819928D01*
X149855630Y-80772000D01*
X154519160Y-80772000D01*
X155351956Y-81604797D01*
X155406063Y-81685774D01*
X155550226Y-81829937D01*
X155719744Y-81943205D01*
X155908102Y-82021226D01*
X156108061Y-82061000D01*
X156311939Y-82061000D01*
X156511898Y-82021226D01*
X156700256Y-81943205D01*
X156869774Y-81829937D01*
X157013937Y-81685774D01*
X157127205Y-81516256D01*
X157205226Y-81327898D01*
X157245000Y-81127939D01*
X157245000Y-80924061D01*
X157205226Y-80724102D01*
X157127205Y-80535744D01*
X157013937Y-80366226D01*
X156869774Y-80222063D01*
X156788797Y-80167956D01*
X155693712Y-79072872D01*
X155661896Y-79034104D01*
X155507190Y-78907140D01*
X155330687Y-78812798D01*
X155139171Y-78754702D01*
X154989902Y-78740000D01*
X154940000Y-78735085D01*
X154890098Y-78740000D01*
X152126117Y-78740000D01*
X152191962Y-78685962D01*
X152302405Y-78551387D01*
X152384472Y-78397851D01*
X152435008Y-78231255D01*
X152452072Y-78058001D01*
X152452072Y-77257999D01*
X152435008Y-77084745D01*
X152384472Y-76918149D01*
X152302405Y-76764613D01*
X152191962Y-76630038D01*
X152057387Y-76519595D01*
X151903851Y-76437528D01*
X151737255Y-76386992D01*
X151564001Y-76369928D01*
X150122374Y-76369928D01*
X147652382Y-73899937D01*
X148971000Y-74119706D01*
X148971000Y-72771000D01*
X149225000Y-72771000D01*
X149225000Y-74162040D01*
X150793102Y-74423390D01*
X150898000Y-74432072D01*
X151022482Y-74419812D01*
X151142180Y-74383502D01*
X151252494Y-74324537D01*
X151349185Y-74245185D01*
X151428537Y-74148494D01*
X151487502Y-74038180D01*
X151523812Y-73918482D01*
X151536072Y-73794000D01*
X151536072Y-72771000D01*
X149225000Y-72771000D01*
X148971000Y-72771000D01*
X148951000Y-72771000D01*
X148951000Y-72517000D01*
X148971000Y-72517000D01*
X148971000Y-71168294D01*
X147193102Y-71464610D01*
X147193000Y-71464639D01*
X147193000Y-71125960D01*
X149225000Y-71125960D01*
X149225000Y-72517000D01*
X151536072Y-72517000D01*
X151536072Y-71494000D01*
X151527390Y-71389102D01*
X151494832Y-71268329D01*
X151439338Y-71156229D01*
X151363041Y-71057110D01*
X151268872Y-70974779D01*
X151160451Y-70912403D01*
X151041944Y-70872376D01*
X150917905Y-70856239D01*
X150793102Y-70864610D01*
X149225000Y-71125960D01*
X147193000Y-71125960D01*
X147193000Y-70372139D01*
X147198529Y-70316000D01*
X147193000Y-70259861D01*
X147193000Y-70259854D01*
X147177077Y-70098188D01*
X147176461Y-70091932D01*
X147111103Y-69876476D01*
X147054904Y-69771336D01*
X147004968Y-69677911D01*
X146862133Y-69503867D01*
X146818524Y-69468078D01*
X145692418Y-68341973D01*
X145723812Y-68238482D01*
X145736072Y-68114000D01*
X145736072Y-67691000D01*
X146659928Y-67691000D01*
X146659928Y-68114000D01*
X146676376Y-68257944D01*
X146716403Y-68376451D01*
X146778779Y-68484872D01*
X146861110Y-68579041D01*
X146960229Y-68655338D01*
X147072329Y-68710832D01*
X147193102Y-68743390D01*
X148971000Y-69039706D01*
X148971000Y-67691000D01*
X149225000Y-67691000D01*
X149225000Y-69082040D01*
X150793102Y-69343390D01*
X150898000Y-69352072D01*
X151022482Y-69339812D01*
X151142180Y-69303502D01*
X151252494Y-69244537D01*
X151349185Y-69165185D01*
X151428537Y-69068494D01*
X151487502Y-68958180D01*
X151523812Y-68838482D01*
X151536072Y-68714000D01*
X151536072Y-67691000D01*
X149225000Y-67691000D01*
X148971000Y-67691000D01*
X146659928Y-67691000D01*
X145736072Y-67691000D01*
X145736072Y-67014000D01*
X146659928Y-67014000D01*
X146659928Y-67437000D01*
X148971000Y-67437000D01*
X148971000Y-66088294D01*
X147193102Y-66384610D01*
X147053820Y-66424498D01*
X146943506Y-66483463D01*
X146846815Y-66562815D01*
X146767463Y-66659506D01*
X146708498Y-66769820D01*
X146672188Y-66889518D01*
X146659928Y-67014000D01*
X145736072Y-67014000D01*
X145719624Y-66870056D01*
X145679597Y-66751549D01*
X145617221Y-66643128D01*
X145534890Y-66548959D01*
X145435771Y-66472662D01*
X145323671Y-66417168D01*
X145202898Y-66384610D01*
X143170998Y-66045960D01*
X149225000Y-66045960D01*
X149225000Y-67437000D01*
X151536072Y-67437000D01*
X151536072Y-66414000D01*
X151527390Y-66309102D01*
X151494832Y-66188329D01*
X151439338Y-66076229D01*
X151363041Y-65977110D01*
X151268872Y-65894779D01*
X151160451Y-65832403D01*
X151041944Y-65792376D01*
X150917905Y-65776239D01*
X150793102Y-65784610D01*
X149225000Y-66045960D01*
X143170998Y-66045960D01*
X141602898Y-65784610D01*
X141498000Y-65775928D01*
X141373518Y-65788188D01*
X141253820Y-65824498D01*
X141143506Y-65883463D01*
X141046815Y-65962815D01*
X140967463Y-66059506D01*
X140908498Y-66169820D01*
X140872188Y-66289518D01*
X140859928Y-66414000D01*
X140859928Y-68199000D01*
X139923189Y-68199000D01*
X139932850Y-68178322D01*
X139996719Y-67918151D01*
X140008604Y-67650518D01*
X139968048Y-67385709D01*
X139876609Y-67133900D01*
X139819450Y-67026965D01*
X139583133Y-66964472D01*
X138823605Y-67724000D01*
X138837748Y-67738143D01*
X138658143Y-67917748D01*
X138644000Y-67903605D01*
X138629858Y-67917748D01*
X138450253Y-67738143D01*
X138464395Y-67724000D01*
X138450253Y-67709858D01*
X138629858Y-67530253D01*
X138644000Y-67544395D01*
X139403528Y-66784867D01*
X139357091Y-66609267D01*
X139644000Y-66612072D01*
X139675192Y-66609000D01*
X139771002Y-66609000D01*
X139771002Y-66599048D01*
X139888180Y-66563502D01*
X139925265Y-66543679D01*
X139961609Y-66567462D01*
X139999282Y-66563591D01*
X140224533Y-66471421D01*
X140427474Y-66337078D01*
X140600307Y-66165725D01*
X140736390Y-65963946D01*
X140830493Y-65739496D01*
X140879000Y-65501000D01*
X140879000Y-65151000D01*
X137271000Y-65151000D01*
X137271000Y-65171000D01*
X137017000Y-65171000D01*
X137017000Y-65151000D01*
X135271000Y-65151000D01*
X135271000Y-65171000D01*
X135017000Y-65171000D01*
X135017000Y-65151000D01*
X132497000Y-65151000D01*
X132497000Y-64897000D01*
X135017000Y-64897000D01*
X135017000Y-64877000D01*
X135271000Y-64877000D01*
X135271000Y-64897000D01*
X137017000Y-64897000D01*
X137017000Y-64877000D01*
X137271000Y-64877000D01*
X137271000Y-64897000D01*
X140879000Y-64897000D01*
X140879000Y-64547000D01*
X140830493Y-64308504D01*
X140778713Y-64185000D01*
X158385111Y-64185000D01*
X158300589Y-64220010D01*
G04 #@! TA.AperFunction,Conductor*
D36*
G36*
X158300589Y-64220010D02*
G01*
X158057368Y-64382525D01*
X157850525Y-64589368D01*
X157688010Y-64832589D01*
X157576068Y-65102842D01*
X157519000Y-65389740D01*
X157519000Y-65682260D01*
X157576068Y-65969158D01*
X157688010Y-66239411D01*
X157850525Y-66482632D01*
X158057368Y-66689475D01*
X158231760Y-66806000D01*
X158057368Y-66922525D01*
X157850525Y-67129368D01*
X157688010Y-67372589D01*
X157576068Y-67642842D01*
X157519000Y-67929740D01*
X157519000Y-68222260D01*
X157576068Y-68509158D01*
X157688010Y-68779411D01*
X157850525Y-69022632D01*
X158057368Y-69229475D01*
X158231760Y-69346000D01*
X158057368Y-69462525D01*
X157850525Y-69669368D01*
X157688010Y-69912589D01*
X157576068Y-70182842D01*
X157519000Y-70469740D01*
X157519000Y-70762260D01*
X157576068Y-71049158D01*
X157688010Y-71319411D01*
X157850525Y-71562632D01*
X158057368Y-71769475D01*
X158239534Y-71891195D01*
X158122645Y-71960822D01*
X157906412Y-72155731D01*
X157732359Y-72389080D01*
X157607175Y-72651901D01*
X157562524Y-72799110D01*
X157683845Y-73029000D01*
X158877000Y-73029000D01*
X158877000Y-73009000D01*
X159131000Y-73009000D01*
X159131000Y-73029000D01*
X159151000Y-73029000D01*
X159151000Y-73283000D01*
X159131000Y-73283000D01*
X159131000Y-73303000D01*
X158877000Y-73303000D01*
X158877000Y-73283000D01*
X157683845Y-73283000D01*
X157562524Y-73512890D01*
X157607175Y-73660099D01*
X157732359Y-73922920D01*
X157906412Y-74156269D01*
X158122645Y-74351178D01*
X158239534Y-74420805D01*
X158057368Y-74542525D01*
X157850525Y-74749368D01*
X157688010Y-74992589D01*
X157576068Y-75262842D01*
X157519000Y-75549740D01*
X157519000Y-75842260D01*
X157576068Y-76129158D01*
X157688010Y-76399411D01*
X157850525Y-76642632D01*
X158057368Y-76849475D01*
X158231760Y-76966000D01*
X158057368Y-77082525D01*
X157850525Y-77289368D01*
X157688010Y-77532589D01*
X157576068Y-77802842D01*
X157519000Y-78089740D01*
X157519000Y-78382260D01*
X157576068Y-78669158D01*
X157688010Y-78939411D01*
X157850525Y-79182632D01*
X158057368Y-79389475D01*
X158231760Y-79506000D01*
X158057368Y-79622525D01*
X157850525Y-79829368D01*
X157688010Y-80072589D01*
X157576068Y-80342842D01*
X157519000Y-80629740D01*
X157519000Y-80922260D01*
X157576068Y-81209158D01*
X157688010Y-81479411D01*
X157850525Y-81722632D01*
X158057368Y-81929475D01*
X158231760Y-82046000D01*
X158057368Y-82162525D01*
X157850525Y-82369368D01*
X157688010Y-82612589D01*
X157576068Y-82882842D01*
X157519000Y-83169740D01*
X157519000Y-83462260D01*
X157576068Y-83749158D01*
X157688010Y-84019411D01*
X157850525Y-84262632D01*
X158057368Y-84469475D01*
X158231760Y-84586000D01*
X158057368Y-84702525D01*
X157850525Y-84909368D01*
X157688010Y-85152589D01*
X157576068Y-85422842D01*
X157519000Y-85709740D01*
X157519000Y-86002260D01*
X157532523Y-86070242D01*
X156882259Y-86720506D01*
X156848342Y-86748341D01*
X156820507Y-86782258D01*
X156820505Y-86782260D01*
X156737248Y-86883709D01*
X156654698Y-87038148D01*
X156603864Y-87205726D01*
X156586700Y-87380000D01*
X156591001Y-87423670D01*
X156591000Y-88875532D01*
X156562795Y-88917744D01*
X156484774Y-89106102D01*
X156445000Y-89306061D01*
X156445000Y-89509939D01*
X156484774Y-89709898D01*
X156562795Y-89898256D01*
X156676063Y-90067774D01*
X156820226Y-90211937D01*
X156989744Y-90325205D01*
X157056082Y-90352683D01*
X156017389Y-91391376D01*
X155983472Y-91419211D01*
X155955637Y-91453128D01*
X155955635Y-91453130D01*
X155872378Y-91554579D01*
X155789828Y-91709018D01*
X155738994Y-91876596D01*
X155721830Y-92050870D01*
X155726131Y-92094540D01*
X155726130Y-93090662D01*
X155697925Y-93132874D01*
X155619904Y-93321232D01*
X155580130Y-93521191D01*
X155580130Y-93725069D01*
X155619904Y-93925028D01*
X155697925Y-94113386D01*
X155811193Y-94282904D01*
X155858527Y-94330238D01*
X155358264Y-94830501D01*
X155324341Y-94858341D01*
X155213247Y-94993710D01*
X155130697Y-95148150D01*
X155117147Y-95192820D01*
X155090171Y-95281750D01*
X155079864Y-95315727D01*
X155067000Y-95446334D01*
X155067000Y-95446340D01*
X155062700Y-95490000D01*
X155067000Y-95533660D01*
X155067000Y-96256098D01*
X154978494Y-96183463D01*
X154868180Y-96124498D01*
X154748482Y-96088188D01*
X154624000Y-96075928D01*
X154277572Y-96078497D01*
X154280037Y-96075494D01*
X154339002Y-95965180D01*
X154375312Y-95845482D01*
X154387572Y-95721000D01*
X154384500Y-95281750D01*
X154225750Y-95123000D01*
X153289000Y-95123000D01*
X153289000Y-95143000D01*
X153035000Y-95143000D01*
X153035000Y-95123000D01*
X153015000Y-95123000D01*
X153015000Y-94869000D01*
X153035000Y-94869000D01*
X153035000Y-94849000D01*
X153289000Y-94849000D01*
X153289000Y-94869000D01*
X154225750Y-94869000D01*
X154384500Y-94710250D01*
X154387572Y-94271000D01*
X154375312Y-94146518D01*
X154339002Y-94026820D01*
X154280037Y-93916506D01*
X154200685Y-93819815D01*
X154103994Y-93740463D01*
X153993680Y-93681498D01*
X153873982Y-93645188D01*
X153749500Y-93632928D01*
X153635641Y-93634087D01*
X153652256Y-93627205D01*
X153821774Y-93513937D01*
X153965937Y-93369774D01*
X154079205Y-93200256D01*
X154157226Y-93011898D01*
X154197000Y-92811939D01*
X154197000Y-92608061D01*
X154157226Y-92408102D01*
X154079205Y-92219744D01*
X154051000Y-92177532D01*
X154051000Y-91554235D01*
X155192106Y-90413130D01*
X155241898Y-90403226D01*
X155430256Y-90325205D01*
X155599774Y-90211937D01*
X155743937Y-90067774D01*
X155857205Y-89898256D01*
X155935226Y-89709898D01*
X155975000Y-89509939D01*
X155975000Y-89306061D01*
X155935226Y-89106102D01*
X155857205Y-88917744D01*
X155743937Y-88748226D01*
X155599774Y-88604063D01*
X155430256Y-88490795D01*
X155363918Y-88463317D01*
X155883736Y-87943499D01*
X155917659Y-87915659D01*
X156028753Y-87780291D01*
X156111303Y-87625851D01*
X156137952Y-87538000D01*
X156162136Y-87458276D01*
X156165756Y-87421518D01*
X156175000Y-87327667D01*
X156175000Y-87327661D01*
X156179300Y-87284001D01*
X156175000Y-87240341D01*
X156175000Y-86800468D01*
X156203205Y-86758256D01*
X156281226Y-86569898D01*
X156321000Y-86369939D01*
X156321000Y-86166061D01*
X156281226Y-85966102D01*
X156203205Y-85777744D01*
X156089937Y-85608226D01*
X155945774Y-85464063D01*
X155776256Y-85350795D01*
X155587898Y-85272774D01*
X155387939Y-85233000D01*
X155184061Y-85233000D01*
X154984102Y-85272774D01*
X154795744Y-85350795D01*
X154626226Y-85464063D01*
X154482063Y-85608226D01*
X154368795Y-85777744D01*
X154290774Y-85966102D01*
X154251000Y-86166061D01*
X154251000Y-86369939D01*
X154290774Y-86569898D01*
X154368795Y-86758256D01*
X154397001Y-86800469D01*
X154397001Y-86915764D01*
X154181979Y-87130786D01*
X154180000Y-86670750D01*
X154021250Y-86512000D01*
X152922000Y-86512000D01*
X152922000Y-87861250D01*
X153080750Y-88020000D01*
X153291371Y-88021394D01*
X152909895Y-88402870D01*
X152860102Y-88412774D01*
X152671744Y-88490795D01*
X152502226Y-88604063D01*
X152358063Y-88748226D01*
X152244795Y-88917744D01*
X152166774Y-89106102D01*
X152127000Y-89306061D01*
X152127000Y-89509939D01*
X152166774Y-89709898D01*
X152244795Y-89898256D01*
X152358063Y-90067774D01*
X152502226Y-90211937D01*
X152671744Y-90325205D01*
X152738082Y-90352683D01*
X152564259Y-90526506D01*
X152530342Y-90554341D01*
X152502507Y-90588258D01*
X152502505Y-90588260D01*
X152419248Y-90689709D01*
X152336698Y-90844148D01*
X152285864Y-91011726D01*
X152282397Y-91046928D01*
X151638000Y-91046928D01*
X151638000Y-87883936D01*
X151645000Y-87878191D01*
X151690506Y-87915537D01*
X151800820Y-87974502D01*
X151920518Y-88010812D01*
X152045000Y-88023072D01*
X152509250Y-88020000D01*
X152668000Y-87861250D01*
X152668000Y-86512000D01*
X152648000Y-86512000D01*
X152648000Y-86258000D01*
X152668000Y-86258000D01*
X152668000Y-84908750D01*
X152922000Y-84908750D01*
X152922000Y-86258000D01*
X154021250Y-86258000D01*
X154180000Y-86099250D01*
X154183072Y-85385000D01*
X154170812Y-85260518D01*
X154134502Y-85140820D01*
X154075537Y-85030506D01*
X153996185Y-84933815D01*
X153899494Y-84854463D01*
X153789180Y-84795498D01*
X153669482Y-84759188D01*
X153545000Y-84746928D01*
X153080750Y-84750000D01*
X152922000Y-84908750D01*
X152668000Y-84908750D01*
X152509250Y-84750000D01*
X152045000Y-84746928D01*
X151920518Y-84759188D01*
X151800820Y-84795498D01*
X151690506Y-84854463D01*
X151645000Y-84891809D01*
X151599494Y-84854463D01*
X151489180Y-84795498D01*
X151369482Y-84759188D01*
X151245000Y-84746928D01*
X149745000Y-84746928D01*
X149620518Y-84759188D01*
X149500820Y-84795498D01*
X149465000Y-84814644D01*
X149465000Y-84553050D01*
X150621980Y-83396072D01*
X151564001Y-83396072D01*
X151737255Y-83379008D01*
X151903851Y-83328472D01*
X152057387Y-83246405D01*
X152191962Y-83135962D01*
X152302405Y-83001387D01*
X152384472Y-82847851D01*
X152435008Y-82681255D01*
X152452072Y-82508001D01*
X152452072Y-81707999D01*
X152435008Y-81534745D01*
X152384472Y-81368149D01*
X152302405Y-81214613D01*
X152191962Y-81080038D01*
X152057387Y-80969595D01*
X151903851Y-80887528D01*
X151737255Y-80836992D01*
X151564001Y-80819928D01*
X149903558Y-80819928D01*
X149855630Y-80772000D01*
X154519160Y-80772000D01*
X155351956Y-81604797D01*
X155406063Y-81685774D01*
X155550226Y-81829937D01*
X155719744Y-81943205D01*
X155908102Y-82021226D01*
X156108061Y-82061000D01*
X156311939Y-82061000D01*
X156511898Y-82021226D01*
X156700256Y-81943205D01*
X156869774Y-81829937D01*
X157013937Y-81685774D01*
X157127205Y-81516256D01*
X157205226Y-81327898D01*
X157245000Y-81127939D01*
X157245000Y-80924061D01*
X157205226Y-80724102D01*
X157127205Y-80535744D01*
X157013937Y-80366226D01*
X156869774Y-80222063D01*
X156788797Y-80167956D01*
X155693712Y-79072872D01*
X155661896Y-79034104D01*
X155507190Y-78907140D01*
X155330687Y-78812798D01*
X155139171Y-78754702D01*
X154989902Y-78740000D01*
X154940000Y-78735085D01*
X154890098Y-78740000D01*
X152126117Y-78740000D01*
X152191962Y-78685962D01*
X152302405Y-78551387D01*
X152384472Y-78397851D01*
X152435008Y-78231255D01*
X152452072Y-78058001D01*
X152452072Y-77257999D01*
X152435008Y-77084745D01*
X152384472Y-76918149D01*
X152302405Y-76764613D01*
X152191962Y-76630038D01*
X152057387Y-76519595D01*
X151903851Y-76437528D01*
X151737255Y-76386992D01*
X151564001Y-76369928D01*
X150122374Y-76369928D01*
X147652382Y-73899937D01*
X148971000Y-74119706D01*
X148971000Y-72771000D01*
X149225000Y-72771000D01*
X149225000Y-74162040D01*
X150793102Y-74423390D01*
X150898000Y-74432072D01*
X151022482Y-74419812D01*
X151142180Y-74383502D01*
X151252494Y-74324537D01*
X151349185Y-74245185D01*
X151428537Y-74148494D01*
X151487502Y-74038180D01*
X151523812Y-73918482D01*
X151536072Y-73794000D01*
X151536072Y-72771000D01*
X149225000Y-72771000D01*
X148971000Y-72771000D01*
X148951000Y-72771000D01*
X148951000Y-72517000D01*
X148971000Y-72517000D01*
X148971000Y-71168294D01*
X147193102Y-71464610D01*
X147193000Y-71464639D01*
X147193000Y-71125960D01*
X149225000Y-71125960D01*
X149225000Y-72517000D01*
X151536072Y-72517000D01*
X151536072Y-71494000D01*
X151527390Y-71389102D01*
X151494832Y-71268329D01*
X151439338Y-71156229D01*
X151363041Y-71057110D01*
X151268872Y-70974779D01*
X151160451Y-70912403D01*
X151041944Y-70872376D01*
X150917905Y-70856239D01*
X150793102Y-70864610D01*
X149225000Y-71125960D01*
X147193000Y-71125960D01*
X147193000Y-70372139D01*
X147198529Y-70316000D01*
X147193000Y-70259861D01*
X147193000Y-70259854D01*
X147177077Y-70098188D01*
X147176461Y-70091932D01*
X147111103Y-69876476D01*
X147054904Y-69771336D01*
X147004968Y-69677911D01*
X146862133Y-69503867D01*
X146818524Y-69468078D01*
X145692418Y-68341973D01*
X145723812Y-68238482D01*
X145736072Y-68114000D01*
X145736072Y-67691000D01*
X146659928Y-67691000D01*
X146659928Y-68114000D01*
X146676376Y-68257944D01*
X146716403Y-68376451D01*
X146778779Y-68484872D01*
X146861110Y-68579041D01*
X146960229Y-68655338D01*
X147072329Y-68710832D01*
X147193102Y-68743390D01*
X148971000Y-69039706D01*
X148971000Y-67691000D01*
X149225000Y-67691000D01*
X149225000Y-69082040D01*
X150793102Y-69343390D01*
X150898000Y-69352072D01*
X151022482Y-69339812D01*
X151142180Y-69303502D01*
X151252494Y-69244537D01*
X151349185Y-69165185D01*
X151428537Y-69068494D01*
X151487502Y-68958180D01*
X151523812Y-68838482D01*
X151536072Y-68714000D01*
X151536072Y-67691000D01*
X149225000Y-67691000D01*
X148971000Y-67691000D01*
X146659928Y-67691000D01*
X145736072Y-67691000D01*
X145736072Y-67014000D01*
X146659928Y-67014000D01*
X146659928Y-67437000D01*
X148971000Y-67437000D01*
X148971000Y-66088294D01*
X147193102Y-66384610D01*
X147053820Y-66424498D01*
X146943506Y-66483463D01*
X146846815Y-66562815D01*
X146767463Y-66659506D01*
X146708498Y-66769820D01*
X146672188Y-66889518D01*
X146659928Y-67014000D01*
X145736072Y-67014000D01*
X145719624Y-66870056D01*
X145679597Y-66751549D01*
X145617221Y-66643128D01*
X145534890Y-66548959D01*
X145435771Y-66472662D01*
X145323671Y-66417168D01*
X145202898Y-66384610D01*
X143170998Y-66045960D01*
X149225000Y-66045960D01*
X149225000Y-67437000D01*
X151536072Y-67437000D01*
X151536072Y-66414000D01*
X151527390Y-66309102D01*
X151494832Y-66188329D01*
X151439338Y-66076229D01*
X151363041Y-65977110D01*
X151268872Y-65894779D01*
X151160451Y-65832403D01*
X151041944Y-65792376D01*
X150917905Y-65776239D01*
X150793102Y-65784610D01*
X149225000Y-66045960D01*
X143170998Y-66045960D01*
X141602898Y-65784610D01*
X141498000Y-65775928D01*
X141373518Y-65788188D01*
X141253820Y-65824498D01*
X141143506Y-65883463D01*
X141046815Y-65962815D01*
X140967463Y-66059506D01*
X140908498Y-66169820D01*
X140872188Y-66289518D01*
X140859928Y-66414000D01*
X140859928Y-68199000D01*
X139923189Y-68199000D01*
X139932850Y-68178322D01*
X139996719Y-67918151D01*
X140008604Y-67650518D01*
X139968048Y-67385709D01*
X139876609Y-67133900D01*
X139819450Y-67026965D01*
X139583133Y-66964472D01*
X138823605Y-67724000D01*
X138837748Y-67738143D01*
X138658143Y-67917748D01*
X138644000Y-67903605D01*
X138629858Y-67917748D01*
X138450253Y-67738143D01*
X138464395Y-67724000D01*
X138450253Y-67709858D01*
X138629858Y-67530253D01*
X138644000Y-67544395D01*
X139403528Y-66784867D01*
X139357091Y-66609267D01*
X139644000Y-66612072D01*
X139675192Y-66609000D01*
X139771002Y-66609000D01*
X139771002Y-66599048D01*
X139888180Y-66563502D01*
X139925265Y-66543679D01*
X139961609Y-66567462D01*
X139999282Y-66563591D01*
X140224533Y-66471421D01*
X140427474Y-66337078D01*
X140600307Y-66165725D01*
X140736390Y-65963946D01*
X140830493Y-65739496D01*
X140879000Y-65501000D01*
X140879000Y-65151000D01*
X137271000Y-65151000D01*
X137271000Y-65171000D01*
X137017000Y-65171000D01*
X137017000Y-65151000D01*
X135271000Y-65151000D01*
X135271000Y-65171000D01*
X135017000Y-65171000D01*
X135017000Y-65151000D01*
X132497000Y-65151000D01*
X132497000Y-64897000D01*
X135017000Y-64897000D01*
X135017000Y-64877000D01*
X135271000Y-64877000D01*
X135271000Y-64897000D01*
X137017000Y-64897000D01*
X137017000Y-64877000D01*
X137271000Y-64877000D01*
X137271000Y-64897000D01*
X140879000Y-64897000D01*
X140879000Y-64547000D01*
X140830493Y-64308504D01*
X140778713Y-64185000D01*
X158385111Y-64185000D01*
X158300589Y-64220010D01*
G37*
G04 #@! TD.AperFunction*
D32*
X135556171Y-77804258D02*
X135692418Y-77877084D01*
X135840255Y-77921929D01*
X135994000Y-77937072D01*
X136254907Y-77937072D01*
X136148595Y-78066613D01*
X136066528Y-78220149D01*
X136015992Y-78386745D01*
X135998928Y-78559999D01*
X135998928Y-81460001D01*
X136015992Y-81633255D01*
X136066528Y-81799851D01*
X136148595Y-81953387D01*
X136176942Y-81987928D01*
X135820000Y-81987928D01*
X135695518Y-82000188D01*
X135575820Y-82036498D01*
X135465506Y-82095463D01*
X135368815Y-82174815D01*
X135289463Y-82271506D01*
X135230498Y-82381820D01*
X135194188Y-82501518D01*
X135181928Y-82626000D01*
X135181928Y-84176000D01*
X135194188Y-84300482D01*
X135230498Y-84420180D01*
X135289463Y-84530494D01*
X135368815Y-84627185D01*
X135465506Y-84706537D01*
X135575820Y-84765502D01*
X135695518Y-84801812D01*
X135820000Y-84814072D01*
X137120000Y-84814072D01*
X137244482Y-84801812D01*
X137364180Y-84765502D01*
X137474494Y-84706537D01*
X137571185Y-84627185D01*
X137650537Y-84530494D01*
X137709502Y-84420180D01*
X137745812Y-84300482D01*
X137758072Y-84176000D01*
X137758072Y-84096714D01*
X139688490Y-86027133D01*
X139720302Y-86065896D01*
X139875008Y-86192860D01*
X140051511Y-86287202D01*
X140188819Y-86328854D01*
X140243027Y-86345298D01*
X140442198Y-86364915D01*
X140492100Y-86360000D01*
X142083098Y-86360000D01*
X142133000Y-86364915D01*
X142182902Y-86360000D01*
X142332171Y-86345298D01*
X142523687Y-86287202D01*
X142700190Y-86192860D01*
X142854896Y-86065896D01*
X142886712Y-86027128D01*
X144780001Y-84133840D01*
X144780001Y-84492048D01*
X144692149Y-84518697D01*
X144537709Y-84601247D01*
X144402341Y-84712341D01*
X144291247Y-84847710D01*
X144208697Y-85002150D01*
X144157864Y-85169727D01*
X144145000Y-85300334D01*
X144145000Y-86106000D01*
X144067893Y-86106000D01*
X144017999Y-86101086D01*
X143968105Y-86106000D01*
X143968098Y-86106000D01*
X143838177Y-86118796D01*
X143818828Y-86120702D01*
X143760732Y-86138326D01*
X143627313Y-86178798D01*
X143450810Y-86273140D01*
X143296104Y-86400104D01*
X143264287Y-86438873D01*
X142826868Y-86876292D01*
X142788105Y-86908104D01*
X142661141Y-87062810D01*
X142582547Y-87209851D01*
X142566799Y-87239313D01*
X142508702Y-87430830D01*
X142489085Y-87630000D01*
X142493091Y-87670672D01*
X142413577Y-87819433D01*
X142363752Y-87983684D01*
X142346928Y-88154500D01*
X142346928Y-88629500D01*
X142363752Y-88800316D01*
X142413577Y-88964567D01*
X142494488Y-89115942D01*
X142603377Y-89248623D01*
X142714953Y-89340191D01*
X142688000Y-89339928D01*
X142563518Y-89352188D01*
X142443820Y-89388498D01*
X142333506Y-89447463D01*
X142236815Y-89526815D01*
X142157463Y-89623506D01*
X142098498Y-89733820D01*
X142062188Y-89853518D01*
X142049928Y-89978000D01*
X142050893Y-90108162D01*
X141974494Y-90045463D01*
X141864180Y-89986498D01*
X141744482Y-89950188D01*
X141620000Y-89937928D01*
X141255750Y-89941000D01*
X141097000Y-90099750D01*
X141097000Y-91224000D01*
X141117000Y-91224000D01*
X141117000Y-91478000D01*
X141097000Y-91478000D01*
X141097000Y-92602250D01*
X141255750Y-92761000D01*
X141620000Y-92764072D01*
X141744482Y-92751812D01*
X141864180Y-92715502D01*
X141974494Y-92656537D01*
X142071185Y-92577185D01*
X142150537Y-92480494D01*
X142209502Y-92370180D01*
X142245812Y-92250482D01*
X142258072Y-92126000D01*
X142256309Y-91845183D01*
X142333506Y-91908537D01*
X142443820Y-91967502D01*
X142563518Y-92003812D01*
X142688000Y-92016072D01*
X143002250Y-92013000D01*
X143161000Y-91854250D01*
X143161000Y-90805000D01*
X143141000Y-90805000D01*
X143141000Y-90551000D01*
X143161000Y-90551000D01*
X143161000Y-90531000D01*
X143415000Y-90531000D01*
X143415000Y-90551000D01*
X143435000Y-90551000D01*
X143435000Y-90805000D01*
X143415000Y-90805000D01*
X143415000Y-91854250D01*
X143573750Y-92013000D01*
X143888000Y-92016072D01*
X144012482Y-92003812D01*
X144132180Y-91967502D01*
X144242494Y-91908537D01*
X144339185Y-91829185D01*
X144363363Y-91799724D01*
X144444613Y-91866405D01*
X144598149Y-91948472D01*
X144764745Y-91999008D01*
X144937999Y-92016072D01*
X145638001Y-92016072D01*
X145811255Y-91999008D01*
X145977851Y-91948472D01*
X146131387Y-91866405D01*
X146265962Y-91755962D01*
X146376405Y-91621387D01*
X146458472Y-91467851D01*
X146509008Y-91301255D01*
X146526072Y-91128001D01*
X146526072Y-90227999D01*
X146509008Y-90054745D01*
X146458472Y-89888149D01*
X146376405Y-89734613D01*
X146276000Y-89612269D01*
X146276000Y-89115029D01*
X146356423Y-88964567D01*
X146379535Y-88888376D01*
X146947292Y-89456133D01*
X146979104Y-89494896D01*
X147118386Y-89609202D01*
X147133810Y-89621860D01*
X147310313Y-89716202D01*
X147501829Y-89774298D01*
X147701000Y-89793915D01*
X147750902Y-89789000D01*
X149352001Y-89789000D01*
X149352000Y-91046928D01*
X148595000Y-91046928D01*
X148470518Y-91059188D01*
X148350820Y-91095498D01*
X148240506Y-91154463D01*
X148143815Y-91233815D01*
X148064463Y-91330506D01*
X148005498Y-91440820D01*
X147969188Y-91560518D01*
X147958504Y-91669000D01*
X147097902Y-91669000D01*
X147048000Y-91664085D01*
X146998098Y-91669000D01*
X146848829Y-91683702D01*
X146657313Y-91741798D01*
X146480810Y-91836140D01*
X146326104Y-91963104D01*
X146294292Y-92001867D01*
X144409232Y-93886928D01*
X144145500Y-93886928D01*
X143972246Y-93903992D01*
X143805650Y-93954528D01*
X143652114Y-94036595D01*
X143517538Y-94147038D01*
X143407095Y-94281614D01*
X143325028Y-94435150D01*
X143274492Y-94601746D01*
X143257428Y-94775000D01*
X143257428Y-94934425D01*
X143246931Y-94954063D01*
X143226499Y-94992290D01*
X143221185Y-94985815D01*
X143124494Y-94906463D01*
X143014180Y-94847498D01*
X142894482Y-94811188D01*
X142770000Y-94798928D01*
X140230000Y-94798928D01*
X140105518Y-94811188D01*
X139985820Y-94847498D01*
X139938110Y-94873000D01*
X139476454Y-94873000D01*
X139428256Y-94840795D01*
X139361918Y-94813317D01*
X140297743Y-93877493D01*
X140331659Y-93849659D01*
X140363008Y-93811461D01*
X140394206Y-93773446D01*
X140442753Y-93714291D01*
X140525303Y-93559851D01*
X140576136Y-93392274D01*
X140589000Y-93261667D01*
X140589000Y-93261660D01*
X140593300Y-93218000D01*
X140589000Y-93174340D01*
X140589000Y-92761803D01*
X140684250Y-92761000D01*
X140843000Y-92602250D01*
X140843000Y-91478000D01*
X140823000Y-91478000D01*
X140823000Y-91224000D01*
X140843000Y-91224000D01*
X140843000Y-90099750D01*
X140684250Y-89941000D01*
X140320000Y-89937928D01*
X140195518Y-89950188D01*
X140075820Y-89986498D01*
X139965506Y-90045463D01*
X139868815Y-90124815D01*
X139789463Y-90221506D01*
X139730498Y-90331820D01*
X139708299Y-90405000D01*
X139598061Y-90405000D01*
X139398102Y-90444774D01*
X139209744Y-90522795D01*
X139040226Y-90636063D01*
X138896063Y-90780226D01*
X138782795Y-90949744D01*
X138704774Y-91138102D01*
X138665000Y-91338061D01*
X138665000Y-91541939D01*
X138704774Y-91741898D01*
X138782795Y-91930256D01*
X138811001Y-91972469D01*
X138811000Y-92849764D01*
X138315765Y-93345000D01*
X135679659Y-93345000D01*
X135635999Y-93340700D01*
X135592339Y-93345000D01*
X135592333Y-93345000D01*
X135480073Y-93356057D01*
X135461725Y-93357864D01*
X135427866Y-93368135D01*
X135294149Y-93408697D01*
X135139709Y-93491247D01*
X135004341Y-93602341D01*
X134976498Y-93636268D01*
X134871265Y-93741500D01*
X134837342Y-93769340D01*
X134726248Y-93904708D01*
X134643698Y-94059148D01*
X134592865Y-94226725D01*
X134580001Y-94357332D01*
X134580001Y-94357339D01*
X134575701Y-94400999D01*
X134580001Y-94444659D01*
X134580001Y-95677000D01*
X134403212Y-95677000D01*
X134183933Y-95720617D01*
X133977376Y-95806176D01*
X133791480Y-95930388D01*
X133753395Y-95968473D01*
X133586256Y-95856795D01*
X133565675Y-95848270D01*
X133583226Y-95805898D01*
X133623000Y-95605939D01*
X133623000Y-95402061D01*
X133583226Y-95202102D01*
X133505205Y-95013744D01*
X133391937Y-94844226D01*
X133247774Y-94700063D01*
X133078256Y-94586795D01*
X132889898Y-94508774D01*
X132689939Y-94469000D01*
X132486061Y-94469000D01*
X132286102Y-94508774D01*
X132097744Y-94586795D01*
X132055532Y-94615000D01*
X129654236Y-94615000D01*
X128767130Y-93727895D01*
X128757226Y-93678102D01*
X128679205Y-93489744D01*
X128565937Y-93320226D01*
X128421774Y-93176063D01*
X128303683Y-93097158D01*
X128445133Y-92955708D01*
X128483896Y-92923896D01*
X128610860Y-92769190D01*
X128705202Y-92592687D01*
X128763298Y-92401171D01*
X128778000Y-92251902D01*
X128778000Y-92251901D01*
X128782915Y-92202000D01*
X128778000Y-92152098D01*
X128778000Y-90746107D01*
X128840487Y-90683620D01*
X128862498Y-90756180D01*
X128921463Y-90866494D01*
X129000815Y-90963185D01*
X129097506Y-91042537D01*
X129207820Y-91101502D01*
X129327518Y-91137812D01*
X129452000Y-91150072D01*
X130016250Y-91147000D01*
X130175000Y-90988250D01*
X130175000Y-89789000D01*
X130155000Y-89789000D01*
X130155000Y-89535000D01*
X130175000Y-89535000D01*
X130175000Y-89515000D01*
X130429000Y-89515000D01*
X130429000Y-89535000D01*
X130449000Y-89535000D01*
X130449000Y-89789000D01*
X130429000Y-89789000D01*
X130429000Y-90988250D01*
X130587750Y-91147000D01*
X131152000Y-91150072D01*
X131276482Y-91137812D01*
X131396180Y-91101502D01*
X131506494Y-91042537D01*
X131603185Y-90963185D01*
X131682537Y-90866494D01*
X131741502Y-90756180D01*
X131750633Y-90726079D01*
X131762698Y-90765852D01*
X131845248Y-90920291D01*
X131926957Y-91019853D01*
X131956342Y-91055659D01*
X131990259Y-91083494D01*
X132855505Y-91948741D01*
X132883341Y-91982659D01*
X133018709Y-92093753D01*
X133173149Y-92176303D01*
X133257859Y-92201999D01*
X133340725Y-92227136D01*
X133357325Y-92228771D01*
X133471333Y-92240000D01*
X133471340Y-92240000D01*
X133515000Y-92244300D01*
X133558660Y-92240000D01*
X135193156Y-92240000D01*
X135194188Y-92250482D01*
X135230498Y-92370180D01*
X135289463Y-92480494D01*
X135368815Y-92577185D01*
X135465506Y-92656537D01*
X135575820Y-92715502D01*
X135695518Y-92751812D01*
X135820000Y-92764072D01*
X137120000Y-92764072D01*
X137244482Y-92751812D01*
X137364180Y-92715502D01*
X137474494Y-92656537D01*
X137571185Y-92577185D01*
X137650537Y-92480494D01*
X137709502Y-92370180D01*
X137745812Y-92250482D01*
X137758072Y-92126000D01*
X137758072Y-90576000D01*
X137745812Y-90451518D01*
X137709502Y-90331820D01*
X137650537Y-90221506D01*
X137571185Y-90124815D01*
X137474494Y-90045463D01*
X137364180Y-89986498D01*
X137244482Y-89950188D01*
X137120000Y-89937928D01*
X135820000Y-89937928D01*
X135695518Y-89950188D01*
X135575820Y-89986498D01*
X135465506Y-90045463D01*
X135368815Y-90124815D01*
X135289463Y-90221506D01*
X135230498Y-90331820D01*
X135194188Y-90451518D01*
X135193156Y-90462000D01*
X134683711Y-90462000D01*
X134823937Y-90321774D01*
X134937205Y-90152256D01*
X135015226Y-89963898D01*
X135055000Y-89763939D01*
X135055000Y-89560061D01*
X135015226Y-89360102D01*
X134937205Y-89171744D01*
X134909000Y-89129532D01*
X134909000Y-87581668D01*
X134913301Y-87538000D01*
X134896136Y-87363725D01*
X134870413Y-87278928D01*
X134845303Y-87196149D01*
X134762753Y-87041709D01*
X134651659Y-86906341D01*
X134617743Y-86878507D01*
X134488080Y-86748844D01*
X134515000Y-86751072D01*
X134639482Y-86738812D01*
X134759180Y-86702502D01*
X134869494Y-86643537D01*
X134966185Y-86564185D01*
X135045537Y-86467494D01*
X135104502Y-86357180D01*
X135140812Y-86237482D01*
X135153072Y-86113000D01*
X135153072Y-85090000D01*
X132842000Y-85090000D01*
X132842000Y-85110000D01*
X132588000Y-85110000D01*
X132588000Y-85090000D01*
X130276928Y-85090000D01*
X130276928Y-85350259D01*
X130149939Y-85325000D01*
X129946061Y-85325000D01*
X129746102Y-85364774D01*
X129557744Y-85442795D01*
X129388226Y-85556063D01*
X129344527Y-85599762D01*
X129353072Y-85513000D01*
X129353072Y-85040978D01*
X129981050Y-84413000D01*
X130276928Y-84413000D01*
X130276928Y-84836000D01*
X132588000Y-84836000D01*
X132588000Y-83487294D01*
X130810102Y-83783610D01*
X130670820Y-83823498D01*
X130560506Y-83882463D01*
X130463815Y-83961815D01*
X130384463Y-84058506D01*
X130325498Y-84168820D01*
X130289188Y-84288518D01*
X130276928Y-84413000D01*
X129981050Y-84413000D01*
X130949090Y-83444960D01*
X132842000Y-83444960D01*
X132842000Y-84836000D01*
X135153072Y-84836000D01*
X135153072Y-83813000D01*
X135144390Y-83708102D01*
X135111832Y-83587329D01*
X135056338Y-83475229D01*
X134980041Y-83376110D01*
X134885872Y-83293779D01*
X134777451Y-83231403D01*
X134658944Y-83191376D01*
X134534905Y-83175239D01*
X134410102Y-83183610D01*
X132842000Y-83444960D01*
X130949090Y-83444960D01*
X132109755Y-82284296D01*
X132263745Y-82331008D01*
X132436999Y-82348072D01*
X133237001Y-82348072D01*
X133410255Y-82331008D01*
X133576851Y-82280472D01*
X133730387Y-82198405D01*
X133864962Y-82087962D01*
X133975405Y-81953387D01*
X134057472Y-81799851D01*
X134108008Y-81633255D01*
X134125072Y-81460001D01*
X134125072Y-78559999D01*
X134108008Y-78386745D01*
X134057472Y-78220149D01*
X133975405Y-78066613D01*
X133864962Y-77932038D01*
X133858549Y-77926775D01*
X133907745Y-77921929D01*
X134055582Y-77877084D01*
X134191829Y-77804258D01*
X134239000Y-77765546D01*
X134286171Y-77804258D01*
X134422418Y-77877084D01*
X134570255Y-77921929D01*
X134724000Y-77937072D01*
X135024000Y-77937072D01*
X135177745Y-77921929D01*
X135325582Y-77877084D01*
X135461829Y-77804258D01*
X135509000Y-77765546D01*
X135556171Y-77804258D01*
G04 #@! TA.AperFunction,Conductor*
D36*
G36*
X135556171Y-77804258D02*
G01*
X135692418Y-77877084D01*
X135840255Y-77921929D01*
X135994000Y-77937072D01*
X136254907Y-77937072D01*
X136148595Y-78066613D01*
X136066528Y-78220149D01*
X136015992Y-78386745D01*
X135998928Y-78559999D01*
X135998928Y-81460001D01*
X136015992Y-81633255D01*
X136066528Y-81799851D01*
X136148595Y-81953387D01*
X136176942Y-81987928D01*
X135820000Y-81987928D01*
X135695518Y-82000188D01*
X135575820Y-82036498D01*
X135465506Y-82095463D01*
X135368815Y-82174815D01*
X135289463Y-82271506D01*
X135230498Y-82381820D01*
X135194188Y-82501518D01*
X135181928Y-82626000D01*
X135181928Y-84176000D01*
X135194188Y-84300482D01*
X135230498Y-84420180D01*
X135289463Y-84530494D01*
X135368815Y-84627185D01*
X135465506Y-84706537D01*
X135575820Y-84765502D01*
X135695518Y-84801812D01*
X135820000Y-84814072D01*
X137120000Y-84814072D01*
X137244482Y-84801812D01*
X137364180Y-84765502D01*
X137474494Y-84706537D01*
X137571185Y-84627185D01*
X137650537Y-84530494D01*
X137709502Y-84420180D01*
X137745812Y-84300482D01*
X137758072Y-84176000D01*
X137758072Y-84096714D01*
X139688490Y-86027133D01*
X139720302Y-86065896D01*
X139875008Y-86192860D01*
X140051511Y-86287202D01*
X140188819Y-86328854D01*
X140243027Y-86345298D01*
X140442198Y-86364915D01*
X140492100Y-86360000D01*
X142083098Y-86360000D01*
X142133000Y-86364915D01*
X142182902Y-86360000D01*
X142332171Y-86345298D01*
X142523687Y-86287202D01*
X142700190Y-86192860D01*
X142854896Y-86065896D01*
X142886712Y-86027128D01*
X144780001Y-84133840D01*
X144780001Y-84492048D01*
X144692149Y-84518697D01*
X144537709Y-84601247D01*
X144402341Y-84712341D01*
X144291247Y-84847710D01*
X144208697Y-85002150D01*
X144157864Y-85169727D01*
X144145000Y-85300334D01*
X144145000Y-86106000D01*
X144067893Y-86106000D01*
X144017999Y-86101086D01*
X143968105Y-86106000D01*
X143968098Y-86106000D01*
X143838177Y-86118796D01*
X143818828Y-86120702D01*
X143760732Y-86138326D01*
X143627313Y-86178798D01*
X143450810Y-86273140D01*
X143296104Y-86400104D01*
X143264287Y-86438873D01*
X142826868Y-86876292D01*
X142788105Y-86908104D01*
X142661141Y-87062810D01*
X142582547Y-87209851D01*
X142566799Y-87239313D01*
X142508702Y-87430830D01*
X142489085Y-87630000D01*
X142493091Y-87670672D01*
X142413577Y-87819433D01*
X142363752Y-87983684D01*
X142346928Y-88154500D01*
X142346928Y-88629500D01*
X142363752Y-88800316D01*
X142413577Y-88964567D01*
X142494488Y-89115942D01*
X142603377Y-89248623D01*
X142714953Y-89340191D01*
X142688000Y-89339928D01*
X142563518Y-89352188D01*
X142443820Y-89388498D01*
X142333506Y-89447463D01*
X142236815Y-89526815D01*
X142157463Y-89623506D01*
X142098498Y-89733820D01*
X142062188Y-89853518D01*
X142049928Y-89978000D01*
X142050893Y-90108162D01*
X141974494Y-90045463D01*
X141864180Y-89986498D01*
X141744482Y-89950188D01*
X141620000Y-89937928D01*
X141255750Y-89941000D01*
X141097000Y-90099750D01*
X141097000Y-91224000D01*
X141117000Y-91224000D01*
X141117000Y-91478000D01*
X141097000Y-91478000D01*
X141097000Y-92602250D01*
X141255750Y-92761000D01*
X141620000Y-92764072D01*
X141744482Y-92751812D01*
X141864180Y-92715502D01*
X141974494Y-92656537D01*
X142071185Y-92577185D01*
X142150537Y-92480494D01*
X142209502Y-92370180D01*
X142245812Y-92250482D01*
X142258072Y-92126000D01*
X142256309Y-91845183D01*
X142333506Y-91908537D01*
X142443820Y-91967502D01*
X142563518Y-92003812D01*
X142688000Y-92016072D01*
X143002250Y-92013000D01*
X143161000Y-91854250D01*
X143161000Y-90805000D01*
X143141000Y-90805000D01*
X143141000Y-90551000D01*
X143161000Y-90551000D01*
X143161000Y-90531000D01*
X143415000Y-90531000D01*
X143415000Y-90551000D01*
X143435000Y-90551000D01*
X143435000Y-90805000D01*
X143415000Y-90805000D01*
X143415000Y-91854250D01*
X143573750Y-92013000D01*
X143888000Y-92016072D01*
X144012482Y-92003812D01*
X144132180Y-91967502D01*
X144242494Y-91908537D01*
X144339185Y-91829185D01*
X144363363Y-91799724D01*
X144444613Y-91866405D01*
X144598149Y-91948472D01*
X144764745Y-91999008D01*
X144937999Y-92016072D01*
X145638001Y-92016072D01*
X145811255Y-91999008D01*
X145977851Y-91948472D01*
X146131387Y-91866405D01*
X146265962Y-91755962D01*
X146376405Y-91621387D01*
X146458472Y-91467851D01*
X146509008Y-91301255D01*
X146526072Y-91128001D01*
X146526072Y-90227999D01*
X146509008Y-90054745D01*
X146458472Y-89888149D01*
X146376405Y-89734613D01*
X146276000Y-89612269D01*
X146276000Y-89115029D01*
X146356423Y-88964567D01*
X146379535Y-88888376D01*
X146947292Y-89456133D01*
X146979104Y-89494896D01*
X147118386Y-89609202D01*
X147133810Y-89621860D01*
X147310313Y-89716202D01*
X147501829Y-89774298D01*
X147701000Y-89793915D01*
X147750902Y-89789000D01*
X149352001Y-89789000D01*
X149352000Y-91046928D01*
X148595000Y-91046928D01*
X148470518Y-91059188D01*
X148350820Y-91095498D01*
X148240506Y-91154463D01*
X148143815Y-91233815D01*
X148064463Y-91330506D01*
X148005498Y-91440820D01*
X147969188Y-91560518D01*
X147958504Y-91669000D01*
X147097902Y-91669000D01*
X147048000Y-91664085D01*
X146998098Y-91669000D01*
X146848829Y-91683702D01*
X146657313Y-91741798D01*
X146480810Y-91836140D01*
X146326104Y-91963104D01*
X146294292Y-92001867D01*
X144409232Y-93886928D01*
X144145500Y-93886928D01*
X143972246Y-93903992D01*
X143805650Y-93954528D01*
X143652114Y-94036595D01*
X143517538Y-94147038D01*
X143407095Y-94281614D01*
X143325028Y-94435150D01*
X143274492Y-94601746D01*
X143257428Y-94775000D01*
X143257428Y-94934425D01*
X143246931Y-94954063D01*
X143226499Y-94992290D01*
X143221185Y-94985815D01*
X143124494Y-94906463D01*
X143014180Y-94847498D01*
X142894482Y-94811188D01*
X142770000Y-94798928D01*
X140230000Y-94798928D01*
X140105518Y-94811188D01*
X139985820Y-94847498D01*
X139938110Y-94873000D01*
X139476454Y-94873000D01*
X139428256Y-94840795D01*
X139361918Y-94813317D01*
X140297743Y-93877493D01*
X140331659Y-93849659D01*
X140363008Y-93811461D01*
X140394206Y-93773446D01*
X140442753Y-93714291D01*
X140525303Y-93559851D01*
X140576136Y-93392274D01*
X140589000Y-93261667D01*
X140589000Y-93261660D01*
X140593300Y-93218000D01*
X140589000Y-93174340D01*
X140589000Y-92761803D01*
X140684250Y-92761000D01*
X140843000Y-92602250D01*
X140843000Y-91478000D01*
X140823000Y-91478000D01*
X140823000Y-91224000D01*
X140843000Y-91224000D01*
X140843000Y-90099750D01*
X140684250Y-89941000D01*
X140320000Y-89937928D01*
X140195518Y-89950188D01*
X140075820Y-89986498D01*
X139965506Y-90045463D01*
X139868815Y-90124815D01*
X139789463Y-90221506D01*
X139730498Y-90331820D01*
X139708299Y-90405000D01*
X139598061Y-90405000D01*
X139398102Y-90444774D01*
X139209744Y-90522795D01*
X139040226Y-90636063D01*
X138896063Y-90780226D01*
X138782795Y-90949744D01*
X138704774Y-91138102D01*
X138665000Y-91338061D01*
X138665000Y-91541939D01*
X138704774Y-91741898D01*
X138782795Y-91930256D01*
X138811001Y-91972469D01*
X138811000Y-92849764D01*
X138315765Y-93345000D01*
X135679659Y-93345000D01*
X135635999Y-93340700D01*
X135592339Y-93345000D01*
X135592333Y-93345000D01*
X135480073Y-93356057D01*
X135461725Y-93357864D01*
X135427866Y-93368135D01*
X135294149Y-93408697D01*
X135139709Y-93491247D01*
X135004341Y-93602341D01*
X134976498Y-93636268D01*
X134871265Y-93741500D01*
X134837342Y-93769340D01*
X134726248Y-93904708D01*
X134643698Y-94059148D01*
X134592865Y-94226725D01*
X134580001Y-94357332D01*
X134580001Y-94357339D01*
X134575701Y-94400999D01*
X134580001Y-94444659D01*
X134580001Y-95677000D01*
X134403212Y-95677000D01*
X134183933Y-95720617D01*
X133977376Y-95806176D01*
X133791480Y-95930388D01*
X133753395Y-95968473D01*
X133586256Y-95856795D01*
X133565675Y-95848270D01*
X133583226Y-95805898D01*
X133623000Y-95605939D01*
X133623000Y-95402061D01*
X133583226Y-95202102D01*
X133505205Y-95013744D01*
X133391937Y-94844226D01*
X133247774Y-94700063D01*
X133078256Y-94586795D01*
X132889898Y-94508774D01*
X132689939Y-94469000D01*
X132486061Y-94469000D01*
X132286102Y-94508774D01*
X132097744Y-94586795D01*
X132055532Y-94615000D01*
X129654236Y-94615000D01*
X128767130Y-93727895D01*
X128757226Y-93678102D01*
X128679205Y-93489744D01*
X128565937Y-93320226D01*
X128421774Y-93176063D01*
X128303683Y-93097158D01*
X128445133Y-92955708D01*
X128483896Y-92923896D01*
X128610860Y-92769190D01*
X128705202Y-92592687D01*
X128763298Y-92401171D01*
X128778000Y-92251902D01*
X128778000Y-92251901D01*
X128782915Y-92202000D01*
X128778000Y-92152098D01*
X128778000Y-90746107D01*
X128840487Y-90683620D01*
X128862498Y-90756180D01*
X128921463Y-90866494D01*
X129000815Y-90963185D01*
X129097506Y-91042537D01*
X129207820Y-91101502D01*
X129327518Y-91137812D01*
X129452000Y-91150072D01*
X130016250Y-91147000D01*
X130175000Y-90988250D01*
X130175000Y-89789000D01*
X130155000Y-89789000D01*
X130155000Y-89535000D01*
X130175000Y-89535000D01*
X130175000Y-89515000D01*
X130429000Y-89515000D01*
X130429000Y-89535000D01*
X130449000Y-89535000D01*
X130449000Y-89789000D01*
X130429000Y-89789000D01*
X130429000Y-90988250D01*
X130587750Y-91147000D01*
X131152000Y-91150072D01*
X131276482Y-91137812D01*
X131396180Y-91101502D01*
X131506494Y-91042537D01*
X131603185Y-90963185D01*
X131682537Y-90866494D01*
X131741502Y-90756180D01*
X131750633Y-90726079D01*
X131762698Y-90765852D01*
X131845248Y-90920291D01*
X131926957Y-91019853D01*
X131956342Y-91055659D01*
X131990259Y-91083494D01*
X132855505Y-91948741D01*
X132883341Y-91982659D01*
X133018709Y-92093753D01*
X133173149Y-92176303D01*
X133257859Y-92201999D01*
X133340725Y-92227136D01*
X133357325Y-92228771D01*
X133471333Y-92240000D01*
X133471340Y-92240000D01*
X133515000Y-92244300D01*
X133558660Y-92240000D01*
X135193156Y-92240000D01*
X135194188Y-92250482D01*
X135230498Y-92370180D01*
X135289463Y-92480494D01*
X135368815Y-92577185D01*
X135465506Y-92656537D01*
X135575820Y-92715502D01*
X135695518Y-92751812D01*
X135820000Y-92764072D01*
X137120000Y-92764072D01*
X137244482Y-92751812D01*
X137364180Y-92715502D01*
X137474494Y-92656537D01*
X137571185Y-92577185D01*
X137650537Y-92480494D01*
X137709502Y-92370180D01*
X137745812Y-92250482D01*
X137758072Y-92126000D01*
X137758072Y-90576000D01*
X137745812Y-90451518D01*
X137709502Y-90331820D01*
X137650537Y-90221506D01*
X137571185Y-90124815D01*
X137474494Y-90045463D01*
X137364180Y-89986498D01*
X137244482Y-89950188D01*
X137120000Y-89937928D01*
X135820000Y-89937928D01*
X135695518Y-89950188D01*
X135575820Y-89986498D01*
X135465506Y-90045463D01*
X135368815Y-90124815D01*
X135289463Y-90221506D01*
X135230498Y-90331820D01*
X135194188Y-90451518D01*
X135193156Y-90462000D01*
X134683711Y-90462000D01*
X134823937Y-90321774D01*
X134937205Y-90152256D01*
X135015226Y-89963898D01*
X135055000Y-89763939D01*
X135055000Y-89560061D01*
X135015226Y-89360102D01*
X134937205Y-89171744D01*
X134909000Y-89129532D01*
X134909000Y-87581668D01*
X134913301Y-87538000D01*
X134896136Y-87363725D01*
X134870413Y-87278928D01*
X134845303Y-87196149D01*
X134762753Y-87041709D01*
X134651659Y-86906341D01*
X134617743Y-86878507D01*
X134488080Y-86748844D01*
X134515000Y-86751072D01*
X134639482Y-86738812D01*
X134759180Y-86702502D01*
X134869494Y-86643537D01*
X134966185Y-86564185D01*
X135045537Y-86467494D01*
X135104502Y-86357180D01*
X135140812Y-86237482D01*
X135153072Y-86113000D01*
X135153072Y-85090000D01*
X132842000Y-85090000D01*
X132842000Y-85110000D01*
X132588000Y-85110000D01*
X132588000Y-85090000D01*
X130276928Y-85090000D01*
X130276928Y-85350259D01*
X130149939Y-85325000D01*
X129946061Y-85325000D01*
X129746102Y-85364774D01*
X129557744Y-85442795D01*
X129388226Y-85556063D01*
X129344527Y-85599762D01*
X129353072Y-85513000D01*
X129353072Y-85040978D01*
X129981050Y-84413000D01*
X130276928Y-84413000D01*
X130276928Y-84836000D01*
X132588000Y-84836000D01*
X132588000Y-83487294D01*
X130810102Y-83783610D01*
X130670820Y-83823498D01*
X130560506Y-83882463D01*
X130463815Y-83961815D01*
X130384463Y-84058506D01*
X130325498Y-84168820D01*
X130289188Y-84288518D01*
X130276928Y-84413000D01*
X129981050Y-84413000D01*
X130949090Y-83444960D01*
X132842000Y-83444960D01*
X132842000Y-84836000D01*
X135153072Y-84836000D01*
X135153072Y-83813000D01*
X135144390Y-83708102D01*
X135111832Y-83587329D01*
X135056338Y-83475229D01*
X134980041Y-83376110D01*
X134885872Y-83293779D01*
X134777451Y-83231403D01*
X134658944Y-83191376D01*
X134534905Y-83175239D01*
X134410102Y-83183610D01*
X132842000Y-83444960D01*
X130949090Y-83444960D01*
X132109755Y-82284296D01*
X132263745Y-82331008D01*
X132436999Y-82348072D01*
X133237001Y-82348072D01*
X133410255Y-82331008D01*
X133576851Y-82280472D01*
X133730387Y-82198405D01*
X133864962Y-82087962D01*
X133975405Y-81953387D01*
X134057472Y-81799851D01*
X134108008Y-81633255D01*
X134125072Y-81460001D01*
X134125072Y-78559999D01*
X134108008Y-78386745D01*
X134057472Y-78220149D01*
X133975405Y-78066613D01*
X133864962Y-77932038D01*
X133858549Y-77926775D01*
X133907745Y-77921929D01*
X134055582Y-77877084D01*
X134191829Y-77804258D01*
X134239000Y-77765546D01*
X134286171Y-77804258D01*
X134422418Y-77877084D01*
X134570255Y-77921929D01*
X134724000Y-77937072D01*
X135024000Y-77937072D01*
X135177745Y-77921929D01*
X135325582Y-77877084D01*
X135461829Y-77804258D01*
X135509000Y-77765546D01*
X135556171Y-77804258D01*
G37*
G04 #@! TD.AperFunction*
D32*
X146685000Y-95123000D02*
X146705000Y-95123000D01*
X146705000Y-95377000D01*
X146685000Y-95377000D01*
X146685000Y-95397000D01*
X146431000Y-95397000D01*
X146431000Y-95377000D01*
X146411000Y-95377000D01*
X146411000Y-95123000D01*
X146431000Y-95123000D01*
X146431000Y-95103000D01*
X146685000Y-95103000D01*
X146685000Y-95123000D01*
G04 #@! TA.AperFunction,Conductor*
D36*
G36*
X146685000Y-95123000D02*
G01*
X146705000Y-95123000D01*
X146705000Y-95377000D01*
X146685000Y-95377000D01*
X146685000Y-95397000D01*
X146431000Y-95397000D01*
X146431000Y-95377000D01*
X146411000Y-95377000D01*
X146411000Y-95123000D01*
X146431000Y-95123000D01*
X146431000Y-95103000D01*
X146685000Y-95103000D01*
X146685000Y-95123000D01*
G37*
G04 #@! TD.AperFunction*
D32*
X118274987Y-80751038D02*
X118089038Y-80936987D01*
X117942939Y-81155641D01*
X117842304Y-81398595D01*
X117791000Y-81656514D01*
X117791000Y-81919486D01*
X117842304Y-82177405D01*
X117942939Y-82420359D01*
X118089038Y-82639013D01*
X118274987Y-82824962D01*
X118493641Y-82971061D01*
X118526707Y-82984758D01*
X120639863Y-85097914D01*
X120679630Y-85146370D01*
X120707001Y-85168833D01*
X120623506Y-85213463D01*
X120526815Y-85292815D01*
X120447463Y-85389506D01*
X120388498Y-85499820D01*
X120352188Y-85619518D01*
X120339928Y-85744000D01*
X120343000Y-86158250D01*
X120501750Y-86317000D01*
X121351000Y-86317000D01*
X121351000Y-86297000D01*
X121605000Y-86297000D01*
X121605000Y-86317000D01*
X121625000Y-86317000D01*
X121625000Y-86571000D01*
X121605000Y-86571000D01*
X121605000Y-86591000D01*
X121351000Y-86591000D01*
X121351000Y-86571000D01*
X120501750Y-86571000D01*
X120343000Y-86729750D01*
X120341033Y-86995000D01*
X114343659Y-86995000D01*
X114299999Y-86990700D01*
X114256339Y-86995000D01*
X114256333Y-86995000D01*
X114158924Y-87004594D01*
X114125724Y-87007864D01*
X114025891Y-87038148D01*
X113958149Y-87058697D01*
X113803709Y-87141247D01*
X113668341Y-87252341D01*
X113640506Y-87286259D01*
X112178260Y-88748505D01*
X112144342Y-88776341D01*
X112116507Y-88810258D01*
X112116505Y-88810260D01*
X112033248Y-88911709D01*
X111950698Y-89066148D01*
X111899864Y-89233726D01*
X111883088Y-89404056D01*
X111761641Y-89149080D01*
X111587588Y-88915731D01*
X111371355Y-88720822D01*
X111245745Y-88646000D01*
X111371355Y-88571178D01*
X111587588Y-88376269D01*
X111761641Y-88142920D01*
X111886825Y-87880099D01*
X111931476Y-87732890D01*
X111810155Y-87503000D01*
X110617000Y-87503000D01*
X110617000Y-89789000D01*
X110637000Y-89789000D01*
X110637000Y-90043000D01*
X110617000Y-90043000D01*
X110617000Y-90063000D01*
X110363000Y-90063000D01*
X110363000Y-90043000D01*
X110343000Y-90043000D01*
X110343000Y-89789000D01*
X110363000Y-89789000D01*
X110363000Y-87503000D01*
X110343000Y-87503000D01*
X110343000Y-87249000D01*
X110363000Y-87249000D01*
X110363000Y-87229000D01*
X110617000Y-87229000D01*
X110617000Y-87249000D01*
X111810155Y-87249000D01*
X111931476Y-87019110D01*
X111886825Y-86871901D01*
X111761641Y-86609080D01*
X111587588Y-86375731D01*
X111371355Y-86180822D01*
X111254466Y-86111195D01*
X111436632Y-85989475D01*
X111643475Y-85782632D01*
X111805990Y-85539411D01*
X111917932Y-85269158D01*
X111975000Y-84982260D01*
X111975000Y-84689740D01*
X111917932Y-84402842D01*
X111805990Y-84132589D01*
X111643475Y-83889368D01*
X111447107Y-83693000D01*
X112961375Y-83693000D01*
X113030000Y-83699759D01*
X113098625Y-83693000D01*
X113303860Y-83672786D01*
X113567195Y-83592904D01*
X113809887Y-83463183D01*
X114022608Y-83288608D01*
X114066364Y-83235291D01*
X116656656Y-80645000D01*
X118433685Y-80645000D01*
X118274987Y-80751038D01*
G04 #@! TA.AperFunction,Conductor*
D36*
G36*
X118274987Y-80751038D02*
G01*
X118089038Y-80936987D01*
X117942939Y-81155641D01*
X117842304Y-81398595D01*
X117791000Y-81656514D01*
X117791000Y-81919486D01*
X117842304Y-82177405D01*
X117942939Y-82420359D01*
X118089038Y-82639013D01*
X118274987Y-82824962D01*
X118493641Y-82971061D01*
X118526707Y-82984758D01*
X120639863Y-85097914D01*
X120679630Y-85146370D01*
X120707001Y-85168833D01*
X120623506Y-85213463D01*
X120526815Y-85292815D01*
X120447463Y-85389506D01*
X120388498Y-85499820D01*
X120352188Y-85619518D01*
X120339928Y-85744000D01*
X120343000Y-86158250D01*
X120501750Y-86317000D01*
X121351000Y-86317000D01*
X121351000Y-86297000D01*
X121605000Y-86297000D01*
X121605000Y-86317000D01*
X121625000Y-86317000D01*
X121625000Y-86571000D01*
X121605000Y-86571000D01*
X121605000Y-86591000D01*
X121351000Y-86591000D01*
X121351000Y-86571000D01*
X120501750Y-86571000D01*
X120343000Y-86729750D01*
X120341033Y-86995000D01*
X114343659Y-86995000D01*
X114299999Y-86990700D01*
X114256339Y-86995000D01*
X114256333Y-86995000D01*
X114158924Y-87004594D01*
X114125724Y-87007864D01*
X114025891Y-87038148D01*
X113958149Y-87058697D01*
X113803709Y-87141247D01*
X113668341Y-87252341D01*
X113640506Y-87286259D01*
X112178260Y-88748505D01*
X112144342Y-88776341D01*
X112116507Y-88810258D01*
X112116505Y-88810260D01*
X112033248Y-88911709D01*
X111950698Y-89066148D01*
X111899864Y-89233726D01*
X111883088Y-89404056D01*
X111761641Y-89149080D01*
X111587588Y-88915731D01*
X111371355Y-88720822D01*
X111245745Y-88646000D01*
X111371355Y-88571178D01*
X111587588Y-88376269D01*
X111761641Y-88142920D01*
X111886825Y-87880099D01*
X111931476Y-87732890D01*
X111810155Y-87503000D01*
X110617000Y-87503000D01*
X110617000Y-89789000D01*
X110637000Y-89789000D01*
X110637000Y-90043000D01*
X110617000Y-90043000D01*
X110617000Y-90063000D01*
X110363000Y-90063000D01*
X110363000Y-90043000D01*
X110343000Y-90043000D01*
X110343000Y-89789000D01*
X110363000Y-89789000D01*
X110363000Y-87503000D01*
X110343000Y-87503000D01*
X110343000Y-87249000D01*
X110363000Y-87249000D01*
X110363000Y-87229000D01*
X110617000Y-87229000D01*
X110617000Y-87249000D01*
X111810155Y-87249000D01*
X111931476Y-87019110D01*
X111886825Y-86871901D01*
X111761641Y-86609080D01*
X111587588Y-86375731D01*
X111371355Y-86180822D01*
X111254466Y-86111195D01*
X111436632Y-85989475D01*
X111643475Y-85782632D01*
X111805990Y-85539411D01*
X111917932Y-85269158D01*
X111975000Y-84982260D01*
X111975000Y-84689740D01*
X111917932Y-84402842D01*
X111805990Y-84132589D01*
X111643475Y-83889368D01*
X111447107Y-83693000D01*
X112961375Y-83693000D01*
X113030000Y-83699759D01*
X113098625Y-83693000D01*
X113303860Y-83672786D01*
X113567195Y-83592904D01*
X113809887Y-83463183D01*
X114022608Y-83288608D01*
X114066364Y-83235291D01*
X116656656Y-80645000D01*
X118433685Y-80645000D01*
X118274987Y-80751038D01*
G37*
G04 #@! TD.AperFunction*
D32*
X131457507Y-64308504D02*
X131409000Y-64547000D01*
X131409000Y-64878268D01*
X131373338Y-64806229D01*
X131297041Y-64707110D01*
X131202872Y-64624779D01*
X131094451Y-64562403D01*
X130975944Y-64522376D01*
X130851905Y-64506239D01*
X130727102Y-64514610D01*
X127127102Y-65114610D01*
X126987820Y-65154498D01*
X126877506Y-65213463D01*
X126780815Y-65292815D01*
X126701463Y-65389506D01*
X126642498Y-65499820D01*
X126606188Y-65619518D01*
X126593928Y-65744000D01*
X126593928Y-66844000D01*
X126610376Y-66987944D01*
X126650403Y-67106451D01*
X126712779Y-67214872D01*
X126795110Y-67309041D01*
X126894229Y-67385338D01*
X127006329Y-67440832D01*
X127127102Y-67473390D01*
X129104039Y-67802879D01*
X129618865Y-68317706D01*
X129618871Y-68317711D01*
X130126866Y-68825706D01*
X130242811Y-68920859D01*
X130317909Y-68961000D01*
X128868128Y-68961000D01*
X128843502Y-68879820D01*
X128784537Y-68769506D01*
X128705185Y-68672815D01*
X128608494Y-68593463D01*
X128498180Y-68534498D01*
X128378482Y-68498188D01*
X128254000Y-68485928D01*
X126254000Y-68485928D01*
X126129518Y-68498188D01*
X126009820Y-68534498D01*
X125899506Y-68593463D01*
X125802815Y-68672815D01*
X125723463Y-68769506D01*
X125664498Y-68879820D01*
X125628188Y-68999518D01*
X125615928Y-69124000D01*
X125615928Y-70511500D01*
X123674579Y-70511500D01*
X123659942Y-70499488D01*
X123508567Y-70418577D01*
X123344316Y-70368752D01*
X123173500Y-70351928D01*
X122698500Y-70351928D01*
X122527684Y-70368752D01*
X122363433Y-70418577D01*
X122212058Y-70499488D01*
X122079377Y-70608377D01*
X121970488Y-70741058D01*
X121889577Y-70892433D01*
X121839752Y-71056684D01*
X121822928Y-71227500D01*
X121822928Y-71827500D01*
X121839752Y-71998316D01*
X121889577Y-72162567D01*
X121969774Y-72312606D01*
X121930463Y-72360506D01*
X121871498Y-72470820D01*
X121835188Y-72590518D01*
X121822928Y-72715000D01*
X121826000Y-72966750D01*
X121984750Y-73125500D01*
X122809000Y-73125500D01*
X122809000Y-73105500D01*
X123063000Y-73105500D01*
X123063000Y-73125500D01*
X123887250Y-73125500D01*
X124046000Y-72966750D01*
X124049072Y-72715000D01*
X124036812Y-72590518D01*
X124022549Y-72543500D01*
X125615928Y-72543500D01*
X125615928Y-73624000D01*
X125628188Y-73748482D01*
X125664498Y-73868180D01*
X125723463Y-73978494D01*
X125802815Y-74075185D01*
X125899506Y-74154537D01*
X126009820Y-74213502D01*
X126129518Y-74249812D01*
X126254000Y-74262072D01*
X127934693Y-74262072D01*
X126656264Y-75540501D01*
X126622341Y-75568341D01*
X126511247Y-75703710D01*
X126428697Y-75858150D01*
X126377864Y-76025727D01*
X126365000Y-76156334D01*
X126365000Y-76156340D01*
X126360700Y-76200000D01*
X126365000Y-76243660D01*
X126365000Y-76985928D01*
X126254000Y-76985928D01*
X126129518Y-76998188D01*
X126009820Y-77034498D01*
X125899506Y-77093463D01*
X125802815Y-77172815D01*
X125723463Y-77269506D01*
X125664498Y-77379820D01*
X125628188Y-77499518D01*
X125615928Y-77624000D01*
X125615928Y-78740000D01*
X124022549Y-78740000D01*
X124036812Y-78692982D01*
X124049072Y-78568500D01*
X124046000Y-78316750D01*
X123887250Y-78158000D01*
X123063000Y-78158000D01*
X123063000Y-78178000D01*
X122809000Y-78178000D01*
X122809000Y-78158000D01*
X121984750Y-78158000D01*
X121826000Y-78316750D01*
X121822928Y-78568500D01*
X121835188Y-78692982D01*
X121871498Y-78812680D01*
X121930463Y-78922994D01*
X121969774Y-78970894D01*
X121889577Y-79120933D01*
X121839752Y-79285184D01*
X121822928Y-79456000D01*
X121822928Y-80056000D01*
X121839752Y-80226816D01*
X121889577Y-80391067D01*
X121970488Y-80542442D01*
X122079377Y-80675123D01*
X122212058Y-80784012D01*
X122363433Y-80864923D01*
X122527684Y-80914748D01*
X122698500Y-80931572D01*
X123173500Y-80931572D01*
X123344316Y-80914748D01*
X123508567Y-80864923D01*
X123659942Y-80784012D01*
X123674579Y-80772000D01*
X125615928Y-80772000D01*
X125615928Y-82124000D01*
X125628188Y-82248482D01*
X125664498Y-82368180D01*
X125723463Y-82478494D01*
X125802815Y-82575185D01*
X125899506Y-82654537D01*
X126009820Y-82713502D01*
X126129518Y-82749812D01*
X126254000Y-82762072D01*
X128039877Y-82762072D01*
X127275705Y-83526245D01*
X125219898Y-83183610D01*
X125115000Y-83174928D01*
X124990518Y-83187188D01*
X124870820Y-83223498D01*
X124760506Y-83282463D01*
X124663815Y-83361815D01*
X124584463Y-83458506D01*
X124525498Y-83568820D01*
X124489188Y-83688518D01*
X124476928Y-83813000D01*
X124476928Y-85174000D01*
X124158665Y-85174000D01*
X124122180Y-85154498D01*
X124002482Y-85118188D01*
X123878000Y-85105928D01*
X123542453Y-85105928D01*
X123553812Y-85068482D01*
X123566072Y-84944000D01*
X123566072Y-84808936D01*
X123607003Y-84732359D01*
X123679623Y-84492963D01*
X123704144Y-84244000D01*
X123679623Y-83995037D01*
X123607003Y-83755641D01*
X123566072Y-83679064D01*
X123566072Y-83544000D01*
X123553812Y-83419518D01*
X123517502Y-83299820D01*
X123458537Y-83189506D01*
X123379185Y-83092815D01*
X123282494Y-83013463D01*
X123172180Y-82954498D01*
X123052482Y-82918188D01*
X122928000Y-82905928D01*
X122039979Y-82905928D01*
X120322758Y-81188707D01*
X120309061Y-81155641D01*
X120162962Y-80936987D01*
X119977013Y-80751038D01*
X119758359Y-80604939D01*
X119634463Y-80553620D01*
X119663195Y-80544904D01*
X119905887Y-80415183D01*
X120118608Y-80240608D01*
X120293183Y-80027887D01*
X120422904Y-79785195D01*
X120502786Y-79521860D01*
X120529759Y-79248000D01*
X120502786Y-78974140D01*
X120422904Y-78710805D01*
X120293183Y-78468113D01*
X120118608Y-78255392D01*
X119905887Y-78080817D01*
X119663195Y-77951096D01*
X119399860Y-77871214D01*
X119194625Y-77851000D01*
X116146625Y-77851000D01*
X116078000Y-77844241D01*
X116009375Y-77851000D01*
X115804140Y-77871214D01*
X115540805Y-77951096D01*
X115298113Y-78080817D01*
X115085392Y-78255392D01*
X115041641Y-78308703D01*
X112451345Y-80899000D01*
X111447107Y-80899000D01*
X111643475Y-80702632D01*
X111805990Y-80459411D01*
X111917932Y-80189158D01*
X111975000Y-79902260D01*
X111975000Y-79609740D01*
X111917932Y-79322842D01*
X111805990Y-79052589D01*
X111643475Y-78809368D01*
X111436632Y-78602525D01*
X111262240Y-78486000D01*
X111436632Y-78369475D01*
X111643475Y-78162632D01*
X111805990Y-77919411D01*
X111917932Y-77649158D01*
X111948894Y-77493500D01*
X121822928Y-77493500D01*
X121826000Y-77745250D01*
X121984750Y-77904000D01*
X122809000Y-77904000D01*
X122809000Y-77017250D01*
X123063000Y-77017250D01*
X123063000Y-77904000D01*
X123887250Y-77904000D01*
X124046000Y-77745250D01*
X124049072Y-77493500D01*
X124036812Y-77369018D01*
X124000502Y-77249320D01*
X123941537Y-77139006D01*
X123862185Y-77042315D01*
X123765494Y-76962963D01*
X123655180Y-76903998D01*
X123535482Y-76867688D01*
X123411000Y-76855428D01*
X123221750Y-76858500D01*
X123063000Y-77017250D01*
X122809000Y-77017250D01*
X122650250Y-76858500D01*
X122461000Y-76855428D01*
X122336518Y-76867688D01*
X122216820Y-76903998D01*
X122106506Y-76962963D01*
X122009815Y-77042315D01*
X121930463Y-77139006D01*
X121871498Y-77249320D01*
X121835188Y-77369018D01*
X121822928Y-77493500D01*
X111948894Y-77493500D01*
X111975000Y-77362260D01*
X111975000Y-77069740D01*
X111917932Y-76782842D01*
X111805990Y-76512589D01*
X111643475Y-76269368D01*
X111436632Y-76062525D01*
X111262240Y-75946000D01*
X111436632Y-75829475D01*
X111643475Y-75622632D01*
X111805990Y-75379411D01*
X111917932Y-75109158D01*
X111975000Y-74822260D01*
X111975000Y-74529740D01*
X111917932Y-74242842D01*
X111805990Y-73972589D01*
X111683988Y-73790000D01*
X121822928Y-73790000D01*
X121835188Y-73914482D01*
X121871498Y-74034180D01*
X121930463Y-74144494D01*
X122009815Y-74241185D01*
X122106506Y-74320537D01*
X122216820Y-74379502D01*
X122336518Y-74415812D01*
X122461000Y-74428072D01*
X122650250Y-74425000D01*
X122809000Y-74266250D01*
X122809000Y-73379500D01*
X123063000Y-73379500D01*
X123063000Y-74266250D01*
X123221750Y-74425000D01*
X123411000Y-74428072D01*
X123535482Y-74415812D01*
X123655180Y-74379502D01*
X123765494Y-74320537D01*
X123862185Y-74241185D01*
X123941537Y-74144494D01*
X124000502Y-74034180D01*
X124036812Y-73914482D01*
X124049072Y-73790000D01*
X124046000Y-73538250D01*
X123887250Y-73379500D01*
X123063000Y-73379500D01*
X122809000Y-73379500D01*
X121984750Y-73379500D01*
X121826000Y-73538250D01*
X121822928Y-73790000D01*
X111683988Y-73790000D01*
X111643475Y-73729368D01*
X111436632Y-73522525D01*
X111193411Y-73360010D01*
X110923158Y-73248068D01*
X110636260Y-73191000D01*
X110343740Y-73191000D01*
X110056842Y-73248068D01*
X109786589Y-73360010D01*
X109728000Y-73399158D01*
X109728000Y-73213630D01*
X110279559Y-72662072D01*
X111265000Y-72662072D01*
X111389482Y-72649812D01*
X111509180Y-72613502D01*
X111619494Y-72554537D01*
X111665233Y-72517000D01*
X117264767Y-72517000D01*
X117310506Y-72554537D01*
X117420820Y-72613502D01*
X117540518Y-72649812D01*
X117665000Y-72662072D01*
X119215000Y-72662072D01*
X119339482Y-72649812D01*
X119459180Y-72613502D01*
X119569494Y-72554537D01*
X119666185Y-72475185D01*
X119745537Y-72378494D01*
X119804502Y-72268180D01*
X119840812Y-72148482D01*
X119853072Y-72024000D01*
X119853072Y-70724000D01*
X119840812Y-70599518D01*
X119804502Y-70479820D01*
X119745537Y-70369506D01*
X119666185Y-70272815D01*
X119569494Y-70193463D01*
X119459180Y-70134498D01*
X119339482Y-70098188D01*
X119215000Y-70085928D01*
X117665000Y-70085928D01*
X117540518Y-70098188D01*
X117420820Y-70134498D01*
X117310506Y-70193463D01*
X117264767Y-70231000D01*
X111665233Y-70231000D01*
X111619494Y-70193463D01*
X111509180Y-70134498D01*
X111389482Y-70098188D01*
X111265000Y-70085928D01*
X109715000Y-70085928D01*
X109590518Y-70098188D01*
X109470820Y-70134498D01*
X109360506Y-70193463D01*
X109263815Y-70272815D01*
X109184463Y-70369506D01*
X109143000Y-70447077D01*
X109143000Y-67800923D01*
X109184463Y-67878494D01*
X109263815Y-67975185D01*
X109360506Y-68054537D01*
X109470820Y-68113502D01*
X109590518Y-68149812D01*
X109715000Y-68162072D01*
X110204250Y-68159000D01*
X110363000Y-68000250D01*
X110363000Y-67001000D01*
X110617000Y-67001000D01*
X110617000Y-68000250D01*
X110775750Y-68159000D01*
X111265000Y-68162072D01*
X111389482Y-68149812D01*
X111509180Y-68113502D01*
X111619494Y-68054537D01*
X111716185Y-67975185D01*
X111795537Y-67878494D01*
X111854502Y-67768180D01*
X111890812Y-67648482D01*
X111903072Y-67524000D01*
X117026928Y-67524000D01*
X117039188Y-67648482D01*
X117075498Y-67768180D01*
X117134463Y-67878494D01*
X117213815Y-67975185D01*
X117310506Y-68054537D01*
X117420820Y-68113502D01*
X117540518Y-68149812D01*
X117665000Y-68162072D01*
X118154250Y-68159000D01*
X118313000Y-68000250D01*
X118313000Y-67001000D01*
X118567000Y-67001000D01*
X118567000Y-68000250D01*
X118725750Y-68159000D01*
X119215000Y-68162072D01*
X119339482Y-68149812D01*
X119459180Y-68113502D01*
X119569494Y-68054537D01*
X119666185Y-67975185D01*
X119745537Y-67878494D01*
X119804502Y-67768180D01*
X119840812Y-67648482D01*
X119853072Y-67524000D01*
X119850000Y-67159750D01*
X119691250Y-67001000D01*
X118567000Y-67001000D01*
X118313000Y-67001000D01*
X117188750Y-67001000D01*
X117030000Y-67159750D01*
X117026928Y-67524000D01*
X111903072Y-67524000D01*
X111900000Y-67159750D01*
X111741250Y-67001000D01*
X110617000Y-67001000D01*
X110363000Y-67001000D01*
X110343000Y-67001000D01*
X110343000Y-66747000D01*
X110363000Y-66747000D01*
X110363000Y-65747750D01*
X110617000Y-65747750D01*
X110617000Y-66747000D01*
X111741250Y-66747000D01*
X111900000Y-66588250D01*
X111903072Y-66224000D01*
X117026928Y-66224000D01*
X117030000Y-66588250D01*
X117188750Y-66747000D01*
X118313000Y-66747000D01*
X118313000Y-65747750D01*
X118567000Y-65747750D01*
X118567000Y-66747000D01*
X119691250Y-66747000D01*
X119850000Y-66588250D01*
X119851410Y-66421000D01*
X120793928Y-66421000D01*
X120793928Y-67444000D01*
X120802610Y-67548898D01*
X120835168Y-67669671D01*
X120890662Y-67781771D01*
X120966959Y-67880890D01*
X121061128Y-67963221D01*
X121169549Y-68025597D01*
X121288056Y-68065624D01*
X121412095Y-68081761D01*
X121536898Y-68073390D01*
X123105000Y-67812040D01*
X123105000Y-66421000D01*
X123359000Y-66421000D01*
X123359000Y-67769706D01*
X125136898Y-67473390D01*
X125276180Y-67433502D01*
X125386494Y-67374537D01*
X125483185Y-67295185D01*
X125562537Y-67198494D01*
X125621502Y-67088180D01*
X125657812Y-66968482D01*
X125670072Y-66844000D01*
X125670072Y-66421000D01*
X123359000Y-66421000D01*
X123105000Y-66421000D01*
X120793928Y-66421000D01*
X119851410Y-66421000D01*
X119853072Y-66224000D01*
X119840812Y-66099518D01*
X119804502Y-65979820D01*
X119745537Y-65869506D01*
X119666185Y-65772815D01*
X119569494Y-65693463D01*
X119459180Y-65634498D01*
X119339482Y-65598188D01*
X119215000Y-65585928D01*
X118725750Y-65589000D01*
X118567000Y-65747750D01*
X118313000Y-65747750D01*
X118154250Y-65589000D01*
X117665000Y-65585928D01*
X117540518Y-65598188D01*
X117420820Y-65634498D01*
X117310506Y-65693463D01*
X117213815Y-65772815D01*
X117134463Y-65869506D01*
X117075498Y-65979820D01*
X117039188Y-66099518D01*
X117026928Y-66224000D01*
X111903072Y-66224000D01*
X111890812Y-66099518D01*
X111854502Y-65979820D01*
X111795537Y-65869506D01*
X111716185Y-65772815D01*
X111619494Y-65693463D01*
X111509180Y-65634498D01*
X111389482Y-65598188D01*
X111265000Y-65585928D01*
X110775750Y-65589000D01*
X110617000Y-65747750D01*
X110363000Y-65747750D01*
X110204250Y-65589000D01*
X109715000Y-65585928D01*
X109590518Y-65598188D01*
X109470820Y-65634498D01*
X109360506Y-65693463D01*
X109263815Y-65772815D01*
X109184463Y-65869506D01*
X109143000Y-65947077D01*
X109143000Y-65144000D01*
X120793928Y-65144000D01*
X120793928Y-66167000D01*
X123105000Y-66167000D01*
X123359000Y-66167000D01*
X125670072Y-66167000D01*
X125670072Y-65744000D01*
X125653624Y-65600056D01*
X125613597Y-65481549D01*
X125551221Y-65373128D01*
X125468890Y-65278959D01*
X125369771Y-65202662D01*
X125257671Y-65147168D01*
X125136898Y-65114610D01*
X123359000Y-64818294D01*
X123359000Y-66167000D01*
X123105000Y-66167000D01*
X123105000Y-64775960D01*
X121536898Y-64514610D01*
X121432000Y-64505928D01*
X121307518Y-64518188D01*
X121187820Y-64554498D01*
X121077506Y-64613463D01*
X120980815Y-64692815D01*
X120901463Y-64789506D01*
X120842498Y-64899820D01*
X120806188Y-65019518D01*
X120793928Y-65144000D01*
X109143000Y-65144000D01*
X109143000Y-64185000D01*
X131509287Y-64185000D01*
X131457507Y-64308504D01*
G04 #@! TA.AperFunction,Conductor*
D36*
G36*
X131457507Y-64308504D02*
G01*
X131409000Y-64547000D01*
X131409000Y-64878268D01*
X131373338Y-64806229D01*
X131297041Y-64707110D01*
X131202872Y-64624779D01*
X131094451Y-64562403D01*
X130975944Y-64522376D01*
X130851905Y-64506239D01*
X130727102Y-64514610D01*
X127127102Y-65114610D01*
X126987820Y-65154498D01*
X126877506Y-65213463D01*
X126780815Y-65292815D01*
X126701463Y-65389506D01*
X126642498Y-65499820D01*
X126606188Y-65619518D01*
X126593928Y-65744000D01*
X126593928Y-66844000D01*
X126610376Y-66987944D01*
X126650403Y-67106451D01*
X126712779Y-67214872D01*
X126795110Y-67309041D01*
X126894229Y-67385338D01*
X127006329Y-67440832D01*
X127127102Y-67473390D01*
X129104039Y-67802879D01*
X129618865Y-68317706D01*
X129618871Y-68317711D01*
X130126866Y-68825706D01*
X130242811Y-68920859D01*
X130317909Y-68961000D01*
X128868128Y-68961000D01*
X128843502Y-68879820D01*
X128784537Y-68769506D01*
X128705185Y-68672815D01*
X128608494Y-68593463D01*
X128498180Y-68534498D01*
X128378482Y-68498188D01*
X128254000Y-68485928D01*
X126254000Y-68485928D01*
X126129518Y-68498188D01*
X126009820Y-68534498D01*
X125899506Y-68593463D01*
X125802815Y-68672815D01*
X125723463Y-68769506D01*
X125664498Y-68879820D01*
X125628188Y-68999518D01*
X125615928Y-69124000D01*
X125615928Y-70511500D01*
X123674579Y-70511500D01*
X123659942Y-70499488D01*
X123508567Y-70418577D01*
X123344316Y-70368752D01*
X123173500Y-70351928D01*
X122698500Y-70351928D01*
X122527684Y-70368752D01*
X122363433Y-70418577D01*
X122212058Y-70499488D01*
X122079377Y-70608377D01*
X121970488Y-70741058D01*
X121889577Y-70892433D01*
X121839752Y-71056684D01*
X121822928Y-71227500D01*
X121822928Y-71827500D01*
X121839752Y-71998316D01*
X121889577Y-72162567D01*
X121969774Y-72312606D01*
X121930463Y-72360506D01*
X121871498Y-72470820D01*
X121835188Y-72590518D01*
X121822928Y-72715000D01*
X121826000Y-72966750D01*
X121984750Y-73125500D01*
X122809000Y-73125500D01*
X122809000Y-73105500D01*
X123063000Y-73105500D01*
X123063000Y-73125500D01*
X123887250Y-73125500D01*
X124046000Y-72966750D01*
X124049072Y-72715000D01*
X124036812Y-72590518D01*
X124022549Y-72543500D01*
X125615928Y-72543500D01*
X125615928Y-73624000D01*
X125628188Y-73748482D01*
X125664498Y-73868180D01*
X125723463Y-73978494D01*
X125802815Y-74075185D01*
X125899506Y-74154537D01*
X126009820Y-74213502D01*
X126129518Y-74249812D01*
X126254000Y-74262072D01*
X127934693Y-74262072D01*
X126656264Y-75540501D01*
X126622341Y-75568341D01*
X126511247Y-75703710D01*
X126428697Y-75858150D01*
X126377864Y-76025727D01*
X126365000Y-76156334D01*
X126365000Y-76156340D01*
X126360700Y-76200000D01*
X126365000Y-76243660D01*
X126365000Y-76985928D01*
X126254000Y-76985928D01*
X126129518Y-76998188D01*
X126009820Y-77034498D01*
X125899506Y-77093463D01*
X125802815Y-77172815D01*
X125723463Y-77269506D01*
X125664498Y-77379820D01*
X125628188Y-77499518D01*
X125615928Y-77624000D01*
X125615928Y-78740000D01*
X124022549Y-78740000D01*
X124036812Y-78692982D01*
X124049072Y-78568500D01*
X124046000Y-78316750D01*
X123887250Y-78158000D01*
X123063000Y-78158000D01*
X123063000Y-78178000D01*
X122809000Y-78178000D01*
X122809000Y-78158000D01*
X121984750Y-78158000D01*
X121826000Y-78316750D01*
X121822928Y-78568500D01*
X121835188Y-78692982D01*
X121871498Y-78812680D01*
X121930463Y-78922994D01*
X121969774Y-78970894D01*
X121889577Y-79120933D01*
X121839752Y-79285184D01*
X121822928Y-79456000D01*
X121822928Y-80056000D01*
X121839752Y-80226816D01*
X121889577Y-80391067D01*
X121970488Y-80542442D01*
X122079377Y-80675123D01*
X122212058Y-80784012D01*
X122363433Y-80864923D01*
X122527684Y-80914748D01*
X122698500Y-80931572D01*
X123173500Y-80931572D01*
X123344316Y-80914748D01*
X123508567Y-80864923D01*
X123659942Y-80784012D01*
X123674579Y-80772000D01*
X125615928Y-80772000D01*
X125615928Y-82124000D01*
X125628188Y-82248482D01*
X125664498Y-82368180D01*
X125723463Y-82478494D01*
X125802815Y-82575185D01*
X125899506Y-82654537D01*
X126009820Y-82713502D01*
X126129518Y-82749812D01*
X126254000Y-82762072D01*
X128039877Y-82762072D01*
X127275705Y-83526245D01*
X125219898Y-83183610D01*
X125115000Y-83174928D01*
X124990518Y-83187188D01*
X124870820Y-83223498D01*
X124760506Y-83282463D01*
X124663815Y-83361815D01*
X124584463Y-83458506D01*
X124525498Y-83568820D01*
X124489188Y-83688518D01*
X124476928Y-83813000D01*
X124476928Y-85174000D01*
X124158665Y-85174000D01*
X124122180Y-85154498D01*
X124002482Y-85118188D01*
X123878000Y-85105928D01*
X123542453Y-85105928D01*
X123553812Y-85068482D01*
X123566072Y-84944000D01*
X123566072Y-84808936D01*
X123607003Y-84732359D01*
X123679623Y-84492963D01*
X123704144Y-84244000D01*
X123679623Y-83995037D01*
X123607003Y-83755641D01*
X123566072Y-83679064D01*
X123566072Y-83544000D01*
X123553812Y-83419518D01*
X123517502Y-83299820D01*
X123458537Y-83189506D01*
X123379185Y-83092815D01*
X123282494Y-83013463D01*
X123172180Y-82954498D01*
X123052482Y-82918188D01*
X122928000Y-82905928D01*
X122039979Y-82905928D01*
X120322758Y-81188707D01*
X120309061Y-81155641D01*
X120162962Y-80936987D01*
X119977013Y-80751038D01*
X119758359Y-80604939D01*
X119634463Y-80553620D01*
X119663195Y-80544904D01*
X119905887Y-80415183D01*
X120118608Y-80240608D01*
X120293183Y-80027887D01*
X120422904Y-79785195D01*
X120502786Y-79521860D01*
X120529759Y-79248000D01*
X120502786Y-78974140D01*
X120422904Y-78710805D01*
X120293183Y-78468113D01*
X120118608Y-78255392D01*
X119905887Y-78080817D01*
X119663195Y-77951096D01*
X119399860Y-77871214D01*
X119194625Y-77851000D01*
X116146625Y-77851000D01*
X116078000Y-77844241D01*
X116009375Y-77851000D01*
X115804140Y-77871214D01*
X115540805Y-77951096D01*
X115298113Y-78080817D01*
X115085392Y-78255392D01*
X115041641Y-78308703D01*
X112451345Y-80899000D01*
X111447107Y-80899000D01*
X111643475Y-80702632D01*
X111805990Y-80459411D01*
X111917932Y-80189158D01*
X111975000Y-79902260D01*
X111975000Y-79609740D01*
X111917932Y-79322842D01*
X111805990Y-79052589D01*
X111643475Y-78809368D01*
X111436632Y-78602525D01*
X111262240Y-78486000D01*
X111436632Y-78369475D01*
X111643475Y-78162632D01*
X111805990Y-77919411D01*
X111917932Y-77649158D01*
X111948894Y-77493500D01*
X121822928Y-77493500D01*
X121826000Y-77745250D01*
X121984750Y-77904000D01*
X122809000Y-77904000D01*
X122809000Y-77017250D01*
X123063000Y-77017250D01*
X123063000Y-77904000D01*
X123887250Y-77904000D01*
X124046000Y-77745250D01*
X124049072Y-77493500D01*
X124036812Y-77369018D01*
X124000502Y-77249320D01*
X123941537Y-77139006D01*
X123862185Y-77042315D01*
X123765494Y-76962963D01*
X123655180Y-76903998D01*
X123535482Y-76867688D01*
X123411000Y-76855428D01*
X123221750Y-76858500D01*
X123063000Y-77017250D01*
X122809000Y-77017250D01*
X122650250Y-76858500D01*
X122461000Y-76855428D01*
X122336518Y-76867688D01*
X122216820Y-76903998D01*
X122106506Y-76962963D01*
X122009815Y-77042315D01*
X121930463Y-77139006D01*
X121871498Y-77249320D01*
X121835188Y-77369018D01*
X121822928Y-77493500D01*
X111948894Y-77493500D01*
X111975000Y-77362260D01*
X111975000Y-77069740D01*
X111917932Y-76782842D01*
X111805990Y-76512589D01*
X111643475Y-76269368D01*
X111436632Y-76062525D01*
X111262240Y-75946000D01*
X111436632Y-75829475D01*
X111643475Y-75622632D01*
X111805990Y-75379411D01*
X111917932Y-75109158D01*
X111975000Y-74822260D01*
X111975000Y-74529740D01*
X111917932Y-74242842D01*
X111805990Y-73972589D01*
X111683988Y-73790000D01*
X121822928Y-73790000D01*
X121835188Y-73914482D01*
X121871498Y-74034180D01*
X121930463Y-74144494D01*
X122009815Y-74241185D01*
X122106506Y-74320537D01*
X122216820Y-74379502D01*
X122336518Y-74415812D01*
X122461000Y-74428072D01*
X122650250Y-74425000D01*
X122809000Y-74266250D01*
X122809000Y-73379500D01*
X123063000Y-73379500D01*
X123063000Y-74266250D01*
X123221750Y-74425000D01*
X123411000Y-74428072D01*
X123535482Y-74415812D01*
X123655180Y-74379502D01*
X123765494Y-74320537D01*
X123862185Y-74241185D01*
X123941537Y-74144494D01*
X124000502Y-74034180D01*
X124036812Y-73914482D01*
X124049072Y-73790000D01*
X124046000Y-73538250D01*
X123887250Y-73379500D01*
X123063000Y-73379500D01*
X122809000Y-73379500D01*
X121984750Y-73379500D01*
X121826000Y-73538250D01*
X121822928Y-73790000D01*
X111683988Y-73790000D01*
X111643475Y-73729368D01*
X111436632Y-73522525D01*
X111193411Y-73360010D01*
X110923158Y-73248068D01*
X110636260Y-73191000D01*
X110343740Y-73191000D01*
X110056842Y-73248068D01*
X109786589Y-73360010D01*
X109728000Y-73399158D01*
X109728000Y-73213630D01*
X110279559Y-72662072D01*
X111265000Y-72662072D01*
X111389482Y-72649812D01*
X111509180Y-72613502D01*
X111619494Y-72554537D01*
X111665233Y-72517000D01*
X117264767Y-72517000D01*
X117310506Y-72554537D01*
X117420820Y-72613502D01*
X117540518Y-72649812D01*
X117665000Y-72662072D01*
X119215000Y-72662072D01*
X119339482Y-72649812D01*
X119459180Y-72613502D01*
X119569494Y-72554537D01*
X119666185Y-72475185D01*
X119745537Y-72378494D01*
X119804502Y-72268180D01*
X119840812Y-72148482D01*
X119853072Y-72024000D01*
X119853072Y-70724000D01*
X119840812Y-70599518D01*
X119804502Y-70479820D01*
X119745537Y-70369506D01*
X119666185Y-70272815D01*
X119569494Y-70193463D01*
X119459180Y-70134498D01*
X119339482Y-70098188D01*
X119215000Y-70085928D01*
X117665000Y-70085928D01*
X117540518Y-70098188D01*
X117420820Y-70134498D01*
X117310506Y-70193463D01*
X117264767Y-70231000D01*
X111665233Y-70231000D01*
X111619494Y-70193463D01*
X111509180Y-70134498D01*
X111389482Y-70098188D01*
X111265000Y-70085928D01*
X109715000Y-70085928D01*
X109590518Y-70098188D01*
X109470820Y-70134498D01*
X109360506Y-70193463D01*
X109263815Y-70272815D01*
X109184463Y-70369506D01*
X109143000Y-70447077D01*
X109143000Y-67800923D01*
X109184463Y-67878494D01*
X109263815Y-67975185D01*
X109360506Y-68054537D01*
X109470820Y-68113502D01*
X109590518Y-68149812D01*
X109715000Y-68162072D01*
X110204250Y-68159000D01*
X110363000Y-68000250D01*
X110363000Y-67001000D01*
X110617000Y-67001000D01*
X110617000Y-68000250D01*
X110775750Y-68159000D01*
X111265000Y-68162072D01*
X111389482Y-68149812D01*
X111509180Y-68113502D01*
X111619494Y-68054537D01*
X111716185Y-67975185D01*
X111795537Y-67878494D01*
X111854502Y-67768180D01*
X111890812Y-67648482D01*
X111903072Y-67524000D01*
X117026928Y-67524000D01*
X117039188Y-67648482D01*
X117075498Y-67768180D01*
X117134463Y-67878494D01*
X117213815Y-67975185D01*
X117310506Y-68054537D01*
X117420820Y-68113502D01*
X117540518Y-68149812D01*
X117665000Y-68162072D01*
X118154250Y-68159000D01*
X118313000Y-68000250D01*
X118313000Y-67001000D01*
X118567000Y-67001000D01*
X118567000Y-68000250D01*
X118725750Y-68159000D01*
X119215000Y-68162072D01*
X119339482Y-68149812D01*
X119459180Y-68113502D01*
X119569494Y-68054537D01*
X119666185Y-67975185D01*
X119745537Y-67878494D01*
X119804502Y-67768180D01*
X119840812Y-67648482D01*
X119853072Y-67524000D01*
X119850000Y-67159750D01*
X119691250Y-67001000D01*
X118567000Y-67001000D01*
X118313000Y-67001000D01*
X117188750Y-67001000D01*
X117030000Y-67159750D01*
X117026928Y-67524000D01*
X111903072Y-67524000D01*
X111900000Y-67159750D01*
X111741250Y-67001000D01*
X110617000Y-67001000D01*
X110363000Y-67001000D01*
X110343000Y-67001000D01*
X110343000Y-66747000D01*
X110363000Y-66747000D01*
X110363000Y-65747750D01*
X110617000Y-65747750D01*
X110617000Y-66747000D01*
X111741250Y-66747000D01*
X111900000Y-66588250D01*
X111903072Y-66224000D01*
X117026928Y-66224000D01*
X117030000Y-66588250D01*
X117188750Y-66747000D01*
X118313000Y-66747000D01*
X118313000Y-65747750D01*
X118567000Y-65747750D01*
X118567000Y-66747000D01*
X119691250Y-66747000D01*
X119850000Y-66588250D01*
X119851410Y-66421000D01*
X120793928Y-66421000D01*
X120793928Y-67444000D01*
X120802610Y-67548898D01*
X120835168Y-67669671D01*
X120890662Y-67781771D01*
X120966959Y-67880890D01*
X121061128Y-67963221D01*
X121169549Y-68025597D01*
X121288056Y-68065624D01*
X121412095Y-68081761D01*
X121536898Y-68073390D01*
X123105000Y-67812040D01*
X123105000Y-66421000D01*
X123359000Y-66421000D01*
X123359000Y-67769706D01*
X125136898Y-67473390D01*
X125276180Y-67433502D01*
X125386494Y-67374537D01*
X125483185Y-67295185D01*
X125562537Y-67198494D01*
X125621502Y-67088180D01*
X125657812Y-66968482D01*
X125670072Y-66844000D01*
X125670072Y-66421000D01*
X123359000Y-66421000D01*
X123105000Y-66421000D01*
X120793928Y-66421000D01*
X119851410Y-66421000D01*
X119853072Y-66224000D01*
X119840812Y-66099518D01*
X119804502Y-65979820D01*
X119745537Y-65869506D01*
X119666185Y-65772815D01*
X119569494Y-65693463D01*
X119459180Y-65634498D01*
X119339482Y-65598188D01*
X119215000Y-65585928D01*
X118725750Y-65589000D01*
X118567000Y-65747750D01*
X118313000Y-65747750D01*
X118154250Y-65589000D01*
X117665000Y-65585928D01*
X117540518Y-65598188D01*
X117420820Y-65634498D01*
X117310506Y-65693463D01*
X117213815Y-65772815D01*
X117134463Y-65869506D01*
X117075498Y-65979820D01*
X117039188Y-66099518D01*
X117026928Y-66224000D01*
X111903072Y-66224000D01*
X111890812Y-66099518D01*
X111854502Y-65979820D01*
X111795537Y-65869506D01*
X111716185Y-65772815D01*
X111619494Y-65693463D01*
X111509180Y-65634498D01*
X111389482Y-65598188D01*
X111265000Y-65585928D01*
X110775750Y-65589000D01*
X110617000Y-65747750D01*
X110363000Y-65747750D01*
X110204250Y-65589000D01*
X109715000Y-65585928D01*
X109590518Y-65598188D01*
X109470820Y-65634498D01*
X109360506Y-65693463D01*
X109263815Y-65772815D01*
X109184463Y-65869506D01*
X109143000Y-65947077D01*
X109143000Y-65144000D01*
X120793928Y-65144000D01*
X120793928Y-66167000D01*
X123105000Y-66167000D01*
X123359000Y-66167000D01*
X125670072Y-66167000D01*
X125670072Y-65744000D01*
X125653624Y-65600056D01*
X125613597Y-65481549D01*
X125551221Y-65373128D01*
X125468890Y-65278959D01*
X125369771Y-65202662D01*
X125257671Y-65147168D01*
X125136898Y-65114610D01*
X123359000Y-64818294D01*
X123359000Y-66167000D01*
X123105000Y-66167000D01*
X123105000Y-64775960D01*
X121536898Y-64514610D01*
X121432000Y-64505928D01*
X121307518Y-64518188D01*
X121187820Y-64554498D01*
X121077506Y-64613463D01*
X120980815Y-64692815D01*
X120901463Y-64789506D01*
X120842498Y-64899820D01*
X120806188Y-65019518D01*
X120793928Y-65144000D01*
X109143000Y-65144000D01*
X109143000Y-64185000D01*
X131509287Y-64185000D01*
X131457507Y-64308504D01*
G37*
G04 #@! TD.AperFunction*
D32*
X143146928Y-82893231D02*
X142255614Y-83784546D01*
X142255000Y-83686750D01*
X142096250Y-83528000D01*
X141097000Y-83528000D01*
X141097000Y-83548000D01*
X140843000Y-83548000D01*
X140843000Y-83528000D01*
X140823000Y-83528000D01*
X140823000Y-83274000D01*
X140843000Y-83274000D01*
X140843000Y-83254000D01*
X141097000Y-83254000D01*
X141097000Y-83274000D01*
X142096250Y-83274000D01*
X142255000Y-83115250D01*
X142256954Y-82804000D01*
X143146928Y-82804000D01*
X143146928Y-82893231D01*
G04 #@! TA.AperFunction,Conductor*
D36*
G36*
X143146928Y-82893231D02*
G01*
X142255614Y-83784546D01*
X142255000Y-83686750D01*
X142096250Y-83528000D01*
X141097000Y-83528000D01*
X141097000Y-83548000D01*
X140843000Y-83548000D01*
X140843000Y-83528000D01*
X140823000Y-83528000D01*
X140823000Y-83274000D01*
X140843000Y-83274000D01*
X140843000Y-83254000D01*
X141097000Y-83254000D01*
X141097000Y-83274000D01*
X142096250Y-83274000D01*
X142255000Y-83115250D01*
X142256954Y-82804000D01*
X143146928Y-82804000D01*
X143146928Y-82893231D01*
G37*
G04 #@! TD.AperFunction*
D32*
X139685000Y-83115250D02*
X139843748Y-83273998D01*
X139809037Y-83273998D01*
X139339746Y-82804708D01*
X139369981Y-82807686D01*
X139407404Y-82804000D01*
X139683046Y-82804000D01*
X139685000Y-83115250D01*
G04 #@! TA.AperFunction,Conductor*
D36*
G36*
X139685000Y-83115250D02*
G01*
X139843748Y-83273998D01*
X139809037Y-83273998D01*
X139339746Y-82804708D01*
X139369981Y-82807686D01*
X139407404Y-82804000D01*
X139683046Y-82804000D01*
X139685000Y-83115250D01*
G37*
G04 #@! TD.AperFunction*
D32*
X144901471Y-73914000D02*
X144923539Y-74138067D01*
X144976672Y-74313221D01*
X144988898Y-74353523D01*
X145095033Y-74552089D01*
X145237868Y-74726133D01*
X145281478Y-74761923D01*
X147776074Y-77256519D01*
X147775928Y-77257999D01*
X147775928Y-78058001D01*
X147792992Y-78231255D01*
X147843528Y-78397851D01*
X147925595Y-78551387D01*
X148036038Y-78685962D01*
X148078732Y-78721000D01*
X147980061Y-78721000D01*
X147780102Y-78760774D01*
X147591744Y-78838795D01*
X147422226Y-78952063D01*
X147278063Y-79096226D01*
X147164795Y-79265744D01*
X147086774Y-79454102D01*
X147047000Y-79654061D01*
X147047000Y-79857939D01*
X147086774Y-80057898D01*
X147112912Y-80121000D01*
X145666831Y-80121000D01*
X145664500Y-79787750D01*
X145505750Y-79629000D01*
X144569000Y-79629000D01*
X144569000Y-79649000D01*
X144315000Y-79649000D01*
X144315000Y-79629000D01*
X144295000Y-79629000D01*
X144295000Y-79375000D01*
X144315000Y-79375000D01*
X144315000Y-78300750D01*
X144224750Y-78210500D01*
X144272000Y-78163250D01*
X144272000Y-77089000D01*
X144526000Y-77089000D01*
X144526000Y-78163250D01*
X144616250Y-78253500D01*
X144569000Y-78300750D01*
X144569000Y-79375000D01*
X145505750Y-79375000D01*
X145664500Y-79216250D01*
X145667572Y-78777000D01*
X145655312Y-78652518D01*
X145619002Y-78532820D01*
X145560037Y-78422506D01*
X145480685Y-78325815D01*
X145383994Y-78246463D01*
X145335436Y-78220508D01*
X145340994Y-78217537D01*
X145437685Y-78138185D01*
X145517037Y-78041494D01*
X145576002Y-77931180D01*
X145612312Y-77811482D01*
X145624572Y-77687000D01*
X145621500Y-77247750D01*
X145462750Y-77089000D01*
X144526000Y-77089000D01*
X144272000Y-77089000D01*
X144252000Y-77089000D01*
X144252000Y-76835000D01*
X144272000Y-76835000D01*
X144272000Y-75760750D01*
X144526000Y-75760750D01*
X144526000Y-76835000D01*
X145462750Y-76835000D01*
X145621500Y-76676250D01*
X145624572Y-76237000D01*
X145612312Y-76112518D01*
X145576002Y-75992820D01*
X145517037Y-75882506D01*
X145437685Y-75785815D01*
X145340994Y-75706463D01*
X145230680Y-75647498D01*
X145110982Y-75611188D01*
X144986500Y-75598928D01*
X144684750Y-75602000D01*
X144526000Y-75760750D01*
X144272000Y-75760750D01*
X144113250Y-75602000D01*
X143811500Y-75598928D01*
X143788261Y-75601217D01*
X143783983Y-75593213D01*
X143705013Y-75496987D01*
X143608787Y-75418017D01*
X143499004Y-75359336D01*
X143379882Y-75323201D01*
X143256000Y-75311000D01*
X142113000Y-75311000D01*
X142113000Y-74338373D01*
X144905514Y-73872954D01*
X144901471Y-73914000D01*
G04 #@! TA.AperFunction,Conductor*
D36*
G36*
X144901471Y-73914000D02*
G01*
X144923539Y-74138067D01*
X144976672Y-74313221D01*
X144988898Y-74353523D01*
X145095033Y-74552089D01*
X145237868Y-74726133D01*
X145281478Y-74761923D01*
X147776074Y-77256519D01*
X147775928Y-77257999D01*
X147775928Y-78058001D01*
X147792992Y-78231255D01*
X147843528Y-78397851D01*
X147925595Y-78551387D01*
X148036038Y-78685962D01*
X148078732Y-78721000D01*
X147980061Y-78721000D01*
X147780102Y-78760774D01*
X147591744Y-78838795D01*
X147422226Y-78952063D01*
X147278063Y-79096226D01*
X147164795Y-79265744D01*
X147086774Y-79454102D01*
X147047000Y-79654061D01*
X147047000Y-79857939D01*
X147086774Y-80057898D01*
X147112912Y-80121000D01*
X145666831Y-80121000D01*
X145664500Y-79787750D01*
X145505750Y-79629000D01*
X144569000Y-79629000D01*
X144569000Y-79649000D01*
X144315000Y-79649000D01*
X144315000Y-79629000D01*
X144295000Y-79629000D01*
X144295000Y-79375000D01*
X144315000Y-79375000D01*
X144315000Y-78300750D01*
X144224750Y-78210500D01*
X144272000Y-78163250D01*
X144272000Y-77089000D01*
X144526000Y-77089000D01*
X144526000Y-78163250D01*
X144616250Y-78253500D01*
X144569000Y-78300750D01*
X144569000Y-79375000D01*
X145505750Y-79375000D01*
X145664500Y-79216250D01*
X145667572Y-78777000D01*
X145655312Y-78652518D01*
X145619002Y-78532820D01*
X145560037Y-78422506D01*
X145480685Y-78325815D01*
X145383994Y-78246463D01*
X145335436Y-78220508D01*
X145340994Y-78217537D01*
X145437685Y-78138185D01*
X145517037Y-78041494D01*
X145576002Y-77931180D01*
X145612312Y-77811482D01*
X145624572Y-77687000D01*
X145621500Y-77247750D01*
X145462750Y-77089000D01*
X144526000Y-77089000D01*
X144272000Y-77089000D01*
X144252000Y-77089000D01*
X144252000Y-76835000D01*
X144272000Y-76835000D01*
X144272000Y-75760750D01*
X144526000Y-75760750D01*
X144526000Y-76835000D01*
X145462750Y-76835000D01*
X145621500Y-76676250D01*
X145624572Y-76237000D01*
X145612312Y-76112518D01*
X145576002Y-75992820D01*
X145517037Y-75882506D01*
X145437685Y-75785815D01*
X145340994Y-75706463D01*
X145230680Y-75647498D01*
X145110982Y-75611188D01*
X144986500Y-75598928D01*
X144684750Y-75602000D01*
X144526000Y-75760750D01*
X144272000Y-75760750D01*
X144113250Y-75602000D01*
X143811500Y-75598928D01*
X143788261Y-75601217D01*
X143783983Y-75593213D01*
X143705013Y-75496987D01*
X143608787Y-75418017D01*
X143499004Y-75359336D01*
X143379882Y-75323201D01*
X143256000Y-75311000D01*
X142113000Y-75311000D01*
X142113000Y-74338373D01*
X144905514Y-73872954D01*
X144901471Y-73914000D01*
G37*
G04 #@! TD.AperFunction*
D32*
X139954000Y-78756000D02*
X139974000Y-78756000D01*
X139974000Y-79010000D01*
X139954000Y-79010000D01*
X139954000Y-79030000D01*
X139700000Y-79030000D01*
X139700000Y-79010000D01*
X139680000Y-79010000D01*
X139680000Y-78756000D01*
X139700000Y-78756000D01*
X139700000Y-78736000D01*
X139954000Y-78736000D01*
X139954000Y-78756000D01*
G04 #@! TA.AperFunction,Conductor*
D36*
G36*
X139954000Y-78756000D02*
G01*
X139974000Y-78756000D01*
X139974000Y-79010000D01*
X139954000Y-79010000D01*
X139954000Y-79030000D01*
X139700000Y-79030000D01*
X139700000Y-79010000D01*
X139680000Y-79010000D01*
X139680000Y-78756000D01*
X139700000Y-78756000D01*
X139700000Y-78736000D01*
X139954000Y-78736000D01*
X139954000Y-78756000D01*
G37*
G04 #@! TD.AperFunction*
D32*
X140081000Y-71247000D02*
X140101000Y-71247000D01*
X140101000Y-71501000D01*
X140081000Y-71501000D01*
X140081000Y-72825250D01*
X140239750Y-72984000D01*
X140254000Y-72987072D01*
X140378482Y-72974812D01*
X140498180Y-72938502D01*
X140608494Y-72879537D01*
X140705185Y-72800185D01*
X140784537Y-72703494D01*
X140843502Y-72593180D01*
X140859928Y-72539031D01*
X140859928Y-73533000D01*
X139646461Y-73533000D01*
X139679226Y-73453898D01*
X139719000Y-73253939D01*
X139719000Y-73050061D01*
X139699620Y-72952630D01*
X139827000Y-72825250D01*
X139827000Y-71501000D01*
X139807000Y-71501000D01*
X139807000Y-71247000D01*
X139827000Y-71247000D01*
X139827000Y-71227000D01*
X140081000Y-71227000D01*
X140081000Y-71247000D01*
G04 #@! TA.AperFunction,Conductor*
D36*
G36*
X140081000Y-71247000D02*
G01*
X140101000Y-71247000D01*
X140101000Y-71501000D01*
X140081000Y-71501000D01*
X140081000Y-72825250D01*
X140239750Y-72984000D01*
X140254000Y-72987072D01*
X140378482Y-72974812D01*
X140498180Y-72938502D01*
X140608494Y-72879537D01*
X140705185Y-72800185D01*
X140784537Y-72703494D01*
X140843502Y-72593180D01*
X140859928Y-72539031D01*
X140859928Y-73533000D01*
X139646461Y-73533000D01*
X139679226Y-73453898D01*
X139719000Y-73253939D01*
X139719000Y-73050061D01*
X139699620Y-72952630D01*
X139827000Y-72825250D01*
X139827000Y-71501000D01*
X139807000Y-71501000D01*
X139807000Y-71247000D01*
X139827000Y-71247000D01*
X139827000Y-71227000D01*
X140081000Y-71227000D01*
X140081000Y-71247000D01*
G37*
G04 #@! TD.AperFunction*
D32*
X131551610Y-65963946D02*
X131687693Y-66165725D01*
X131860526Y-66337078D01*
X132063467Y-66471421D01*
X132288718Y-66563591D01*
X132326391Y-66567462D01*
X132362735Y-66543679D01*
X132399820Y-66563502D01*
X132516998Y-66599048D01*
X132516998Y-66609000D01*
X132612808Y-66609000D01*
X132644000Y-66612072D01*
X132930909Y-66609267D01*
X132884472Y-66784867D01*
X133644000Y-67544395D01*
X133658143Y-67530253D01*
X133837748Y-67709858D01*
X133823605Y-67724000D01*
X133837748Y-67738143D01*
X133658143Y-67917748D01*
X133644000Y-67903605D01*
X133629858Y-67917748D01*
X133450253Y-67738143D01*
X133464395Y-67724000D01*
X132704867Y-66964472D01*
X132468550Y-67026965D01*
X132355150Y-67269678D01*
X132291281Y-67529849D01*
X132279396Y-67797482D01*
X132319952Y-68062291D01*
X132337639Y-68110999D01*
X131927782Y-68110999D01*
X131889302Y-67984148D01*
X131806751Y-67829709D01*
X131793214Y-67813214D01*
X131753201Y-67681312D01*
X131658859Y-67504811D01*
X131563706Y-67388866D01*
X131470072Y-67295232D01*
X131470072Y-65769465D01*
X131551610Y-65963946D01*
G04 #@! TA.AperFunction,Conductor*
D36*
G36*
X131551610Y-65963946D02*
G01*
X131687693Y-66165725D01*
X131860526Y-66337078D01*
X132063467Y-66471421D01*
X132288718Y-66563591D01*
X132326391Y-66567462D01*
X132362735Y-66543679D01*
X132399820Y-66563502D01*
X132516998Y-66599048D01*
X132516998Y-66609000D01*
X132612808Y-66609000D01*
X132644000Y-66612072D01*
X132930909Y-66609267D01*
X132884472Y-66784867D01*
X133644000Y-67544395D01*
X133658143Y-67530253D01*
X133837748Y-67709858D01*
X133823605Y-67724000D01*
X133837748Y-67738143D01*
X133658143Y-67917748D01*
X133644000Y-67903605D01*
X133629858Y-67917748D01*
X133450253Y-67738143D01*
X133464395Y-67724000D01*
X132704867Y-66964472D01*
X132468550Y-67026965D01*
X132355150Y-67269678D01*
X132291281Y-67529849D01*
X132279396Y-67797482D01*
X132319952Y-68062291D01*
X132337639Y-68110999D01*
X131927782Y-68110999D01*
X131889302Y-67984148D01*
X131806751Y-67829709D01*
X131793214Y-67813214D01*
X131753201Y-67681312D01*
X131658859Y-67504811D01*
X131563706Y-67388866D01*
X131470072Y-67295232D01*
X131470072Y-65769465D01*
X131551610Y-65963946D01*
G37*
G04 #@! TD.AperFunction*
D32*
X140225744Y-74323205D02*
X140414102Y-74401226D01*
X140614061Y-74441000D01*
X140817939Y-74441000D01*
X141017898Y-74401226D01*
X141170341Y-74338082D01*
X141205000Y-74358022D01*
X141205000Y-74523939D01*
X141244774Y-74723898D01*
X141277539Y-74803000D01*
X141244774Y-74882102D01*
X141205000Y-75082061D01*
X141205000Y-75285939D01*
X141244774Y-75485898D01*
X141322795Y-75674256D01*
X141351000Y-75716468D01*
X141351000Y-75731908D01*
X141285315Y-75785815D01*
X141205963Y-75882506D01*
X141146998Y-75992820D01*
X141110688Y-76112518D01*
X141098428Y-76237000D01*
X141101500Y-76676250D01*
X141260250Y-76835000D01*
X142197000Y-76835000D01*
X142197000Y-76815000D01*
X142451000Y-76815000D01*
X142451000Y-76835000D01*
X142471000Y-76835000D01*
X142471000Y-77089000D01*
X142451000Y-77089000D01*
X142451000Y-78163250D01*
X142541250Y-78253500D01*
X142494000Y-78300750D01*
X142494000Y-79375000D01*
X142514000Y-79375000D01*
X142514000Y-79629000D01*
X142494000Y-79629000D01*
X142494000Y-79649000D01*
X142240000Y-79649000D01*
X142240000Y-79629000D01*
X142220000Y-79629000D01*
X142220000Y-79375000D01*
X142240000Y-79375000D01*
X142240000Y-78300750D01*
X142149750Y-78210500D01*
X142197000Y-78163250D01*
X142197000Y-77089000D01*
X141260250Y-77089000D01*
X141101500Y-77247750D01*
X141100834Y-77343000D01*
X140994468Y-77343000D01*
X140952256Y-77314795D01*
X140892031Y-77289849D01*
X140889000Y-76609750D01*
X140730250Y-76451000D01*
X140081000Y-76451000D01*
X140081000Y-76471000D01*
X139827000Y-76471000D01*
X139827000Y-76451000D01*
X139807000Y-76451000D01*
X139807000Y-76197000D01*
X139827000Y-76197000D01*
X139827000Y-74872750D01*
X140081000Y-74872750D01*
X140081000Y-76197000D01*
X140730250Y-76197000D01*
X140889000Y-76038250D01*
X140892072Y-75349000D01*
X140879812Y-75224518D01*
X140843502Y-75104820D01*
X140784537Y-74994506D01*
X140705185Y-74897815D01*
X140608494Y-74818463D01*
X140498180Y-74759498D01*
X140378482Y-74723188D01*
X140254000Y-74710928D01*
X140239750Y-74714000D01*
X140081000Y-74872750D01*
X139827000Y-74872750D01*
X139668250Y-74714000D01*
X139654000Y-74710928D01*
X139573000Y-74718905D01*
X139573000Y-74700468D01*
X139601205Y-74658256D01*
X139679226Y-74469898D01*
X139714015Y-74295000D01*
X140183532Y-74295000D01*
X140225744Y-74323205D01*
G04 #@! TA.AperFunction,Conductor*
D36*
G36*
X140225744Y-74323205D02*
G01*
X140414102Y-74401226D01*
X140614061Y-74441000D01*
X140817939Y-74441000D01*
X141017898Y-74401226D01*
X141170341Y-74338082D01*
X141205000Y-74358022D01*
X141205000Y-74523939D01*
X141244774Y-74723898D01*
X141277539Y-74803000D01*
X141244774Y-74882102D01*
X141205000Y-75082061D01*
X141205000Y-75285939D01*
X141244774Y-75485898D01*
X141322795Y-75674256D01*
X141351000Y-75716468D01*
X141351000Y-75731908D01*
X141285315Y-75785815D01*
X141205963Y-75882506D01*
X141146998Y-75992820D01*
X141110688Y-76112518D01*
X141098428Y-76237000D01*
X141101500Y-76676250D01*
X141260250Y-76835000D01*
X142197000Y-76835000D01*
X142197000Y-76815000D01*
X142451000Y-76815000D01*
X142451000Y-76835000D01*
X142471000Y-76835000D01*
X142471000Y-77089000D01*
X142451000Y-77089000D01*
X142451000Y-78163250D01*
X142541250Y-78253500D01*
X142494000Y-78300750D01*
X142494000Y-79375000D01*
X142514000Y-79375000D01*
X142514000Y-79629000D01*
X142494000Y-79629000D01*
X142494000Y-79649000D01*
X142240000Y-79649000D01*
X142240000Y-79629000D01*
X142220000Y-79629000D01*
X142220000Y-79375000D01*
X142240000Y-79375000D01*
X142240000Y-78300750D01*
X142149750Y-78210500D01*
X142197000Y-78163250D01*
X142197000Y-77089000D01*
X141260250Y-77089000D01*
X141101500Y-77247750D01*
X141100834Y-77343000D01*
X140994468Y-77343000D01*
X140952256Y-77314795D01*
X140892031Y-77289849D01*
X140889000Y-76609750D01*
X140730250Y-76451000D01*
X140081000Y-76451000D01*
X140081000Y-76471000D01*
X139827000Y-76471000D01*
X139827000Y-76451000D01*
X139807000Y-76451000D01*
X139807000Y-76197000D01*
X139827000Y-76197000D01*
X139827000Y-74872750D01*
X140081000Y-74872750D01*
X140081000Y-76197000D01*
X140730250Y-76197000D01*
X140889000Y-76038250D01*
X140892072Y-75349000D01*
X140879812Y-75224518D01*
X140843502Y-75104820D01*
X140784537Y-74994506D01*
X140705185Y-74897815D01*
X140608494Y-74818463D01*
X140498180Y-74759498D01*
X140378482Y-74723188D01*
X140254000Y-74710928D01*
X140239750Y-74714000D01*
X140081000Y-74872750D01*
X139827000Y-74872750D01*
X139668250Y-74714000D01*
X139654000Y-74710928D01*
X139573000Y-74718905D01*
X139573000Y-74700468D01*
X139601205Y-74658256D01*
X139679226Y-74469898D01*
X139714015Y-74295000D01*
X140183532Y-74295000D01*
X140225744Y-74323205D01*
G37*
G04 #@! TD.AperFunction*
D32*
X118284664Y-111351170D02*
X118305535Y-111364743D01*
X118328654Y-111373982D01*
X118364000Y-111379000D01*
X119466024Y-111379000D01*
X119551072Y-111464048D01*
X119702901Y-111565496D01*
X119871604Y-111635376D01*
X120050699Y-111671000D01*
X120233301Y-111671000D01*
X120412396Y-111635376D01*
X120581099Y-111565496D01*
X120614767Y-111543000D01*
X121125163Y-111543000D01*
X121187350Y-111576239D01*
X121286690Y-111606374D01*
X121390000Y-111616549D01*
X123930000Y-111616549D01*
X124033310Y-111606374D01*
X124132650Y-111576239D01*
X124224202Y-111527304D01*
X124304448Y-111461448D01*
X124370304Y-111381202D01*
X124371481Y-111379000D01*
X129840721Y-111379000D01*
X129884001Y-111414519D01*
X130019678Y-111487040D01*
X130166897Y-111531699D01*
X130281640Y-111543000D01*
X130281643Y-111543000D01*
X130320000Y-111546778D01*
X130358357Y-111543000D01*
X139965163Y-111543000D01*
X140027350Y-111576239D01*
X140126690Y-111606374D01*
X140230000Y-111616549D01*
X142770000Y-111616549D01*
X142873310Y-111606374D01*
X142875000Y-111605861D01*
X142875000Y-111691000D01*
X112941628Y-111691000D01*
X112998524Y-111625976D01*
X114081501Y-110543000D01*
X117274451Y-110543000D01*
X118284664Y-111351170D01*
G04 #@! TA.AperFunction,Conductor*
D36*
G36*
X118284664Y-111351170D02*
G01*
X118305535Y-111364743D01*
X118328654Y-111373982D01*
X118364000Y-111379000D01*
X119466024Y-111379000D01*
X119551072Y-111464048D01*
X119702901Y-111565496D01*
X119871604Y-111635376D01*
X120050699Y-111671000D01*
X120233301Y-111671000D01*
X120412396Y-111635376D01*
X120581099Y-111565496D01*
X120614767Y-111543000D01*
X121125163Y-111543000D01*
X121187350Y-111576239D01*
X121286690Y-111606374D01*
X121390000Y-111616549D01*
X123930000Y-111616549D01*
X124033310Y-111606374D01*
X124132650Y-111576239D01*
X124224202Y-111527304D01*
X124304448Y-111461448D01*
X124370304Y-111381202D01*
X124371481Y-111379000D01*
X129840721Y-111379000D01*
X129884001Y-111414519D01*
X130019678Y-111487040D01*
X130166897Y-111531699D01*
X130281640Y-111543000D01*
X130281643Y-111543000D01*
X130320000Y-111546778D01*
X130358357Y-111543000D01*
X139965163Y-111543000D01*
X140027350Y-111576239D01*
X140126690Y-111606374D01*
X140230000Y-111616549D01*
X142770000Y-111616549D01*
X142873310Y-111606374D01*
X142875000Y-111605861D01*
X142875000Y-111691000D01*
X112941628Y-111691000D01*
X112998524Y-111625976D01*
X114081501Y-110543000D01*
X117274451Y-110543000D01*
X118284664Y-111351170D01*
G37*
G04 #@! TD.AperFunction*
D32*
X136271000Y-71247000D02*
X136291000Y-71247000D01*
X136291000Y-71501000D01*
X136271000Y-71501000D01*
X136271000Y-72825250D01*
X136408072Y-72962322D01*
X135583394Y-73787000D01*
X132153235Y-73787000D01*
X132931741Y-73008495D01*
X132965659Y-72980659D01*
X133000257Y-72938502D01*
X133053166Y-72874032D01*
X133152418Y-72927084D01*
X133300255Y-72971929D01*
X133454000Y-72987072D01*
X133754000Y-72987072D01*
X133907745Y-72971929D01*
X134055582Y-72927084D01*
X134191829Y-72854258D01*
X134239000Y-72815546D01*
X134286171Y-72854258D01*
X134422418Y-72927084D01*
X134570255Y-72971929D01*
X134724000Y-72987072D01*
X135024000Y-72987072D01*
X135177745Y-72971929D01*
X135325582Y-72927084D01*
X135459936Y-72855270D01*
X135489506Y-72879537D01*
X135599820Y-72938502D01*
X135719518Y-72974812D01*
X135844000Y-72987072D01*
X135858250Y-72984000D01*
X136017000Y-72825250D01*
X136017000Y-71501000D01*
X135997000Y-71501000D01*
X135997000Y-71247000D01*
X136017000Y-71247000D01*
X136017000Y-71227000D01*
X136271000Y-71227000D01*
X136271000Y-71247000D01*
G04 #@! TA.AperFunction,Conductor*
D36*
G36*
X136271000Y-71247000D02*
G01*
X136291000Y-71247000D01*
X136291000Y-71501000D01*
X136271000Y-71501000D01*
X136271000Y-72825250D01*
X136408072Y-72962322D01*
X135583394Y-73787000D01*
X132153235Y-73787000D01*
X132931741Y-73008495D01*
X132965659Y-72980659D01*
X133000257Y-72938502D01*
X133053166Y-72874032D01*
X133152418Y-72927084D01*
X133300255Y-72971929D01*
X133454000Y-72987072D01*
X133754000Y-72987072D01*
X133907745Y-72971929D01*
X134055582Y-72927084D01*
X134191829Y-72854258D01*
X134239000Y-72815546D01*
X134286171Y-72854258D01*
X134422418Y-72927084D01*
X134570255Y-72971929D01*
X134724000Y-72987072D01*
X135024000Y-72987072D01*
X135177745Y-72971929D01*
X135325582Y-72927084D01*
X135459936Y-72855270D01*
X135489506Y-72879537D01*
X135599820Y-72938502D01*
X135719518Y-72974812D01*
X135844000Y-72987072D01*
X135858250Y-72984000D01*
X136017000Y-72825250D01*
X136017000Y-71501000D01*
X135997000Y-71501000D01*
X135997000Y-71247000D01*
X136017000Y-71247000D01*
X136017000Y-71227000D01*
X136271000Y-71227000D01*
X136271000Y-71247000D01*
G37*
G04 #@! TD.AperFunction*
M02*
