G04 #@! TF.GenerationSoftware,KiCad,Pcbnew,5.1.9*
G04 #@! TF.CreationDate,2021-03-23T19:43:02+01:00*
G04 #@! TF.ProjectId,dwm1001-devboard,64776d31-3030-4312-9d64-6576626f6172,1*
G04 #@! TF.SameCoordinates,Original*
G04 #@! TF.FileFunction,Copper,L2,Bot*
G04 #@! TF.FilePolarity,Positive*
%FSLAX46Y46*%
G04 Gerber Fmt 4.6, Leading zero omitted, Abs format (unit mm)*
G04 Created by KiCad (PCBNEW 5.1.9) date 2021-03-23 19:43:02*
%MOMM*%
%LPD*%
G01*
G04 APERTURE LIST*
G04 #@! TA.AperFunction,EtchedComponent*
%ADD10C,0.010000*%
G04 #@! TD*
G04 #@! TA.AperFunction,ComponentPad*
%ADD11C,1.450000*%
G04 #@! TD*
G04 #@! TA.AperFunction,ComponentPad*
%ADD12O,1.200000X1.900000*%
G04 #@! TD*
G04 #@! TA.AperFunction,ComponentPad*
%ADD13O,1.700000X1.700000*%
G04 #@! TD*
G04 #@! TA.AperFunction,ComponentPad*
%ADD14R,1.700000X1.700000*%
G04 #@! TD*
G04 #@! TA.AperFunction,ComponentPad*
%ADD15C,1.400000*%
G04 #@! TD*
G04 #@! TA.AperFunction,ViaPad*
%ADD16C,0.800000*%
G04 #@! TD*
G04 #@! TA.AperFunction,Conductor*
%ADD17C,0.254000*%
G04 #@! TD*
G04 #@! TA.AperFunction,Conductor*
%ADD18C,0.508000*%
G04 #@! TD*
G04 #@! TA.AperFunction,Conductor*
%ADD19C,1.016000*%
G04 #@! TD*
G04 #@! TA.AperFunction,Conductor*
%ADD20C,0.762000*%
G04 #@! TD*
G04 #@! TA.AperFunction,Conductor*
%ADD21C,1.270000*%
G04 #@! TD*
G04 #@! TA.AperFunction,Conductor*
%ADD22C,0.100000*%
G04 #@! TD*
G04 APERTURE END LIST*
D10*
G36*
X130940759Y-73097184D02*
G01*
X130914247Y-73110282D01*
X130881553Y-73133106D01*
X130857725Y-73157996D01*
X130841406Y-73189249D01*
X130831240Y-73231166D01*
X130825872Y-73288044D01*
X130823944Y-73364184D01*
X130823831Y-73396917D01*
X130824161Y-73468656D01*
X130825527Y-73519927D01*
X130828500Y-73555404D01*
X130833649Y-73579763D01*
X130841543Y-73597680D01*
X130849757Y-73609902D01*
X130902187Y-73661905D01*
X130963930Y-73693184D01*
X131030536Y-73702592D01*
X131097558Y-73688980D01*
X131118792Y-73679354D01*
X131169624Y-73652859D01*
X131169624Y-74068052D01*
X131132525Y-74048868D01*
X131083643Y-74034025D01*
X131023561Y-74030222D01*
X130963564Y-74037243D01*
X130918256Y-74053013D01*
X130880675Y-74083047D01*
X130848564Y-74126024D01*
X130846150Y-74130436D01*
X130835967Y-74151221D01*
X130828530Y-74172170D01*
X130823411Y-74197548D01*
X130820181Y-74231618D01*
X130818413Y-74278641D01*
X130817677Y-74342882D01*
X130817544Y-74415176D01*
X130817544Y-74645822D01*
X130955861Y-74645822D01*
X130955861Y-74220533D01*
X130994549Y-74187979D01*
X131034738Y-74161940D01*
X131072797Y-74157205D01*
X131111066Y-74169389D01*
X131131462Y-74181320D01*
X131146642Y-74198313D01*
X131157438Y-74223995D01*
X131164683Y-74261991D01*
X131169208Y-74315926D01*
X131171844Y-74389425D01*
X131172772Y-74438347D01*
X131175911Y-74639535D01*
X131241926Y-74643336D01*
X131307940Y-74647136D01*
X131307940Y-73398650D01*
X131169624Y-73398650D01*
X131166097Y-73468254D01*
X131154215Y-73516569D01*
X131132020Y-73546631D01*
X131097559Y-73561471D01*
X131062742Y-73564436D01*
X131023329Y-73561028D01*
X130997171Y-73547617D01*
X130980814Y-73529896D01*
X130967937Y-73510835D01*
X130960272Y-73489601D01*
X130956861Y-73459849D01*
X130956749Y-73415236D01*
X130957897Y-73377880D01*
X130960532Y-73321604D01*
X130964456Y-73284658D01*
X130971063Y-73261223D01*
X130981749Y-73245480D01*
X130991833Y-73236380D01*
X131033970Y-73216537D01*
X131083840Y-73213332D01*
X131112476Y-73220168D01*
X131140828Y-73244464D01*
X131159609Y-73291728D01*
X131168712Y-73361624D01*
X131169624Y-73398650D01*
X131307940Y-73398650D01*
X131307940Y-73086614D01*
X131238782Y-73086614D01*
X131197260Y-73088256D01*
X131175838Y-73094087D01*
X131169626Y-73105461D01*
X131169624Y-73105798D01*
X131166742Y-73116938D01*
X131154030Y-73115673D01*
X131128757Y-73103433D01*
X131069869Y-73084707D01*
X131003615Y-73082739D01*
X130940759Y-73097184D01*
G37*
X130940759Y-73097184D02*
X130914247Y-73110282D01*
X130881553Y-73133106D01*
X130857725Y-73157996D01*
X130841406Y-73189249D01*
X130831240Y-73231166D01*
X130825872Y-73288044D01*
X130823944Y-73364184D01*
X130823831Y-73396917D01*
X130824161Y-73468656D01*
X130825527Y-73519927D01*
X130828500Y-73555404D01*
X130833649Y-73579763D01*
X130841543Y-73597680D01*
X130849757Y-73609902D01*
X130902187Y-73661905D01*
X130963930Y-73693184D01*
X131030536Y-73702592D01*
X131097558Y-73688980D01*
X131118792Y-73679354D01*
X131169624Y-73652859D01*
X131169624Y-74068052D01*
X131132525Y-74048868D01*
X131083643Y-74034025D01*
X131023561Y-74030222D01*
X130963564Y-74037243D01*
X130918256Y-74053013D01*
X130880675Y-74083047D01*
X130848564Y-74126024D01*
X130846150Y-74130436D01*
X130835967Y-74151221D01*
X130828530Y-74172170D01*
X130823411Y-74197548D01*
X130820181Y-74231618D01*
X130818413Y-74278641D01*
X130817677Y-74342882D01*
X130817544Y-74415176D01*
X130817544Y-74645822D01*
X130955861Y-74645822D01*
X130955861Y-74220533D01*
X130994549Y-74187979D01*
X131034738Y-74161940D01*
X131072797Y-74157205D01*
X131111066Y-74169389D01*
X131131462Y-74181320D01*
X131146642Y-74198313D01*
X131157438Y-74223995D01*
X131164683Y-74261991D01*
X131169208Y-74315926D01*
X131171844Y-74389425D01*
X131172772Y-74438347D01*
X131175911Y-74639535D01*
X131241926Y-74643336D01*
X131307940Y-74647136D01*
X131307940Y-73398650D01*
X131169624Y-73398650D01*
X131166097Y-73468254D01*
X131154215Y-73516569D01*
X131132020Y-73546631D01*
X131097559Y-73561471D01*
X131062742Y-73564436D01*
X131023329Y-73561028D01*
X130997171Y-73547617D01*
X130980814Y-73529896D01*
X130967937Y-73510835D01*
X130960272Y-73489601D01*
X130956861Y-73459849D01*
X130956749Y-73415236D01*
X130957897Y-73377880D01*
X130960532Y-73321604D01*
X130964456Y-73284658D01*
X130971063Y-73261223D01*
X130981749Y-73245480D01*
X130991833Y-73236380D01*
X131033970Y-73216537D01*
X131083840Y-73213332D01*
X131112476Y-73220168D01*
X131140828Y-73244464D01*
X131159609Y-73291728D01*
X131168712Y-73361624D01*
X131169624Y-73398650D01*
X131307940Y-73398650D01*
X131307940Y-73086614D01*
X131238782Y-73086614D01*
X131197260Y-73088256D01*
X131175838Y-73094087D01*
X131169626Y-73105461D01*
X131169624Y-73105798D01*
X131166742Y-73116938D01*
X131154030Y-73115673D01*
X131128757Y-73103433D01*
X131069869Y-73084707D01*
X131003615Y-73082739D01*
X130940759Y-73097184D01*
G36*
X130416210Y-74034555D02*
G01*
X130357055Y-74050339D01*
X130312023Y-74078948D01*
X130280246Y-74116419D01*
X130270366Y-74132411D01*
X130263073Y-74149163D01*
X130257974Y-74170592D01*
X130254679Y-74200616D01*
X130252797Y-74243154D01*
X130251937Y-74302122D01*
X130251707Y-74381440D01*
X130251703Y-74402484D01*
X130251703Y-74645822D01*
X130312059Y-74645822D01*
X130350557Y-74643126D01*
X130379023Y-74636295D01*
X130386155Y-74632083D01*
X130405652Y-74624813D01*
X130425566Y-74632083D01*
X130458353Y-74641160D01*
X130505978Y-74644813D01*
X130558764Y-74643228D01*
X130607036Y-74636589D01*
X130635218Y-74628072D01*
X130689753Y-74593063D01*
X130723835Y-74544479D01*
X130739157Y-74479882D01*
X130739299Y-74478223D01*
X130737955Y-74449566D01*
X130616356Y-74449566D01*
X130605726Y-74482161D01*
X130588410Y-74500505D01*
X130553652Y-74514379D01*
X130507773Y-74519917D01*
X130460988Y-74517191D01*
X130423514Y-74506274D01*
X130413015Y-74499269D01*
X130394668Y-74466904D01*
X130390020Y-74430111D01*
X130390020Y-74381763D01*
X130459582Y-74381763D01*
X130525667Y-74386850D01*
X130575764Y-74401263D01*
X130606929Y-74423729D01*
X130616356Y-74449566D01*
X130737955Y-74449566D01*
X130735987Y-74407647D01*
X130712710Y-74351845D01*
X130668948Y-74309647D01*
X130662899Y-74305808D01*
X130636907Y-74293309D01*
X130604735Y-74285740D01*
X130559760Y-74282061D01*
X130506331Y-74281216D01*
X130390020Y-74281169D01*
X130390020Y-74232411D01*
X130394953Y-74194581D01*
X130407543Y-74169236D01*
X130409017Y-74167887D01*
X130437034Y-74156800D01*
X130479326Y-74152503D01*
X130526064Y-74154615D01*
X130567418Y-74162756D01*
X130591957Y-74174965D01*
X130605253Y-74184746D01*
X130619294Y-74186613D01*
X130638671Y-74178600D01*
X130667976Y-74158739D01*
X130711803Y-74125063D01*
X130715825Y-74121909D01*
X130713764Y-74110236D01*
X130696568Y-74090822D01*
X130670433Y-74069248D01*
X130641552Y-74051096D01*
X130632478Y-74046809D01*
X130599380Y-74038256D01*
X130550880Y-74032155D01*
X130496695Y-74029708D01*
X130494161Y-74029703D01*
X130416210Y-74034555D01*
G37*
X130416210Y-74034555D02*
X130357055Y-74050339D01*
X130312023Y-74078948D01*
X130280246Y-74116419D01*
X130270366Y-74132411D01*
X130263073Y-74149163D01*
X130257974Y-74170592D01*
X130254679Y-74200616D01*
X130252797Y-74243154D01*
X130251937Y-74302122D01*
X130251707Y-74381440D01*
X130251703Y-74402484D01*
X130251703Y-74645822D01*
X130312059Y-74645822D01*
X130350557Y-74643126D01*
X130379023Y-74636295D01*
X130386155Y-74632083D01*
X130405652Y-74624813D01*
X130425566Y-74632083D01*
X130458353Y-74641160D01*
X130505978Y-74644813D01*
X130558764Y-74643228D01*
X130607036Y-74636589D01*
X130635218Y-74628072D01*
X130689753Y-74593063D01*
X130723835Y-74544479D01*
X130739157Y-74479882D01*
X130739299Y-74478223D01*
X130737955Y-74449566D01*
X130616356Y-74449566D01*
X130605726Y-74482161D01*
X130588410Y-74500505D01*
X130553652Y-74514379D01*
X130507773Y-74519917D01*
X130460988Y-74517191D01*
X130423514Y-74506274D01*
X130413015Y-74499269D01*
X130394668Y-74466904D01*
X130390020Y-74430111D01*
X130390020Y-74381763D01*
X130459582Y-74381763D01*
X130525667Y-74386850D01*
X130575764Y-74401263D01*
X130606929Y-74423729D01*
X130616356Y-74449566D01*
X130737955Y-74449566D01*
X130735987Y-74407647D01*
X130712710Y-74351845D01*
X130668948Y-74309647D01*
X130662899Y-74305808D01*
X130636907Y-74293309D01*
X130604735Y-74285740D01*
X130559760Y-74282061D01*
X130506331Y-74281216D01*
X130390020Y-74281169D01*
X130390020Y-74232411D01*
X130394953Y-74194581D01*
X130407543Y-74169236D01*
X130409017Y-74167887D01*
X130437034Y-74156800D01*
X130479326Y-74152503D01*
X130526064Y-74154615D01*
X130567418Y-74162756D01*
X130591957Y-74174965D01*
X130605253Y-74184746D01*
X130619294Y-74186613D01*
X130638671Y-74178600D01*
X130667976Y-74158739D01*
X130711803Y-74125063D01*
X130715825Y-74121909D01*
X130713764Y-74110236D01*
X130696568Y-74090822D01*
X130670433Y-74069248D01*
X130641552Y-74051096D01*
X130632478Y-74046809D01*
X130599380Y-74038256D01*
X130550880Y-74032155D01*
X130496695Y-74029708D01*
X130494161Y-74029703D01*
X130416210Y-74034555D01*
G36*
X130025356Y-74031020D02*
G01*
X130006539Y-74036660D01*
X130000473Y-74049053D01*
X130000218Y-74054647D01*
X129999129Y-74070230D01*
X129991632Y-74072676D01*
X129971381Y-74061993D01*
X129959351Y-74054694D01*
X129921400Y-74039063D01*
X129876072Y-74031334D01*
X129828544Y-74030740D01*
X129783995Y-74036513D01*
X129747602Y-74047884D01*
X129724543Y-74064088D01*
X129719996Y-74084355D01*
X129722291Y-74089843D01*
X129739020Y-74112626D01*
X129764963Y-74140647D01*
X129769655Y-74145177D01*
X129794383Y-74166005D01*
X129815718Y-74172735D01*
X129845555Y-74168038D01*
X129857508Y-74164917D01*
X129894705Y-74157421D01*
X129920859Y-74160792D01*
X129942946Y-74172681D01*
X129963178Y-74188635D01*
X129978079Y-74208700D01*
X129988434Y-74236702D01*
X129995029Y-74276467D01*
X129998649Y-74331823D01*
X130000078Y-74406594D01*
X130000218Y-74451740D01*
X130000218Y-74645822D01*
X130125960Y-74645822D01*
X130125960Y-74029683D01*
X130063089Y-74029683D01*
X130025356Y-74031020D01*
G37*
X130025356Y-74031020D02*
X130006539Y-74036660D01*
X130000473Y-74049053D01*
X130000218Y-74054647D01*
X129999129Y-74070230D01*
X129991632Y-74072676D01*
X129971381Y-74061993D01*
X129959351Y-74054694D01*
X129921400Y-74039063D01*
X129876072Y-74031334D01*
X129828544Y-74030740D01*
X129783995Y-74036513D01*
X129747602Y-74047884D01*
X129724543Y-74064088D01*
X129719996Y-74084355D01*
X129722291Y-74089843D01*
X129739020Y-74112626D01*
X129764963Y-74140647D01*
X129769655Y-74145177D01*
X129794383Y-74166005D01*
X129815718Y-74172735D01*
X129845555Y-74168038D01*
X129857508Y-74164917D01*
X129894705Y-74157421D01*
X129920859Y-74160792D01*
X129942946Y-74172681D01*
X129963178Y-74188635D01*
X129978079Y-74208700D01*
X129988434Y-74236702D01*
X129995029Y-74276467D01*
X129998649Y-74331823D01*
X130000078Y-74406594D01*
X130000218Y-74451740D01*
X130000218Y-74645822D01*
X130125960Y-74645822D01*
X130125960Y-74029683D01*
X130063089Y-74029683D01*
X130025356Y-74031020D01*
G36*
X129233188Y-74645822D02*
G01*
X129302346Y-74645822D01*
X129342488Y-74644645D01*
X129363394Y-74639772D01*
X129370922Y-74629186D01*
X129371505Y-74622029D01*
X129372774Y-74607676D01*
X129380779Y-74604923D01*
X129401815Y-74613771D01*
X129418173Y-74622029D01*
X129480977Y-74641597D01*
X129549248Y-74642729D01*
X129604752Y-74628135D01*
X129656438Y-74592877D01*
X129695838Y-74540835D01*
X129717413Y-74479450D01*
X129717962Y-74476018D01*
X129721167Y-74438571D01*
X129722761Y-74384813D01*
X129722633Y-74344155D01*
X129585279Y-74344155D01*
X129582097Y-74398194D01*
X129574859Y-74442735D01*
X129565060Y-74467888D01*
X129527989Y-74502260D01*
X129483974Y-74514582D01*
X129438584Y-74504618D01*
X129399797Y-74474895D01*
X129385108Y-74454905D01*
X129376519Y-74431050D01*
X129372496Y-74396230D01*
X129371505Y-74343930D01*
X129373278Y-74292139D01*
X129377963Y-74246634D01*
X129384603Y-74216181D01*
X129385710Y-74213452D01*
X129412491Y-74181000D01*
X129451579Y-74163183D01*
X129495315Y-74160306D01*
X129536038Y-74172674D01*
X129566087Y-74200593D01*
X129569204Y-74206148D01*
X129578961Y-74240022D01*
X129584277Y-74288728D01*
X129585279Y-74344155D01*
X129722633Y-74344155D01*
X129722568Y-74323540D01*
X129721664Y-74290563D01*
X129715514Y-74208981D01*
X129702733Y-74147730D01*
X129681471Y-74102449D01*
X129649878Y-74068779D01*
X129619207Y-74049014D01*
X129576354Y-74035120D01*
X129523056Y-74030354D01*
X129468480Y-74034236D01*
X129421792Y-74046282D01*
X129397124Y-74060693D01*
X129371505Y-74083878D01*
X129371505Y-73790773D01*
X129233188Y-73790773D01*
X129233188Y-74645822D01*
G37*
X129233188Y-74645822D02*
X129302346Y-74645822D01*
X129342488Y-74644645D01*
X129363394Y-74639772D01*
X129370922Y-74629186D01*
X129371505Y-74622029D01*
X129372774Y-74607676D01*
X129380779Y-74604923D01*
X129401815Y-74613771D01*
X129418173Y-74622029D01*
X129480977Y-74641597D01*
X129549248Y-74642729D01*
X129604752Y-74628135D01*
X129656438Y-74592877D01*
X129695838Y-74540835D01*
X129717413Y-74479450D01*
X129717962Y-74476018D01*
X129721167Y-74438571D01*
X129722761Y-74384813D01*
X129722633Y-74344155D01*
X129585279Y-74344155D01*
X129582097Y-74398194D01*
X129574859Y-74442735D01*
X129565060Y-74467888D01*
X129527989Y-74502260D01*
X129483974Y-74514582D01*
X129438584Y-74504618D01*
X129399797Y-74474895D01*
X129385108Y-74454905D01*
X129376519Y-74431050D01*
X129372496Y-74396230D01*
X129371505Y-74343930D01*
X129373278Y-74292139D01*
X129377963Y-74246634D01*
X129384603Y-74216181D01*
X129385710Y-74213452D01*
X129412491Y-74181000D01*
X129451579Y-74163183D01*
X129495315Y-74160306D01*
X129536038Y-74172674D01*
X129566087Y-74200593D01*
X129569204Y-74206148D01*
X129578961Y-74240022D01*
X129584277Y-74288728D01*
X129585279Y-74344155D01*
X129722633Y-74344155D01*
X129722568Y-74323540D01*
X129721664Y-74290563D01*
X129715514Y-74208981D01*
X129702733Y-74147730D01*
X129681471Y-74102449D01*
X129649878Y-74068779D01*
X129619207Y-74049014D01*
X129576354Y-74035120D01*
X129523056Y-74030354D01*
X129468480Y-74034236D01*
X129421792Y-74046282D01*
X129397124Y-74060693D01*
X129371505Y-74083878D01*
X129371505Y-73790773D01*
X129233188Y-73790773D01*
X129233188Y-74645822D01*
G36*
X128750476Y-74032237D02*
G01*
X128700745Y-74035971D01*
X128570709Y-74425773D01*
X128550322Y-74356614D01*
X128538054Y-74313874D01*
X128521915Y-74256115D01*
X128504488Y-74192625D01*
X128495274Y-74158570D01*
X128460612Y-74029683D01*
X128317609Y-74029683D01*
X128360354Y-74164857D01*
X128381404Y-74231342D01*
X128406833Y-74311539D01*
X128433390Y-74395193D01*
X128457098Y-74469782D01*
X128511098Y-74639535D01*
X128569402Y-74643328D01*
X128627705Y-74647122D01*
X128659321Y-74542734D01*
X128678818Y-74477889D01*
X128700096Y-74406400D01*
X128718692Y-74343263D01*
X128719426Y-74340750D01*
X128733316Y-74297969D01*
X128745571Y-74268779D01*
X128754154Y-74257741D01*
X128755918Y-74259018D01*
X128762109Y-74276130D01*
X128773872Y-74312787D01*
X128789775Y-74364378D01*
X128808386Y-74426294D01*
X128818457Y-74460352D01*
X128872993Y-74645822D01*
X128988736Y-74645822D01*
X129081263Y-74353471D01*
X129107256Y-74271462D01*
X129130934Y-74196987D01*
X129151180Y-74133544D01*
X129166874Y-74084632D01*
X129176898Y-74053749D01*
X129179945Y-74044726D01*
X129177533Y-74035487D01*
X129158592Y-74031441D01*
X129119177Y-74031846D01*
X129113007Y-74032152D01*
X129039914Y-74035971D01*
X128992043Y-74212010D01*
X128974447Y-74276211D01*
X128958723Y-74332649D01*
X128946254Y-74376422D01*
X128938426Y-74402630D01*
X128936980Y-74406903D01*
X128930986Y-74401990D01*
X128918899Y-74376532D01*
X128902107Y-74333997D01*
X128881997Y-74277850D01*
X128864997Y-74227130D01*
X128800206Y-74028504D01*
X128750476Y-74032237D01*
G37*
X128750476Y-74032237D02*
X128700745Y-74035971D01*
X128570709Y-74425773D01*
X128550322Y-74356614D01*
X128538054Y-74313874D01*
X128521915Y-74256115D01*
X128504488Y-74192625D01*
X128495274Y-74158570D01*
X128460612Y-74029683D01*
X128317609Y-74029683D01*
X128360354Y-74164857D01*
X128381404Y-74231342D01*
X128406833Y-74311539D01*
X128433390Y-74395193D01*
X128457098Y-74469782D01*
X128511098Y-74639535D01*
X128569402Y-74643328D01*
X128627705Y-74647122D01*
X128659321Y-74542734D01*
X128678818Y-74477889D01*
X128700096Y-74406400D01*
X128718692Y-74343263D01*
X128719426Y-74340750D01*
X128733316Y-74297969D01*
X128745571Y-74268779D01*
X128754154Y-74257741D01*
X128755918Y-74259018D01*
X128762109Y-74276130D01*
X128773872Y-74312787D01*
X128789775Y-74364378D01*
X128808386Y-74426294D01*
X128818457Y-74460352D01*
X128872993Y-74645822D01*
X128988736Y-74645822D01*
X129081263Y-74353471D01*
X129107256Y-74271462D01*
X129130934Y-74196987D01*
X129151180Y-74133544D01*
X129166874Y-74084632D01*
X129176898Y-74053749D01*
X129179945Y-74044726D01*
X129177533Y-74035487D01*
X129158592Y-74031441D01*
X129119177Y-74031846D01*
X129113007Y-74032152D01*
X129039914Y-74035971D01*
X128992043Y-74212010D01*
X128974447Y-74276211D01*
X128958723Y-74332649D01*
X128946254Y-74376422D01*
X128938426Y-74402630D01*
X128936980Y-74406903D01*
X128930986Y-74401990D01*
X128918899Y-74376532D01*
X128902107Y-74333997D01*
X128881997Y-74277850D01*
X128864997Y-74227130D01*
X128800206Y-74028504D01*
X128750476Y-74032237D01*
G36*
X127993589Y-74033417D02*
G01*
X127940589Y-74046290D01*
X127925269Y-74053110D01*
X127895572Y-74070974D01*
X127872780Y-74091093D01*
X127855917Y-74116962D01*
X127844002Y-74152073D01*
X127836058Y-74199920D01*
X127831106Y-74263996D01*
X127828169Y-74347794D01*
X127827053Y-74403768D01*
X127822948Y-74645822D01*
X127893068Y-74645822D01*
X127935607Y-74644038D01*
X127957524Y-74637942D01*
X127963188Y-74627706D01*
X127966179Y-74616637D01*
X127979549Y-74618754D01*
X127997767Y-74627629D01*
X128043376Y-74641233D01*
X128101993Y-74644899D01*
X128163646Y-74638903D01*
X128218362Y-74623521D01*
X128223270Y-74621386D01*
X128273277Y-74586255D01*
X128306244Y-74537419D01*
X128321413Y-74480333D01*
X128320254Y-74459824D01*
X128196492Y-74459824D01*
X128185587Y-74487425D01*
X128153255Y-74507204D01*
X128101090Y-74517819D01*
X128073213Y-74519228D01*
X128026753Y-74515620D01*
X127995871Y-74501597D01*
X127988336Y-74494931D01*
X127967924Y-74458666D01*
X127963188Y-74425773D01*
X127963188Y-74381763D01*
X128024487Y-74381763D01*
X128095744Y-74385395D01*
X128145724Y-74396818D01*
X128177304Y-74416824D01*
X128184374Y-74425743D01*
X128196492Y-74459824D01*
X128320254Y-74459824D01*
X128318029Y-74420456D01*
X128295337Y-74363244D01*
X128264376Y-74324580D01*
X128245624Y-74307864D01*
X128227267Y-74296878D01*
X128203381Y-74290180D01*
X128168043Y-74286326D01*
X128115331Y-74283873D01*
X128094423Y-74283168D01*
X127963188Y-74278879D01*
X127963380Y-74239158D01*
X127968463Y-74197405D01*
X127986838Y-74172158D01*
X128023961Y-74156030D01*
X128024957Y-74155742D01*
X128077590Y-74149400D01*
X128129094Y-74157684D01*
X128167370Y-74177827D01*
X128182728Y-74187773D01*
X128199270Y-74186397D01*
X128224725Y-74171987D01*
X128239672Y-74161817D01*
X128268909Y-74140088D01*
X128287020Y-74123800D01*
X128289926Y-74119137D01*
X128277960Y-74095005D01*
X128242604Y-74066185D01*
X128227247Y-74056461D01*
X128183099Y-74039714D01*
X128123602Y-74030227D01*
X128057513Y-74028095D01*
X127993589Y-74033417D01*
G37*
X127993589Y-74033417D02*
X127940589Y-74046290D01*
X127925269Y-74053110D01*
X127895572Y-74070974D01*
X127872780Y-74091093D01*
X127855917Y-74116962D01*
X127844002Y-74152073D01*
X127836058Y-74199920D01*
X127831106Y-74263996D01*
X127828169Y-74347794D01*
X127827053Y-74403768D01*
X127822948Y-74645822D01*
X127893068Y-74645822D01*
X127935607Y-74644038D01*
X127957524Y-74637942D01*
X127963188Y-74627706D01*
X127966179Y-74616637D01*
X127979549Y-74618754D01*
X127997767Y-74627629D01*
X128043376Y-74641233D01*
X128101993Y-74644899D01*
X128163646Y-74638903D01*
X128218362Y-74623521D01*
X128223270Y-74621386D01*
X128273277Y-74586255D01*
X128306244Y-74537419D01*
X128321413Y-74480333D01*
X128320254Y-74459824D01*
X128196492Y-74459824D01*
X128185587Y-74487425D01*
X128153255Y-74507204D01*
X128101090Y-74517819D01*
X128073213Y-74519228D01*
X128026753Y-74515620D01*
X127995871Y-74501597D01*
X127988336Y-74494931D01*
X127967924Y-74458666D01*
X127963188Y-74425773D01*
X127963188Y-74381763D01*
X128024487Y-74381763D01*
X128095744Y-74385395D01*
X128145724Y-74396818D01*
X128177304Y-74416824D01*
X128184374Y-74425743D01*
X128196492Y-74459824D01*
X128320254Y-74459824D01*
X128318029Y-74420456D01*
X128295337Y-74363244D01*
X128264376Y-74324580D01*
X128245624Y-74307864D01*
X128227267Y-74296878D01*
X128203381Y-74290180D01*
X128168043Y-74286326D01*
X128115331Y-74283873D01*
X128094423Y-74283168D01*
X127963188Y-74278879D01*
X127963380Y-74239158D01*
X127968463Y-74197405D01*
X127986838Y-74172158D01*
X128023961Y-74156030D01*
X128024957Y-74155742D01*
X128077590Y-74149400D01*
X128129094Y-74157684D01*
X128167370Y-74177827D01*
X128182728Y-74187773D01*
X128199270Y-74186397D01*
X128224725Y-74171987D01*
X128239672Y-74161817D01*
X128268909Y-74140088D01*
X128287020Y-74123800D01*
X128289926Y-74119137D01*
X128277960Y-74095005D01*
X128242604Y-74066185D01*
X128227247Y-74056461D01*
X128183099Y-74039714D01*
X128123602Y-74030227D01*
X128057513Y-74028095D01*
X127993589Y-74033417D01*
G36*
X127396745Y-74029486D02*
G01*
X127348405Y-74039015D01*
X127320886Y-74053125D01*
X127291936Y-74076568D01*
X127333124Y-74128571D01*
X127358518Y-74160064D01*
X127375762Y-74175428D01*
X127392898Y-74177776D01*
X127417973Y-74170217D01*
X127429743Y-74165941D01*
X127477730Y-74159631D01*
X127521676Y-74173156D01*
X127553940Y-74203710D01*
X127559181Y-74213452D01*
X127564888Y-74239258D01*
X127569294Y-74286817D01*
X127572189Y-74352758D01*
X127573369Y-74433710D01*
X127573386Y-74445226D01*
X127573386Y-74645822D01*
X127711703Y-74645822D01*
X127711703Y-74029683D01*
X127642544Y-74029683D01*
X127602667Y-74030725D01*
X127581893Y-74035358D01*
X127574211Y-74045849D01*
X127573386Y-74055745D01*
X127573386Y-74081806D01*
X127540255Y-74055745D01*
X127502265Y-74037965D01*
X127451230Y-74029174D01*
X127396745Y-74029486D01*
G37*
X127396745Y-74029486D02*
X127348405Y-74039015D01*
X127320886Y-74053125D01*
X127291936Y-74076568D01*
X127333124Y-74128571D01*
X127358518Y-74160064D01*
X127375762Y-74175428D01*
X127392898Y-74177776D01*
X127417973Y-74170217D01*
X127429743Y-74165941D01*
X127477730Y-74159631D01*
X127521676Y-74173156D01*
X127553940Y-74203710D01*
X127559181Y-74213452D01*
X127564888Y-74239258D01*
X127569294Y-74286817D01*
X127572189Y-74352758D01*
X127573369Y-74433710D01*
X127573386Y-74445226D01*
X127573386Y-74645822D01*
X127711703Y-74645822D01*
X127711703Y-74029683D01*
X127642544Y-74029683D01*
X127602667Y-74030725D01*
X127581893Y-74035358D01*
X127574211Y-74045849D01*
X127573386Y-74055745D01*
X127573386Y-74081806D01*
X127540255Y-74055745D01*
X127502265Y-74037965D01*
X127451230Y-74029174D01*
X127396745Y-74029486D01*
G36*
X126999419Y-74032970D02*
G01*
X126939315Y-74048597D01*
X126888979Y-74080848D01*
X126864607Y-74104940D01*
X126824655Y-74161895D01*
X126801758Y-74227965D01*
X126793892Y-74309182D01*
X126793852Y-74315748D01*
X126793782Y-74381763D01*
X127173736Y-74381763D01*
X127165637Y-74416342D01*
X127151013Y-74447659D01*
X127125419Y-74480291D01*
X127120065Y-74485500D01*
X127074057Y-74513694D01*
X127021590Y-74518475D01*
X126961197Y-74499926D01*
X126950960Y-74494931D01*
X126919561Y-74479745D01*
X126898530Y-74471094D01*
X126894861Y-74470293D01*
X126882052Y-74478063D01*
X126857622Y-74497072D01*
X126845221Y-74507460D01*
X126819524Y-74531321D01*
X126811085Y-74547077D01*
X126816942Y-74561571D01*
X126820072Y-74565534D01*
X126841275Y-74582879D01*
X126876262Y-74603959D01*
X126900663Y-74616265D01*
X126969928Y-74637946D01*
X127046612Y-74644971D01*
X127119235Y-74636647D01*
X127139574Y-74630686D01*
X127202524Y-74596952D01*
X127249185Y-74545045D01*
X127279827Y-74474459D01*
X127294718Y-74384692D01*
X127296353Y-74337753D01*
X127291579Y-74269413D01*
X127171010Y-74269413D01*
X127159348Y-74274465D01*
X127128002Y-74278429D01*
X127082429Y-74280768D01*
X127051554Y-74281169D01*
X126996019Y-74280783D01*
X126960967Y-74278975D01*
X126941738Y-74274773D01*
X126933670Y-74267203D01*
X126932099Y-74256218D01*
X126942879Y-74222381D01*
X126970020Y-74188940D01*
X127005723Y-74163272D01*
X127041440Y-74152772D01*
X127089952Y-74162086D01*
X127131947Y-74189013D01*
X127161064Y-74227827D01*
X127171010Y-74269413D01*
X127291579Y-74269413D01*
X127289401Y-74238236D01*
X127267945Y-74158949D01*
X127231530Y-74099263D01*
X127179703Y-74058549D01*
X127112010Y-74036179D01*
X127075338Y-74031871D01*
X126999419Y-74032970D01*
G37*
X126999419Y-74032970D02*
X126939315Y-74048597D01*
X126888979Y-74080848D01*
X126864607Y-74104940D01*
X126824655Y-74161895D01*
X126801758Y-74227965D01*
X126793892Y-74309182D01*
X126793852Y-74315748D01*
X126793782Y-74381763D01*
X127173736Y-74381763D01*
X127165637Y-74416342D01*
X127151013Y-74447659D01*
X127125419Y-74480291D01*
X127120065Y-74485500D01*
X127074057Y-74513694D01*
X127021590Y-74518475D01*
X126961197Y-74499926D01*
X126950960Y-74494931D01*
X126919561Y-74479745D01*
X126898530Y-74471094D01*
X126894861Y-74470293D01*
X126882052Y-74478063D01*
X126857622Y-74497072D01*
X126845221Y-74507460D01*
X126819524Y-74531321D01*
X126811085Y-74547077D01*
X126816942Y-74561571D01*
X126820072Y-74565534D01*
X126841275Y-74582879D01*
X126876262Y-74603959D01*
X126900663Y-74616265D01*
X126969928Y-74637946D01*
X127046612Y-74644971D01*
X127119235Y-74636647D01*
X127139574Y-74630686D01*
X127202524Y-74596952D01*
X127249185Y-74545045D01*
X127279827Y-74474459D01*
X127294718Y-74384692D01*
X127296353Y-74337753D01*
X127291579Y-74269413D01*
X127171010Y-74269413D01*
X127159348Y-74274465D01*
X127128002Y-74278429D01*
X127082429Y-74280768D01*
X127051554Y-74281169D01*
X126996019Y-74280783D01*
X126960967Y-74278975D01*
X126941738Y-74274773D01*
X126933670Y-74267203D01*
X126932099Y-74256218D01*
X126942879Y-74222381D01*
X126970020Y-74188940D01*
X127005723Y-74163272D01*
X127041440Y-74152772D01*
X127089952Y-74162086D01*
X127131947Y-74189013D01*
X127161064Y-74227827D01*
X127171010Y-74269413D01*
X127291579Y-74269413D01*
X127289401Y-74238236D01*
X127267945Y-74158949D01*
X127231530Y-74099263D01*
X127179703Y-74058549D01*
X127112010Y-74036179D01*
X127075338Y-74031871D01*
X126999419Y-74032970D01*
G36*
X131570261Y-73093148D02*
G01*
X131504479Y-73122231D01*
X131454540Y-73170793D01*
X131420374Y-73238908D01*
X131401907Y-73326651D01*
X131400583Y-73340351D01*
X131399546Y-73436939D01*
X131412993Y-73521602D01*
X131440108Y-73590221D01*
X131454627Y-73612294D01*
X131505201Y-73659011D01*
X131569609Y-73689268D01*
X131641666Y-73701824D01*
X131715185Y-73695439D01*
X131771072Y-73675772D01*
X131819132Y-73642629D01*
X131858412Y-73599175D01*
X131859092Y-73598158D01*
X131875044Y-73571338D01*
X131885410Y-73544368D01*
X131891688Y-73510332D01*
X131895373Y-73462310D01*
X131896997Y-73422931D01*
X131897672Y-73387219D01*
X131771955Y-73387219D01*
X131770726Y-73422770D01*
X131766266Y-73470094D01*
X131758397Y-73500465D01*
X131744207Y-73522072D01*
X131730917Y-73534694D01*
X131683802Y-73561122D01*
X131634505Y-73564653D01*
X131588593Y-73545639D01*
X131565638Y-73524331D01*
X131549096Y-73502859D01*
X131539421Y-73482313D01*
X131535174Y-73455574D01*
X131534920Y-73415523D01*
X131536228Y-73378638D01*
X131539043Y-73325947D01*
X131543505Y-73291772D01*
X131551548Y-73269480D01*
X131565103Y-73252442D01*
X131575845Y-73242703D01*
X131620777Y-73217123D01*
X131669249Y-73215847D01*
X131709894Y-73230999D01*
X131744567Y-73262642D01*
X131765224Y-73314620D01*
X131771955Y-73387219D01*
X131897672Y-73387219D01*
X131898479Y-73344621D01*
X131895948Y-73286056D01*
X131888362Y-73242007D01*
X131874681Y-73207248D01*
X131853865Y-73176551D01*
X131846147Y-73167436D01*
X131797889Y-73122021D01*
X131746128Y-73095493D01*
X131682828Y-73084379D01*
X131651961Y-73083471D01*
X131570261Y-73093148D01*
G37*
X131570261Y-73093148D02*
X131504479Y-73122231D01*
X131454540Y-73170793D01*
X131420374Y-73238908D01*
X131401907Y-73326651D01*
X131400583Y-73340351D01*
X131399546Y-73436939D01*
X131412993Y-73521602D01*
X131440108Y-73590221D01*
X131454627Y-73612294D01*
X131505201Y-73659011D01*
X131569609Y-73689268D01*
X131641666Y-73701824D01*
X131715185Y-73695439D01*
X131771072Y-73675772D01*
X131819132Y-73642629D01*
X131858412Y-73599175D01*
X131859092Y-73598158D01*
X131875044Y-73571338D01*
X131885410Y-73544368D01*
X131891688Y-73510332D01*
X131895373Y-73462310D01*
X131896997Y-73422931D01*
X131897672Y-73387219D01*
X131771955Y-73387219D01*
X131770726Y-73422770D01*
X131766266Y-73470094D01*
X131758397Y-73500465D01*
X131744207Y-73522072D01*
X131730917Y-73534694D01*
X131683802Y-73561122D01*
X131634505Y-73564653D01*
X131588593Y-73545639D01*
X131565638Y-73524331D01*
X131549096Y-73502859D01*
X131539421Y-73482313D01*
X131535174Y-73455574D01*
X131534920Y-73415523D01*
X131536228Y-73378638D01*
X131539043Y-73325947D01*
X131543505Y-73291772D01*
X131551548Y-73269480D01*
X131565103Y-73252442D01*
X131575845Y-73242703D01*
X131620777Y-73217123D01*
X131669249Y-73215847D01*
X131709894Y-73230999D01*
X131744567Y-73262642D01*
X131765224Y-73314620D01*
X131771955Y-73387219D01*
X131897672Y-73387219D01*
X131898479Y-73344621D01*
X131895948Y-73286056D01*
X131888362Y-73242007D01*
X131874681Y-73207248D01*
X131853865Y-73176551D01*
X131846147Y-73167436D01*
X131797889Y-73122021D01*
X131746128Y-73095493D01*
X131682828Y-73084379D01*
X131651961Y-73083471D01*
X131570261Y-73093148D01*
G36*
X130388699Y-73100614D02*
G01*
X130376168Y-73106514D01*
X130332799Y-73138283D01*
X130291790Y-73184646D01*
X130261168Y-73235696D01*
X130252459Y-73259166D01*
X130244512Y-73301091D01*
X130239774Y-73351757D01*
X130239199Y-73372679D01*
X130239129Y-73438693D01*
X130619083Y-73438693D01*
X130610983Y-73473273D01*
X130591104Y-73514170D01*
X130556347Y-73549514D01*
X130514998Y-73572282D01*
X130488649Y-73577010D01*
X130452916Y-73571273D01*
X130410282Y-73556882D01*
X130395799Y-73550262D01*
X130342240Y-73523513D01*
X130296533Y-73558376D01*
X130270158Y-73581955D01*
X130256124Y-73601417D01*
X130255414Y-73607129D01*
X130267951Y-73620973D01*
X130295428Y-73642012D01*
X130320366Y-73658425D01*
X130387664Y-73687930D01*
X130463110Y-73701284D01*
X130537888Y-73697812D01*
X130597495Y-73679663D01*
X130658941Y-73640784D01*
X130702608Y-73589595D01*
X130729926Y-73523367D01*
X130742322Y-73439371D01*
X130743421Y-73400936D01*
X130739022Y-73312861D01*
X130738482Y-73310299D01*
X130612582Y-73310299D01*
X130609115Y-73318558D01*
X130594863Y-73323113D01*
X130565470Y-73325065D01*
X130516575Y-73325517D01*
X130497748Y-73325525D01*
X130440467Y-73324843D01*
X130404141Y-73322364D01*
X130384604Y-73317443D01*
X130377690Y-73309434D01*
X130377445Y-73306862D01*
X130385336Y-73286423D01*
X130405085Y-73257789D01*
X130413575Y-73247763D01*
X130445094Y-73219408D01*
X130477949Y-73208259D01*
X130495651Y-73207327D01*
X130543539Y-73218981D01*
X130583699Y-73250285D01*
X130609173Y-73295752D01*
X130609625Y-73297233D01*
X130612582Y-73310299D01*
X130738482Y-73310299D01*
X130724392Y-73243510D01*
X130698038Y-73188025D01*
X130665807Y-73148639D01*
X130606217Y-73105931D01*
X130536168Y-73083109D01*
X130461661Y-73081046D01*
X130388699Y-73100614D01*
G37*
X130388699Y-73100614D02*
X130376168Y-73106514D01*
X130332799Y-73138283D01*
X130291790Y-73184646D01*
X130261168Y-73235696D01*
X130252459Y-73259166D01*
X130244512Y-73301091D01*
X130239774Y-73351757D01*
X130239199Y-73372679D01*
X130239129Y-73438693D01*
X130619083Y-73438693D01*
X130610983Y-73473273D01*
X130591104Y-73514170D01*
X130556347Y-73549514D01*
X130514998Y-73572282D01*
X130488649Y-73577010D01*
X130452916Y-73571273D01*
X130410282Y-73556882D01*
X130395799Y-73550262D01*
X130342240Y-73523513D01*
X130296533Y-73558376D01*
X130270158Y-73581955D01*
X130256124Y-73601417D01*
X130255414Y-73607129D01*
X130267951Y-73620973D01*
X130295428Y-73642012D01*
X130320366Y-73658425D01*
X130387664Y-73687930D01*
X130463110Y-73701284D01*
X130537888Y-73697812D01*
X130597495Y-73679663D01*
X130658941Y-73640784D01*
X130702608Y-73589595D01*
X130729926Y-73523367D01*
X130742322Y-73439371D01*
X130743421Y-73400936D01*
X130739022Y-73312861D01*
X130738482Y-73310299D01*
X130612582Y-73310299D01*
X130609115Y-73318558D01*
X130594863Y-73323113D01*
X130565470Y-73325065D01*
X130516575Y-73325517D01*
X130497748Y-73325525D01*
X130440467Y-73324843D01*
X130404141Y-73322364D01*
X130384604Y-73317443D01*
X130377690Y-73309434D01*
X130377445Y-73306862D01*
X130385336Y-73286423D01*
X130405085Y-73257789D01*
X130413575Y-73247763D01*
X130445094Y-73219408D01*
X130477949Y-73208259D01*
X130495651Y-73207327D01*
X130543539Y-73218981D01*
X130583699Y-73250285D01*
X130609173Y-73295752D01*
X130609625Y-73297233D01*
X130612582Y-73310299D01*
X130738482Y-73310299D01*
X130724392Y-73243510D01*
X130698038Y-73188025D01*
X130665807Y-73148639D01*
X130606217Y-73105931D01*
X130536168Y-73083109D01*
X130461661Y-73081046D01*
X130388699Y-73100614D01*
G36*
X129017983Y-73084452D02*
G01*
X128970366Y-73093482D01*
X128920966Y-73112370D01*
X128915688Y-73114777D01*
X128878226Y-73134476D01*
X128852283Y-73152781D01*
X128843897Y-73164508D01*
X128851883Y-73183632D01*
X128871280Y-73211850D01*
X128879890Y-73222384D01*
X128915372Y-73263847D01*
X128961115Y-73236858D01*
X129004650Y-73218878D01*
X129054950Y-73209267D01*
X129103188Y-73208660D01*
X129140533Y-73217691D01*
X129149495Y-73223327D01*
X129166563Y-73249171D01*
X129168637Y-73278941D01*
X129155866Y-73302197D01*
X129148312Y-73306708D01*
X129125675Y-73312309D01*
X129085885Y-73318892D01*
X129036834Y-73325183D01*
X129027785Y-73326170D01*
X128949004Y-73339798D01*
X128891864Y-73362946D01*
X128853970Y-73397752D01*
X128832921Y-73446354D01*
X128826365Y-73505718D01*
X128835423Y-73573198D01*
X128864836Y-73626188D01*
X128914722Y-73664783D01*
X128985200Y-73689081D01*
X129063435Y-73698667D01*
X129127234Y-73698552D01*
X129178984Y-73689845D01*
X129214327Y-73677825D01*
X129258983Y-73656880D01*
X129300253Y-73632574D01*
X129314921Y-73621876D01*
X129352643Y-73591084D01*
X129307148Y-73545049D01*
X129261653Y-73499013D01*
X129209928Y-73533243D01*
X129158048Y-73558952D01*
X129102649Y-73572399D01*
X129049395Y-73573818D01*
X129003951Y-73563443D01*
X128971984Y-73541507D01*
X128961662Y-73522998D01*
X128963211Y-73493314D01*
X128988860Y-73470615D01*
X129038540Y-73454940D01*
X129092969Y-73447695D01*
X129176736Y-73433873D01*
X129238967Y-73407796D01*
X129280493Y-73368699D01*
X129302147Y-73315820D01*
X129305147Y-73253126D01*
X129290329Y-73187642D01*
X129256546Y-73138144D01*
X129203495Y-73104408D01*
X129130874Y-73086207D01*
X129077072Y-73082639D01*
X129017983Y-73084452D01*
G37*
X129017983Y-73084452D02*
X128970366Y-73093482D01*
X128920966Y-73112370D01*
X128915688Y-73114777D01*
X128878226Y-73134476D01*
X128852283Y-73152781D01*
X128843897Y-73164508D01*
X128851883Y-73183632D01*
X128871280Y-73211850D01*
X128879890Y-73222384D01*
X128915372Y-73263847D01*
X128961115Y-73236858D01*
X129004650Y-73218878D01*
X129054950Y-73209267D01*
X129103188Y-73208660D01*
X129140533Y-73217691D01*
X129149495Y-73223327D01*
X129166563Y-73249171D01*
X129168637Y-73278941D01*
X129155866Y-73302197D01*
X129148312Y-73306708D01*
X129125675Y-73312309D01*
X129085885Y-73318892D01*
X129036834Y-73325183D01*
X129027785Y-73326170D01*
X128949004Y-73339798D01*
X128891864Y-73362946D01*
X128853970Y-73397752D01*
X128832921Y-73446354D01*
X128826365Y-73505718D01*
X128835423Y-73573198D01*
X128864836Y-73626188D01*
X128914722Y-73664783D01*
X128985200Y-73689081D01*
X129063435Y-73698667D01*
X129127234Y-73698552D01*
X129178984Y-73689845D01*
X129214327Y-73677825D01*
X129258983Y-73656880D01*
X129300253Y-73632574D01*
X129314921Y-73621876D01*
X129352643Y-73591084D01*
X129307148Y-73545049D01*
X129261653Y-73499013D01*
X129209928Y-73533243D01*
X129158048Y-73558952D01*
X129102649Y-73572399D01*
X129049395Y-73573818D01*
X129003951Y-73563443D01*
X128971984Y-73541507D01*
X128961662Y-73522998D01*
X128963211Y-73493314D01*
X128988860Y-73470615D01*
X129038540Y-73454940D01*
X129092969Y-73447695D01*
X129176736Y-73433873D01*
X129238967Y-73407796D01*
X129280493Y-73368699D01*
X129302147Y-73315820D01*
X129305147Y-73253126D01*
X129290329Y-73187642D01*
X129256546Y-73138144D01*
X129203495Y-73104408D01*
X129130874Y-73086207D01*
X129077072Y-73082639D01*
X129017983Y-73084452D01*
G36*
X128421238Y-73094055D02*
G01*
X128357637Y-73128692D01*
X128307877Y-73183372D01*
X128284432Y-73227842D01*
X128274366Y-73267121D01*
X128267844Y-73323116D01*
X128265049Y-73387621D01*
X128266164Y-73452429D01*
X128271374Y-73509334D01*
X128277459Y-73539727D01*
X128297986Y-73581306D01*
X128333537Y-73625468D01*
X128376381Y-73664087D01*
X128418789Y-73689034D01*
X128419823Y-73689430D01*
X128472447Y-73700331D01*
X128534812Y-73700601D01*
X128594076Y-73690676D01*
X128616960Y-73682722D01*
X128675898Y-73649300D01*
X128718110Y-73605511D01*
X128745844Y-73547538D01*
X128761349Y-73471565D01*
X128764857Y-73431771D01*
X128764410Y-73381766D01*
X128629624Y-73381766D01*
X128625083Y-73454732D01*
X128612014Y-73510334D01*
X128591244Y-73545861D01*
X128576448Y-73556020D01*
X128538536Y-73563104D01*
X128493473Y-73561007D01*
X128454513Y-73550812D01*
X128444296Y-73545204D01*
X128417341Y-73512538D01*
X128399549Y-73462545D01*
X128391976Y-73401705D01*
X128395675Y-73336497D01*
X128403943Y-73297253D01*
X128427680Y-73251805D01*
X128465151Y-73223396D01*
X128510280Y-73213573D01*
X128556989Y-73223887D01*
X128592868Y-73249112D01*
X128611723Y-73269925D01*
X128622728Y-73290439D01*
X128627974Y-73318203D01*
X128629551Y-73360762D01*
X128629624Y-73381766D01*
X128764410Y-73381766D01*
X128763906Y-73325580D01*
X128746612Y-73238501D01*
X128712971Y-73170530D01*
X128662982Y-73121664D01*
X128596644Y-73091899D01*
X128582399Y-73088448D01*
X128496790Y-73080345D01*
X128421238Y-73094055D01*
G37*
X128421238Y-73094055D02*
X128357637Y-73128692D01*
X128307877Y-73183372D01*
X128284432Y-73227842D01*
X128274366Y-73267121D01*
X128267844Y-73323116D01*
X128265049Y-73387621D01*
X128266164Y-73452429D01*
X128271374Y-73509334D01*
X128277459Y-73539727D01*
X128297986Y-73581306D01*
X128333537Y-73625468D01*
X128376381Y-73664087D01*
X128418789Y-73689034D01*
X128419823Y-73689430D01*
X128472447Y-73700331D01*
X128534812Y-73700601D01*
X128594076Y-73690676D01*
X128616960Y-73682722D01*
X128675898Y-73649300D01*
X128718110Y-73605511D01*
X128745844Y-73547538D01*
X128761349Y-73471565D01*
X128764857Y-73431771D01*
X128764410Y-73381766D01*
X128629624Y-73381766D01*
X128625083Y-73454732D01*
X128612014Y-73510334D01*
X128591244Y-73545861D01*
X128576448Y-73556020D01*
X128538536Y-73563104D01*
X128493473Y-73561007D01*
X128454513Y-73550812D01*
X128444296Y-73545204D01*
X128417341Y-73512538D01*
X128399549Y-73462545D01*
X128391976Y-73401705D01*
X128395675Y-73336497D01*
X128403943Y-73297253D01*
X128427680Y-73251805D01*
X128465151Y-73223396D01*
X128510280Y-73213573D01*
X128556989Y-73223887D01*
X128592868Y-73249112D01*
X128611723Y-73269925D01*
X128622728Y-73290439D01*
X128627974Y-73318203D01*
X128629551Y-73360762D01*
X128629624Y-73381766D01*
X128764410Y-73381766D01*
X128763906Y-73325580D01*
X128746612Y-73238501D01*
X128712971Y-73170530D01*
X128662982Y-73121664D01*
X128596644Y-73091899D01*
X128582399Y-73088448D01*
X128496790Y-73080345D01*
X128421238Y-73094055D01*
G36*
X128038633Y-73282342D02*
G01*
X128037445Y-73374563D01*
X128033103Y-73444610D01*
X128024442Y-73495381D01*
X128010296Y-73529772D01*
X127989500Y-73550679D01*
X127960890Y-73561000D01*
X127925465Y-73563636D01*
X127888364Y-73560682D01*
X127860182Y-73549889D01*
X127839757Y-73528360D01*
X127825921Y-73493199D01*
X127817509Y-73441510D01*
X127813357Y-73370394D01*
X127812297Y-73282342D01*
X127812297Y-73086614D01*
X127673980Y-73086614D01*
X127673980Y-73690179D01*
X127743138Y-73690179D01*
X127784830Y-73688489D01*
X127806299Y-73682556D01*
X127812297Y-73671293D01*
X127815909Y-73661261D01*
X127830286Y-73663383D01*
X127859264Y-73677580D01*
X127925681Y-73699480D01*
X127996125Y-73697928D01*
X128063623Y-73674147D01*
X128095767Y-73655362D01*
X128120285Y-73635022D01*
X128138196Y-73609573D01*
X128150521Y-73575458D01*
X128158277Y-73529121D01*
X128162484Y-73467007D01*
X128164160Y-73385561D01*
X128164376Y-73322578D01*
X128164376Y-73086614D01*
X128038633Y-73086614D01*
X128038633Y-73282342D01*
G37*
X128038633Y-73282342D02*
X128037445Y-73374563D01*
X128033103Y-73444610D01*
X128024442Y-73495381D01*
X128010296Y-73529772D01*
X127989500Y-73550679D01*
X127960890Y-73561000D01*
X127925465Y-73563636D01*
X127888364Y-73560682D01*
X127860182Y-73549889D01*
X127839757Y-73528360D01*
X127825921Y-73493199D01*
X127817509Y-73441510D01*
X127813357Y-73370394D01*
X127812297Y-73282342D01*
X127812297Y-73086614D01*
X127673980Y-73086614D01*
X127673980Y-73690179D01*
X127743138Y-73690179D01*
X127784830Y-73688489D01*
X127806299Y-73682556D01*
X127812297Y-73671293D01*
X127815909Y-73661261D01*
X127830286Y-73663383D01*
X127859264Y-73677580D01*
X127925681Y-73699480D01*
X127996125Y-73697928D01*
X128063623Y-73674147D01*
X128095767Y-73655362D01*
X128120285Y-73635022D01*
X128138196Y-73609573D01*
X128150521Y-73575458D01*
X128158277Y-73529121D01*
X128162484Y-73467007D01*
X128164160Y-73385561D01*
X128164376Y-73322578D01*
X128164376Y-73086614D01*
X128038633Y-73086614D01*
X128038633Y-73282342D01*
G36*
X126814774Y-73091880D02*
G01*
X126741920Y-73122830D01*
X126718973Y-73137895D01*
X126689646Y-73161048D01*
X126671236Y-73179253D01*
X126668039Y-73185183D01*
X126677065Y-73198340D01*
X126700163Y-73220667D01*
X126718656Y-73236250D01*
X126769272Y-73276926D01*
X126809240Y-73243295D01*
X126840126Y-73221584D01*
X126870241Y-73214090D01*
X126904708Y-73215920D01*
X126959439Y-73229528D01*
X126997114Y-73257772D01*
X127020009Y-73303433D01*
X127030403Y-73369289D01*
X127030405Y-73369331D01*
X127029506Y-73442939D01*
X127015537Y-73496946D01*
X126987672Y-73533716D01*
X126968675Y-73546168D01*
X126918224Y-73561673D01*
X126864337Y-73561683D01*
X126817454Y-73546638D01*
X126806356Y-73539287D01*
X126778524Y-73520511D01*
X126756764Y-73517434D01*
X126733296Y-73531409D01*
X126707351Y-73556510D01*
X126666284Y-73598880D01*
X126711879Y-73636464D01*
X126782326Y-73678882D01*
X126861767Y-73699785D01*
X126944785Y-73698272D01*
X126999306Y-73684411D01*
X127063030Y-73650135D01*
X127113995Y-73596212D01*
X127137149Y-73558149D01*
X127155901Y-73503536D01*
X127165285Y-73434369D01*
X127165357Y-73359407D01*
X127156176Y-73287409D01*
X127137801Y-73227137D01*
X127134907Y-73220958D01*
X127092048Y-73160351D01*
X127034021Y-73116224D01*
X126965409Y-73089493D01*
X126890799Y-73081073D01*
X126814774Y-73091880D01*
G37*
X126814774Y-73091880D02*
X126741920Y-73122830D01*
X126718973Y-73137895D01*
X126689646Y-73161048D01*
X126671236Y-73179253D01*
X126668039Y-73185183D01*
X126677065Y-73198340D01*
X126700163Y-73220667D01*
X126718656Y-73236250D01*
X126769272Y-73276926D01*
X126809240Y-73243295D01*
X126840126Y-73221584D01*
X126870241Y-73214090D01*
X126904708Y-73215920D01*
X126959439Y-73229528D01*
X126997114Y-73257772D01*
X127020009Y-73303433D01*
X127030403Y-73369289D01*
X127030405Y-73369331D01*
X127029506Y-73442939D01*
X127015537Y-73496946D01*
X126987672Y-73533716D01*
X126968675Y-73546168D01*
X126918224Y-73561673D01*
X126864337Y-73561683D01*
X126817454Y-73546638D01*
X126806356Y-73539287D01*
X126778524Y-73520511D01*
X126756764Y-73517434D01*
X126733296Y-73531409D01*
X126707351Y-73556510D01*
X126666284Y-73598880D01*
X126711879Y-73636464D01*
X126782326Y-73678882D01*
X126861767Y-73699785D01*
X126944785Y-73698272D01*
X126999306Y-73684411D01*
X127063030Y-73650135D01*
X127113995Y-73596212D01*
X127137149Y-73558149D01*
X127155901Y-73503536D01*
X127165285Y-73434369D01*
X127165357Y-73359407D01*
X127156176Y-73287409D01*
X127137801Y-73227137D01*
X127134907Y-73220958D01*
X127092048Y-73160351D01*
X127034021Y-73116224D01*
X126965409Y-73089493D01*
X126890799Y-73081073D01*
X126814774Y-73091880D01*
G36*
X126354102Y-73084457D02*
G01*
X126321904Y-73092279D01*
X126260175Y-73120921D01*
X126207390Y-73164667D01*
X126170859Y-73217117D01*
X126165840Y-73228893D01*
X126158955Y-73259740D01*
X126154136Y-73305371D01*
X126152495Y-73351492D01*
X126152495Y-73438693D01*
X126334822Y-73438693D01*
X126410021Y-73438978D01*
X126462997Y-73440704D01*
X126496675Y-73445181D01*
X126513980Y-73453720D01*
X126517837Y-73467630D01*
X126511171Y-73488222D01*
X126499230Y-73512315D01*
X126465920Y-73552525D01*
X126419632Y-73572558D01*
X126363056Y-73571905D01*
X126298969Y-73550101D01*
X126243583Y-73523193D01*
X126197625Y-73559532D01*
X126151667Y-73595872D01*
X126194904Y-73635819D01*
X126252626Y-73673563D01*
X126323614Y-73696320D01*
X126399971Y-73702688D01*
X126473801Y-73691268D01*
X126485713Y-73687393D01*
X126550601Y-73653506D01*
X126598870Y-73602986D01*
X126631535Y-73534325D01*
X126649615Y-73446014D01*
X126649825Y-73444121D01*
X126651444Y-73347878D01*
X126644900Y-73313542D01*
X126517148Y-73313542D01*
X126505416Y-73318822D01*
X126473562Y-73322867D01*
X126426603Y-73325176D01*
X126396846Y-73325525D01*
X126341352Y-73325306D01*
X126306654Y-73323916D01*
X126288399Y-73320251D01*
X126282234Y-73313210D01*
X126283805Y-73301690D01*
X126285122Y-73297233D01*
X126307618Y-73255355D01*
X126342997Y-73221604D01*
X126374220Y-73206773D01*
X126415699Y-73207668D01*
X126457731Y-73226164D01*
X126492988Y-73256786D01*
X126514146Y-73294062D01*
X126517148Y-73313542D01*
X126644900Y-73313542D01*
X126635310Y-73263229D01*
X126603302Y-73192191D01*
X126557299Y-73136779D01*
X126499179Y-73099009D01*
X126430820Y-73080896D01*
X126354102Y-73084457D01*
G37*
X126354102Y-73084457D02*
X126321904Y-73092279D01*
X126260175Y-73120921D01*
X126207390Y-73164667D01*
X126170859Y-73217117D01*
X126165840Y-73228893D01*
X126158955Y-73259740D01*
X126154136Y-73305371D01*
X126152495Y-73351492D01*
X126152495Y-73438693D01*
X126334822Y-73438693D01*
X126410021Y-73438978D01*
X126462997Y-73440704D01*
X126496675Y-73445181D01*
X126513980Y-73453720D01*
X126517837Y-73467630D01*
X126511171Y-73488222D01*
X126499230Y-73512315D01*
X126465920Y-73552525D01*
X126419632Y-73572558D01*
X126363056Y-73571905D01*
X126298969Y-73550101D01*
X126243583Y-73523193D01*
X126197625Y-73559532D01*
X126151667Y-73595872D01*
X126194904Y-73635819D01*
X126252626Y-73673563D01*
X126323614Y-73696320D01*
X126399971Y-73702688D01*
X126473801Y-73691268D01*
X126485713Y-73687393D01*
X126550601Y-73653506D01*
X126598870Y-73602986D01*
X126631535Y-73534325D01*
X126649615Y-73446014D01*
X126649825Y-73444121D01*
X126651444Y-73347878D01*
X126644900Y-73313542D01*
X126517148Y-73313542D01*
X126505416Y-73318822D01*
X126473562Y-73322867D01*
X126426603Y-73325176D01*
X126396846Y-73325525D01*
X126341352Y-73325306D01*
X126306654Y-73323916D01*
X126288399Y-73320251D01*
X126282234Y-73313210D01*
X126283805Y-73301690D01*
X126285122Y-73297233D01*
X126307618Y-73255355D01*
X126342997Y-73221604D01*
X126374220Y-73206773D01*
X126415699Y-73207668D01*
X126457731Y-73226164D01*
X126492988Y-73256786D01*
X126514146Y-73294062D01*
X126517148Y-73313542D01*
X126644900Y-73313542D01*
X126635310Y-73263229D01*
X126603302Y-73192191D01*
X126557299Y-73136779D01*
X126499179Y-73099009D01*
X126430820Y-73080896D01*
X126354102Y-73084457D01*
G36*
X129786012Y-73097002D02*
G01*
X129754717Y-73111950D01*
X129724409Y-73133541D01*
X129701318Y-73158391D01*
X129684500Y-73190087D01*
X129673006Y-73232214D01*
X129665891Y-73288358D01*
X129662207Y-73362106D01*
X129661008Y-73457044D01*
X129660989Y-73466985D01*
X129660713Y-73690179D01*
X129799030Y-73690179D01*
X129799030Y-73484418D01*
X129799128Y-73408189D01*
X129799809Y-73352939D01*
X129801651Y-73314501D01*
X129805233Y-73288706D01*
X129811132Y-73271384D01*
X129819927Y-73258368D01*
X129832180Y-73245507D01*
X129875047Y-73217873D01*
X129921843Y-73212745D01*
X129966424Y-73230217D01*
X129981928Y-73243221D01*
X129993310Y-73255447D01*
X130001481Y-73268540D01*
X130006974Y-73286615D01*
X130010320Y-73313787D01*
X130012051Y-73354170D01*
X130012697Y-73411879D01*
X130012792Y-73482132D01*
X130012792Y-73690179D01*
X130151109Y-73690179D01*
X130151109Y-73086614D01*
X130081950Y-73086614D01*
X130040428Y-73088256D01*
X130019006Y-73094087D01*
X130012795Y-73105461D01*
X130012792Y-73105798D01*
X130009910Y-73116938D01*
X129997199Y-73115674D01*
X129971926Y-73103434D01*
X129914605Y-73085424D01*
X129849037Y-73083421D01*
X129786012Y-73097002D01*
G37*
X129786012Y-73097002D02*
X129754717Y-73111950D01*
X129724409Y-73133541D01*
X129701318Y-73158391D01*
X129684500Y-73190087D01*
X129673006Y-73232214D01*
X129665891Y-73288358D01*
X129662207Y-73362106D01*
X129661008Y-73457044D01*
X129660989Y-73466985D01*
X129660713Y-73690179D01*
X129799030Y-73690179D01*
X129799030Y-73484418D01*
X129799128Y-73408189D01*
X129799809Y-73352939D01*
X129801651Y-73314501D01*
X129805233Y-73288706D01*
X129811132Y-73271384D01*
X129819927Y-73258368D01*
X129832180Y-73245507D01*
X129875047Y-73217873D01*
X129921843Y-73212745D01*
X129966424Y-73230217D01*
X129981928Y-73243221D01*
X129993310Y-73255447D01*
X130001481Y-73268540D01*
X130006974Y-73286615D01*
X130010320Y-73313787D01*
X130012051Y-73354170D01*
X130012697Y-73411879D01*
X130012792Y-73482132D01*
X130012792Y-73690179D01*
X130151109Y-73690179D01*
X130151109Y-73086614D01*
X130081950Y-73086614D01*
X130040428Y-73088256D01*
X130019006Y-73094087D01*
X130012795Y-73105461D01*
X130012792Y-73105798D01*
X130009910Y-73116938D01*
X129997199Y-73115674D01*
X129971926Y-73103434D01*
X129914605Y-73085424D01*
X129849037Y-73083421D01*
X129786012Y-73097002D01*
G36*
X127232540Y-73086030D02*
G01*
X127189289Y-73099245D01*
X127161442Y-73115941D01*
X127152371Y-73129145D01*
X127154868Y-73144797D01*
X127171069Y-73169385D01*
X127184768Y-73186800D01*
X127213008Y-73218283D01*
X127234225Y-73231529D01*
X127252312Y-73230664D01*
X127305965Y-73217010D01*
X127345370Y-73217630D01*
X127377368Y-73233104D01*
X127388110Y-73242161D01*
X127422495Y-73274027D01*
X127422495Y-73690179D01*
X127560812Y-73690179D01*
X127560812Y-73086614D01*
X127491653Y-73086614D01*
X127450131Y-73088256D01*
X127428709Y-73094087D01*
X127422498Y-73105461D01*
X127422495Y-73105798D01*
X127419561Y-73117713D01*
X127406296Y-73116159D01*
X127387916Y-73107563D01*
X127349954Y-73091568D01*
X127319128Y-73081945D01*
X127279464Y-73079478D01*
X127232540Y-73086030D01*
G37*
X127232540Y-73086030D02*
X127189289Y-73099245D01*
X127161442Y-73115941D01*
X127152371Y-73129145D01*
X127154868Y-73144797D01*
X127171069Y-73169385D01*
X127184768Y-73186800D01*
X127213008Y-73218283D01*
X127234225Y-73231529D01*
X127252312Y-73230664D01*
X127305965Y-73217010D01*
X127345370Y-73217630D01*
X127377368Y-73233104D01*
X127388110Y-73242161D01*
X127422495Y-73274027D01*
X127422495Y-73690179D01*
X127560812Y-73690179D01*
X127560812Y-73086614D01*
X127491653Y-73086614D01*
X127450131Y-73088256D01*
X127428709Y-73094087D01*
X127422498Y-73105461D01*
X127422495Y-73105798D01*
X127419561Y-73117713D01*
X127406296Y-73116159D01*
X127387916Y-73107563D01*
X127349954Y-73091568D01*
X127319128Y-73081945D01*
X127279464Y-73079478D01*
X127232540Y-73086030D01*
G36*
X128655036Y-68918018D02*
G01*
X128598188Y-69219570D01*
X128178662Y-69392512D01*
X127927016Y-69221395D01*
X127856542Y-69173750D01*
X127792837Y-69131210D01*
X127738874Y-69095715D01*
X127697627Y-69069210D01*
X127672066Y-69053636D01*
X127665105Y-69050278D01*
X127652565Y-69058914D01*
X127625769Y-69082792D01*
X127587720Y-69118859D01*
X127541421Y-69164067D01*
X127489877Y-69215364D01*
X127436091Y-69269701D01*
X127383065Y-69324028D01*
X127333805Y-69375295D01*
X127291313Y-69420451D01*
X127258593Y-69456446D01*
X127238649Y-69480230D01*
X127233881Y-69488190D01*
X127240743Y-69502865D01*
X127259980Y-69535014D01*
X127289570Y-69581492D01*
X127327490Y-69639156D01*
X127371718Y-69704860D01*
X127397346Y-69742336D01*
X127444059Y-69810768D01*
X127485568Y-69872520D01*
X127519860Y-69924519D01*
X127544920Y-69963692D01*
X127558736Y-69986965D01*
X127560812Y-69991855D01*
X127556105Y-70005755D01*
X127543277Y-70038150D01*
X127524262Y-70084485D01*
X127500997Y-70140206D01*
X127475416Y-70200758D01*
X127449455Y-70261586D01*
X127425050Y-70318136D01*
X127404137Y-70365852D01*
X127388651Y-70400181D01*
X127380528Y-70416568D01*
X127380048Y-70417212D01*
X127367293Y-70420341D01*
X127333323Y-70427321D01*
X127281660Y-70437467D01*
X127215824Y-70450092D01*
X127139336Y-70464509D01*
X127094710Y-70472823D01*
X127012979Y-70488384D01*
X126939157Y-70503192D01*
X126876979Y-70516436D01*
X126830178Y-70527305D01*
X126802491Y-70534989D01*
X126796926Y-70537427D01*
X126791474Y-70553930D01*
X126787076Y-70591200D01*
X126783728Y-70644880D01*
X126781426Y-70710612D01*
X126780168Y-70784037D01*
X126779952Y-70860796D01*
X126780773Y-70936532D01*
X126782629Y-71006886D01*
X126785518Y-71067500D01*
X126789435Y-71114016D01*
X126794378Y-71142075D01*
X126797343Y-71147916D01*
X126815066Y-71154917D01*
X126852619Y-71164927D01*
X126905036Y-71176769D01*
X126967348Y-71189267D01*
X126989100Y-71193310D01*
X127093976Y-71212520D01*
X127176820Y-71227991D01*
X127240370Y-71240337D01*
X127287363Y-71250173D01*
X127320537Y-71258114D01*
X127342629Y-71264776D01*
X127356376Y-71270773D01*
X127364516Y-71276719D01*
X127365655Y-71277894D01*
X127377023Y-71296826D01*
X127394365Y-71333669D01*
X127415950Y-71383913D01*
X127440046Y-71443046D01*
X127464921Y-71506556D01*
X127488843Y-71569932D01*
X127510081Y-71628662D01*
X127526903Y-71678235D01*
X127537578Y-71714139D01*
X127540373Y-71731862D01*
X127540140Y-71732483D01*
X127530669Y-71746970D01*
X127509182Y-71778844D01*
X127477937Y-71824789D01*
X127439193Y-71881485D01*
X127395207Y-71945617D01*
X127382681Y-71963842D01*
X127338016Y-72029914D01*
X127298712Y-72090200D01*
X127266912Y-72141235D01*
X127244755Y-72179560D01*
X127234383Y-72201711D01*
X127233881Y-72204432D01*
X127242595Y-72218736D01*
X127266675Y-72247072D01*
X127303024Y-72286396D01*
X127348547Y-72333661D01*
X127400148Y-72385823D01*
X127454733Y-72439835D01*
X127509206Y-72492653D01*
X127560471Y-72541231D01*
X127605433Y-72582523D01*
X127640996Y-72613485D01*
X127664065Y-72631070D01*
X127670446Y-72633941D01*
X127685301Y-72627178D01*
X127715714Y-72608939D01*
X127756732Y-72582297D01*
X127788291Y-72560852D01*
X127845475Y-72521503D01*
X127913194Y-72475171D01*
X127981120Y-72428913D01*
X128017639Y-72404155D01*
X128141248Y-72320547D01*
X128245009Y-72376650D01*
X128292280Y-72401228D01*
X128332477Y-72420331D01*
X128359674Y-72431227D01*
X128366598Y-72432743D01*
X128374923Y-72421549D01*
X128391346Y-72389917D01*
X128414643Y-72340765D01*
X128443586Y-72277010D01*
X128476950Y-72201571D01*
X128513509Y-72117364D01*
X128552036Y-72027308D01*
X128591306Y-71934321D01*
X128630092Y-71841320D01*
X128667170Y-71751223D01*
X128701311Y-71666948D01*
X128731292Y-71591413D01*
X128755884Y-71527534D01*
X128773864Y-71478231D01*
X128784003Y-71446421D01*
X128785634Y-71435496D01*
X128772709Y-71421561D01*
X128744411Y-71398940D01*
X128706654Y-71372333D01*
X128703485Y-71370228D01*
X128605900Y-71292114D01*
X128527214Y-71200982D01*
X128468109Y-71099745D01*
X128429268Y-70991318D01*
X128411372Y-70878614D01*
X128415103Y-70764548D01*
X128441143Y-70652034D01*
X128490175Y-70543985D01*
X128504600Y-70520345D01*
X128579631Y-70424887D01*
X128668270Y-70348232D01*
X128767451Y-70290780D01*
X128874105Y-70252929D01*
X128985164Y-70235078D01*
X129097561Y-70237625D01*
X129208227Y-70260970D01*
X129314094Y-70305510D01*
X129412095Y-70371645D01*
X129442410Y-70398487D01*
X129519562Y-70482512D01*
X129575782Y-70570966D01*
X129614347Y-70670115D01*
X129635826Y-70768303D01*
X129641128Y-70878697D01*
X129623448Y-70989640D01*
X129584581Y-71097381D01*
X129526323Y-71198169D01*
X129450469Y-71288256D01*
X129358817Y-71363892D01*
X129346772Y-71371864D01*
X129308611Y-71397974D01*
X129279601Y-71420595D01*
X129265732Y-71435039D01*
X129265531Y-71435496D01*
X129268508Y-71451121D01*
X129280311Y-71486582D01*
X129299714Y-71538962D01*
X129325488Y-71605345D01*
X129356409Y-71682814D01*
X129391249Y-71768450D01*
X129428783Y-71859337D01*
X129467783Y-71952559D01*
X129507023Y-72045197D01*
X129545276Y-72134335D01*
X129581317Y-72217055D01*
X129613917Y-72290441D01*
X129641852Y-72351575D01*
X129663895Y-72397541D01*
X129678818Y-72425421D01*
X129684828Y-72432743D01*
X129703191Y-72427041D01*
X129737552Y-72411749D01*
X129781984Y-72389599D01*
X129806417Y-72376650D01*
X129910178Y-72320547D01*
X130033787Y-72404155D01*
X130096886Y-72446987D01*
X130165970Y-72494122D01*
X130230707Y-72538503D01*
X130263134Y-72560852D01*
X130308741Y-72591477D01*
X130347360Y-72615747D01*
X130373952Y-72630587D01*
X130382590Y-72633724D01*
X130395161Y-72625261D01*
X130422984Y-72601636D01*
X130463361Y-72565302D01*
X130513595Y-72518711D01*
X130570988Y-72464317D01*
X130607286Y-72429392D01*
X130670790Y-72366996D01*
X130725673Y-72311188D01*
X130769714Y-72264354D01*
X130800695Y-72228882D01*
X130816398Y-72207161D01*
X130817905Y-72202752D01*
X130810914Y-72185985D01*
X130791594Y-72152082D01*
X130762091Y-72104476D01*
X130724545Y-72046599D01*
X130681100Y-71981884D01*
X130668745Y-71963842D01*
X130623727Y-71898267D01*
X130583340Y-71839228D01*
X130549840Y-71790042D01*
X130525486Y-71754028D01*
X130512536Y-71734502D01*
X130511285Y-71732483D01*
X130513156Y-71716922D01*
X130523087Y-71682709D01*
X130539347Y-71634355D01*
X130560205Y-71576371D01*
X130583927Y-71513270D01*
X130608784Y-71449563D01*
X130633042Y-71389761D01*
X130654971Y-71338376D01*
X130672838Y-71299919D01*
X130684913Y-71278902D01*
X130685771Y-71277894D01*
X130693154Y-71271888D01*
X130705625Y-71265948D01*
X130725920Y-71259460D01*
X130756778Y-71251809D01*
X130800934Y-71242380D01*
X130861126Y-71230559D01*
X130940093Y-71215729D01*
X131040570Y-71197277D01*
X131062325Y-71193310D01*
X131126802Y-71180853D01*
X131183011Y-71168666D01*
X131225987Y-71157926D01*
X131250760Y-71149809D01*
X131254082Y-71147916D01*
X131259556Y-71131138D01*
X131264006Y-71093645D01*
X131267428Y-71039794D01*
X131269819Y-70973944D01*
X131271177Y-70900453D01*
X131271499Y-70823680D01*
X131270781Y-70747983D01*
X131269021Y-70677720D01*
X131266216Y-70617250D01*
X131262362Y-70570930D01*
X131257457Y-70543119D01*
X131254500Y-70537427D01*
X131238037Y-70531686D01*
X131200551Y-70522345D01*
X131145775Y-70510215D01*
X131077445Y-70496107D01*
X130999294Y-70480830D01*
X130956716Y-70472823D01*
X130875929Y-70457721D01*
X130803887Y-70444040D01*
X130744111Y-70432467D01*
X130700121Y-70423687D01*
X130675439Y-70418387D01*
X130671377Y-70417212D01*
X130664511Y-70403965D01*
X130649998Y-70372057D01*
X130629771Y-70326047D01*
X130605766Y-70270492D01*
X130579918Y-70209953D01*
X130554160Y-70148986D01*
X130530427Y-70092151D01*
X130510654Y-70044006D01*
X130496776Y-70009110D01*
X130490726Y-69992021D01*
X130490614Y-69991274D01*
X130497472Y-69977793D01*
X130516698Y-69946770D01*
X130546272Y-69901289D01*
X130584173Y-69844432D01*
X130628380Y-69779283D01*
X130654079Y-69741862D01*
X130700907Y-69673247D01*
X130742499Y-69610952D01*
X130776825Y-69558129D01*
X130801857Y-69517927D01*
X130815565Y-69493500D01*
X130817544Y-69488024D01*
X130809034Y-69475278D01*
X130785507Y-69448063D01*
X130749968Y-69409428D01*
X130705423Y-69362423D01*
X130654877Y-69310095D01*
X130601336Y-69255495D01*
X130547805Y-69201670D01*
X130497289Y-69151670D01*
X130452794Y-69108543D01*
X130417325Y-69075339D01*
X130393887Y-69055106D01*
X130386046Y-69050278D01*
X130373280Y-69057067D01*
X130342744Y-69076142D01*
X130297410Y-69105561D01*
X130240244Y-69143381D01*
X130174216Y-69187661D01*
X130124410Y-69221395D01*
X129872764Y-69392512D01*
X129663001Y-69306041D01*
X129453237Y-69219570D01*
X129396389Y-68918018D01*
X129339540Y-68616466D01*
X128711885Y-68616466D01*
X128655036Y-68918018D01*
G37*
X128655036Y-68918018D02*
X128598188Y-69219570D01*
X128178662Y-69392512D01*
X127927016Y-69221395D01*
X127856542Y-69173750D01*
X127792837Y-69131210D01*
X127738874Y-69095715D01*
X127697627Y-69069210D01*
X127672066Y-69053636D01*
X127665105Y-69050278D01*
X127652565Y-69058914D01*
X127625769Y-69082792D01*
X127587720Y-69118859D01*
X127541421Y-69164067D01*
X127489877Y-69215364D01*
X127436091Y-69269701D01*
X127383065Y-69324028D01*
X127333805Y-69375295D01*
X127291313Y-69420451D01*
X127258593Y-69456446D01*
X127238649Y-69480230D01*
X127233881Y-69488190D01*
X127240743Y-69502865D01*
X127259980Y-69535014D01*
X127289570Y-69581492D01*
X127327490Y-69639156D01*
X127371718Y-69704860D01*
X127397346Y-69742336D01*
X127444059Y-69810768D01*
X127485568Y-69872520D01*
X127519860Y-69924519D01*
X127544920Y-69963692D01*
X127558736Y-69986965D01*
X127560812Y-69991855D01*
X127556105Y-70005755D01*
X127543277Y-70038150D01*
X127524262Y-70084485D01*
X127500997Y-70140206D01*
X127475416Y-70200758D01*
X127449455Y-70261586D01*
X127425050Y-70318136D01*
X127404137Y-70365852D01*
X127388651Y-70400181D01*
X127380528Y-70416568D01*
X127380048Y-70417212D01*
X127367293Y-70420341D01*
X127333323Y-70427321D01*
X127281660Y-70437467D01*
X127215824Y-70450092D01*
X127139336Y-70464509D01*
X127094710Y-70472823D01*
X127012979Y-70488384D01*
X126939157Y-70503192D01*
X126876979Y-70516436D01*
X126830178Y-70527305D01*
X126802491Y-70534989D01*
X126796926Y-70537427D01*
X126791474Y-70553930D01*
X126787076Y-70591200D01*
X126783728Y-70644880D01*
X126781426Y-70710612D01*
X126780168Y-70784037D01*
X126779952Y-70860796D01*
X126780773Y-70936532D01*
X126782629Y-71006886D01*
X126785518Y-71067500D01*
X126789435Y-71114016D01*
X126794378Y-71142075D01*
X126797343Y-71147916D01*
X126815066Y-71154917D01*
X126852619Y-71164927D01*
X126905036Y-71176769D01*
X126967348Y-71189267D01*
X126989100Y-71193310D01*
X127093976Y-71212520D01*
X127176820Y-71227991D01*
X127240370Y-71240337D01*
X127287363Y-71250173D01*
X127320537Y-71258114D01*
X127342629Y-71264776D01*
X127356376Y-71270773D01*
X127364516Y-71276719D01*
X127365655Y-71277894D01*
X127377023Y-71296826D01*
X127394365Y-71333669D01*
X127415950Y-71383913D01*
X127440046Y-71443046D01*
X127464921Y-71506556D01*
X127488843Y-71569932D01*
X127510081Y-71628662D01*
X127526903Y-71678235D01*
X127537578Y-71714139D01*
X127540373Y-71731862D01*
X127540140Y-71732483D01*
X127530669Y-71746970D01*
X127509182Y-71778844D01*
X127477937Y-71824789D01*
X127439193Y-71881485D01*
X127395207Y-71945617D01*
X127382681Y-71963842D01*
X127338016Y-72029914D01*
X127298712Y-72090200D01*
X127266912Y-72141235D01*
X127244755Y-72179560D01*
X127234383Y-72201711D01*
X127233881Y-72204432D01*
X127242595Y-72218736D01*
X127266675Y-72247072D01*
X127303024Y-72286396D01*
X127348547Y-72333661D01*
X127400148Y-72385823D01*
X127454733Y-72439835D01*
X127509206Y-72492653D01*
X127560471Y-72541231D01*
X127605433Y-72582523D01*
X127640996Y-72613485D01*
X127664065Y-72631070D01*
X127670446Y-72633941D01*
X127685301Y-72627178D01*
X127715714Y-72608939D01*
X127756732Y-72582297D01*
X127788291Y-72560852D01*
X127845475Y-72521503D01*
X127913194Y-72475171D01*
X127981120Y-72428913D01*
X128017639Y-72404155D01*
X128141248Y-72320547D01*
X128245009Y-72376650D01*
X128292280Y-72401228D01*
X128332477Y-72420331D01*
X128359674Y-72431227D01*
X128366598Y-72432743D01*
X128374923Y-72421549D01*
X128391346Y-72389917D01*
X128414643Y-72340765D01*
X128443586Y-72277010D01*
X128476950Y-72201571D01*
X128513509Y-72117364D01*
X128552036Y-72027308D01*
X128591306Y-71934321D01*
X128630092Y-71841320D01*
X128667170Y-71751223D01*
X128701311Y-71666948D01*
X128731292Y-71591413D01*
X128755884Y-71527534D01*
X128773864Y-71478231D01*
X128784003Y-71446421D01*
X128785634Y-71435496D01*
X128772709Y-71421561D01*
X128744411Y-71398940D01*
X128706654Y-71372333D01*
X128703485Y-71370228D01*
X128605900Y-71292114D01*
X128527214Y-71200982D01*
X128468109Y-71099745D01*
X128429268Y-70991318D01*
X128411372Y-70878614D01*
X128415103Y-70764548D01*
X128441143Y-70652034D01*
X128490175Y-70543985D01*
X128504600Y-70520345D01*
X128579631Y-70424887D01*
X128668270Y-70348232D01*
X128767451Y-70290780D01*
X128874105Y-70252929D01*
X128985164Y-70235078D01*
X129097561Y-70237625D01*
X129208227Y-70260970D01*
X129314094Y-70305510D01*
X129412095Y-70371645D01*
X129442410Y-70398487D01*
X129519562Y-70482512D01*
X129575782Y-70570966D01*
X129614347Y-70670115D01*
X129635826Y-70768303D01*
X129641128Y-70878697D01*
X129623448Y-70989640D01*
X129584581Y-71097381D01*
X129526323Y-71198169D01*
X129450469Y-71288256D01*
X129358817Y-71363892D01*
X129346772Y-71371864D01*
X129308611Y-71397974D01*
X129279601Y-71420595D01*
X129265732Y-71435039D01*
X129265531Y-71435496D01*
X129268508Y-71451121D01*
X129280311Y-71486582D01*
X129299714Y-71538962D01*
X129325488Y-71605345D01*
X129356409Y-71682814D01*
X129391249Y-71768450D01*
X129428783Y-71859337D01*
X129467783Y-71952559D01*
X129507023Y-72045197D01*
X129545276Y-72134335D01*
X129581317Y-72217055D01*
X129613917Y-72290441D01*
X129641852Y-72351575D01*
X129663895Y-72397541D01*
X129678818Y-72425421D01*
X129684828Y-72432743D01*
X129703191Y-72427041D01*
X129737552Y-72411749D01*
X129781984Y-72389599D01*
X129806417Y-72376650D01*
X129910178Y-72320547D01*
X130033787Y-72404155D01*
X130096886Y-72446987D01*
X130165970Y-72494122D01*
X130230707Y-72538503D01*
X130263134Y-72560852D01*
X130308741Y-72591477D01*
X130347360Y-72615747D01*
X130373952Y-72630587D01*
X130382590Y-72633724D01*
X130395161Y-72625261D01*
X130422984Y-72601636D01*
X130463361Y-72565302D01*
X130513595Y-72518711D01*
X130570988Y-72464317D01*
X130607286Y-72429392D01*
X130670790Y-72366996D01*
X130725673Y-72311188D01*
X130769714Y-72264354D01*
X130800695Y-72228882D01*
X130816398Y-72207161D01*
X130817905Y-72202752D01*
X130810914Y-72185985D01*
X130791594Y-72152082D01*
X130762091Y-72104476D01*
X130724545Y-72046599D01*
X130681100Y-71981884D01*
X130668745Y-71963842D01*
X130623727Y-71898267D01*
X130583340Y-71839228D01*
X130549840Y-71790042D01*
X130525486Y-71754028D01*
X130512536Y-71734502D01*
X130511285Y-71732483D01*
X130513156Y-71716922D01*
X130523087Y-71682709D01*
X130539347Y-71634355D01*
X130560205Y-71576371D01*
X130583927Y-71513270D01*
X130608784Y-71449563D01*
X130633042Y-71389761D01*
X130654971Y-71338376D01*
X130672838Y-71299919D01*
X130684913Y-71278902D01*
X130685771Y-71277894D01*
X130693154Y-71271888D01*
X130705625Y-71265948D01*
X130725920Y-71259460D01*
X130756778Y-71251809D01*
X130800934Y-71242380D01*
X130861126Y-71230559D01*
X130940093Y-71215729D01*
X131040570Y-71197277D01*
X131062325Y-71193310D01*
X131126802Y-71180853D01*
X131183011Y-71168666D01*
X131225987Y-71157926D01*
X131250760Y-71149809D01*
X131254082Y-71147916D01*
X131259556Y-71131138D01*
X131264006Y-71093645D01*
X131267428Y-71039794D01*
X131269819Y-70973944D01*
X131271177Y-70900453D01*
X131271499Y-70823680D01*
X131270781Y-70747983D01*
X131269021Y-70677720D01*
X131266216Y-70617250D01*
X131262362Y-70570930D01*
X131257457Y-70543119D01*
X131254500Y-70537427D01*
X131238037Y-70531686D01*
X131200551Y-70522345D01*
X131145775Y-70510215D01*
X131077445Y-70496107D01*
X130999294Y-70480830D01*
X130956716Y-70472823D01*
X130875929Y-70457721D01*
X130803887Y-70444040D01*
X130744111Y-70432467D01*
X130700121Y-70423687D01*
X130675439Y-70418387D01*
X130671377Y-70417212D01*
X130664511Y-70403965D01*
X130649998Y-70372057D01*
X130629771Y-70326047D01*
X130605766Y-70270492D01*
X130579918Y-70209953D01*
X130554160Y-70148986D01*
X130530427Y-70092151D01*
X130510654Y-70044006D01*
X130496776Y-70009110D01*
X130490726Y-69992021D01*
X130490614Y-69991274D01*
X130497472Y-69977793D01*
X130516698Y-69946770D01*
X130546272Y-69901289D01*
X130584173Y-69844432D01*
X130628380Y-69779283D01*
X130654079Y-69741862D01*
X130700907Y-69673247D01*
X130742499Y-69610952D01*
X130776825Y-69558129D01*
X130801857Y-69517927D01*
X130815565Y-69493500D01*
X130817544Y-69488024D01*
X130809034Y-69475278D01*
X130785507Y-69448063D01*
X130749968Y-69409428D01*
X130705423Y-69362423D01*
X130654877Y-69310095D01*
X130601336Y-69255495D01*
X130547805Y-69201670D01*
X130497289Y-69151670D01*
X130452794Y-69108543D01*
X130417325Y-69075339D01*
X130393887Y-69055106D01*
X130386046Y-69050278D01*
X130373280Y-69057067D01*
X130342744Y-69076142D01*
X130297410Y-69105561D01*
X130240244Y-69143381D01*
X130174216Y-69187661D01*
X130124410Y-69221395D01*
X129872764Y-69392512D01*
X129663001Y-69306041D01*
X129453237Y-69219570D01*
X129396389Y-68918018D01*
X129339540Y-68616466D01*
X128711885Y-68616466D01*
X128655036Y-68918018D01*
D11*
X138644000Y-67724000D03*
X133644000Y-67724000D03*
D12*
X139644000Y-65024000D03*
X132644000Y-65024000D03*
D13*
X122682000Y-89662000D03*
X125222000Y-89662000D03*
X127762000Y-89662000D03*
D14*
X130302000Y-89662000D03*
D15*
X119126000Y-81788000D03*
X119126000Y-79248000D03*
D13*
X159004000Y-65536000D03*
X159004000Y-68076000D03*
X159004000Y-70616000D03*
X159004000Y-73156000D03*
X159004000Y-75696000D03*
X159004000Y-78236000D03*
X159004000Y-80776000D03*
X159004000Y-83316000D03*
X159004000Y-85856000D03*
D14*
X159004000Y-88396000D03*
X158990000Y-110236000D03*
D13*
X158990000Y-107696000D03*
X158990000Y-105156000D03*
X158990000Y-102616000D03*
X158990000Y-100076000D03*
X158990000Y-97536000D03*
X158990000Y-94996000D03*
X158990000Y-92456000D03*
X110490000Y-74676000D03*
X110490000Y-77216000D03*
X110490000Y-79756000D03*
X110490000Y-82296000D03*
X110490000Y-84836000D03*
X110490000Y-87376000D03*
X110490000Y-89916000D03*
X110490000Y-92456000D03*
X110490000Y-94996000D03*
X110490000Y-97536000D03*
X110490000Y-100076000D03*
X110490000Y-102616000D03*
X110490000Y-105156000D03*
X110490000Y-107696000D03*
D14*
X110490000Y-110236000D03*
D16*
X140970000Y-76708000D03*
X139954000Y-74676000D03*
X140970000Y-75692000D03*
X140970000Y-74676000D03*
X133096000Y-73152000D03*
X133858000Y-73152000D03*
X132588000Y-73660000D03*
X133604000Y-73660000D03*
X134366000Y-73660000D03*
X134620000Y-73152000D03*
X135128000Y-73660000D03*
X135382000Y-73152000D03*
X136144000Y-73152000D03*
X133858000Y-69596000D03*
X136652000Y-69342000D03*
X142002902Y-69910752D03*
X114911231Y-99464769D03*
X127000000Y-104394000D03*
X116840000Y-107696000D03*
X114554000Y-108712000D03*
X120650000Y-98298000D03*
X133858000Y-106680000D03*
X135128000Y-109728000D03*
X130048000Y-100076000D03*
X131318000Y-96682000D03*
X127000000Y-94742000D03*
X125984000Y-97790000D03*
X138684000Y-74168000D03*
X116678000Y-101600000D03*
X124964000Y-95762000D03*
X116678000Y-100422000D03*
X138684000Y-73152000D03*
X120142000Y-110744000D03*
X115824000Y-97536000D03*
X115824000Y-90932000D03*
X155956000Y-100838000D03*
X139446000Y-106934000D03*
X136398000Y-101346000D03*
X124968000Y-105664000D03*
X137252001Y-103470001D03*
X137414000Y-105664000D03*
X130302000Y-101346000D03*
X131318000Y-108458000D03*
X126492000Y-108712000D03*
X131572000Y-101600000D03*
X155956000Y-104902000D03*
X127508000Y-98806000D03*
X155956000Y-107696000D03*
X133096000Y-109728000D03*
X136398000Y-108712000D03*
X125222000Y-99822000D03*
X156210000Y-110236000D03*
X127762000Y-110236000D03*
X127508000Y-106680000D03*
X130048000Y-86360000D03*
X133096000Y-96774000D03*
X134020000Y-89662000D03*
X139192000Y-102616000D03*
X156615130Y-93623130D03*
X138938000Y-99616000D03*
X137668000Y-96774000D03*
X139446000Y-104648000D03*
X134874000Y-102362000D03*
X135636000Y-99584001D03*
X153162000Y-89408000D03*
X155286000Y-86268000D03*
X156210000Y-81026000D03*
X148082000Y-79756000D03*
X139700000Y-91440000D03*
X148082000Y-95504000D03*
X148082000Y-101086990D03*
X143510000Y-106172000D03*
X153162000Y-92710000D03*
X154940000Y-89408000D03*
X157480000Y-89408000D03*
X138938000Y-95758000D03*
X143510000Y-104394000D03*
X145542000Y-97028000D03*
X145542000Y-97536000D03*
X117094000Y-98298000D03*
X114300000Y-83820000D03*
X114300000Y-84836000D03*
X114300000Y-85852000D03*
X113284000Y-85852000D03*
X112268000Y-85852000D03*
X112268000Y-84836000D03*
X113284000Y-84836000D03*
X113284000Y-83820000D03*
X112268000Y-83820000D03*
X112268000Y-86868000D03*
X112268000Y-87884000D03*
X113284000Y-86868000D03*
X112776000Y-76200000D03*
X113792000Y-76200000D03*
X114808000Y-76200000D03*
X115824000Y-76200000D03*
X116840000Y-76200000D03*
X117856000Y-76200000D03*
X118872000Y-76200000D03*
X119888000Y-76200000D03*
X121412000Y-73406000D03*
X120396000Y-73406000D03*
X120396000Y-72390000D03*
X121412000Y-72390000D03*
X121412000Y-71374000D03*
X120396000Y-71374000D03*
X120396000Y-70358000D03*
X121412000Y-70358000D03*
X120904000Y-76200000D03*
X121920000Y-76200000D03*
X122936000Y-76200000D03*
X123952000Y-76200000D03*
X124968000Y-76200000D03*
X124968000Y-77216000D03*
X123952000Y-77216000D03*
X121920000Y-77216000D03*
X120904000Y-77216000D03*
X119888000Y-77216000D03*
X118872000Y-77216000D03*
X117856000Y-77216000D03*
X116840000Y-77216000D03*
X115824000Y-77216000D03*
X124460000Y-78232000D03*
X125476000Y-78232000D03*
X146050000Y-96520000D03*
X146812000Y-96520000D03*
X149098000Y-96266000D03*
X149860000Y-96266000D03*
X149606000Y-95504000D03*
X117856000Y-111506000D03*
X117094000Y-110744000D03*
X117094000Y-111506000D03*
X116332000Y-110744000D03*
X116332000Y-111506000D03*
X115570000Y-110744000D03*
X115570000Y-111506000D03*
X114808000Y-110744000D03*
X114808000Y-111506000D03*
X114046000Y-110744000D03*
X114046000Y-111506000D03*
X113284000Y-111506000D03*
X118618000Y-111506000D03*
X129032000Y-91440000D03*
X129794000Y-91440000D03*
X130556000Y-91440000D03*
X130556000Y-92202000D03*
X129794000Y-92202000D03*
X129032000Y-92202000D03*
X129032000Y-92964000D03*
X129794000Y-92964000D03*
X129032000Y-93726000D03*
X152908000Y-81026000D03*
X152654000Y-77724000D03*
X142840000Y-101762000D03*
X143488500Y-102129500D03*
X145796000Y-100584000D03*
X140716000Y-72644000D03*
X140716000Y-73406000D03*
X143764000Y-74422000D03*
X143764000Y-75184000D03*
X142240000Y-75184000D03*
X142240000Y-74422000D03*
X143002000Y-74422000D03*
X143002000Y-75184000D03*
X111760000Y-101346000D03*
X112268000Y-101854000D03*
X112268000Y-102616000D03*
X113030000Y-102616000D03*
X112776000Y-103378000D03*
X113538000Y-103378000D03*
X146812000Y-76708000D03*
X146812000Y-77470000D03*
X147574000Y-77470000D03*
X147574000Y-78232000D03*
X146812000Y-78232000D03*
X147066000Y-78994000D03*
X140208000Y-83058000D03*
X139700000Y-83058000D03*
X137922000Y-84836000D03*
X138684000Y-85598000D03*
X137160000Y-85344000D03*
X137922000Y-86106000D03*
X123190000Y-82550000D03*
X122174000Y-82550000D03*
X122682000Y-81788000D03*
X121666000Y-81788000D03*
X122174000Y-81026000D03*
X120904000Y-81280000D03*
X121412000Y-80518000D03*
X138938000Y-78994000D03*
X138938000Y-78232000D03*
X139700000Y-78232000D03*
X140462000Y-78232000D03*
X144272000Y-77978000D03*
X144780000Y-78486000D03*
X143764000Y-80156000D03*
X109474000Y-64516000D03*
X110236000Y-64516000D03*
X110998000Y-64516000D03*
X111760000Y-64516000D03*
X112522000Y-64516000D03*
X113284000Y-64516000D03*
X114046000Y-64516000D03*
X114808000Y-64516000D03*
X115570000Y-64516000D03*
X116332000Y-64516000D03*
X117094000Y-64516000D03*
X117856000Y-64516000D03*
X118618000Y-64516000D03*
X119380000Y-64516000D03*
X120142000Y-64516000D03*
X120142000Y-65278000D03*
X119380000Y-65278000D03*
X118618000Y-65278000D03*
X117856000Y-65278000D03*
X117094000Y-65278000D03*
X116332000Y-65278000D03*
X115570000Y-65278000D03*
X114808000Y-65278000D03*
X114046000Y-65278000D03*
X113284000Y-65278000D03*
X112522000Y-65278000D03*
X111760000Y-65278000D03*
X110998000Y-65278000D03*
X110236000Y-65278000D03*
X109474000Y-65278000D03*
X120396000Y-69342000D03*
X120396000Y-68326000D03*
X120396000Y-67310000D03*
X120396000Y-66294000D03*
X119380000Y-69596000D03*
X119380000Y-68580000D03*
X112268000Y-66294000D03*
X113284000Y-66294000D03*
X114300000Y-66294000D03*
X115316000Y-66294000D03*
X116332000Y-66294000D03*
X112268000Y-67310000D03*
X113284000Y-67310000D03*
X114300000Y-67310000D03*
X115316000Y-67310000D03*
X116332000Y-67310000D03*
X118364000Y-68580000D03*
X117348000Y-68580000D03*
X116332000Y-68580000D03*
X115316000Y-68580000D03*
X114300000Y-68580000D03*
X113284000Y-68580000D03*
X112268000Y-68580000D03*
X111252000Y-68580000D03*
X110236000Y-68580000D03*
X109474000Y-68580000D03*
X109474000Y-69596000D03*
X110236000Y-69596000D03*
X111252000Y-69596000D03*
X112268000Y-69596000D03*
X113284000Y-69596000D03*
X114300000Y-69596000D03*
X115316000Y-69596000D03*
X116332000Y-69596000D03*
X117348000Y-69596000D03*
X118364000Y-69596000D03*
X121412000Y-69342000D03*
X121412000Y-68326000D03*
X122428000Y-68326000D03*
X122428000Y-69342000D03*
X123444000Y-69850000D03*
X123444000Y-68834000D03*
X124460000Y-70104000D03*
X125222000Y-70104000D03*
X124460000Y-69088000D03*
X125222000Y-69088000D03*
X125222000Y-68072000D03*
X124206000Y-68072000D03*
X126238000Y-68072000D03*
X127254000Y-68072000D03*
X128524000Y-68072000D03*
X126238000Y-67056000D03*
X126238000Y-66040000D03*
X126238000Y-65024000D03*
X123190000Y-64516000D03*
X124206000Y-64516000D03*
X125222000Y-64516000D03*
X127254000Y-64516000D03*
X128270000Y-64516000D03*
X129286000Y-64516000D03*
X145796000Y-66040000D03*
X146558000Y-65278000D03*
X147320000Y-64516000D03*
X146558000Y-64516000D03*
X145796000Y-65278000D03*
X145796000Y-64516000D03*
X145034000Y-66040000D03*
X144272000Y-66040000D03*
X142748000Y-65532000D03*
X141732000Y-65532000D03*
X140462000Y-66802000D03*
X140462000Y-67818000D03*
X141732000Y-64516000D03*
X142748000Y-64516000D03*
X145034000Y-65278000D03*
X144272000Y-65278000D03*
X148336000Y-64516000D03*
X145034000Y-64516000D03*
X144272000Y-64516000D03*
X143510000Y-64516000D03*
X143510000Y-65532000D03*
X149098000Y-64516000D03*
X149860000Y-64516000D03*
X150622000Y-64516000D03*
X151384000Y-64516000D03*
X152146000Y-64516000D03*
X152908000Y-64516000D03*
X153670000Y-64516000D03*
X154432000Y-64516000D03*
X155194000Y-64516000D03*
X155956000Y-64516000D03*
X156718000Y-64516000D03*
X157480000Y-64516000D03*
X157226000Y-69342000D03*
X157226000Y-70104000D03*
X157226000Y-70866000D03*
X157226000Y-71628000D03*
X157226000Y-72390000D03*
X157226000Y-73152000D03*
X157226000Y-73914000D03*
X157226000Y-74676000D03*
X157226000Y-75438000D03*
X157226000Y-76200000D03*
X157226000Y-76962000D03*
X156464000Y-76962000D03*
X155702000Y-76962000D03*
X154940000Y-76962000D03*
X154178000Y-76962000D03*
X153416000Y-76962000D03*
X152654000Y-76962000D03*
X152654000Y-76200000D03*
X152654000Y-75438000D03*
X152654000Y-74676000D03*
X152654000Y-73914000D03*
X152654000Y-73152000D03*
X152654000Y-72390000D03*
X152654000Y-71628000D03*
X152654000Y-70866000D03*
X152654000Y-70104000D03*
X152654000Y-69342000D03*
X153416000Y-69342000D03*
X154178000Y-69342000D03*
X154940000Y-69342000D03*
X155702000Y-69342000D03*
X156464000Y-69342000D03*
X154178000Y-70104000D03*
X155702000Y-70104000D03*
X154940000Y-70104000D03*
X156464000Y-70104000D03*
X153416000Y-70104000D03*
X154178000Y-70866000D03*
X155702000Y-70866000D03*
X156464000Y-70866000D03*
X154940000Y-70866000D03*
X153416000Y-70866000D03*
X156464000Y-71628000D03*
X154178000Y-71628000D03*
X153416000Y-71628000D03*
X154940000Y-71628000D03*
X155702000Y-71628000D03*
X153416000Y-72390000D03*
X156464000Y-72390000D03*
X154178000Y-72390000D03*
X154940000Y-72390000D03*
X155702000Y-72390000D03*
X155702000Y-73152000D03*
X154940000Y-73152000D03*
X156464000Y-73152000D03*
X154178000Y-73152000D03*
X153416000Y-73152000D03*
X153416000Y-73914000D03*
X156464000Y-73914000D03*
X155702000Y-73914000D03*
X154940000Y-73914000D03*
X154178000Y-73914000D03*
X154178000Y-74676000D03*
X155702000Y-74676000D03*
X153416000Y-74676000D03*
X156464000Y-74676000D03*
X154940000Y-74676000D03*
X156464000Y-75438000D03*
X153416000Y-75438000D03*
X154178000Y-75438000D03*
X154940000Y-75438000D03*
X155702000Y-75438000D03*
X153416000Y-76200000D03*
X154178000Y-76200000D03*
X156464000Y-76200000D03*
X155702000Y-76200000D03*
X154940000Y-76200000D03*
X151892000Y-70866000D03*
X151892000Y-70104000D03*
X151892000Y-71628000D03*
X151892000Y-69342000D03*
X151892000Y-75438000D03*
X151892000Y-74676000D03*
X151892000Y-73914000D03*
X151892000Y-73152000D03*
X151892000Y-76200000D03*
X151892000Y-72390000D03*
X152654000Y-78486000D03*
X153416000Y-78486000D03*
X153416000Y-77724000D03*
X154178000Y-77724000D03*
X152908000Y-81788000D03*
X152908000Y-82550000D03*
X152908000Y-83312000D03*
X152908000Y-84074000D03*
X152146000Y-83566000D03*
X152146000Y-84328000D03*
X151384000Y-83566000D03*
X151384000Y-84328000D03*
X150622000Y-84328000D03*
X148082000Y-69342000D03*
X148082000Y-70104000D03*
X148082000Y-70866000D03*
X148844000Y-70104000D03*
X149606000Y-70104000D03*
X150368000Y-70104000D03*
X151130000Y-70104000D03*
X148844000Y-69342000D03*
X148844000Y-70866000D03*
X147320000Y-69596000D03*
X151130000Y-74676000D03*
X150368000Y-74676000D03*
X149606000Y-74676000D03*
X148844000Y-74676000D03*
X149606000Y-75438000D03*
X150368000Y-75438000D03*
X151130000Y-75438000D03*
X151130000Y-76200000D03*
X150368000Y-76200000D03*
X154432000Y-92710000D03*
X155194000Y-92710000D03*
X155194000Y-93472000D03*
X154432000Y-93472000D03*
X155194000Y-94234000D03*
X154432000Y-94234000D03*
X154940000Y-94996000D03*
X153924000Y-96012000D03*
X153924000Y-95250000D03*
X154940000Y-95758000D03*
X150622000Y-97282000D03*
X152908000Y-97282000D03*
X117094000Y-97536000D03*
X117094000Y-96774000D03*
X117602000Y-96012000D03*
X116840000Y-96012000D03*
X116840000Y-95250000D03*
X117602000Y-95250000D03*
X116840000Y-94488000D03*
X117602000Y-94488000D03*
X116840000Y-93726000D03*
X117602000Y-93726000D03*
X117602000Y-92964000D03*
X116840000Y-92964000D03*
X116840000Y-92202000D03*
X117602000Y-92202000D03*
X117602000Y-91440000D03*
X116840000Y-91440000D03*
X117348000Y-90678000D03*
X118364000Y-91694000D03*
X118364000Y-92456000D03*
X118364000Y-93218000D03*
X118364000Y-93980000D03*
X118364000Y-94742000D03*
X119126000Y-92202000D03*
X119126000Y-92964000D03*
X119126000Y-93726000D03*
X119126000Y-94488000D03*
X119888000Y-92964000D03*
X119888000Y-93726000D03*
X120650000Y-93218000D03*
X121412000Y-93218000D03*
X122174000Y-93218000D03*
X122936000Y-93218000D03*
X123698000Y-93218000D03*
X135128000Y-89916000D03*
X135128000Y-89154000D03*
X135128000Y-88392000D03*
X135128000Y-87630000D03*
X135128000Y-86868000D03*
X137668000Y-66294000D03*
X136906000Y-66294000D03*
X136144000Y-66294000D03*
X135382000Y-66294000D03*
X134620000Y-66294000D03*
X133858000Y-66294000D03*
X134112000Y-83058000D03*
X134874000Y-83058000D03*
X134874000Y-82296000D03*
X134112000Y-82296000D03*
X135636000Y-81534000D03*
X134620000Y-81534000D03*
X134874000Y-80772000D03*
X135636000Y-80772000D03*
X135636000Y-80010000D03*
X117094000Y-86614000D03*
X117856000Y-86614000D03*
X117856000Y-85852000D03*
X117094000Y-85852000D03*
X117094000Y-85090000D03*
X117856000Y-85090000D03*
X117094000Y-84328000D03*
X123952000Y-84836000D03*
X123952000Y-83820000D03*
X127762000Y-82804000D03*
X137414000Y-100838000D03*
X132588000Y-95504000D03*
X127762000Y-93980000D03*
X126238000Y-92202000D03*
X119126000Y-90678000D03*
X137922000Y-97790000D03*
X136398000Y-95250000D03*
X149352000Y-100584000D03*
X145288000Y-105664000D03*
X151384000Y-103886000D03*
X151384000Y-100584000D03*
D17*
X136398000Y-69596000D02*
X136652000Y-69342000D01*
X133858000Y-69596000D02*
X136398000Y-69596000D01*
D18*
X137220752Y-69910752D02*
X136652000Y-69342000D01*
X142002902Y-69910752D02*
X137220752Y-69910752D01*
X120142000Y-104394000D02*
X116840000Y-107696000D01*
X114554000Y-99822000D02*
X114911231Y-99464769D01*
X114554000Y-108712000D02*
X114554000Y-99822000D01*
X120142000Y-104394000D02*
X127000000Y-104394000D01*
X125222000Y-93726000D02*
X120650000Y-98298000D01*
X125222000Y-91948000D02*
X125222000Y-93726000D01*
X125222000Y-89662000D02*
X125222000Y-91948000D01*
X135128000Y-107950000D02*
X133858000Y-106680000D01*
X135128000Y-109728000D02*
X135128000Y-107950000D01*
X130048000Y-97952000D02*
X131318000Y-96682000D01*
X130048000Y-100076000D02*
X130048000Y-97952000D01*
X126238000Y-94742000D02*
X125222000Y-93726000D01*
X127000000Y-94742000D02*
X126238000Y-94742000D01*
X125984000Y-97790000D02*
X121986699Y-101787301D01*
X121666000Y-102108000D02*
X118872000Y-102108000D01*
X121986699Y-101787301D02*
X121666000Y-102108000D01*
X138684000Y-75438000D02*
X138684000Y-74168000D01*
X133096000Y-81026000D02*
X138684000Y-75438000D01*
X133096000Y-93218000D02*
X133096000Y-81026000D01*
X128524000Y-97790000D02*
X133096000Y-93218000D01*
X125984000Y-97790000D02*
X128524000Y-97790000D01*
X117186000Y-102108000D02*
X116678000Y-101600000D01*
X118872000Y-102108000D02*
X117186000Y-102108000D01*
X124964000Y-97166966D02*
X122562966Y-99568000D01*
X124964000Y-95762000D02*
X124964000Y-97166966D01*
X117532000Y-99568000D02*
X116678000Y-100422000D01*
X122562966Y-99568000D02*
X117532000Y-99568000D01*
X133350000Y-74676000D02*
X132080000Y-75946000D01*
X136144000Y-74676000D02*
X133350000Y-74676000D01*
X137668000Y-73152000D02*
X136144000Y-74676000D01*
X138684000Y-73152000D02*
X137668000Y-73152000D01*
X132080000Y-89916000D02*
X132080000Y-90401202D01*
X132080000Y-75946000D02*
X132080000Y-89916000D01*
X132080000Y-91694000D02*
X132080000Y-89916000D01*
X132080000Y-92456000D02*
X132080000Y-91694000D01*
X128774000Y-95762000D02*
X132080000Y-92456000D01*
X124964000Y-95762000D02*
X128774000Y-95762000D01*
X113792000Y-79756000D02*
X110490000Y-79756000D01*
X115824000Y-81788000D02*
X113792000Y-79756000D01*
X118618000Y-110744000D02*
X115824000Y-107950000D01*
X120142000Y-110744000D02*
X118618000Y-110744000D01*
X115824000Y-107950000D02*
X115824000Y-97536000D01*
X115824000Y-90932000D02*
X115824000Y-81788000D01*
X152053999Y-104740001D02*
X149005999Y-104740001D01*
X155956000Y-100838000D02*
X152053999Y-104740001D01*
X139538001Y-107026001D02*
X139446000Y-106934000D01*
X146719999Y-107026001D02*
X139538001Y-107026001D01*
X149005999Y-104740001D02*
X146719999Y-107026001D01*
X155857921Y-91601999D02*
X148682001Y-91601999D01*
X157685999Y-93430077D02*
X155857921Y-91601999D01*
X157685999Y-93691999D02*
X157685999Y-93430077D01*
X158990000Y-94996000D02*
X157685999Y-93691999D01*
X136744001Y-101692001D02*
X136398000Y-101346000D01*
X138591999Y-101692001D02*
X136744001Y-101692001D01*
X148682001Y-91601999D02*
X138591999Y-101692001D01*
X158990000Y-100076000D02*
X160531990Y-101617990D01*
X160531990Y-111756010D02*
X160524010Y-111763990D01*
X160531990Y-101617990D02*
X160531990Y-111756010D01*
X125730000Y-110236000D02*
X125222000Y-109728000D01*
X125222000Y-109728000D02*
X125222000Y-105918000D01*
X125222000Y-105918000D02*
X124968000Y-105664000D01*
X125730000Y-110236000D02*
X126492000Y-110998000D01*
X126492000Y-110998000D02*
X126746000Y-111252000D01*
X160531990Y-111756010D02*
X142744010Y-111756010D01*
X141751999Y-110763999D02*
X137140001Y-110763999D01*
X142744010Y-111756010D02*
X141751999Y-110763999D01*
X137140001Y-110763999D02*
X136144000Y-111760000D01*
X127254000Y-111760000D02*
X126746000Y-111252000D01*
X136144000Y-111760000D02*
X127254000Y-111760000D01*
X156103999Y-99729999D02*
X147920001Y-99729999D01*
X158990000Y-102616000D02*
X156103999Y-99729999D01*
X144179999Y-103470001D02*
X137252001Y-103470001D01*
X147920001Y-99729999D02*
X144179999Y-103470001D01*
X137252001Y-103470001D02*
X137252001Y-103470001D01*
X136848315Y-105664000D02*
X132842000Y-101657685D01*
X137414000Y-105664000D02*
X136848315Y-105664000D01*
X130902001Y-100745999D02*
X130302000Y-101346000D01*
X131930314Y-100745999D02*
X130902001Y-100745999D01*
X132842000Y-101657685D02*
X131930314Y-100745999D01*
X131064000Y-108712000D02*
X131318000Y-108458000D01*
X126492000Y-108712000D02*
X131064000Y-108712000D01*
X154686000Y-104902000D02*
X155956000Y-104902000D01*
X153162000Y-106426000D02*
X154686000Y-104902000D01*
X147574000Y-107950000D02*
X149098000Y-106426000D01*
X137160000Y-107950000D02*
X147574000Y-107950000D01*
X131572000Y-102362000D02*
X137160000Y-107950000D01*
X149098000Y-106426000D02*
X153162000Y-106426000D01*
X131572000Y-101600000D02*
X131572000Y-102362000D01*
X155956000Y-107696000D02*
X155448000Y-108204000D01*
X132696001Y-109328001D02*
X132696001Y-107550001D01*
X133096000Y-109728000D02*
X132696001Y-109328001D01*
X132696001Y-107550001D02*
X132334000Y-107188000D01*
X132334000Y-107188000D02*
X130302000Y-107188000D01*
X130302000Y-107188000D02*
X130048000Y-106934000D01*
X130048000Y-106934000D02*
X130048000Y-102616000D01*
X127508000Y-100076000D02*
X127508000Y-98806000D01*
X130048000Y-102616000D02*
X127508000Y-100076000D01*
X154940000Y-108712000D02*
X155448000Y-108204000D01*
X136398000Y-108712000D02*
X154940000Y-108712000D01*
X156210000Y-110236000D02*
X155702000Y-109728000D01*
X128108001Y-110582001D02*
X127762000Y-110236000D01*
X135537921Y-110582001D02*
X128108001Y-110582001D01*
X136391922Y-109728000D02*
X135537921Y-110582001D01*
X155702000Y-109728000D02*
X136391922Y-109728000D01*
X127508000Y-106680000D02*
X128524000Y-105664000D01*
X128524000Y-103124000D02*
X125222000Y-99822000D01*
X128524000Y-105664000D02*
X128524000Y-103124000D01*
D19*
X125476000Y-74676000D02*
X110490000Y-74676000D01*
X130048000Y-79248000D02*
X125476000Y-74676000D01*
X130048000Y-86360000D02*
X130048000Y-79248000D01*
D18*
X134020000Y-95850000D02*
X134020000Y-89662000D01*
X133096000Y-96774000D02*
X134020000Y-95850000D01*
X139192000Y-102616000D02*
X143002000Y-98806000D01*
X143002000Y-98806000D02*
X149098000Y-98806000D01*
X149098000Y-98806000D02*
X150114000Y-98806000D01*
X150114000Y-98806000D02*
X155448000Y-98806000D01*
X156615130Y-97638870D02*
X156615130Y-93623130D01*
X155448000Y-98806000D02*
X156615130Y-97638870D01*
X138938000Y-99616000D02*
X148130000Y-90424000D01*
X159493202Y-90424000D02*
X160531990Y-89385212D01*
X148130000Y-90424000D02*
X159493202Y-90424000D01*
X160531990Y-77223990D02*
X159004000Y-75696000D01*
X160531990Y-89385212D02*
X160531990Y-77223990D01*
X137668000Y-95764078D02*
X146056078Y-87376000D01*
X137668000Y-96774000D02*
X137668000Y-95764078D01*
X146056078Y-87376000D02*
X153162000Y-87376000D01*
X153162000Y-87376000D02*
X154432000Y-86106000D01*
X154432000Y-86106000D02*
X154432000Y-79502000D01*
X155698000Y-78236000D02*
X159004000Y-78236000D01*
X154432000Y-79502000D02*
X155698000Y-78236000D01*
X137160000Y-104648000D02*
X134874000Y-102362000D01*
X139446000Y-104648000D02*
X137160000Y-104648000D01*
X147882078Y-89408000D02*
X153162000Y-89408000D01*
X137706077Y-99584001D02*
X147882078Y-89408000D01*
X135636000Y-99584001D02*
X137706077Y-99584001D01*
X157984000Y-79756000D02*
X159004000Y-80776000D01*
X155286000Y-80426000D02*
X155956000Y-79756000D01*
X155956000Y-79756000D02*
X157984000Y-79756000D01*
X155286000Y-86268000D02*
X155286000Y-80426000D01*
D20*
X158500000Y-83316000D02*
X156210000Y-81026000D01*
X159004000Y-83316000D02*
X158500000Y-83316000D01*
X148082000Y-81026000D02*
X140208000Y-88900000D01*
X148082000Y-79756000D02*
X148082000Y-81026000D01*
D18*
X139700000Y-89408000D02*
X140208000Y-88900000D01*
X139700000Y-91440000D02*
X139700000Y-89408000D01*
X143510000Y-105658990D02*
X143510000Y-106172000D01*
X148082000Y-101086990D02*
X143510000Y-105658990D01*
X150876000Y-92710000D02*
X148082000Y-95504000D01*
X153162000Y-92710000D02*
X150876000Y-92710000D01*
X154940000Y-89408000D02*
X157480000Y-89408000D01*
X146300000Y-88396000D02*
X159004000Y-88396000D01*
X138938000Y-95758000D02*
X146300000Y-88396000D01*
D21*
X127762000Y-89662000D02*
X127762000Y-84836000D01*
X122174000Y-79248000D02*
X119126000Y-79248000D01*
X127762000Y-84836000D02*
X122174000Y-79248000D01*
D20*
X140208000Y-83058000D02*
X139700000Y-83058000D01*
X139700000Y-83058000D02*
X137922000Y-84836000D01*
X137668000Y-84836000D02*
X137160000Y-85344000D01*
X137922000Y-84836000D02*
X137668000Y-84836000D01*
X137922000Y-86106000D02*
X137160000Y-85344000D01*
X138176000Y-86106000D02*
X138684000Y-85598000D01*
X137922000Y-86106000D02*
X138176000Y-86106000D01*
X137922000Y-84836000D02*
X138684000Y-85598000D01*
X137922000Y-86106000D02*
X137922000Y-84836000D01*
D18*
X138938000Y-78994000D02*
X138938000Y-78232000D01*
X139700000Y-78232000D02*
X140462000Y-78232000D01*
X137668000Y-66294000D02*
X133858000Y-66294000D01*
X137014001Y-100438001D02*
X135236001Y-100438001D01*
X137414000Y-100838000D02*
X137014001Y-100438001D01*
X132241999Y-95850001D02*
X132588000Y-95504000D01*
X132241999Y-97443999D02*
X132241999Y-95850001D01*
X135236001Y-100438001D02*
X132241999Y-97443999D01*
X127762000Y-93726000D02*
X126238000Y-92202000D01*
X127762000Y-93980000D02*
X127762000Y-93726000D01*
X119126000Y-84088724D02*
X117094000Y-82056724D01*
X119126000Y-90678000D02*
X119126000Y-84088724D01*
X117094000Y-82056724D02*
X117094000Y-80010000D01*
X114300000Y-77216000D02*
X110490000Y-77216000D01*
X117094000Y-80010000D02*
X114300000Y-77216000D01*
X136305999Y-83912001D02*
X144780000Y-75438000D01*
X148078000Y-65536000D02*
X148086000Y-65536000D01*
X136305999Y-91855999D02*
X136305999Y-83912001D01*
X148086000Y-65536000D02*
X159004000Y-65536000D01*
X144780000Y-68834000D02*
X148078000Y-65536000D01*
X136398000Y-91948000D02*
X136305999Y-91855999D01*
X135543999Y-92802001D02*
X136398000Y-91948000D01*
X144780000Y-75438000D02*
X144780000Y-68834000D01*
X135543999Y-96427999D02*
X135543999Y-92802001D01*
X136906000Y-97790000D02*
X135543999Y-96427999D01*
X137922000Y-97790000D02*
X136906000Y-97790000D01*
X147062000Y-68076000D02*
X159004000Y-68076000D01*
X145796000Y-69342000D02*
X147062000Y-68076000D01*
X145796000Y-80264000D02*
X145796000Y-69342000D01*
X138684000Y-87376000D02*
X145796000Y-80264000D01*
X138684000Y-92964000D02*
X138684000Y-87376000D01*
X136398000Y-95250000D02*
X138684000Y-92964000D01*
D17*
X149352000Y-101600000D02*
X149352000Y-100584000D01*
X145288000Y-105664000D02*
X149352000Y-101600000D01*
X151384000Y-103886000D02*
X151384000Y-100584000D01*
X126492001Y-85362052D02*
X126492000Y-88889760D01*
X126375475Y-88715368D01*
X126168632Y-88508525D01*
X125925411Y-88346010D01*
X125655158Y-88234068D01*
X125368260Y-88177000D01*
X125075740Y-88177000D01*
X124788842Y-88234068D01*
X124518589Y-88346010D01*
X124275368Y-88508525D01*
X124068525Y-88715368D01*
X123952000Y-88889760D01*
X123835475Y-88715368D01*
X123628632Y-88508525D01*
X123385411Y-88346010D01*
X123115158Y-88234068D01*
X122828260Y-88177000D01*
X122535740Y-88177000D01*
X122248842Y-88234068D01*
X121978589Y-88346010D01*
X121735368Y-88508525D01*
X121528525Y-88715368D01*
X121366010Y-88958589D01*
X121254068Y-89228842D01*
X121197000Y-89515740D01*
X121197000Y-89808260D01*
X121254068Y-90095158D01*
X121366010Y-90365411D01*
X121528525Y-90608632D01*
X121735368Y-90815475D01*
X121978589Y-90977990D01*
X122248842Y-91089932D01*
X122535740Y-91147000D01*
X122828260Y-91147000D01*
X123115158Y-91089932D01*
X123385411Y-90977990D01*
X123628632Y-90815475D01*
X123835475Y-90608632D01*
X123952000Y-90434240D01*
X124068525Y-90608632D01*
X124275368Y-90815475D01*
X124333001Y-90853984D01*
X124333001Y-91904324D01*
X124333000Y-91904334D01*
X124333001Y-93357764D01*
X120397895Y-97292870D01*
X120348102Y-97302774D01*
X120159744Y-97380795D01*
X119990226Y-97494063D01*
X119846063Y-97638226D01*
X119732795Y-97807744D01*
X119654774Y-97996102D01*
X119615000Y-98196061D01*
X119615000Y-98399939D01*
X119654774Y-98599898D01*
X119687539Y-98679000D01*
X117575659Y-98679000D01*
X117531999Y-98674700D01*
X117488339Y-98679000D01*
X117488333Y-98679000D01*
X117390924Y-98688594D01*
X117357724Y-98691864D01*
X117258323Y-98722017D01*
X117190149Y-98742697D01*
X117035709Y-98825247D01*
X116900341Y-98936341D01*
X116872501Y-98970264D01*
X116713000Y-99129765D01*
X116713000Y-98068468D01*
X116741205Y-98026256D01*
X116819226Y-97837898D01*
X116859000Y-97637939D01*
X116859000Y-97434061D01*
X116819226Y-97234102D01*
X116741205Y-97045744D01*
X116627937Y-96876226D01*
X116483774Y-96732063D01*
X116314256Y-96618795D01*
X116125898Y-96540774D01*
X115925939Y-96501000D01*
X115722061Y-96501000D01*
X115522102Y-96540774D01*
X115333744Y-96618795D01*
X115164226Y-96732063D01*
X115020063Y-96876226D01*
X114906795Y-97045744D01*
X114828774Y-97234102D01*
X114789000Y-97434061D01*
X114789000Y-97637939D01*
X114828774Y-97837898D01*
X114906795Y-98026256D01*
X114935001Y-98068469D01*
X114935001Y-98429769D01*
X114809292Y-98429769D01*
X114609333Y-98469543D01*
X114420975Y-98547564D01*
X114251457Y-98660832D01*
X114107294Y-98804995D01*
X113994026Y-98974513D01*
X113916005Y-99162871D01*
X113906766Y-99209321D01*
X113894507Y-99224258D01*
X113894505Y-99224260D01*
X113811248Y-99325709D01*
X113728698Y-99480148D01*
X113677864Y-99647726D01*
X113660700Y-99822000D01*
X113665001Y-99865670D01*
X113665000Y-108179532D01*
X113636795Y-108221744D01*
X113558774Y-108410102D01*
X113519000Y-108610061D01*
X113519000Y-108813939D01*
X113558774Y-109013898D01*
X113636795Y-109202256D01*
X113750063Y-109371774D01*
X113894226Y-109515937D01*
X114063744Y-109629205D01*
X114252102Y-109707226D01*
X114452061Y-109747000D01*
X114655939Y-109747000D01*
X114855898Y-109707226D01*
X115044256Y-109629205D01*
X115213774Y-109515937D01*
X115357937Y-109371774D01*
X115471205Y-109202256D01*
X115549226Y-109013898D01*
X115562737Y-108945972D01*
X117958506Y-111341742D01*
X117986341Y-111375659D01*
X118121709Y-111486753D01*
X118276149Y-111569303D01*
X118321303Y-111583000D01*
X111735359Y-111583000D01*
X111791185Y-111537185D01*
X111870537Y-111440494D01*
X111929502Y-111330180D01*
X111965812Y-111210482D01*
X111978072Y-111086000D01*
X111978072Y-109386000D01*
X111965812Y-109261518D01*
X111929502Y-109141820D01*
X111870537Y-109031506D01*
X111791185Y-108934815D01*
X111694494Y-108855463D01*
X111584180Y-108796498D01*
X111511620Y-108774487D01*
X111643475Y-108642632D01*
X111805990Y-108399411D01*
X111917932Y-108129158D01*
X111975000Y-107842260D01*
X111975000Y-107549740D01*
X111917932Y-107262842D01*
X111805990Y-106992589D01*
X111643475Y-106749368D01*
X111436632Y-106542525D01*
X111262240Y-106426000D01*
X111436632Y-106309475D01*
X111643475Y-106102632D01*
X111805990Y-105859411D01*
X111917932Y-105589158D01*
X111975000Y-105302260D01*
X111975000Y-105009740D01*
X111917932Y-104722842D01*
X111805990Y-104452589D01*
X111643475Y-104209368D01*
X111436632Y-104002525D01*
X111262240Y-103886000D01*
X111436632Y-103769475D01*
X111643475Y-103562632D01*
X111805990Y-103319411D01*
X111917932Y-103049158D01*
X111975000Y-102762260D01*
X111975000Y-102469740D01*
X111917932Y-102182842D01*
X111805990Y-101912589D01*
X111643475Y-101669368D01*
X111436632Y-101462525D01*
X111262240Y-101346000D01*
X111436632Y-101229475D01*
X111643475Y-101022632D01*
X111805990Y-100779411D01*
X111917932Y-100509158D01*
X111975000Y-100222260D01*
X111975000Y-99929740D01*
X111917932Y-99642842D01*
X111805990Y-99372589D01*
X111643475Y-99129368D01*
X111436632Y-98922525D01*
X111262240Y-98806000D01*
X111436632Y-98689475D01*
X111643475Y-98482632D01*
X111805990Y-98239411D01*
X111917932Y-97969158D01*
X111975000Y-97682260D01*
X111975000Y-97389740D01*
X111917932Y-97102842D01*
X111805990Y-96832589D01*
X111643475Y-96589368D01*
X111436632Y-96382525D01*
X111262240Y-96266000D01*
X111436632Y-96149475D01*
X111643475Y-95942632D01*
X111805990Y-95699411D01*
X111827833Y-95646675D01*
X117741700Y-95646675D01*
X117741700Y-95869325D01*
X117785137Y-96087696D01*
X117870341Y-96293398D01*
X117994039Y-96478524D01*
X118151476Y-96635961D01*
X118336602Y-96759659D01*
X118542304Y-96844863D01*
X118760675Y-96888300D01*
X118983325Y-96888300D01*
X119201696Y-96844863D01*
X119407398Y-96759659D01*
X119592524Y-96635961D01*
X119749961Y-96478524D01*
X119873659Y-96293398D01*
X119958863Y-96087696D01*
X120002300Y-95869325D01*
X120002300Y-95646675D01*
X119958863Y-95428304D01*
X119873659Y-95222602D01*
X119749961Y-95037476D01*
X119592524Y-94880039D01*
X119407398Y-94756341D01*
X119201696Y-94671137D01*
X118983325Y-94627700D01*
X118760675Y-94627700D01*
X118542304Y-94671137D01*
X118336602Y-94756341D01*
X118151476Y-94880039D01*
X117994039Y-95037476D01*
X117870341Y-95222602D01*
X117785137Y-95428304D01*
X117741700Y-95646675D01*
X111827833Y-95646675D01*
X111917932Y-95429158D01*
X111975000Y-95142260D01*
X111975000Y-94849740D01*
X111917932Y-94562842D01*
X111805990Y-94292589D01*
X111643475Y-94049368D01*
X111436632Y-93842525D01*
X111262240Y-93726000D01*
X111436632Y-93609475D01*
X111643475Y-93402632D01*
X111805990Y-93159411D01*
X111917932Y-92889158D01*
X111975000Y-92602260D01*
X111975000Y-92309740D01*
X111917932Y-92022842D01*
X111805990Y-91752589D01*
X111643475Y-91509368D01*
X111436632Y-91302525D01*
X111254466Y-91180805D01*
X111371355Y-91111178D01*
X111587588Y-90916269D01*
X111761641Y-90682920D01*
X111886825Y-90420099D01*
X111931476Y-90272890D01*
X111810155Y-90043000D01*
X110617000Y-90043000D01*
X110617000Y-90063000D01*
X110363000Y-90063000D01*
X110363000Y-90043000D01*
X110343000Y-90043000D01*
X110343000Y-89789000D01*
X110363000Y-89789000D01*
X110363000Y-87503000D01*
X110617000Y-87503000D01*
X110617000Y-89789000D01*
X111810155Y-89789000D01*
X111931476Y-89559110D01*
X111886825Y-89411901D01*
X111761641Y-89149080D01*
X111587588Y-88915731D01*
X111371355Y-88720822D01*
X111245745Y-88646000D01*
X111371355Y-88571178D01*
X111587588Y-88376269D01*
X111761641Y-88142920D01*
X111886825Y-87880099D01*
X111931476Y-87732890D01*
X111810155Y-87503000D01*
X110617000Y-87503000D01*
X110363000Y-87503000D01*
X110343000Y-87503000D01*
X110343000Y-87249000D01*
X110363000Y-87249000D01*
X110363000Y-87229000D01*
X110617000Y-87229000D01*
X110617000Y-87249000D01*
X111810155Y-87249000D01*
X111931476Y-87019110D01*
X111886825Y-86871901D01*
X111761641Y-86609080D01*
X111587588Y-86375731D01*
X111371355Y-86180822D01*
X111254466Y-86111195D01*
X111436632Y-85989475D01*
X111643475Y-85782632D01*
X111805990Y-85539411D01*
X111917932Y-85269158D01*
X111975000Y-84982260D01*
X111975000Y-84689740D01*
X111917932Y-84402842D01*
X111805990Y-84132589D01*
X111643475Y-83889368D01*
X111436632Y-83682525D01*
X111262240Y-83566000D01*
X111436632Y-83449475D01*
X111643475Y-83242632D01*
X111805990Y-82999411D01*
X111917932Y-82729158D01*
X111975000Y-82442260D01*
X111975000Y-82149740D01*
X111917932Y-81862842D01*
X111805990Y-81592589D01*
X111643475Y-81349368D01*
X111436632Y-81142525D01*
X111262240Y-81026000D01*
X111436632Y-80909475D01*
X111643475Y-80702632D01*
X111681983Y-80645000D01*
X113423765Y-80645000D01*
X114935001Y-82156237D01*
X114935000Y-90399532D01*
X114906795Y-90441744D01*
X114828774Y-90630102D01*
X114789000Y-90830061D01*
X114789000Y-91033939D01*
X114828774Y-91233898D01*
X114906795Y-91422256D01*
X115020063Y-91591774D01*
X115164226Y-91735937D01*
X115333744Y-91849205D01*
X115522102Y-91927226D01*
X115722061Y-91967000D01*
X115925939Y-91967000D01*
X116125898Y-91927226D01*
X116314256Y-91849205D01*
X116483774Y-91735937D01*
X116627937Y-91591774D01*
X116741205Y-91422256D01*
X116819226Y-91233898D01*
X116859000Y-91033939D01*
X116859000Y-90830061D01*
X116819226Y-90630102D01*
X116741205Y-90441744D01*
X116713000Y-90399532D01*
X116713000Y-82932959D01*
X118237001Y-84456961D01*
X118237000Y-90145532D01*
X118208795Y-90187744D01*
X118130774Y-90376102D01*
X118091000Y-90576061D01*
X118091000Y-90779939D01*
X118130774Y-90979898D01*
X118208795Y-91168256D01*
X118322063Y-91337774D01*
X118466226Y-91481937D01*
X118635744Y-91595205D01*
X118824102Y-91673226D01*
X119024061Y-91713000D01*
X119227939Y-91713000D01*
X119427898Y-91673226D01*
X119616256Y-91595205D01*
X119785774Y-91481937D01*
X119929937Y-91337774D01*
X120043205Y-91168256D01*
X120121226Y-90979898D01*
X120161000Y-90779939D01*
X120161000Y-90576061D01*
X120121226Y-90376102D01*
X120043205Y-90187744D01*
X120015000Y-90145532D01*
X120015000Y-84132384D01*
X120019300Y-84088724D01*
X120015000Y-84045064D01*
X120015000Y-84045057D01*
X120002136Y-83914450D01*
X119951303Y-83746873D01*
X119868753Y-83592433D01*
X119757659Y-83457065D01*
X119723742Y-83429230D01*
X119390962Y-83096450D01*
X119515405Y-83071696D01*
X119758359Y-82971061D01*
X119977013Y-82824962D01*
X120162962Y-82639013D01*
X120309061Y-82420359D01*
X120409696Y-82177405D01*
X120461000Y-81919486D01*
X120461000Y-81656514D01*
X120409696Y-81398595D01*
X120309061Y-81155641D01*
X120162962Y-80936987D01*
X119977013Y-80751038D01*
X119758359Y-80604939D01*
X119548470Y-80518000D01*
X121647950Y-80518000D01*
X126492001Y-85362052D01*
G04 #@! TA.AperFunction,Conductor*
D22*
G36*
X126492001Y-85362052D02*
G01*
X126492000Y-88889760D01*
X126375475Y-88715368D01*
X126168632Y-88508525D01*
X125925411Y-88346010D01*
X125655158Y-88234068D01*
X125368260Y-88177000D01*
X125075740Y-88177000D01*
X124788842Y-88234068D01*
X124518589Y-88346010D01*
X124275368Y-88508525D01*
X124068525Y-88715368D01*
X123952000Y-88889760D01*
X123835475Y-88715368D01*
X123628632Y-88508525D01*
X123385411Y-88346010D01*
X123115158Y-88234068D01*
X122828260Y-88177000D01*
X122535740Y-88177000D01*
X122248842Y-88234068D01*
X121978589Y-88346010D01*
X121735368Y-88508525D01*
X121528525Y-88715368D01*
X121366010Y-88958589D01*
X121254068Y-89228842D01*
X121197000Y-89515740D01*
X121197000Y-89808260D01*
X121254068Y-90095158D01*
X121366010Y-90365411D01*
X121528525Y-90608632D01*
X121735368Y-90815475D01*
X121978589Y-90977990D01*
X122248842Y-91089932D01*
X122535740Y-91147000D01*
X122828260Y-91147000D01*
X123115158Y-91089932D01*
X123385411Y-90977990D01*
X123628632Y-90815475D01*
X123835475Y-90608632D01*
X123952000Y-90434240D01*
X124068525Y-90608632D01*
X124275368Y-90815475D01*
X124333001Y-90853984D01*
X124333001Y-91904324D01*
X124333000Y-91904334D01*
X124333001Y-93357764D01*
X120397895Y-97292870D01*
X120348102Y-97302774D01*
X120159744Y-97380795D01*
X119990226Y-97494063D01*
X119846063Y-97638226D01*
X119732795Y-97807744D01*
X119654774Y-97996102D01*
X119615000Y-98196061D01*
X119615000Y-98399939D01*
X119654774Y-98599898D01*
X119687539Y-98679000D01*
X117575659Y-98679000D01*
X117531999Y-98674700D01*
X117488339Y-98679000D01*
X117488333Y-98679000D01*
X117390924Y-98688594D01*
X117357724Y-98691864D01*
X117258323Y-98722017D01*
X117190149Y-98742697D01*
X117035709Y-98825247D01*
X116900341Y-98936341D01*
X116872501Y-98970264D01*
X116713000Y-99129765D01*
X116713000Y-98068468D01*
X116741205Y-98026256D01*
X116819226Y-97837898D01*
X116859000Y-97637939D01*
X116859000Y-97434061D01*
X116819226Y-97234102D01*
X116741205Y-97045744D01*
X116627937Y-96876226D01*
X116483774Y-96732063D01*
X116314256Y-96618795D01*
X116125898Y-96540774D01*
X115925939Y-96501000D01*
X115722061Y-96501000D01*
X115522102Y-96540774D01*
X115333744Y-96618795D01*
X115164226Y-96732063D01*
X115020063Y-96876226D01*
X114906795Y-97045744D01*
X114828774Y-97234102D01*
X114789000Y-97434061D01*
X114789000Y-97637939D01*
X114828774Y-97837898D01*
X114906795Y-98026256D01*
X114935001Y-98068469D01*
X114935001Y-98429769D01*
X114809292Y-98429769D01*
X114609333Y-98469543D01*
X114420975Y-98547564D01*
X114251457Y-98660832D01*
X114107294Y-98804995D01*
X113994026Y-98974513D01*
X113916005Y-99162871D01*
X113906766Y-99209321D01*
X113894507Y-99224258D01*
X113894505Y-99224260D01*
X113811248Y-99325709D01*
X113728698Y-99480148D01*
X113677864Y-99647726D01*
X113660700Y-99822000D01*
X113665001Y-99865670D01*
X113665000Y-108179532D01*
X113636795Y-108221744D01*
X113558774Y-108410102D01*
X113519000Y-108610061D01*
X113519000Y-108813939D01*
X113558774Y-109013898D01*
X113636795Y-109202256D01*
X113750063Y-109371774D01*
X113894226Y-109515937D01*
X114063744Y-109629205D01*
X114252102Y-109707226D01*
X114452061Y-109747000D01*
X114655939Y-109747000D01*
X114855898Y-109707226D01*
X115044256Y-109629205D01*
X115213774Y-109515937D01*
X115357937Y-109371774D01*
X115471205Y-109202256D01*
X115549226Y-109013898D01*
X115562737Y-108945972D01*
X117958506Y-111341742D01*
X117986341Y-111375659D01*
X118121709Y-111486753D01*
X118276149Y-111569303D01*
X118321303Y-111583000D01*
X111735359Y-111583000D01*
X111791185Y-111537185D01*
X111870537Y-111440494D01*
X111929502Y-111330180D01*
X111965812Y-111210482D01*
X111978072Y-111086000D01*
X111978072Y-109386000D01*
X111965812Y-109261518D01*
X111929502Y-109141820D01*
X111870537Y-109031506D01*
X111791185Y-108934815D01*
X111694494Y-108855463D01*
X111584180Y-108796498D01*
X111511620Y-108774487D01*
X111643475Y-108642632D01*
X111805990Y-108399411D01*
X111917932Y-108129158D01*
X111975000Y-107842260D01*
X111975000Y-107549740D01*
X111917932Y-107262842D01*
X111805990Y-106992589D01*
X111643475Y-106749368D01*
X111436632Y-106542525D01*
X111262240Y-106426000D01*
X111436632Y-106309475D01*
X111643475Y-106102632D01*
X111805990Y-105859411D01*
X111917932Y-105589158D01*
X111975000Y-105302260D01*
X111975000Y-105009740D01*
X111917932Y-104722842D01*
X111805990Y-104452589D01*
X111643475Y-104209368D01*
X111436632Y-104002525D01*
X111262240Y-103886000D01*
X111436632Y-103769475D01*
X111643475Y-103562632D01*
X111805990Y-103319411D01*
X111917932Y-103049158D01*
X111975000Y-102762260D01*
X111975000Y-102469740D01*
X111917932Y-102182842D01*
X111805990Y-101912589D01*
X111643475Y-101669368D01*
X111436632Y-101462525D01*
X111262240Y-101346000D01*
X111436632Y-101229475D01*
X111643475Y-101022632D01*
X111805990Y-100779411D01*
X111917932Y-100509158D01*
X111975000Y-100222260D01*
X111975000Y-99929740D01*
X111917932Y-99642842D01*
X111805990Y-99372589D01*
X111643475Y-99129368D01*
X111436632Y-98922525D01*
X111262240Y-98806000D01*
X111436632Y-98689475D01*
X111643475Y-98482632D01*
X111805990Y-98239411D01*
X111917932Y-97969158D01*
X111975000Y-97682260D01*
X111975000Y-97389740D01*
X111917932Y-97102842D01*
X111805990Y-96832589D01*
X111643475Y-96589368D01*
X111436632Y-96382525D01*
X111262240Y-96266000D01*
X111436632Y-96149475D01*
X111643475Y-95942632D01*
X111805990Y-95699411D01*
X111827833Y-95646675D01*
X117741700Y-95646675D01*
X117741700Y-95869325D01*
X117785137Y-96087696D01*
X117870341Y-96293398D01*
X117994039Y-96478524D01*
X118151476Y-96635961D01*
X118336602Y-96759659D01*
X118542304Y-96844863D01*
X118760675Y-96888300D01*
X118983325Y-96888300D01*
X119201696Y-96844863D01*
X119407398Y-96759659D01*
X119592524Y-96635961D01*
X119749961Y-96478524D01*
X119873659Y-96293398D01*
X119958863Y-96087696D01*
X120002300Y-95869325D01*
X120002300Y-95646675D01*
X119958863Y-95428304D01*
X119873659Y-95222602D01*
X119749961Y-95037476D01*
X119592524Y-94880039D01*
X119407398Y-94756341D01*
X119201696Y-94671137D01*
X118983325Y-94627700D01*
X118760675Y-94627700D01*
X118542304Y-94671137D01*
X118336602Y-94756341D01*
X118151476Y-94880039D01*
X117994039Y-95037476D01*
X117870341Y-95222602D01*
X117785137Y-95428304D01*
X117741700Y-95646675D01*
X111827833Y-95646675D01*
X111917932Y-95429158D01*
X111975000Y-95142260D01*
X111975000Y-94849740D01*
X111917932Y-94562842D01*
X111805990Y-94292589D01*
X111643475Y-94049368D01*
X111436632Y-93842525D01*
X111262240Y-93726000D01*
X111436632Y-93609475D01*
X111643475Y-93402632D01*
X111805990Y-93159411D01*
X111917932Y-92889158D01*
X111975000Y-92602260D01*
X111975000Y-92309740D01*
X111917932Y-92022842D01*
X111805990Y-91752589D01*
X111643475Y-91509368D01*
X111436632Y-91302525D01*
X111254466Y-91180805D01*
X111371355Y-91111178D01*
X111587588Y-90916269D01*
X111761641Y-90682920D01*
X111886825Y-90420099D01*
X111931476Y-90272890D01*
X111810155Y-90043000D01*
X110617000Y-90043000D01*
X110617000Y-90063000D01*
X110363000Y-90063000D01*
X110363000Y-90043000D01*
X110343000Y-90043000D01*
X110343000Y-89789000D01*
X110363000Y-89789000D01*
X110363000Y-87503000D01*
X110617000Y-87503000D01*
X110617000Y-89789000D01*
X111810155Y-89789000D01*
X111931476Y-89559110D01*
X111886825Y-89411901D01*
X111761641Y-89149080D01*
X111587588Y-88915731D01*
X111371355Y-88720822D01*
X111245745Y-88646000D01*
X111371355Y-88571178D01*
X111587588Y-88376269D01*
X111761641Y-88142920D01*
X111886825Y-87880099D01*
X111931476Y-87732890D01*
X111810155Y-87503000D01*
X110617000Y-87503000D01*
X110363000Y-87503000D01*
X110343000Y-87503000D01*
X110343000Y-87249000D01*
X110363000Y-87249000D01*
X110363000Y-87229000D01*
X110617000Y-87229000D01*
X110617000Y-87249000D01*
X111810155Y-87249000D01*
X111931476Y-87019110D01*
X111886825Y-86871901D01*
X111761641Y-86609080D01*
X111587588Y-86375731D01*
X111371355Y-86180822D01*
X111254466Y-86111195D01*
X111436632Y-85989475D01*
X111643475Y-85782632D01*
X111805990Y-85539411D01*
X111917932Y-85269158D01*
X111975000Y-84982260D01*
X111975000Y-84689740D01*
X111917932Y-84402842D01*
X111805990Y-84132589D01*
X111643475Y-83889368D01*
X111436632Y-83682525D01*
X111262240Y-83566000D01*
X111436632Y-83449475D01*
X111643475Y-83242632D01*
X111805990Y-82999411D01*
X111917932Y-82729158D01*
X111975000Y-82442260D01*
X111975000Y-82149740D01*
X111917932Y-81862842D01*
X111805990Y-81592589D01*
X111643475Y-81349368D01*
X111436632Y-81142525D01*
X111262240Y-81026000D01*
X111436632Y-80909475D01*
X111643475Y-80702632D01*
X111681983Y-80645000D01*
X113423765Y-80645000D01*
X114935001Y-82156237D01*
X114935000Y-90399532D01*
X114906795Y-90441744D01*
X114828774Y-90630102D01*
X114789000Y-90830061D01*
X114789000Y-91033939D01*
X114828774Y-91233898D01*
X114906795Y-91422256D01*
X115020063Y-91591774D01*
X115164226Y-91735937D01*
X115333744Y-91849205D01*
X115522102Y-91927226D01*
X115722061Y-91967000D01*
X115925939Y-91967000D01*
X116125898Y-91927226D01*
X116314256Y-91849205D01*
X116483774Y-91735937D01*
X116627937Y-91591774D01*
X116741205Y-91422256D01*
X116819226Y-91233898D01*
X116859000Y-91033939D01*
X116859000Y-90830061D01*
X116819226Y-90630102D01*
X116741205Y-90441744D01*
X116713000Y-90399532D01*
X116713000Y-82932959D01*
X118237001Y-84456961D01*
X118237000Y-90145532D01*
X118208795Y-90187744D01*
X118130774Y-90376102D01*
X118091000Y-90576061D01*
X118091000Y-90779939D01*
X118130774Y-90979898D01*
X118208795Y-91168256D01*
X118322063Y-91337774D01*
X118466226Y-91481937D01*
X118635744Y-91595205D01*
X118824102Y-91673226D01*
X119024061Y-91713000D01*
X119227939Y-91713000D01*
X119427898Y-91673226D01*
X119616256Y-91595205D01*
X119785774Y-91481937D01*
X119929937Y-91337774D01*
X120043205Y-91168256D01*
X120121226Y-90979898D01*
X120161000Y-90779939D01*
X120161000Y-90576061D01*
X120121226Y-90376102D01*
X120043205Y-90187744D01*
X120015000Y-90145532D01*
X120015000Y-84132384D01*
X120019300Y-84088724D01*
X120015000Y-84045064D01*
X120015000Y-84045057D01*
X120002136Y-83914450D01*
X119951303Y-83746873D01*
X119868753Y-83592433D01*
X119757659Y-83457065D01*
X119723742Y-83429230D01*
X119390962Y-83096450D01*
X119515405Y-83071696D01*
X119758359Y-82971061D01*
X119977013Y-82824962D01*
X120162962Y-82639013D01*
X120309061Y-82420359D01*
X120409696Y-82177405D01*
X120461000Y-81919486D01*
X120461000Y-81656514D01*
X120409696Y-81398595D01*
X120309061Y-81155641D01*
X120162962Y-80936987D01*
X119977013Y-80751038D01*
X119758359Y-80604939D01*
X119548470Y-80518000D01*
X121647950Y-80518000D01*
X126492001Y-85362052D01*
G37*
G04 #@! TD.AperFunction*
D17*
X142912264Y-104999491D02*
X142878341Y-105027331D01*
X142767247Y-105162700D01*
X142684697Y-105317140D01*
X142683178Y-105322148D01*
X142634460Y-105482753D01*
X142633864Y-105484717D01*
X142621000Y-105615324D01*
X142621000Y-105615330D01*
X142618204Y-105643716D01*
X142592795Y-105681744D01*
X142514774Y-105870102D01*
X142475000Y-106070061D01*
X142475000Y-106137001D01*
X140112712Y-106137001D01*
X140105774Y-106130063D01*
X139936256Y-106016795D01*
X139747898Y-105938774D01*
X139547939Y-105899000D01*
X139344061Y-105899000D01*
X139144102Y-105938774D01*
X138955744Y-106016795D01*
X138786226Y-106130063D01*
X138642063Y-106274226D01*
X138528795Y-106443744D01*
X138450774Y-106632102D01*
X138411000Y-106832061D01*
X138411000Y-107035939D01*
X138415985Y-107061000D01*
X137528235Y-107061000D01*
X137130026Y-106662791D01*
X137312061Y-106699000D01*
X137515939Y-106699000D01*
X137715898Y-106659226D01*
X137904256Y-106581205D01*
X138073774Y-106467937D01*
X138217937Y-106323774D01*
X138331205Y-106154256D01*
X138409226Y-105965898D01*
X138449000Y-105765939D01*
X138449000Y-105562061D01*
X138444015Y-105537000D01*
X138913532Y-105537000D01*
X138955744Y-105565205D01*
X139144102Y-105643226D01*
X139344061Y-105683000D01*
X139547939Y-105683000D01*
X139747898Y-105643226D01*
X139936256Y-105565205D01*
X140105774Y-105451937D01*
X140249937Y-105307774D01*
X140363205Y-105138256D01*
X140441226Y-104949898D01*
X140481000Y-104749939D01*
X140481000Y-104546061D01*
X140443792Y-104359001D01*
X143552754Y-104359001D01*
X142912264Y-104999491D01*
G04 #@! TA.AperFunction,Conductor*
D22*
G36*
X142912264Y-104999491D02*
G01*
X142878341Y-105027331D01*
X142767247Y-105162700D01*
X142684697Y-105317140D01*
X142683178Y-105322148D01*
X142634460Y-105482753D01*
X142633864Y-105484717D01*
X142621000Y-105615324D01*
X142621000Y-105615330D01*
X142618204Y-105643716D01*
X142592795Y-105681744D01*
X142514774Y-105870102D01*
X142475000Y-106070061D01*
X142475000Y-106137001D01*
X140112712Y-106137001D01*
X140105774Y-106130063D01*
X139936256Y-106016795D01*
X139747898Y-105938774D01*
X139547939Y-105899000D01*
X139344061Y-105899000D01*
X139144102Y-105938774D01*
X138955744Y-106016795D01*
X138786226Y-106130063D01*
X138642063Y-106274226D01*
X138528795Y-106443744D01*
X138450774Y-106632102D01*
X138411000Y-106832061D01*
X138411000Y-107035939D01*
X138415985Y-107061000D01*
X137528235Y-107061000D01*
X137130026Y-106662791D01*
X137312061Y-106699000D01*
X137515939Y-106699000D01*
X137715898Y-106659226D01*
X137904256Y-106581205D01*
X138073774Y-106467937D01*
X138217937Y-106323774D01*
X138331205Y-106154256D01*
X138409226Y-105965898D01*
X138449000Y-105765939D01*
X138449000Y-105562061D01*
X138444015Y-105537000D01*
X138913532Y-105537000D01*
X138955744Y-105565205D01*
X139144102Y-105643226D01*
X139344061Y-105683000D01*
X139547939Y-105683000D01*
X139747898Y-105643226D01*
X139936256Y-105565205D01*
X140105774Y-105451937D01*
X140249937Y-105307774D01*
X140363205Y-105138256D01*
X140441226Y-104949898D01*
X140481000Y-104749939D01*
X140481000Y-104546061D01*
X140443792Y-104359001D01*
X143552754Y-104359001D01*
X142912264Y-104999491D01*
G37*
G04 #@! TD.AperFunction*
D17*
X143811764Y-102581001D02*
X140484234Y-102581001D01*
X143370236Y-99695000D01*
X146697764Y-99695000D01*
X143811764Y-102581001D01*
G04 #@! TA.AperFunction,Conductor*
D22*
G36*
X143811764Y-102581001D02*
G01*
X140484234Y-102581001D01*
X143370236Y-99695000D01*
X146697764Y-99695000D01*
X143811764Y-102581001D01*
G37*
G04 #@! TD.AperFunction*
D17*
X147829895Y-94498870D02*
X147780102Y-94508774D01*
X147591744Y-94586795D01*
X147422226Y-94700063D01*
X147278063Y-94844226D01*
X147164795Y-95013744D01*
X147086774Y-95202102D01*
X147047000Y-95402061D01*
X147047000Y-95605939D01*
X147086774Y-95805898D01*
X147164795Y-95994256D01*
X147278063Y-96163774D01*
X147422226Y-96307937D01*
X147591744Y-96421205D01*
X147780102Y-96499226D01*
X147980061Y-96539000D01*
X148183939Y-96539000D01*
X148383898Y-96499226D01*
X148572256Y-96421205D01*
X148741774Y-96307937D01*
X148885937Y-96163774D01*
X148999205Y-95994256D01*
X149077226Y-95805898D01*
X149087130Y-95756105D01*
X151244236Y-93599000D01*
X152629532Y-93599000D01*
X152671744Y-93627205D01*
X152860102Y-93705226D01*
X153060061Y-93745000D01*
X153263939Y-93745000D01*
X153463898Y-93705226D01*
X153652256Y-93627205D01*
X153821774Y-93513937D01*
X153965937Y-93369774D01*
X154079205Y-93200256D01*
X154157226Y-93011898D01*
X154197000Y-92811939D01*
X154197000Y-92608061D01*
X154173715Y-92490999D01*
X155489686Y-92490999D01*
X155886618Y-92887931D01*
X155811193Y-92963356D01*
X155697925Y-93132874D01*
X155619904Y-93321232D01*
X155580130Y-93521191D01*
X155580130Y-93725069D01*
X155619904Y-93925028D01*
X155697925Y-94113386D01*
X155726131Y-94155599D01*
X155726130Y-97270634D01*
X155079765Y-97917000D01*
X143624235Y-97917000D01*
X149050237Y-92490999D01*
X149837765Y-92490999D01*
X147829895Y-94498870D01*
G04 #@! TA.AperFunction,Conductor*
D22*
G36*
X147829895Y-94498870D02*
G01*
X147780102Y-94508774D01*
X147591744Y-94586795D01*
X147422226Y-94700063D01*
X147278063Y-94844226D01*
X147164795Y-95013744D01*
X147086774Y-95202102D01*
X147047000Y-95402061D01*
X147047000Y-95605939D01*
X147086774Y-95805898D01*
X147164795Y-95994256D01*
X147278063Y-96163774D01*
X147422226Y-96307937D01*
X147591744Y-96421205D01*
X147780102Y-96499226D01*
X147980061Y-96539000D01*
X148183939Y-96539000D01*
X148383898Y-96499226D01*
X148572256Y-96421205D01*
X148741774Y-96307937D01*
X148885937Y-96163774D01*
X148999205Y-95994256D01*
X149077226Y-95805898D01*
X149087130Y-95756105D01*
X151244236Y-93599000D01*
X152629532Y-93599000D01*
X152671744Y-93627205D01*
X152860102Y-93705226D01*
X153060061Y-93745000D01*
X153263939Y-93745000D01*
X153463898Y-93705226D01*
X153652256Y-93627205D01*
X153821774Y-93513937D01*
X153965937Y-93369774D01*
X154079205Y-93200256D01*
X154157226Y-93011898D01*
X154197000Y-92811939D01*
X154197000Y-92608061D01*
X154173715Y-92490999D01*
X155489686Y-92490999D01*
X155886618Y-92887931D01*
X155811193Y-92963356D01*
X155697925Y-93132874D01*
X155619904Y-93321232D01*
X155580130Y-93521191D01*
X155580130Y-93725069D01*
X155619904Y-93925028D01*
X155697925Y-94113386D01*
X155726131Y-94155599D01*
X155726130Y-97270634D01*
X155079765Y-97917000D01*
X143624235Y-97917000D01*
X149050237Y-92490999D01*
X149837765Y-92490999D01*
X147829895Y-94498870D01*
G37*
G04 #@! TD.AperFunction*
D17*
X131152000Y-88173928D02*
X130587750Y-88177000D01*
X130429000Y-88335750D01*
X130429000Y-89535000D01*
X130449000Y-89535000D01*
X130449000Y-89789000D01*
X130429000Y-89789000D01*
X130429000Y-90988250D01*
X130587750Y-91147000D01*
X131152000Y-91150072D01*
X131191000Y-91146231D01*
X131191000Y-92087764D01*
X128405765Y-94873000D01*
X128288481Y-94873000D01*
X128421774Y-94783937D01*
X128565937Y-94639774D01*
X128679205Y-94470256D01*
X128757226Y-94281898D01*
X128797000Y-94081939D01*
X128797000Y-93878061D01*
X128757226Y-93678102D01*
X128679205Y-93489744D01*
X128565937Y-93320226D01*
X128538436Y-93292725D01*
X128504753Y-93229709D01*
X128393659Y-93094341D01*
X128359741Y-93066505D01*
X127243130Y-91949895D01*
X127233226Y-91900102D01*
X127155205Y-91711744D01*
X127041937Y-91542226D01*
X126897774Y-91398063D01*
X126728256Y-91284795D01*
X126539898Y-91206774D01*
X126339939Y-91167000D01*
X126136061Y-91167000D01*
X126111000Y-91171985D01*
X126111000Y-90853983D01*
X126168632Y-90815475D01*
X126375475Y-90608632D01*
X126492000Y-90434240D01*
X126608525Y-90608632D01*
X126815368Y-90815475D01*
X127058589Y-90977990D01*
X127328842Y-91089932D01*
X127615740Y-91147000D01*
X127908260Y-91147000D01*
X128195158Y-91089932D01*
X128465411Y-90977990D01*
X128708632Y-90815475D01*
X128840487Y-90683620D01*
X128862498Y-90756180D01*
X128921463Y-90866494D01*
X129000815Y-90963185D01*
X129097506Y-91042537D01*
X129207820Y-91101502D01*
X129327518Y-91137812D01*
X129452000Y-91150072D01*
X130016250Y-91147000D01*
X130175000Y-90988250D01*
X130175000Y-89789000D01*
X130155000Y-89789000D01*
X130155000Y-89535000D01*
X130175000Y-89535000D01*
X130175000Y-88335750D01*
X130016250Y-88177000D01*
X129452000Y-88173928D01*
X129327518Y-88186188D01*
X129207820Y-88222498D01*
X129097506Y-88281463D01*
X129032000Y-88335222D01*
X129032000Y-86883904D01*
X129093032Y-86998088D01*
X129235867Y-87172133D01*
X129409911Y-87314968D01*
X129608477Y-87421103D01*
X129823933Y-87486461D01*
X130048000Y-87508530D01*
X130272066Y-87486461D01*
X130487522Y-87421103D01*
X130686088Y-87314968D01*
X130860133Y-87172133D01*
X131002968Y-86998089D01*
X131109103Y-86799523D01*
X131174461Y-86584067D01*
X131191000Y-86416146D01*
X131191001Y-88177769D01*
X131152000Y-88173928D01*
G04 #@! TA.AperFunction,Conductor*
D22*
G36*
X131152000Y-88173928D02*
G01*
X130587750Y-88177000D01*
X130429000Y-88335750D01*
X130429000Y-89535000D01*
X130449000Y-89535000D01*
X130449000Y-89789000D01*
X130429000Y-89789000D01*
X130429000Y-90988250D01*
X130587750Y-91147000D01*
X131152000Y-91150072D01*
X131191000Y-91146231D01*
X131191000Y-92087764D01*
X128405765Y-94873000D01*
X128288481Y-94873000D01*
X128421774Y-94783937D01*
X128565937Y-94639774D01*
X128679205Y-94470256D01*
X128757226Y-94281898D01*
X128797000Y-94081939D01*
X128797000Y-93878061D01*
X128757226Y-93678102D01*
X128679205Y-93489744D01*
X128565937Y-93320226D01*
X128538436Y-93292725D01*
X128504753Y-93229709D01*
X128393659Y-93094341D01*
X128359741Y-93066505D01*
X127243130Y-91949895D01*
X127233226Y-91900102D01*
X127155205Y-91711744D01*
X127041937Y-91542226D01*
X126897774Y-91398063D01*
X126728256Y-91284795D01*
X126539898Y-91206774D01*
X126339939Y-91167000D01*
X126136061Y-91167000D01*
X126111000Y-91171985D01*
X126111000Y-90853983D01*
X126168632Y-90815475D01*
X126375475Y-90608632D01*
X126492000Y-90434240D01*
X126608525Y-90608632D01*
X126815368Y-90815475D01*
X127058589Y-90977990D01*
X127328842Y-91089932D01*
X127615740Y-91147000D01*
X127908260Y-91147000D01*
X128195158Y-91089932D01*
X128465411Y-90977990D01*
X128708632Y-90815475D01*
X128840487Y-90683620D01*
X128862498Y-90756180D01*
X128921463Y-90866494D01*
X129000815Y-90963185D01*
X129097506Y-91042537D01*
X129207820Y-91101502D01*
X129327518Y-91137812D01*
X129452000Y-91150072D01*
X130016250Y-91147000D01*
X130175000Y-90988250D01*
X130175000Y-89789000D01*
X130155000Y-89789000D01*
X130155000Y-89535000D01*
X130175000Y-89535000D01*
X130175000Y-88335750D01*
X130016250Y-88177000D01*
X129452000Y-88173928D01*
X129327518Y-88186188D01*
X129207820Y-88222498D01*
X129097506Y-88281463D01*
X129032000Y-88335222D01*
X129032000Y-86883904D01*
X129093032Y-86998088D01*
X129235867Y-87172133D01*
X129409911Y-87314968D01*
X129608477Y-87421103D01*
X129823933Y-87486461D01*
X130048000Y-87508530D01*
X130272066Y-87486461D01*
X130487522Y-87421103D01*
X130686088Y-87314968D01*
X130860133Y-87172133D01*
X131002968Y-86998089D01*
X131109103Y-86799523D01*
X131174461Y-86584067D01*
X131191000Y-86416146D01*
X131191001Y-88177769D01*
X131152000Y-88173928D01*
G37*
G04 #@! TD.AperFunction*
D17*
X144907000Y-79895764D02*
X138086260Y-86716505D01*
X138052342Y-86744341D01*
X138024507Y-86778258D01*
X138024505Y-86778260D01*
X137941248Y-86879709D01*
X137858698Y-87034148D01*
X137807864Y-87201726D01*
X137790700Y-87376000D01*
X137795001Y-87419670D01*
X137795000Y-92595764D01*
X136432999Y-93957766D01*
X136432999Y-93170236D01*
X136995744Y-92607492D01*
X137029659Y-92579659D01*
X137057491Y-92545745D01*
X137057495Y-92545741D01*
X137140752Y-92444292D01*
X137223302Y-92289853D01*
X137274136Y-92122275D01*
X137291300Y-91948000D01*
X137289553Y-91930256D01*
X137278792Y-91821000D01*
X137274136Y-91773725D01*
X137223302Y-91606148D01*
X137194999Y-91553197D01*
X137194999Y-84280236D01*
X144907000Y-76568236D01*
X144907000Y-79895764D01*
G04 #@! TA.AperFunction,Conductor*
D22*
G36*
X144907000Y-79895764D02*
G01*
X138086260Y-86716505D01*
X138052342Y-86744341D01*
X138024507Y-86778258D01*
X138024505Y-86778260D01*
X137941248Y-86879709D01*
X137858698Y-87034148D01*
X137807864Y-87201726D01*
X137790700Y-87376000D01*
X137795001Y-87419670D01*
X137795000Y-92595764D01*
X136432999Y-93957766D01*
X136432999Y-93170236D01*
X136995744Y-92607492D01*
X137029659Y-92579659D01*
X137057491Y-92545745D01*
X137057495Y-92545741D01*
X137140752Y-92444292D01*
X137223302Y-92289853D01*
X137274136Y-92122275D01*
X137291300Y-91948000D01*
X137289553Y-91930256D01*
X137278792Y-91821000D01*
X137274136Y-91773725D01*
X137223302Y-91606148D01*
X137194999Y-91553197D01*
X137194999Y-84280236D01*
X144907000Y-76568236D01*
X144907000Y-79895764D01*
G37*
G04 #@! TD.AperFunction*
D17*
X139446000Y-76073000D02*
X139827000Y-76073000D01*
X139827000Y-77470000D01*
X139839201Y-77593882D01*
X139875336Y-77713004D01*
X139934017Y-77822787D01*
X140012987Y-77919013D01*
X140109213Y-77997983D01*
X140218996Y-78056664D01*
X140338118Y-78092799D01*
X140462000Y-78105000D01*
X140855764Y-78105000D01*
X135708258Y-83252507D01*
X135674341Y-83280342D01*
X135646506Y-83314259D01*
X135646504Y-83314261D01*
X135563247Y-83415710D01*
X135480697Y-83570149D01*
X135429863Y-83737727D01*
X135412699Y-83912001D01*
X135417000Y-83955671D01*
X135416999Y-91671765D01*
X134946258Y-92142507D01*
X134912341Y-92170342D01*
X134909000Y-92174413D01*
X134909000Y-90194468D01*
X134937205Y-90152256D01*
X135015226Y-89963898D01*
X135055000Y-89763939D01*
X135055000Y-89560061D01*
X135015226Y-89360102D01*
X134937205Y-89171744D01*
X134823937Y-89002226D01*
X134679774Y-88858063D01*
X134510256Y-88744795D01*
X134321898Y-88666774D01*
X134121939Y-88627000D01*
X133985000Y-88627000D01*
X133985000Y-81394235D01*
X139281737Y-76097498D01*
X139315659Y-76069659D01*
X139322869Y-76060873D01*
X139446000Y-76073000D01*
G04 #@! TA.AperFunction,Conductor*
D22*
G36*
X139446000Y-76073000D02*
G01*
X139827000Y-76073000D01*
X139827000Y-77470000D01*
X139839201Y-77593882D01*
X139875336Y-77713004D01*
X139934017Y-77822787D01*
X140012987Y-77919013D01*
X140109213Y-77997983D01*
X140218996Y-78056664D01*
X140338118Y-78092799D01*
X140462000Y-78105000D01*
X140855764Y-78105000D01*
X135708258Y-83252507D01*
X135674341Y-83280342D01*
X135646506Y-83314259D01*
X135646504Y-83314261D01*
X135563247Y-83415710D01*
X135480697Y-83570149D01*
X135429863Y-83737727D01*
X135412699Y-83912001D01*
X135417000Y-83955671D01*
X135416999Y-91671765D01*
X134946258Y-92142507D01*
X134912341Y-92170342D01*
X134909000Y-92174413D01*
X134909000Y-90194468D01*
X134937205Y-90152256D01*
X135015226Y-89963898D01*
X135055000Y-89763939D01*
X135055000Y-89560061D01*
X135015226Y-89360102D01*
X134937205Y-89171744D01*
X134823937Y-89002226D01*
X134679774Y-88858063D01*
X134510256Y-88744795D01*
X134321898Y-88666774D01*
X134121939Y-88627000D01*
X133985000Y-88627000D01*
X133985000Y-81394235D01*
X139281737Y-76097498D01*
X139315659Y-76069659D01*
X139322869Y-76060873D01*
X139446000Y-76073000D01*
G37*
G04 #@! TD.AperFunction*
D17*
X157850525Y-69022632D02*
X158057368Y-69229475D01*
X158231760Y-69346000D01*
X158057368Y-69462525D01*
X157850525Y-69669368D01*
X157688010Y-69912589D01*
X157576068Y-70182842D01*
X157519000Y-70469740D01*
X157519000Y-70762260D01*
X157576068Y-71049158D01*
X157688010Y-71319411D01*
X157850525Y-71562632D01*
X158057368Y-71769475D01*
X158239534Y-71891195D01*
X158122645Y-71960822D01*
X157906412Y-72155731D01*
X157732359Y-72389080D01*
X157607175Y-72651901D01*
X157562524Y-72799110D01*
X157683845Y-73029000D01*
X158877000Y-73029000D01*
X158877000Y-73009000D01*
X159131000Y-73009000D01*
X159131000Y-73029000D01*
X159151000Y-73029000D01*
X159151000Y-73283000D01*
X159131000Y-73283000D01*
X159131000Y-73303000D01*
X158877000Y-73303000D01*
X158877000Y-73283000D01*
X157683845Y-73283000D01*
X157562524Y-73512890D01*
X157607175Y-73660099D01*
X157732359Y-73922920D01*
X157906412Y-74156269D01*
X158122645Y-74351178D01*
X158239534Y-74420805D01*
X158057368Y-74542525D01*
X157850525Y-74749368D01*
X157688010Y-74992589D01*
X157576068Y-75262842D01*
X157519000Y-75549740D01*
X157519000Y-75842260D01*
X157576068Y-76129158D01*
X157688010Y-76399411D01*
X157850525Y-76642632D01*
X158057368Y-76849475D01*
X158231760Y-76966000D01*
X158057368Y-77082525D01*
X157850525Y-77289368D01*
X157812017Y-77347000D01*
X155741659Y-77347000D01*
X155697999Y-77342700D01*
X155654339Y-77347000D01*
X155654333Y-77347000D01*
X155556924Y-77356594D01*
X155523724Y-77359864D01*
X155423476Y-77390274D01*
X155356149Y-77410697D01*
X155201709Y-77493247D01*
X155066341Y-77604341D01*
X155038501Y-77638264D01*
X153834259Y-78842506D01*
X153800342Y-78870341D01*
X153772507Y-78904258D01*
X153772505Y-78904260D01*
X153689248Y-79005709D01*
X153606698Y-79160148D01*
X153555864Y-79327726D01*
X153538700Y-79502000D01*
X153543001Y-79545670D01*
X153543000Y-85737764D01*
X152793765Y-86487000D01*
X146099738Y-86487000D01*
X146056078Y-86482700D01*
X146012418Y-86487000D01*
X146012411Y-86487000D01*
X145898403Y-86498229D01*
X145881803Y-86499864D01*
X145830970Y-86515284D01*
X145714227Y-86550697D01*
X145559787Y-86633247D01*
X145424419Y-86744341D01*
X145396584Y-86778258D01*
X140735000Y-91439843D01*
X140735000Y-91338061D01*
X140695226Y-91138102D01*
X140617205Y-90949744D01*
X140589000Y-90907532D01*
X140589000Y-89846140D01*
X140598687Y-89843201D01*
X140775189Y-89748859D01*
X140891134Y-89653706D01*
X148765133Y-81779708D01*
X148803896Y-81747896D01*
X148930860Y-81593190D01*
X149025202Y-81416687D01*
X149083298Y-81225171D01*
X149098000Y-81075902D01*
X149102915Y-81026000D01*
X149098000Y-80976098D01*
X149098000Y-79953459D01*
X149117000Y-79857939D01*
X149117000Y-79654061D01*
X149077226Y-79454102D01*
X148999205Y-79265744D01*
X148885937Y-79096226D01*
X148741774Y-78952063D01*
X148572256Y-78838795D01*
X148383898Y-78760774D01*
X148183939Y-78721000D01*
X147980061Y-78721000D01*
X147780102Y-78760774D01*
X147591744Y-78838795D01*
X147422226Y-78952063D01*
X147278063Y-79096226D01*
X147164795Y-79265744D01*
X147086774Y-79454102D01*
X147047000Y-79654061D01*
X147047000Y-79857939D01*
X147066000Y-79953460D01*
X147066001Y-80605158D01*
X139573000Y-88098160D01*
X139573000Y-87744235D01*
X146393743Y-80923493D01*
X146427659Y-80895659D01*
X146538753Y-80760291D01*
X146621303Y-80605851D01*
X146665724Y-80459411D01*
X146672136Y-80438275D01*
X146674352Y-80415774D01*
X146685000Y-80307667D01*
X146685000Y-80307660D01*
X146689300Y-80264000D01*
X146685000Y-80220340D01*
X146685000Y-69710235D01*
X147430235Y-68965000D01*
X157812017Y-68965000D01*
X157850525Y-69022632D01*
G04 #@! TA.AperFunction,Conductor*
D22*
G36*
X157850525Y-69022632D02*
G01*
X158057368Y-69229475D01*
X158231760Y-69346000D01*
X158057368Y-69462525D01*
X157850525Y-69669368D01*
X157688010Y-69912589D01*
X157576068Y-70182842D01*
X157519000Y-70469740D01*
X157519000Y-70762260D01*
X157576068Y-71049158D01*
X157688010Y-71319411D01*
X157850525Y-71562632D01*
X158057368Y-71769475D01*
X158239534Y-71891195D01*
X158122645Y-71960822D01*
X157906412Y-72155731D01*
X157732359Y-72389080D01*
X157607175Y-72651901D01*
X157562524Y-72799110D01*
X157683845Y-73029000D01*
X158877000Y-73029000D01*
X158877000Y-73009000D01*
X159131000Y-73009000D01*
X159131000Y-73029000D01*
X159151000Y-73029000D01*
X159151000Y-73283000D01*
X159131000Y-73283000D01*
X159131000Y-73303000D01*
X158877000Y-73303000D01*
X158877000Y-73283000D01*
X157683845Y-73283000D01*
X157562524Y-73512890D01*
X157607175Y-73660099D01*
X157732359Y-73922920D01*
X157906412Y-74156269D01*
X158122645Y-74351178D01*
X158239534Y-74420805D01*
X158057368Y-74542525D01*
X157850525Y-74749368D01*
X157688010Y-74992589D01*
X157576068Y-75262842D01*
X157519000Y-75549740D01*
X157519000Y-75842260D01*
X157576068Y-76129158D01*
X157688010Y-76399411D01*
X157850525Y-76642632D01*
X158057368Y-76849475D01*
X158231760Y-76966000D01*
X158057368Y-77082525D01*
X157850525Y-77289368D01*
X157812017Y-77347000D01*
X155741659Y-77347000D01*
X155697999Y-77342700D01*
X155654339Y-77347000D01*
X155654333Y-77347000D01*
X155556924Y-77356594D01*
X155523724Y-77359864D01*
X155423476Y-77390274D01*
X155356149Y-77410697D01*
X155201709Y-77493247D01*
X155066341Y-77604341D01*
X155038501Y-77638264D01*
X153834259Y-78842506D01*
X153800342Y-78870341D01*
X153772507Y-78904258D01*
X153772505Y-78904260D01*
X153689248Y-79005709D01*
X153606698Y-79160148D01*
X153555864Y-79327726D01*
X153538700Y-79502000D01*
X153543001Y-79545670D01*
X153543000Y-85737764D01*
X152793765Y-86487000D01*
X146099738Y-86487000D01*
X146056078Y-86482700D01*
X146012418Y-86487000D01*
X146012411Y-86487000D01*
X145898403Y-86498229D01*
X145881803Y-86499864D01*
X145830970Y-86515284D01*
X145714227Y-86550697D01*
X145559787Y-86633247D01*
X145424419Y-86744341D01*
X145396584Y-86778258D01*
X140735000Y-91439843D01*
X140735000Y-91338061D01*
X140695226Y-91138102D01*
X140617205Y-90949744D01*
X140589000Y-90907532D01*
X140589000Y-89846140D01*
X140598687Y-89843201D01*
X140775189Y-89748859D01*
X140891134Y-89653706D01*
X148765133Y-81779708D01*
X148803896Y-81747896D01*
X148930860Y-81593190D01*
X149025202Y-81416687D01*
X149083298Y-81225171D01*
X149098000Y-81075902D01*
X149102915Y-81026000D01*
X149098000Y-80976098D01*
X149098000Y-79953459D01*
X149117000Y-79857939D01*
X149117000Y-79654061D01*
X149077226Y-79454102D01*
X148999205Y-79265744D01*
X148885937Y-79096226D01*
X148741774Y-78952063D01*
X148572256Y-78838795D01*
X148383898Y-78760774D01*
X148183939Y-78721000D01*
X147980061Y-78721000D01*
X147780102Y-78760774D01*
X147591744Y-78838795D01*
X147422226Y-78952063D01*
X147278063Y-79096226D01*
X147164795Y-79265744D01*
X147086774Y-79454102D01*
X147047000Y-79654061D01*
X147047000Y-79857939D01*
X147066000Y-79953460D01*
X147066001Y-80605158D01*
X139573000Y-88098160D01*
X139573000Y-87744235D01*
X146393743Y-80923493D01*
X146427659Y-80895659D01*
X146538753Y-80760291D01*
X146621303Y-80605851D01*
X146665724Y-80459411D01*
X146672136Y-80438275D01*
X146674352Y-80415774D01*
X146685000Y-80307667D01*
X146685000Y-80307660D01*
X146689300Y-80264000D01*
X146685000Y-80220340D01*
X146685000Y-69710235D01*
X147430235Y-68965000D01*
X157812017Y-68965000D01*
X157850525Y-69022632D01*
G37*
G04 #@! TD.AperFunction*
D17*
X128905001Y-79721447D02*
X128905000Y-84280284D01*
X128823075Y-84127012D01*
X128664370Y-83933630D01*
X128615914Y-83893863D01*
X123116141Y-78394091D01*
X123076370Y-78345630D01*
X122882988Y-78186925D01*
X122662359Y-78068997D01*
X122422963Y-77996377D01*
X122236380Y-77978000D01*
X122236373Y-77978000D01*
X122174000Y-77971857D01*
X122111627Y-77978000D01*
X119548470Y-77978000D01*
X119515405Y-77964304D01*
X119257486Y-77913000D01*
X118994514Y-77913000D01*
X118736595Y-77964304D01*
X118493641Y-78064939D01*
X118274987Y-78211038D01*
X118089038Y-78396987D01*
X117942939Y-78615641D01*
X117842304Y-78858595D01*
X117791000Y-79116514D01*
X117791000Y-79379486D01*
X117811603Y-79483064D01*
X117725659Y-79378341D01*
X117691742Y-79350506D01*
X114959499Y-76618264D01*
X114931659Y-76584341D01*
X114796291Y-76473247D01*
X114641851Y-76390697D01*
X114474274Y-76339864D01*
X114343667Y-76327000D01*
X114343660Y-76327000D01*
X114300000Y-76322700D01*
X114256340Y-76327000D01*
X111681983Y-76327000D01*
X111643475Y-76269368D01*
X111436632Y-76062525D01*
X111262240Y-75946000D01*
X111436632Y-75829475D01*
X111447107Y-75819000D01*
X125002555Y-75819000D01*
X128905001Y-79721447D01*
G04 #@! TA.AperFunction,Conductor*
D22*
G36*
X128905001Y-79721447D02*
G01*
X128905000Y-84280284D01*
X128823075Y-84127012D01*
X128664370Y-83933630D01*
X128615914Y-83893863D01*
X123116141Y-78394091D01*
X123076370Y-78345630D01*
X122882988Y-78186925D01*
X122662359Y-78068997D01*
X122422963Y-77996377D01*
X122236380Y-77978000D01*
X122236373Y-77978000D01*
X122174000Y-77971857D01*
X122111627Y-77978000D01*
X119548470Y-77978000D01*
X119515405Y-77964304D01*
X119257486Y-77913000D01*
X118994514Y-77913000D01*
X118736595Y-77964304D01*
X118493641Y-78064939D01*
X118274987Y-78211038D01*
X118089038Y-78396987D01*
X117942939Y-78615641D01*
X117842304Y-78858595D01*
X117791000Y-79116514D01*
X117791000Y-79379486D01*
X117811603Y-79483064D01*
X117725659Y-79378341D01*
X117691742Y-79350506D01*
X114959499Y-76618264D01*
X114931659Y-76584341D01*
X114796291Y-76473247D01*
X114641851Y-76390697D01*
X114474274Y-76339864D01*
X114343667Y-76327000D01*
X114343660Y-76327000D01*
X114300000Y-76322700D01*
X114256340Y-76327000D01*
X111681983Y-76327000D01*
X111643475Y-76269368D01*
X111436632Y-76062525D01*
X111262240Y-75946000D01*
X111436632Y-75829475D01*
X111447107Y-75819000D01*
X125002555Y-75819000D01*
X128905001Y-79721447D01*
G37*
G04 #@! TD.AperFunction*
D17*
X131457507Y-64308504D02*
X131409000Y-64547000D01*
X131409000Y-64897000D01*
X132517000Y-64897000D01*
X132517000Y-64877000D01*
X132771000Y-64877000D01*
X132771000Y-64897000D01*
X133879000Y-64897000D01*
X133879000Y-64547000D01*
X133830493Y-64308504D01*
X133778713Y-64185000D01*
X138509287Y-64185000D01*
X138457507Y-64308504D01*
X138409000Y-64547000D01*
X138409000Y-64897000D01*
X139517000Y-64897000D01*
X139517000Y-64877000D01*
X139771000Y-64877000D01*
X139771000Y-64897000D01*
X140879000Y-64897000D01*
X140879000Y-64547000D01*
X140830493Y-64308504D01*
X140778713Y-64185000D01*
X158385111Y-64185000D01*
X158300589Y-64220010D01*
X158057368Y-64382525D01*
X157850525Y-64589368D01*
X157812017Y-64647000D01*
X148121659Y-64647000D01*
X148077999Y-64642700D01*
X148034339Y-64647000D01*
X148034333Y-64647000D01*
X147936924Y-64656594D01*
X147903724Y-64659864D01*
X147802058Y-64690704D01*
X147736149Y-64710697D01*
X147581709Y-64793247D01*
X147446341Y-64904341D01*
X147418501Y-64938264D01*
X144182259Y-68174506D01*
X144148342Y-68202341D01*
X144120507Y-68236258D01*
X144120505Y-68236260D01*
X144037248Y-68337709D01*
X143954698Y-68492148D01*
X143903864Y-68659726D01*
X143886700Y-68834000D01*
X143891001Y-68877670D01*
X143891000Y-75069764D01*
X142113000Y-76847764D01*
X142113000Y-74168000D01*
X142100799Y-74044118D01*
X142064664Y-73924996D01*
X142005983Y-73815213D01*
X141927013Y-73718987D01*
X141830787Y-73640017D01*
X141721004Y-73581336D01*
X141601882Y-73545201D01*
X141478000Y-73533000D01*
X140589000Y-73533000D01*
X140589000Y-71374000D01*
X140576799Y-71250118D01*
X140540664Y-71130996D01*
X140481983Y-71021213D01*
X140403013Y-70924987D01*
X140306787Y-70846017D01*
X140220232Y-70799752D01*
X141470434Y-70799752D01*
X141512646Y-70827957D01*
X141701004Y-70905978D01*
X141900963Y-70945752D01*
X142104841Y-70945752D01*
X142304800Y-70905978D01*
X142493158Y-70827957D01*
X142662676Y-70714689D01*
X142806839Y-70570526D01*
X142920107Y-70401008D01*
X142998128Y-70212650D01*
X143037902Y-70012691D01*
X143037902Y-69808813D01*
X142998128Y-69608854D01*
X142920107Y-69420496D01*
X142806839Y-69250978D01*
X142662676Y-69106815D01*
X142493158Y-68993547D01*
X142304800Y-68915526D01*
X142104841Y-68875752D01*
X141900963Y-68875752D01*
X141701004Y-68915526D01*
X141512646Y-68993547D01*
X141470434Y-69021752D01*
X139054706Y-69021752D01*
X139234100Y-68956609D01*
X139341035Y-68899450D01*
X139403528Y-68663133D01*
X138644000Y-67903605D01*
X137884472Y-68663133D01*
X137946965Y-68899450D01*
X138189678Y-69012850D01*
X138225940Y-69021752D01*
X137639625Y-69021752D01*
X137569205Y-68851744D01*
X137455937Y-68682226D01*
X137311774Y-68538063D01*
X137142256Y-68424795D01*
X136953898Y-68346774D01*
X136753939Y-68307000D01*
X136550061Y-68307000D01*
X136350102Y-68346774D01*
X136161744Y-68424795D01*
X135992226Y-68538063D01*
X135848063Y-68682226D01*
X135746651Y-68834000D01*
X134559711Y-68834000D01*
X134517774Y-68792063D01*
X134391708Y-68707829D01*
X134403528Y-68663133D01*
X133644000Y-67903605D01*
X132884472Y-68663133D01*
X132946965Y-68899450D01*
X133047310Y-68946333D01*
X132940795Y-69105744D01*
X132862774Y-69294102D01*
X132823000Y-69494061D01*
X132823000Y-69697939D01*
X132862774Y-69897898D01*
X132940795Y-70086256D01*
X133054063Y-70255774D01*
X133198226Y-70399937D01*
X133367744Y-70513205D01*
X133556102Y-70591226D01*
X133756061Y-70631000D01*
X133959939Y-70631000D01*
X134159898Y-70591226D01*
X134348256Y-70513205D01*
X134517774Y-70399937D01*
X134559711Y-70358000D01*
X136360577Y-70358000D01*
X136398000Y-70361686D01*
X136412976Y-70360211D01*
X136561253Y-70508488D01*
X136589093Y-70542411D01*
X136724461Y-70653505D01*
X136841785Y-70716216D01*
X136869390Y-70730971D01*
X136878901Y-70736055D01*
X136888610Y-70739000D01*
X135636000Y-70739000D01*
X135512118Y-70751201D01*
X135392996Y-70787336D01*
X135283213Y-70846017D01*
X135186987Y-70924987D01*
X135108017Y-71021213D01*
X135049336Y-71130996D01*
X135013201Y-71250118D01*
X135001000Y-71374000D01*
X135001000Y-72009000D01*
X133096000Y-72009000D01*
X132972118Y-72021201D01*
X132852996Y-72057336D01*
X132743213Y-72116017D01*
X132646987Y-72194987D01*
X132608194Y-72233780D01*
X132605744Y-72234795D01*
X132436226Y-72348063D01*
X132292063Y-72492226D01*
X132202500Y-72626267D01*
X132201829Y-72625602D01*
X132168899Y-72603776D01*
X132137620Y-72579635D01*
X132116957Y-72569350D01*
X132097715Y-72556597D01*
X132089791Y-72552466D01*
X132038030Y-72525938D01*
X132011104Y-72515312D01*
X131985443Y-72501921D01*
X131953150Y-72492442D01*
X131921844Y-72480088D01*
X131893371Y-72474895D01*
X131865594Y-72466742D01*
X131856804Y-72465135D01*
X131793504Y-72454021D01*
X131751899Y-72450851D01*
X131710576Y-72444980D01*
X131701646Y-72444656D01*
X131670779Y-72443748D01*
X131628229Y-72446660D01*
X131585563Y-72446924D01*
X131576682Y-72447914D01*
X131494982Y-72457591D01*
X131467148Y-72463688D01*
X131454950Y-72465024D01*
X131441003Y-72460600D01*
X131438775Y-72460350D01*
X131436630Y-72459686D01*
X131405056Y-72456368D01*
X131407176Y-72452474D01*
X131411556Y-72438470D01*
X131419051Y-72422592D01*
X131421999Y-72414156D01*
X131423506Y-72409747D01*
X131430408Y-72380484D01*
X131438806Y-72356182D01*
X131440006Y-72347493D01*
X131444457Y-72333261D01*
X131446919Y-72310477D01*
X131452178Y-72288177D01*
X131453587Y-72249183D01*
X131455899Y-72232451D01*
X131455706Y-72229143D01*
X131457874Y-72209078D01*
X131455863Y-72186243D01*
X131456690Y-72163352D01*
X131450396Y-72124184D01*
X131446914Y-72084653D01*
X131440509Y-72062655D01*
X131436873Y-72040028D01*
X131423088Y-72002821D01*
X131423078Y-72002787D01*
X131420694Y-71991647D01*
X131418033Y-71985462D01*
X131411996Y-71964727D01*
X131408615Y-71956455D01*
X131401624Y-71939689D01*
X131395407Y-71928110D01*
X131393477Y-71922902D01*
X131386529Y-71911578D01*
X131385123Y-71908958D01*
X131371335Y-71876907D01*
X131366964Y-71869113D01*
X131347645Y-71835210D01*
X131343400Y-71829210D01*
X131340251Y-71822574D01*
X131335597Y-71814946D01*
X131322021Y-71793040D01*
X131323945Y-71792421D01*
X131329495Y-71791677D01*
X131338179Y-71789571D01*
X131381156Y-71778831D01*
X131398608Y-71772606D01*
X131416751Y-71768835D01*
X131425262Y-71766111D01*
X131450035Y-71757994D01*
X131494933Y-71738246D01*
X131498802Y-71736866D01*
X131500850Y-71735643D01*
X131502220Y-71735041D01*
X131537954Y-71721517D01*
X131547652Y-71715473D01*
X131559827Y-71710236D01*
X131564234Y-71707765D01*
X131564370Y-71707705D01*
X131564489Y-71707622D01*
X131567622Y-71705865D01*
X131570943Y-71703973D01*
X131606733Y-71678654D01*
X131643960Y-71655455D01*
X131657630Y-71642649D01*
X131672914Y-71631837D01*
X131703106Y-71600048D01*
X131735116Y-71570061D01*
X131746038Y-71554844D01*
X131758931Y-71541269D01*
X131782378Y-71504214D01*
X131807950Y-71468587D01*
X131815705Y-71451546D01*
X131825720Y-71435719D01*
X131841525Y-71394810D01*
X131859687Y-71354901D01*
X131862518Y-71346425D01*
X131867992Y-71329647D01*
X131869721Y-71321828D01*
X131870734Y-71319206D01*
X131872375Y-71309825D01*
X131880635Y-71272474D01*
X131893980Y-71215436D01*
X131894946Y-71207756D01*
X131894961Y-71207687D01*
X131894962Y-71207623D01*
X131895095Y-71206569D01*
X131899545Y-71169077D01*
X131899812Y-71156014D01*
X131902089Y-71143146D01*
X131902718Y-71134232D01*
X131906140Y-71080381D01*
X131905995Y-71076140D01*
X131906620Y-71071945D01*
X131907007Y-71063017D01*
X131909398Y-70997167D01*
X131909322Y-70995932D01*
X131909483Y-70994702D01*
X131909710Y-70985768D01*
X131911068Y-70912277D01*
X131911060Y-70912176D01*
X131911072Y-70912073D01*
X131911171Y-70903137D01*
X131911492Y-70826554D01*
X131911493Y-70826546D01*
X131911470Y-70817609D01*
X131910752Y-70741913D01*
X131910697Y-70741406D01*
X131910742Y-70740892D01*
X131910580Y-70731957D01*
X131908820Y-70661694D01*
X131908531Y-70659356D01*
X131908686Y-70656994D01*
X131908334Y-70648064D01*
X131905529Y-70587594D01*
X131904482Y-70580378D01*
X131904691Y-70573093D01*
X131904012Y-70564183D01*
X131900158Y-70517863D01*
X131895687Y-70493399D01*
X131894125Y-70468580D01*
X131892634Y-70459769D01*
X131887729Y-70431958D01*
X131879536Y-70402617D01*
X131874323Y-70372604D01*
X131862778Y-70342608D01*
X131854134Y-70311655D01*
X131840963Y-70285584D01*
X131833707Y-70265178D01*
X131831639Y-70261705D01*
X131829456Y-70256034D01*
X131825392Y-70248076D01*
X131822435Y-70242384D01*
X131807696Y-70219734D01*
X131797812Y-70200168D01*
X131785950Y-70184987D01*
X131769796Y-70157861D01*
X131761266Y-70148379D01*
X131754311Y-70137691D01*
X131727470Y-70110140D01*
X131720909Y-70101743D01*
X131713760Y-70095573D01*
X131686258Y-70065002D01*
X131676044Y-70057354D01*
X131667149Y-70048224D01*
X131626368Y-70020145D01*
X131626352Y-70020131D01*
X131626328Y-70020117D01*
X131626140Y-70019988D01*
X131586273Y-69990137D01*
X131574778Y-69984623D01*
X131564271Y-69977389D01*
X131525160Y-69960506D01*
X131518517Y-69956421D01*
X131507244Y-69952230D01*
X131473653Y-69936118D01*
X131465235Y-69933117D01*
X131448773Y-69927376D01*
X131424678Y-69921536D01*
X131401440Y-69912897D01*
X131392784Y-69910676D01*
X131355298Y-69901335D01*
X131351385Y-69900758D01*
X131347636Y-69899475D01*
X131338925Y-69897483D01*
X131321809Y-69893693D01*
X131345147Y-69856210D01*
X131349636Y-69847131D01*
X131355552Y-69838898D01*
X131359979Y-69831135D01*
X131373687Y-69806709D01*
X131391814Y-69765416D01*
X131406358Y-69738817D01*
X131409120Y-69730042D01*
X131414369Y-69719407D01*
X131417465Y-69711024D01*
X131419444Y-69705547D01*
X131421303Y-69698237D01*
X131423893Y-69692337D01*
X131430818Y-69661103D01*
X131443858Y-69619673D01*
X131445816Y-69601855D01*
X131450231Y-69584495D01*
X131452622Y-69539920D01*
X131457501Y-69495514D01*
X131455961Y-69477655D01*
X131456920Y-69459768D01*
X131450606Y-69415568D01*
X131446768Y-69371070D01*
X131441790Y-69353858D01*
X131439256Y-69336117D01*
X131424471Y-69293970D01*
X131412067Y-69251080D01*
X131403841Y-69235162D01*
X131397909Y-69218253D01*
X131375615Y-69180452D01*
X131369638Y-69166535D01*
X131364514Y-69159063D01*
X131354722Y-69140116D01*
X131349812Y-69132650D01*
X131341302Y-69119904D01*
X131336321Y-69113825D01*
X131334457Y-69110664D01*
X131325537Y-69100663D01*
X131318943Y-69092616D01*
X131298994Y-69063527D01*
X131293197Y-69056726D01*
X131269670Y-69029511D01*
X131265745Y-69025779D01*
X131262539Y-69021400D01*
X131256535Y-69014781D01*
X131220995Y-68976146D01*
X131220785Y-68975958D01*
X131220611Y-68975728D01*
X131214509Y-68969199D01*
X131169964Y-68922194D01*
X131169858Y-68922102D01*
X131165742Y-68917781D01*
X131115195Y-68865452D01*
X131115071Y-68865347D01*
X131111835Y-68862000D01*
X131058294Y-68807400D01*
X131058176Y-68807302D01*
X131055122Y-68804187D01*
X131001591Y-68750363D01*
X131001473Y-68750265D01*
X130998024Y-68746804D01*
X130947508Y-68696804D01*
X130947413Y-68696727D01*
X130942718Y-68692112D01*
X130898223Y-68648985D01*
X130897369Y-68648306D01*
X130896660Y-68647475D01*
X130890179Y-68641323D01*
X130854709Y-68608119D01*
X130848008Y-68602975D01*
X130842260Y-68596767D01*
X130835536Y-68590881D01*
X130812098Y-68570648D01*
X130798334Y-68560938D01*
X130797395Y-68559979D01*
X130783220Y-68550275D01*
X130773871Y-68543679D01*
X130737025Y-68514869D01*
X130729449Y-68510131D01*
X130721608Y-68505303D01*
X130714679Y-68501920D01*
X130710035Y-68498644D01*
X130703644Y-68495798D01*
X130694327Y-68489420D01*
X130651367Y-68471010D01*
X130609364Y-68450504D01*
X130594070Y-68446457D01*
X130579518Y-68440221D01*
X130533777Y-68430502D01*
X130488614Y-68418551D01*
X130472826Y-68417551D01*
X130457340Y-68414261D01*
X130410596Y-68413612D01*
X130363958Y-68410659D01*
X130348272Y-68412746D01*
X130332446Y-68412526D01*
X130286476Y-68420967D01*
X130240142Y-68427131D01*
X130225156Y-68432226D01*
X130209593Y-68435084D01*
X130166129Y-68452296D01*
X130161981Y-68453706D01*
X130154472Y-68455633D01*
X130149965Y-68457792D01*
X130121885Y-68467339D01*
X130108185Y-68475242D01*
X130093462Y-68481072D01*
X130085543Y-68485213D01*
X130072777Y-68492003D01*
X130057917Y-68501877D01*
X130041820Y-68509587D01*
X130034208Y-68514268D01*
X130003673Y-68533343D01*
X130002831Y-68533991D01*
X130001882Y-68534466D01*
X129994352Y-68539278D01*
X129978234Y-68549737D01*
X129968462Y-68497901D01*
X129968267Y-68497233D01*
X129968204Y-68496542D01*
X129950734Y-68437185D01*
X129933454Y-68378001D01*
X129933135Y-68377388D01*
X129932938Y-68376718D01*
X129904249Y-68321842D01*
X129875825Y-68267184D01*
X129875391Y-68266642D01*
X129875069Y-68266026D01*
X129836323Y-68217835D01*
X129797769Y-68169670D01*
X129797239Y-68169223D01*
X129796803Y-68168681D01*
X129749354Y-68128867D01*
X129702259Y-68089176D01*
X129701653Y-68088841D01*
X129701119Y-68088393D01*
X129646691Y-68058471D01*
X129592933Y-68028766D01*
X129592276Y-68028556D01*
X129591663Y-68028219D01*
X129532616Y-68009489D01*
X129473956Y-67990741D01*
X129473265Y-67990662D01*
X129472603Y-67990452D01*
X129411201Y-67983564D01*
X129349859Y-67976549D01*
X129349167Y-67976606D01*
X129348476Y-67976528D01*
X129339540Y-67976466D01*
X128711885Y-67976466D01*
X128711196Y-67976534D01*
X128710502Y-67976467D01*
X128648689Y-67982663D01*
X128587575Y-67988655D01*
X128586915Y-67988854D01*
X128586219Y-67988924D01*
X128526839Y-68006992D01*
X128468000Y-68024757D01*
X128467388Y-68025082D01*
X128466722Y-68025285D01*
X128412094Y-68054482D01*
X128357714Y-68083396D01*
X128357177Y-68083834D01*
X128356563Y-68084162D01*
X128308551Y-68123493D01*
X128260919Y-68162341D01*
X128260479Y-68162873D01*
X128259938Y-68163316D01*
X128220399Y-68211321D01*
X128181301Y-68258583D01*
X128180973Y-68259190D01*
X128180528Y-68259730D01*
X128151146Y-68314354D01*
X128121893Y-68368456D01*
X128121688Y-68369119D01*
X128121358Y-68369732D01*
X128103177Y-68428916D01*
X128084957Y-68487776D01*
X128084885Y-68488465D01*
X128084680Y-68489131D01*
X128082963Y-68497901D01*
X128073180Y-68549792D01*
X128043611Y-68530791D01*
X128040763Y-68529332D01*
X128038228Y-68527369D01*
X128030629Y-68522667D01*
X128005068Y-68507093D01*
X127980895Y-68495431D01*
X127958161Y-68481141D01*
X127950139Y-68477203D01*
X127943178Y-68473844D01*
X127924744Y-68467079D01*
X127907396Y-68457915D01*
X127896169Y-68454558D01*
X127892568Y-68452821D01*
X127875797Y-68448467D01*
X127866245Y-68445611D01*
X127825918Y-68430812D01*
X127806535Y-68427758D01*
X127787724Y-68422134D01*
X127744949Y-68418056D01*
X127702534Y-68411374D01*
X127682927Y-68412143D01*
X127663382Y-68410280D01*
X127620637Y-68414587D01*
X127577724Y-68416271D01*
X127558637Y-68420835D01*
X127539105Y-68422803D01*
X127498019Y-68435329D01*
X127456242Y-68445318D01*
X127438397Y-68453506D01*
X127419628Y-68459228D01*
X127381759Y-68479494D01*
X127342716Y-68497408D01*
X127326811Y-68508899D01*
X127309500Y-68518163D01*
X127302106Y-68523181D01*
X127289566Y-68531817D01*
X127262453Y-68554692D01*
X127233494Y-68575199D01*
X127226781Y-68581098D01*
X127199985Y-68604976D01*
X127196322Y-68608946D01*
X127192008Y-68612205D01*
X127185480Y-68618307D01*
X127147431Y-68654375D01*
X127147254Y-68654579D01*
X127147036Y-68654749D01*
X127140599Y-68660948D01*
X127094300Y-68706156D01*
X127094212Y-68706261D01*
X127089961Y-68710433D01*
X127038417Y-68761730D01*
X127038318Y-68761850D01*
X127035028Y-68765128D01*
X126981242Y-68819465D01*
X126981142Y-68819588D01*
X126978092Y-68822670D01*
X126925066Y-68876997D01*
X126924971Y-68877116D01*
X126921573Y-68880603D01*
X126872314Y-68931870D01*
X126872239Y-68931965D01*
X126867717Y-68936704D01*
X126825225Y-68981860D01*
X126824584Y-68982691D01*
X126823790Y-68983389D01*
X126817733Y-68989960D01*
X126785013Y-69025955D01*
X126780026Y-69032653D01*
X126773980Y-69038414D01*
X126768191Y-69045221D01*
X126748247Y-69069005D01*
X126722214Y-69107052D01*
X126694255Y-69143724D01*
X126689610Y-69151358D01*
X126684842Y-69159319D01*
X126681235Y-69166943D01*
X126677713Y-69172090D01*
X126667360Y-69196267D01*
X126660088Y-69211637D01*
X126634564Y-69263646D01*
X126633380Y-69268084D01*
X126631421Y-69272224D01*
X126617315Y-69328295D01*
X126602364Y-69384330D01*
X126602064Y-69388915D01*
X126600947Y-69393356D01*
X126597998Y-69451134D01*
X126594218Y-69508971D01*
X126594814Y-69513520D01*
X126594580Y-69518100D01*
X126602923Y-69575439D01*
X126610438Y-69632819D01*
X126611904Y-69637159D01*
X126612565Y-69641704D01*
X126631875Y-69696298D01*
X126632174Y-69697182D01*
X126635231Y-69710120D01*
X126640300Y-69721247D01*
X126650402Y-69751159D01*
X126654131Y-69759280D01*
X126660993Y-69773955D01*
X126675346Y-69798166D01*
X126687018Y-69823784D01*
X126691553Y-69831484D01*
X126710790Y-69863633D01*
X126713417Y-69867184D01*
X126715359Y-69871151D01*
X126720106Y-69878723D01*
X126729597Y-69893631D01*
X126685398Y-69903896D01*
X126676714Y-69906831D01*
X126667654Y-69908284D01*
X126659027Y-69910614D01*
X126631340Y-69918298D01*
X126593069Y-69933074D01*
X126553884Y-69945247D01*
X126545674Y-69948776D01*
X126540109Y-69951215D01*
X126528092Y-69957947D01*
X126515181Y-69962779D01*
X126473671Y-69988434D01*
X126431138Y-70012262D01*
X126420658Y-70021200D01*
X126408930Y-70028448D01*
X126373198Y-70061674D01*
X126336099Y-70093312D01*
X126327552Y-70104118D01*
X126317459Y-70113503D01*
X126288881Y-70153010D01*
X126258612Y-70191278D01*
X126252321Y-70203549D01*
X126244250Y-70214707D01*
X126223886Y-70259017D01*
X126201631Y-70302430D01*
X126197847Y-70315675D01*
X126192091Y-70328201D01*
X126189229Y-70336666D01*
X126183778Y-70353169D01*
X126171309Y-70408581D01*
X126167324Y-70422532D01*
X126166907Y-70427558D01*
X126156993Y-70470060D01*
X126156390Y-70474881D01*
X126156357Y-70475028D01*
X126156353Y-70475176D01*
X126155884Y-70478928D01*
X126151486Y-70516198D01*
X126151225Y-70529416D01*
X126148935Y-70542446D01*
X126148317Y-70551361D01*
X126144969Y-70605041D01*
X126145121Y-70609318D01*
X126144495Y-70613552D01*
X126144120Y-70622481D01*
X126141818Y-70688212D01*
X126141897Y-70689466D01*
X126141735Y-70690715D01*
X126141520Y-70699648D01*
X126140262Y-70773073D01*
X126140271Y-70773187D01*
X126140258Y-70773301D01*
X126140171Y-70782236D01*
X126139956Y-70858791D01*
X126139955Y-70858797D01*
X126139955Y-70858995D01*
X126139956Y-70859003D01*
X126139990Y-70867733D01*
X126140811Y-70943469D01*
X126140865Y-70943968D01*
X126140822Y-70944475D01*
X126140996Y-70953410D01*
X126142852Y-71023763D01*
X126143141Y-71026083D01*
X126142991Y-71028426D01*
X126143355Y-71037355D01*
X126146244Y-71097969D01*
X126147287Y-71105090D01*
X126147087Y-71112293D01*
X126147775Y-71121203D01*
X126151692Y-71167719D01*
X126156117Y-71191799D01*
X126157651Y-71216240D01*
X126159141Y-71225052D01*
X126164084Y-71253110D01*
X126170356Y-71275589D01*
X126170516Y-71277096D01*
X126171685Y-71280861D01*
X126175936Y-71306783D01*
X126188228Y-71339637D01*
X126197655Y-71373421D01*
X126204819Y-71387608D01*
X126207544Y-71396388D01*
X126213741Y-71407828D01*
X126219705Y-71423768D01*
X126223694Y-71431765D01*
X126226659Y-71437605D01*
X126243045Y-71463312D01*
X126253955Y-71484919D01*
X126259006Y-71491386D01*
X126267039Y-71506215D01*
X126281567Y-71523749D01*
X126293796Y-71542934D01*
X126321307Y-71571710D01*
X126328839Y-71580799D01*
X126330838Y-71583359D01*
X126331266Y-71583729D01*
X126346732Y-71602394D01*
X126364389Y-71616772D01*
X126380112Y-71633217D01*
X126412700Y-71656109D01*
X126443590Y-71681262D01*
X126463693Y-71691931D01*
X126482320Y-71705016D01*
X126517512Y-71720601D01*
X126525254Y-71725538D01*
X126531925Y-71728142D01*
X126553921Y-71739816D01*
X126562209Y-71743157D01*
X126579932Y-71750158D01*
X126592124Y-71753644D01*
X126596528Y-71755594D01*
X126607900Y-71758154D01*
X126611253Y-71759113D01*
X126641607Y-71770963D01*
X126650225Y-71773324D01*
X126687778Y-71783334D01*
X126695493Y-71784601D01*
X126702882Y-71787164D01*
X126711585Y-71789194D01*
X126729651Y-71793275D01*
X126723730Y-71802777D01*
X126721012Y-71808271D01*
X126717370Y-71813204D01*
X126712844Y-71820909D01*
X126690687Y-71859234D01*
X126681102Y-71880332D01*
X126668993Y-71900098D01*
X126665148Y-71908164D01*
X126654776Y-71930315D01*
X126649846Y-71944245D01*
X126642900Y-71957279D01*
X126629047Y-72003007D01*
X126613100Y-72048064D01*
X126610970Y-72062682D01*
X126606687Y-72076820D01*
X126605004Y-72085596D01*
X126604502Y-72088317D01*
X126601006Y-72129498D01*
X126594787Y-72170377D01*
X126595733Y-72191612D01*
X126593936Y-72212776D01*
X126598504Y-72253846D01*
X126600344Y-72295159D01*
X126605396Y-72315803D01*
X126607744Y-72336916D01*
X126620208Y-72376334D01*
X126630033Y-72416486D01*
X126638993Y-72435746D01*
X126645401Y-72456011D01*
X126655635Y-72474668D01*
X126649047Y-72476634D01*
X126594743Y-72462245D01*
X126564404Y-72457309D01*
X126534714Y-72449386D01*
X126502915Y-72447306D01*
X126471458Y-72442188D01*
X126440748Y-72443239D01*
X126410075Y-72441232D01*
X126401146Y-72441584D01*
X126324427Y-72445145D01*
X126268101Y-72453320D01*
X126211716Y-72460497D01*
X126203018Y-72462546D01*
X126170820Y-72470368D01*
X126115910Y-72489549D01*
X126060663Y-72508024D01*
X126052924Y-72511550D01*
X126052901Y-72511558D01*
X126052883Y-72511569D01*
X126052531Y-72511729D01*
X125990802Y-72540371D01*
X125977485Y-72548212D01*
X125963165Y-72554013D01*
X125923764Y-72579845D01*
X125883170Y-72603749D01*
X125871634Y-72614024D01*
X125858709Y-72622498D01*
X125851789Y-72628153D01*
X125799004Y-72671898D01*
X125785240Y-72685783D01*
X125769743Y-72697693D01*
X125741366Y-72730043D01*
X125711069Y-72760606D01*
X125700268Y-72776895D01*
X125687376Y-72791591D01*
X125682217Y-72798889D01*
X125645686Y-72851339D01*
X125615780Y-72904726D01*
X125585664Y-72957990D01*
X125584701Y-72960207D01*
X125584642Y-72960312D01*
X125584603Y-72960433D01*
X125582103Y-72966186D01*
X125577084Y-72977962D01*
X125560823Y-73029587D01*
X125543217Y-73080769D01*
X125541210Y-73089477D01*
X125534325Y-73120324D01*
X125530416Y-73152240D01*
X125523495Y-73183644D01*
X125522494Y-73192524D01*
X125517675Y-73238156D01*
X125517541Y-73256015D01*
X125514920Y-73273686D01*
X125514541Y-73282614D01*
X125512900Y-73328735D01*
X125513331Y-73335657D01*
X125512557Y-73342556D01*
X125512495Y-73351492D01*
X125512495Y-73438693D01*
X125518364Y-73498545D01*
X125519092Y-73506540D01*
X125516257Y-73519364D01*
X125515991Y-73531410D01*
X125476000Y-73527471D01*
X125419861Y-73533000D01*
X111447107Y-73533000D01*
X111436632Y-73522525D01*
X111193411Y-73360010D01*
X110923158Y-73248068D01*
X110636260Y-73191000D01*
X110343740Y-73191000D01*
X110056842Y-73248068D01*
X109786589Y-73360010D01*
X109543368Y-73522525D01*
X109336525Y-73729368D01*
X109174010Y-73972589D01*
X109143000Y-74047454D01*
X109143000Y-67797482D01*
X132279396Y-67797482D01*
X132319952Y-68062291D01*
X132411391Y-68314100D01*
X132468550Y-68421035D01*
X132704867Y-68483528D01*
X133464395Y-67724000D01*
X133823605Y-67724000D01*
X134583133Y-68483528D01*
X134819450Y-68421035D01*
X134932850Y-68178322D01*
X134996719Y-67918151D01*
X135002077Y-67797482D01*
X137279396Y-67797482D01*
X137319952Y-68062291D01*
X137411391Y-68314100D01*
X137468550Y-68421035D01*
X137704867Y-68483528D01*
X138464395Y-67724000D01*
X138823605Y-67724000D01*
X139583133Y-68483528D01*
X139819450Y-68421035D01*
X139932850Y-68178322D01*
X139996719Y-67918151D01*
X140008604Y-67650518D01*
X139968048Y-67385709D01*
X139876609Y-67133900D01*
X139819450Y-67026965D01*
X139583133Y-66964472D01*
X138823605Y-67724000D01*
X138464395Y-67724000D01*
X137704867Y-66964472D01*
X137468550Y-67026965D01*
X137355150Y-67269678D01*
X137291281Y-67529849D01*
X137279396Y-67797482D01*
X135002077Y-67797482D01*
X135008604Y-67650518D01*
X134968048Y-67385709D01*
X134876609Y-67133900D01*
X134819450Y-67026965D01*
X134583133Y-66964472D01*
X133823605Y-67724000D01*
X133464395Y-67724000D01*
X132704867Y-66964472D01*
X132468550Y-67026965D01*
X132355150Y-67269678D01*
X132291281Y-67529849D01*
X132279396Y-67797482D01*
X109143000Y-67797482D01*
X109143000Y-65151000D01*
X131409000Y-65151000D01*
X131409000Y-65501000D01*
X131457507Y-65739496D01*
X131551610Y-65963946D01*
X131687693Y-66165725D01*
X131860526Y-66337078D01*
X132063467Y-66471421D01*
X132288718Y-66563591D01*
X132326391Y-66567462D01*
X132517000Y-66442731D01*
X132517000Y-65151000D01*
X132771000Y-65151000D01*
X132771000Y-66442731D01*
X132944862Y-66556503D01*
X132884472Y-66784867D01*
X133644000Y-67544395D01*
X134403528Y-66784867D01*
X137884472Y-66784867D01*
X138644000Y-67544395D01*
X139403528Y-66784867D01*
X139343138Y-66556503D01*
X139517000Y-66442731D01*
X139517000Y-65151000D01*
X139771000Y-65151000D01*
X139771000Y-66442731D01*
X139961609Y-66567462D01*
X139999282Y-66563591D01*
X140224533Y-66471421D01*
X140427474Y-66337078D01*
X140600307Y-66165725D01*
X140736390Y-65963946D01*
X140830493Y-65739496D01*
X140879000Y-65501000D01*
X140879000Y-65151000D01*
X139771000Y-65151000D01*
X139517000Y-65151000D01*
X138409000Y-65151000D01*
X138409000Y-65501000D01*
X138457507Y-65739496D01*
X138551610Y-65963946D01*
X138687693Y-66165725D01*
X138860526Y-66337078D01*
X138955836Y-66400171D01*
X138838151Y-66371281D01*
X138570518Y-66359396D01*
X138305709Y-66399952D01*
X138053900Y-66491391D01*
X137946965Y-66548550D01*
X137884472Y-66784867D01*
X134403528Y-66784867D01*
X134341035Y-66548550D01*
X134098322Y-66435150D01*
X133838151Y-66371281D01*
X133570518Y-66359396D01*
X133340558Y-66394615D01*
X133427474Y-66337078D01*
X133600307Y-66165725D01*
X133736390Y-65963946D01*
X133830493Y-65739496D01*
X133879000Y-65501000D01*
X133879000Y-65151000D01*
X132771000Y-65151000D01*
X132517000Y-65151000D01*
X131409000Y-65151000D01*
X109143000Y-65151000D01*
X109143000Y-64185000D01*
X131509287Y-64185000D01*
X131457507Y-64308504D01*
G04 #@! TA.AperFunction,Conductor*
D22*
G36*
X131457507Y-64308504D02*
G01*
X131409000Y-64547000D01*
X131409000Y-64897000D01*
X132517000Y-64897000D01*
X132517000Y-64877000D01*
X132771000Y-64877000D01*
X132771000Y-64897000D01*
X133879000Y-64897000D01*
X133879000Y-64547000D01*
X133830493Y-64308504D01*
X133778713Y-64185000D01*
X138509287Y-64185000D01*
X138457507Y-64308504D01*
X138409000Y-64547000D01*
X138409000Y-64897000D01*
X139517000Y-64897000D01*
X139517000Y-64877000D01*
X139771000Y-64877000D01*
X139771000Y-64897000D01*
X140879000Y-64897000D01*
X140879000Y-64547000D01*
X140830493Y-64308504D01*
X140778713Y-64185000D01*
X158385111Y-64185000D01*
X158300589Y-64220010D01*
X158057368Y-64382525D01*
X157850525Y-64589368D01*
X157812017Y-64647000D01*
X148121659Y-64647000D01*
X148077999Y-64642700D01*
X148034339Y-64647000D01*
X148034333Y-64647000D01*
X147936924Y-64656594D01*
X147903724Y-64659864D01*
X147802058Y-64690704D01*
X147736149Y-64710697D01*
X147581709Y-64793247D01*
X147446341Y-64904341D01*
X147418501Y-64938264D01*
X144182259Y-68174506D01*
X144148342Y-68202341D01*
X144120507Y-68236258D01*
X144120505Y-68236260D01*
X144037248Y-68337709D01*
X143954698Y-68492148D01*
X143903864Y-68659726D01*
X143886700Y-68834000D01*
X143891001Y-68877670D01*
X143891000Y-75069764D01*
X142113000Y-76847764D01*
X142113000Y-74168000D01*
X142100799Y-74044118D01*
X142064664Y-73924996D01*
X142005983Y-73815213D01*
X141927013Y-73718987D01*
X141830787Y-73640017D01*
X141721004Y-73581336D01*
X141601882Y-73545201D01*
X141478000Y-73533000D01*
X140589000Y-73533000D01*
X140589000Y-71374000D01*
X140576799Y-71250118D01*
X140540664Y-71130996D01*
X140481983Y-71021213D01*
X140403013Y-70924987D01*
X140306787Y-70846017D01*
X140220232Y-70799752D01*
X141470434Y-70799752D01*
X141512646Y-70827957D01*
X141701004Y-70905978D01*
X141900963Y-70945752D01*
X142104841Y-70945752D01*
X142304800Y-70905978D01*
X142493158Y-70827957D01*
X142662676Y-70714689D01*
X142806839Y-70570526D01*
X142920107Y-70401008D01*
X142998128Y-70212650D01*
X143037902Y-70012691D01*
X143037902Y-69808813D01*
X142998128Y-69608854D01*
X142920107Y-69420496D01*
X142806839Y-69250978D01*
X142662676Y-69106815D01*
X142493158Y-68993547D01*
X142304800Y-68915526D01*
X142104841Y-68875752D01*
X141900963Y-68875752D01*
X141701004Y-68915526D01*
X141512646Y-68993547D01*
X141470434Y-69021752D01*
X139054706Y-69021752D01*
X139234100Y-68956609D01*
X139341035Y-68899450D01*
X139403528Y-68663133D01*
X138644000Y-67903605D01*
X137884472Y-68663133D01*
X137946965Y-68899450D01*
X138189678Y-69012850D01*
X138225940Y-69021752D01*
X137639625Y-69021752D01*
X137569205Y-68851744D01*
X137455937Y-68682226D01*
X137311774Y-68538063D01*
X137142256Y-68424795D01*
X136953898Y-68346774D01*
X136753939Y-68307000D01*
X136550061Y-68307000D01*
X136350102Y-68346774D01*
X136161744Y-68424795D01*
X135992226Y-68538063D01*
X135848063Y-68682226D01*
X135746651Y-68834000D01*
X134559711Y-68834000D01*
X134517774Y-68792063D01*
X134391708Y-68707829D01*
X134403528Y-68663133D01*
X133644000Y-67903605D01*
X132884472Y-68663133D01*
X132946965Y-68899450D01*
X133047310Y-68946333D01*
X132940795Y-69105744D01*
X132862774Y-69294102D01*
X132823000Y-69494061D01*
X132823000Y-69697939D01*
X132862774Y-69897898D01*
X132940795Y-70086256D01*
X133054063Y-70255774D01*
X133198226Y-70399937D01*
X133367744Y-70513205D01*
X133556102Y-70591226D01*
X133756061Y-70631000D01*
X133959939Y-70631000D01*
X134159898Y-70591226D01*
X134348256Y-70513205D01*
X134517774Y-70399937D01*
X134559711Y-70358000D01*
X136360577Y-70358000D01*
X136398000Y-70361686D01*
X136412976Y-70360211D01*
X136561253Y-70508488D01*
X136589093Y-70542411D01*
X136724461Y-70653505D01*
X136841785Y-70716216D01*
X136869390Y-70730971D01*
X136878901Y-70736055D01*
X136888610Y-70739000D01*
X135636000Y-70739000D01*
X135512118Y-70751201D01*
X135392996Y-70787336D01*
X135283213Y-70846017D01*
X135186987Y-70924987D01*
X135108017Y-71021213D01*
X135049336Y-71130996D01*
X135013201Y-71250118D01*
X135001000Y-71374000D01*
X135001000Y-72009000D01*
X133096000Y-72009000D01*
X132972118Y-72021201D01*
X132852996Y-72057336D01*
X132743213Y-72116017D01*
X132646987Y-72194987D01*
X132608194Y-72233780D01*
X132605744Y-72234795D01*
X132436226Y-72348063D01*
X132292063Y-72492226D01*
X132202500Y-72626267D01*
X132201829Y-72625602D01*
X132168899Y-72603776D01*
X132137620Y-72579635D01*
X132116957Y-72569350D01*
X132097715Y-72556597D01*
X132089791Y-72552466D01*
X132038030Y-72525938D01*
X132011104Y-72515312D01*
X131985443Y-72501921D01*
X131953150Y-72492442D01*
X131921844Y-72480088D01*
X131893371Y-72474895D01*
X131865594Y-72466742D01*
X131856804Y-72465135D01*
X131793504Y-72454021D01*
X131751899Y-72450851D01*
X131710576Y-72444980D01*
X131701646Y-72444656D01*
X131670779Y-72443748D01*
X131628229Y-72446660D01*
X131585563Y-72446924D01*
X131576682Y-72447914D01*
X131494982Y-72457591D01*
X131467148Y-72463688D01*
X131454950Y-72465024D01*
X131441003Y-72460600D01*
X131438775Y-72460350D01*
X131436630Y-72459686D01*
X131405056Y-72456368D01*
X131407176Y-72452474D01*
X131411556Y-72438470D01*
X131419051Y-72422592D01*
X131421999Y-72414156D01*
X131423506Y-72409747D01*
X131430408Y-72380484D01*
X131438806Y-72356182D01*
X131440006Y-72347493D01*
X131444457Y-72333261D01*
X131446919Y-72310477D01*
X131452178Y-72288177D01*
X131453587Y-72249183D01*
X131455899Y-72232451D01*
X131455706Y-72229143D01*
X131457874Y-72209078D01*
X131455863Y-72186243D01*
X131456690Y-72163352D01*
X131450396Y-72124184D01*
X131446914Y-72084653D01*
X131440509Y-72062655D01*
X131436873Y-72040028D01*
X131423088Y-72002821D01*
X131423078Y-72002787D01*
X131420694Y-71991647D01*
X131418033Y-71985462D01*
X131411996Y-71964727D01*
X131408615Y-71956455D01*
X131401624Y-71939689D01*
X131395407Y-71928110D01*
X131393477Y-71922902D01*
X131386529Y-71911578D01*
X131385123Y-71908958D01*
X131371335Y-71876907D01*
X131366964Y-71869113D01*
X131347645Y-71835210D01*
X131343400Y-71829210D01*
X131340251Y-71822574D01*
X131335597Y-71814946D01*
X131322021Y-71793040D01*
X131323945Y-71792421D01*
X131329495Y-71791677D01*
X131338179Y-71789571D01*
X131381156Y-71778831D01*
X131398608Y-71772606D01*
X131416751Y-71768835D01*
X131425262Y-71766111D01*
X131450035Y-71757994D01*
X131494933Y-71738246D01*
X131498802Y-71736866D01*
X131500850Y-71735643D01*
X131502220Y-71735041D01*
X131537954Y-71721517D01*
X131547652Y-71715473D01*
X131559827Y-71710236D01*
X131564234Y-71707765D01*
X131564370Y-71707705D01*
X131564489Y-71707622D01*
X131567622Y-71705865D01*
X131570943Y-71703973D01*
X131606733Y-71678654D01*
X131643960Y-71655455D01*
X131657630Y-71642649D01*
X131672914Y-71631837D01*
X131703106Y-71600048D01*
X131735116Y-71570061D01*
X131746038Y-71554844D01*
X131758931Y-71541269D01*
X131782378Y-71504214D01*
X131807950Y-71468587D01*
X131815705Y-71451546D01*
X131825720Y-71435719D01*
X131841525Y-71394810D01*
X131859687Y-71354901D01*
X131862518Y-71346425D01*
X131867992Y-71329647D01*
X131869721Y-71321828D01*
X131870734Y-71319206D01*
X131872375Y-71309825D01*
X131880635Y-71272474D01*
X131893980Y-71215436D01*
X131894946Y-71207756D01*
X131894961Y-71207687D01*
X131894962Y-71207623D01*
X131895095Y-71206569D01*
X131899545Y-71169077D01*
X131899812Y-71156014D01*
X131902089Y-71143146D01*
X131902718Y-71134232D01*
X131906140Y-71080381D01*
X131905995Y-71076140D01*
X131906620Y-71071945D01*
X131907007Y-71063017D01*
X131909398Y-70997167D01*
X131909322Y-70995932D01*
X131909483Y-70994702D01*
X131909710Y-70985768D01*
X131911068Y-70912277D01*
X131911060Y-70912176D01*
X131911072Y-70912073D01*
X131911171Y-70903137D01*
X131911492Y-70826554D01*
X131911493Y-70826546D01*
X131911470Y-70817609D01*
X131910752Y-70741913D01*
X131910697Y-70741406D01*
X131910742Y-70740892D01*
X131910580Y-70731957D01*
X131908820Y-70661694D01*
X131908531Y-70659356D01*
X131908686Y-70656994D01*
X131908334Y-70648064D01*
X131905529Y-70587594D01*
X131904482Y-70580378D01*
X131904691Y-70573093D01*
X131904012Y-70564183D01*
X131900158Y-70517863D01*
X131895687Y-70493399D01*
X131894125Y-70468580D01*
X131892634Y-70459769D01*
X131887729Y-70431958D01*
X131879536Y-70402617D01*
X131874323Y-70372604D01*
X131862778Y-70342608D01*
X131854134Y-70311655D01*
X131840963Y-70285584D01*
X131833707Y-70265178D01*
X131831639Y-70261705D01*
X131829456Y-70256034D01*
X131825392Y-70248076D01*
X131822435Y-70242384D01*
X131807696Y-70219734D01*
X131797812Y-70200168D01*
X131785950Y-70184987D01*
X131769796Y-70157861D01*
X131761266Y-70148379D01*
X131754311Y-70137691D01*
X131727470Y-70110140D01*
X131720909Y-70101743D01*
X131713760Y-70095573D01*
X131686258Y-70065002D01*
X131676044Y-70057354D01*
X131667149Y-70048224D01*
X131626368Y-70020145D01*
X131626352Y-70020131D01*
X131626328Y-70020117D01*
X131626140Y-70019988D01*
X131586273Y-69990137D01*
X131574778Y-69984623D01*
X131564271Y-69977389D01*
X131525160Y-69960506D01*
X131518517Y-69956421D01*
X131507244Y-69952230D01*
X131473653Y-69936118D01*
X131465235Y-69933117D01*
X131448773Y-69927376D01*
X131424678Y-69921536D01*
X131401440Y-69912897D01*
X131392784Y-69910676D01*
X131355298Y-69901335D01*
X131351385Y-69900758D01*
X131347636Y-69899475D01*
X131338925Y-69897483D01*
X131321809Y-69893693D01*
X131345147Y-69856210D01*
X131349636Y-69847131D01*
X131355552Y-69838898D01*
X131359979Y-69831135D01*
X131373687Y-69806709D01*
X131391814Y-69765416D01*
X131406358Y-69738817D01*
X131409120Y-69730042D01*
X131414369Y-69719407D01*
X131417465Y-69711024D01*
X131419444Y-69705547D01*
X131421303Y-69698237D01*
X131423893Y-69692337D01*
X131430818Y-69661103D01*
X131443858Y-69619673D01*
X131445816Y-69601855D01*
X131450231Y-69584495D01*
X131452622Y-69539920D01*
X131457501Y-69495514D01*
X131455961Y-69477655D01*
X131456920Y-69459768D01*
X131450606Y-69415568D01*
X131446768Y-69371070D01*
X131441790Y-69353858D01*
X131439256Y-69336117D01*
X131424471Y-69293970D01*
X131412067Y-69251080D01*
X131403841Y-69235162D01*
X131397909Y-69218253D01*
X131375615Y-69180452D01*
X131369638Y-69166535D01*
X131364514Y-69159063D01*
X131354722Y-69140116D01*
X131349812Y-69132650D01*
X131341302Y-69119904D01*
X131336321Y-69113825D01*
X131334457Y-69110664D01*
X131325537Y-69100663D01*
X131318943Y-69092616D01*
X131298994Y-69063527D01*
X131293197Y-69056726D01*
X131269670Y-69029511D01*
X131265745Y-69025779D01*
X131262539Y-69021400D01*
X131256535Y-69014781D01*
X131220995Y-68976146D01*
X131220785Y-68975958D01*
X131220611Y-68975728D01*
X131214509Y-68969199D01*
X131169964Y-68922194D01*
X131169858Y-68922102D01*
X131165742Y-68917781D01*
X131115195Y-68865452D01*
X131115071Y-68865347D01*
X131111835Y-68862000D01*
X131058294Y-68807400D01*
X131058176Y-68807302D01*
X131055122Y-68804187D01*
X131001591Y-68750363D01*
X131001473Y-68750265D01*
X130998024Y-68746804D01*
X130947508Y-68696804D01*
X130947413Y-68696727D01*
X130942718Y-68692112D01*
X130898223Y-68648985D01*
X130897369Y-68648306D01*
X130896660Y-68647475D01*
X130890179Y-68641323D01*
X130854709Y-68608119D01*
X130848008Y-68602975D01*
X130842260Y-68596767D01*
X130835536Y-68590881D01*
X130812098Y-68570648D01*
X130798334Y-68560938D01*
X130797395Y-68559979D01*
X130783220Y-68550275D01*
X130773871Y-68543679D01*
X130737025Y-68514869D01*
X130729449Y-68510131D01*
X130721608Y-68505303D01*
X130714679Y-68501920D01*
X130710035Y-68498644D01*
X130703644Y-68495798D01*
X130694327Y-68489420D01*
X130651367Y-68471010D01*
X130609364Y-68450504D01*
X130594070Y-68446457D01*
X130579518Y-68440221D01*
X130533777Y-68430502D01*
X130488614Y-68418551D01*
X130472826Y-68417551D01*
X130457340Y-68414261D01*
X130410596Y-68413612D01*
X130363958Y-68410659D01*
X130348272Y-68412746D01*
X130332446Y-68412526D01*
X130286476Y-68420967D01*
X130240142Y-68427131D01*
X130225156Y-68432226D01*
X130209593Y-68435084D01*
X130166129Y-68452296D01*
X130161981Y-68453706D01*
X130154472Y-68455633D01*
X130149965Y-68457792D01*
X130121885Y-68467339D01*
X130108185Y-68475242D01*
X130093462Y-68481072D01*
X130085543Y-68485213D01*
X130072777Y-68492003D01*
X130057917Y-68501877D01*
X130041820Y-68509587D01*
X130034208Y-68514268D01*
X130003673Y-68533343D01*
X130002831Y-68533991D01*
X130001882Y-68534466D01*
X129994352Y-68539278D01*
X129978234Y-68549737D01*
X129968462Y-68497901D01*
X129968267Y-68497233D01*
X129968204Y-68496542D01*
X129950734Y-68437185D01*
X129933454Y-68378001D01*
X129933135Y-68377388D01*
X129932938Y-68376718D01*
X129904249Y-68321842D01*
X129875825Y-68267184D01*
X129875391Y-68266642D01*
X129875069Y-68266026D01*
X129836323Y-68217835D01*
X129797769Y-68169670D01*
X129797239Y-68169223D01*
X129796803Y-68168681D01*
X129749354Y-68128867D01*
X129702259Y-68089176D01*
X129701653Y-68088841D01*
X129701119Y-68088393D01*
X129646691Y-68058471D01*
X129592933Y-68028766D01*
X129592276Y-68028556D01*
X129591663Y-68028219D01*
X129532616Y-68009489D01*
X129473956Y-67990741D01*
X129473265Y-67990662D01*
X129472603Y-67990452D01*
X129411201Y-67983564D01*
X129349859Y-67976549D01*
X129349167Y-67976606D01*
X129348476Y-67976528D01*
X129339540Y-67976466D01*
X128711885Y-67976466D01*
X128711196Y-67976534D01*
X128710502Y-67976467D01*
X128648689Y-67982663D01*
X128587575Y-67988655D01*
X128586915Y-67988854D01*
X128586219Y-67988924D01*
X128526839Y-68006992D01*
X128468000Y-68024757D01*
X128467388Y-68025082D01*
X128466722Y-68025285D01*
X128412094Y-68054482D01*
X128357714Y-68083396D01*
X128357177Y-68083834D01*
X128356563Y-68084162D01*
X128308551Y-68123493D01*
X128260919Y-68162341D01*
X128260479Y-68162873D01*
X128259938Y-68163316D01*
X128220399Y-68211321D01*
X128181301Y-68258583D01*
X128180973Y-68259190D01*
X128180528Y-68259730D01*
X128151146Y-68314354D01*
X128121893Y-68368456D01*
X128121688Y-68369119D01*
X128121358Y-68369732D01*
X128103177Y-68428916D01*
X128084957Y-68487776D01*
X128084885Y-68488465D01*
X128084680Y-68489131D01*
X128082963Y-68497901D01*
X128073180Y-68549792D01*
X128043611Y-68530791D01*
X128040763Y-68529332D01*
X128038228Y-68527369D01*
X128030629Y-68522667D01*
X128005068Y-68507093D01*
X127980895Y-68495431D01*
X127958161Y-68481141D01*
X127950139Y-68477203D01*
X127943178Y-68473844D01*
X127924744Y-68467079D01*
X127907396Y-68457915D01*
X127896169Y-68454558D01*
X127892568Y-68452821D01*
X127875797Y-68448467D01*
X127866245Y-68445611D01*
X127825918Y-68430812D01*
X127806535Y-68427758D01*
X127787724Y-68422134D01*
X127744949Y-68418056D01*
X127702534Y-68411374D01*
X127682927Y-68412143D01*
X127663382Y-68410280D01*
X127620637Y-68414587D01*
X127577724Y-68416271D01*
X127558637Y-68420835D01*
X127539105Y-68422803D01*
X127498019Y-68435329D01*
X127456242Y-68445318D01*
X127438397Y-68453506D01*
X127419628Y-68459228D01*
X127381759Y-68479494D01*
X127342716Y-68497408D01*
X127326811Y-68508899D01*
X127309500Y-68518163D01*
X127302106Y-68523181D01*
X127289566Y-68531817D01*
X127262453Y-68554692D01*
X127233494Y-68575199D01*
X127226781Y-68581098D01*
X127199985Y-68604976D01*
X127196322Y-68608946D01*
X127192008Y-68612205D01*
X127185480Y-68618307D01*
X127147431Y-68654375D01*
X127147254Y-68654579D01*
X127147036Y-68654749D01*
X127140599Y-68660948D01*
X127094300Y-68706156D01*
X127094212Y-68706261D01*
X127089961Y-68710433D01*
X127038417Y-68761730D01*
X127038318Y-68761850D01*
X127035028Y-68765128D01*
X126981242Y-68819465D01*
X126981142Y-68819588D01*
X126978092Y-68822670D01*
X126925066Y-68876997D01*
X126924971Y-68877116D01*
X126921573Y-68880603D01*
X126872314Y-68931870D01*
X126872239Y-68931965D01*
X126867717Y-68936704D01*
X126825225Y-68981860D01*
X126824584Y-68982691D01*
X126823790Y-68983389D01*
X126817733Y-68989960D01*
X126785013Y-69025955D01*
X126780026Y-69032653D01*
X126773980Y-69038414D01*
X126768191Y-69045221D01*
X126748247Y-69069005D01*
X126722214Y-69107052D01*
X126694255Y-69143724D01*
X126689610Y-69151358D01*
X126684842Y-69159319D01*
X126681235Y-69166943D01*
X126677713Y-69172090D01*
X126667360Y-69196267D01*
X126660088Y-69211637D01*
X126634564Y-69263646D01*
X126633380Y-69268084D01*
X126631421Y-69272224D01*
X126617315Y-69328295D01*
X126602364Y-69384330D01*
X126602064Y-69388915D01*
X126600947Y-69393356D01*
X126597998Y-69451134D01*
X126594218Y-69508971D01*
X126594814Y-69513520D01*
X126594580Y-69518100D01*
X126602923Y-69575439D01*
X126610438Y-69632819D01*
X126611904Y-69637159D01*
X126612565Y-69641704D01*
X126631875Y-69696298D01*
X126632174Y-69697182D01*
X126635231Y-69710120D01*
X126640300Y-69721247D01*
X126650402Y-69751159D01*
X126654131Y-69759280D01*
X126660993Y-69773955D01*
X126675346Y-69798166D01*
X126687018Y-69823784D01*
X126691553Y-69831484D01*
X126710790Y-69863633D01*
X126713417Y-69867184D01*
X126715359Y-69871151D01*
X126720106Y-69878723D01*
X126729597Y-69893631D01*
X126685398Y-69903896D01*
X126676714Y-69906831D01*
X126667654Y-69908284D01*
X126659027Y-69910614D01*
X126631340Y-69918298D01*
X126593069Y-69933074D01*
X126553884Y-69945247D01*
X126545674Y-69948776D01*
X126540109Y-69951215D01*
X126528092Y-69957947D01*
X126515181Y-69962779D01*
X126473671Y-69988434D01*
X126431138Y-70012262D01*
X126420658Y-70021200D01*
X126408930Y-70028448D01*
X126373198Y-70061674D01*
X126336099Y-70093312D01*
X126327552Y-70104118D01*
X126317459Y-70113503D01*
X126288881Y-70153010D01*
X126258612Y-70191278D01*
X126252321Y-70203549D01*
X126244250Y-70214707D01*
X126223886Y-70259017D01*
X126201631Y-70302430D01*
X126197847Y-70315675D01*
X126192091Y-70328201D01*
X126189229Y-70336666D01*
X126183778Y-70353169D01*
X126171309Y-70408581D01*
X126167324Y-70422532D01*
X126166907Y-70427558D01*
X126156993Y-70470060D01*
X126156390Y-70474881D01*
X126156357Y-70475028D01*
X126156353Y-70475176D01*
X126155884Y-70478928D01*
X126151486Y-70516198D01*
X126151225Y-70529416D01*
X126148935Y-70542446D01*
X126148317Y-70551361D01*
X126144969Y-70605041D01*
X126145121Y-70609318D01*
X126144495Y-70613552D01*
X126144120Y-70622481D01*
X126141818Y-70688212D01*
X126141897Y-70689466D01*
X126141735Y-70690715D01*
X126141520Y-70699648D01*
X126140262Y-70773073D01*
X126140271Y-70773187D01*
X126140258Y-70773301D01*
X126140171Y-70782236D01*
X126139956Y-70858791D01*
X126139955Y-70858797D01*
X126139955Y-70858995D01*
X126139956Y-70859003D01*
X126139990Y-70867733D01*
X126140811Y-70943469D01*
X126140865Y-70943968D01*
X126140822Y-70944475D01*
X126140996Y-70953410D01*
X126142852Y-71023763D01*
X126143141Y-71026083D01*
X126142991Y-71028426D01*
X126143355Y-71037355D01*
X126146244Y-71097969D01*
X126147287Y-71105090D01*
X126147087Y-71112293D01*
X126147775Y-71121203D01*
X126151692Y-71167719D01*
X126156117Y-71191799D01*
X126157651Y-71216240D01*
X126159141Y-71225052D01*
X126164084Y-71253110D01*
X126170356Y-71275589D01*
X126170516Y-71277096D01*
X126171685Y-71280861D01*
X126175936Y-71306783D01*
X126188228Y-71339637D01*
X126197655Y-71373421D01*
X126204819Y-71387608D01*
X126207544Y-71396388D01*
X126213741Y-71407828D01*
X126219705Y-71423768D01*
X126223694Y-71431765D01*
X126226659Y-71437605D01*
X126243045Y-71463312D01*
X126253955Y-71484919D01*
X126259006Y-71491386D01*
X126267039Y-71506215D01*
X126281567Y-71523749D01*
X126293796Y-71542934D01*
X126321307Y-71571710D01*
X126328839Y-71580799D01*
X126330838Y-71583359D01*
X126331266Y-71583729D01*
X126346732Y-71602394D01*
X126364389Y-71616772D01*
X126380112Y-71633217D01*
X126412700Y-71656109D01*
X126443590Y-71681262D01*
X126463693Y-71691931D01*
X126482320Y-71705016D01*
X126517512Y-71720601D01*
X126525254Y-71725538D01*
X126531925Y-71728142D01*
X126553921Y-71739816D01*
X126562209Y-71743157D01*
X126579932Y-71750158D01*
X126592124Y-71753644D01*
X126596528Y-71755594D01*
X126607900Y-71758154D01*
X126611253Y-71759113D01*
X126641607Y-71770963D01*
X126650225Y-71773324D01*
X126687778Y-71783334D01*
X126695493Y-71784601D01*
X126702882Y-71787164D01*
X126711585Y-71789194D01*
X126729651Y-71793275D01*
X126723730Y-71802777D01*
X126721012Y-71808271D01*
X126717370Y-71813204D01*
X126712844Y-71820909D01*
X126690687Y-71859234D01*
X126681102Y-71880332D01*
X126668993Y-71900098D01*
X126665148Y-71908164D01*
X126654776Y-71930315D01*
X126649846Y-71944245D01*
X126642900Y-71957279D01*
X126629047Y-72003007D01*
X126613100Y-72048064D01*
X126610970Y-72062682D01*
X126606687Y-72076820D01*
X126605004Y-72085596D01*
X126604502Y-72088317D01*
X126601006Y-72129498D01*
X126594787Y-72170377D01*
X126595733Y-72191612D01*
X126593936Y-72212776D01*
X126598504Y-72253846D01*
X126600344Y-72295159D01*
X126605396Y-72315803D01*
X126607744Y-72336916D01*
X126620208Y-72376334D01*
X126630033Y-72416486D01*
X126638993Y-72435746D01*
X126645401Y-72456011D01*
X126655635Y-72474668D01*
X126649047Y-72476634D01*
X126594743Y-72462245D01*
X126564404Y-72457309D01*
X126534714Y-72449386D01*
X126502915Y-72447306D01*
X126471458Y-72442188D01*
X126440748Y-72443239D01*
X126410075Y-72441232D01*
X126401146Y-72441584D01*
X126324427Y-72445145D01*
X126268101Y-72453320D01*
X126211716Y-72460497D01*
X126203018Y-72462546D01*
X126170820Y-72470368D01*
X126115910Y-72489549D01*
X126060663Y-72508024D01*
X126052924Y-72511550D01*
X126052901Y-72511558D01*
X126052883Y-72511569D01*
X126052531Y-72511729D01*
X125990802Y-72540371D01*
X125977485Y-72548212D01*
X125963165Y-72554013D01*
X125923764Y-72579845D01*
X125883170Y-72603749D01*
X125871634Y-72614024D01*
X125858709Y-72622498D01*
X125851789Y-72628153D01*
X125799004Y-72671898D01*
X125785240Y-72685783D01*
X125769743Y-72697693D01*
X125741366Y-72730043D01*
X125711069Y-72760606D01*
X125700268Y-72776895D01*
X125687376Y-72791591D01*
X125682217Y-72798889D01*
X125645686Y-72851339D01*
X125615780Y-72904726D01*
X125585664Y-72957990D01*
X125584701Y-72960207D01*
X125584642Y-72960312D01*
X125584603Y-72960433D01*
X125582103Y-72966186D01*
X125577084Y-72977962D01*
X125560823Y-73029587D01*
X125543217Y-73080769D01*
X125541210Y-73089477D01*
X125534325Y-73120324D01*
X125530416Y-73152240D01*
X125523495Y-73183644D01*
X125522494Y-73192524D01*
X125517675Y-73238156D01*
X125517541Y-73256015D01*
X125514920Y-73273686D01*
X125514541Y-73282614D01*
X125512900Y-73328735D01*
X125513331Y-73335657D01*
X125512557Y-73342556D01*
X125512495Y-73351492D01*
X125512495Y-73438693D01*
X125518364Y-73498545D01*
X125519092Y-73506540D01*
X125516257Y-73519364D01*
X125515991Y-73531410D01*
X125476000Y-73527471D01*
X125419861Y-73533000D01*
X111447107Y-73533000D01*
X111436632Y-73522525D01*
X111193411Y-73360010D01*
X110923158Y-73248068D01*
X110636260Y-73191000D01*
X110343740Y-73191000D01*
X110056842Y-73248068D01*
X109786589Y-73360010D01*
X109543368Y-73522525D01*
X109336525Y-73729368D01*
X109174010Y-73972589D01*
X109143000Y-74047454D01*
X109143000Y-67797482D01*
X132279396Y-67797482D01*
X132319952Y-68062291D01*
X132411391Y-68314100D01*
X132468550Y-68421035D01*
X132704867Y-68483528D01*
X133464395Y-67724000D01*
X133823605Y-67724000D01*
X134583133Y-68483528D01*
X134819450Y-68421035D01*
X134932850Y-68178322D01*
X134996719Y-67918151D01*
X135002077Y-67797482D01*
X137279396Y-67797482D01*
X137319952Y-68062291D01*
X137411391Y-68314100D01*
X137468550Y-68421035D01*
X137704867Y-68483528D01*
X138464395Y-67724000D01*
X138823605Y-67724000D01*
X139583133Y-68483528D01*
X139819450Y-68421035D01*
X139932850Y-68178322D01*
X139996719Y-67918151D01*
X140008604Y-67650518D01*
X139968048Y-67385709D01*
X139876609Y-67133900D01*
X139819450Y-67026965D01*
X139583133Y-66964472D01*
X138823605Y-67724000D01*
X138464395Y-67724000D01*
X137704867Y-66964472D01*
X137468550Y-67026965D01*
X137355150Y-67269678D01*
X137291281Y-67529849D01*
X137279396Y-67797482D01*
X135002077Y-67797482D01*
X135008604Y-67650518D01*
X134968048Y-67385709D01*
X134876609Y-67133900D01*
X134819450Y-67026965D01*
X134583133Y-66964472D01*
X133823605Y-67724000D01*
X133464395Y-67724000D01*
X132704867Y-66964472D01*
X132468550Y-67026965D01*
X132355150Y-67269678D01*
X132291281Y-67529849D01*
X132279396Y-67797482D01*
X109143000Y-67797482D01*
X109143000Y-65151000D01*
X131409000Y-65151000D01*
X131409000Y-65501000D01*
X131457507Y-65739496D01*
X131551610Y-65963946D01*
X131687693Y-66165725D01*
X131860526Y-66337078D01*
X132063467Y-66471421D01*
X132288718Y-66563591D01*
X132326391Y-66567462D01*
X132517000Y-66442731D01*
X132517000Y-65151000D01*
X132771000Y-65151000D01*
X132771000Y-66442731D01*
X132944862Y-66556503D01*
X132884472Y-66784867D01*
X133644000Y-67544395D01*
X134403528Y-66784867D01*
X137884472Y-66784867D01*
X138644000Y-67544395D01*
X139403528Y-66784867D01*
X139343138Y-66556503D01*
X139517000Y-66442731D01*
X139517000Y-65151000D01*
X139771000Y-65151000D01*
X139771000Y-66442731D01*
X139961609Y-66567462D01*
X139999282Y-66563591D01*
X140224533Y-66471421D01*
X140427474Y-66337078D01*
X140600307Y-66165725D01*
X140736390Y-65963946D01*
X140830493Y-65739496D01*
X140879000Y-65501000D01*
X140879000Y-65151000D01*
X139771000Y-65151000D01*
X139517000Y-65151000D01*
X138409000Y-65151000D01*
X138409000Y-65501000D01*
X138457507Y-65739496D01*
X138551610Y-65963946D01*
X138687693Y-66165725D01*
X138860526Y-66337078D01*
X138955836Y-66400171D01*
X138838151Y-66371281D01*
X138570518Y-66359396D01*
X138305709Y-66399952D01*
X138053900Y-66491391D01*
X137946965Y-66548550D01*
X137884472Y-66784867D01*
X134403528Y-66784867D01*
X134341035Y-66548550D01*
X134098322Y-66435150D01*
X133838151Y-66371281D01*
X133570518Y-66359396D01*
X133340558Y-66394615D01*
X133427474Y-66337078D01*
X133600307Y-66165725D01*
X133736390Y-65963946D01*
X133830493Y-65739496D01*
X133879000Y-65501000D01*
X133879000Y-65151000D01*
X132771000Y-65151000D01*
X132517000Y-65151000D01*
X131409000Y-65151000D01*
X109143000Y-65151000D01*
X109143000Y-64185000D01*
X131509287Y-64185000D01*
X131457507Y-64308504D01*
G37*
G04 #@! TD.AperFunction*
D17*
X143129000Y-80772000D02*
X143131440Y-80796776D01*
X143138667Y-80820601D01*
X143150403Y-80842557D01*
X143166197Y-80861803D01*
X143185443Y-80877597D01*
X143207399Y-80889333D01*
X143231224Y-80896560D01*
X143256000Y-80899000D01*
X144056499Y-80899000D01*
X142786499Y-82169000D01*
X141351000Y-82169000D01*
X141351000Y-79971500D01*
X141439500Y-79883000D01*
X143129000Y-79883000D01*
X143129000Y-80772000D01*
G04 #@! TA.AperFunction,Conductor*
D22*
G36*
X143129000Y-80772000D02*
G01*
X143131440Y-80796776D01*
X143138667Y-80820601D01*
X143150403Y-80842557D01*
X143166197Y-80861803D01*
X143185443Y-80877597D01*
X143207399Y-80889333D01*
X143231224Y-80896560D01*
X143256000Y-80899000D01*
X144056499Y-80899000D01*
X142786499Y-82169000D01*
X141351000Y-82169000D01*
X141351000Y-79971500D01*
X141439500Y-79883000D01*
X143129000Y-79883000D01*
X143129000Y-80772000D01*
G37*
G04 #@! TD.AperFunction*
D17*
X146044177Y-100501323D02*
X143856499Y-102689001D01*
X140295380Y-102689001D01*
X141229828Y-101682672D01*
X143325501Y-99587000D01*
X146893191Y-99587000D01*
X146044177Y-100501323D01*
G04 #@! TA.AperFunction,Conductor*
D22*
G36*
X146044177Y-100501323D02*
G01*
X143856499Y-102689001D01*
X140295380Y-102689001D01*
X141229828Y-101682672D01*
X143325501Y-99587000D01*
X146893191Y-99587000D01*
X146044177Y-100501323D01*
G37*
G04 #@! TD.AperFunction*
D17*
X139827000Y-72367868D02*
X139824624Y-72373604D01*
X139789000Y-72552699D01*
X139789000Y-72735301D01*
X139824624Y-72914396D01*
X139827000Y-72920132D01*
X139827000Y-73129868D01*
X139824624Y-73135604D01*
X139789000Y-73314699D01*
X139789000Y-73497301D01*
X139824624Y-73676396D01*
X139827000Y-73682132D01*
X139827000Y-74168000D01*
X139829440Y-74192776D01*
X139836667Y-74216601D01*
X139848403Y-74238557D01*
X139864197Y-74257803D01*
X139883443Y-74273597D01*
X139905399Y-74285333D01*
X139929224Y-74292560D01*
X139954000Y-74295000D01*
X140439868Y-74295000D01*
X140445604Y-74297376D01*
X140624699Y-74333000D01*
X140807301Y-74333000D01*
X140986396Y-74297376D01*
X140992132Y-74295000D01*
X141320101Y-74295000D01*
X141313000Y-74330699D01*
X141313000Y-74513301D01*
X141348624Y-74692396D01*
X141351000Y-74698132D01*
X141351000Y-74907868D01*
X141348624Y-74913604D01*
X141313000Y-75092699D01*
X141313000Y-75275301D01*
X141348624Y-75454396D01*
X141351000Y-75460132D01*
X141351000Y-77343000D01*
X140738132Y-77343000D01*
X140732396Y-77340624D01*
X140589000Y-77312101D01*
X140589000Y-75438000D01*
X140586560Y-75413224D01*
X140579333Y-75389399D01*
X140567597Y-75367443D01*
X140551803Y-75348197D01*
X140532557Y-75332403D01*
X140510601Y-75320667D01*
X140486776Y-75313440D01*
X140462000Y-75311000D01*
X139573000Y-75311000D01*
X139573000Y-74444132D01*
X139575376Y-74438396D01*
X139611000Y-74259301D01*
X139611000Y-74076699D01*
X139575376Y-73897604D01*
X139573000Y-73891868D01*
X139573000Y-73428132D01*
X139575376Y-73422396D01*
X139611000Y-73243301D01*
X139611000Y-73060699D01*
X139575376Y-72881604D01*
X139573000Y-72875868D01*
X139573000Y-72644000D01*
X139570560Y-72619224D01*
X139563333Y-72595399D01*
X139551597Y-72573443D01*
X139535803Y-72554197D01*
X139516557Y-72538403D01*
X139494601Y-72526667D01*
X139470776Y-72519440D01*
X139446000Y-72517000D01*
X139359976Y-72517000D01*
X139274928Y-72431952D01*
X139123099Y-72330504D01*
X138954396Y-72260624D01*
X138775301Y-72225000D01*
X138592699Y-72225000D01*
X138413604Y-72260624D01*
X138244901Y-72330504D01*
X138184294Y-72371000D01*
X137706348Y-72371000D01*
X137667999Y-72367223D01*
X137629650Y-72371000D01*
X137629640Y-72371000D01*
X137514897Y-72382301D01*
X137367678Y-72426960D01*
X137232000Y-72499481D01*
X137210653Y-72517000D01*
X136906000Y-72517000D01*
X136881224Y-72519440D01*
X136857399Y-72526667D01*
X136835443Y-72538403D01*
X136816197Y-72554197D01*
X135583394Y-73787000D01*
X132359634Y-73787000D01*
X132368914Y-73769116D01*
X132371628Y-73762201D01*
X132381994Y-73735231D01*
X132394050Y-73691533D01*
X132407186Y-73648164D01*
X132408585Y-73640868D01*
X132414863Y-73606833D01*
X132416931Y-73582458D01*
X132421508Y-73558438D01*
X132422129Y-73551036D01*
X132425814Y-73503014D01*
X132425693Y-73497296D01*
X132426309Y-73493297D01*
X133148606Y-72771000D01*
X135636000Y-72771000D01*
X135660776Y-72768560D01*
X135684601Y-72761333D01*
X135706557Y-72749597D01*
X135725803Y-72733803D01*
X135741597Y-72714557D01*
X135753333Y-72692601D01*
X135760560Y-72668776D01*
X135763000Y-72644000D01*
X135763000Y-71501000D01*
X139827000Y-71501000D01*
X139827000Y-72367868D01*
G04 #@! TA.AperFunction,Conductor*
D22*
G36*
X139827000Y-72367868D02*
G01*
X139824624Y-72373604D01*
X139789000Y-72552699D01*
X139789000Y-72735301D01*
X139824624Y-72914396D01*
X139827000Y-72920132D01*
X139827000Y-73129868D01*
X139824624Y-73135604D01*
X139789000Y-73314699D01*
X139789000Y-73497301D01*
X139824624Y-73676396D01*
X139827000Y-73682132D01*
X139827000Y-74168000D01*
X139829440Y-74192776D01*
X139836667Y-74216601D01*
X139848403Y-74238557D01*
X139864197Y-74257803D01*
X139883443Y-74273597D01*
X139905399Y-74285333D01*
X139929224Y-74292560D01*
X139954000Y-74295000D01*
X140439868Y-74295000D01*
X140445604Y-74297376D01*
X140624699Y-74333000D01*
X140807301Y-74333000D01*
X140986396Y-74297376D01*
X140992132Y-74295000D01*
X141320101Y-74295000D01*
X141313000Y-74330699D01*
X141313000Y-74513301D01*
X141348624Y-74692396D01*
X141351000Y-74698132D01*
X141351000Y-74907868D01*
X141348624Y-74913604D01*
X141313000Y-75092699D01*
X141313000Y-75275301D01*
X141348624Y-75454396D01*
X141351000Y-75460132D01*
X141351000Y-77343000D01*
X140738132Y-77343000D01*
X140732396Y-77340624D01*
X140589000Y-77312101D01*
X140589000Y-75438000D01*
X140586560Y-75413224D01*
X140579333Y-75389399D01*
X140567597Y-75367443D01*
X140551803Y-75348197D01*
X140532557Y-75332403D01*
X140510601Y-75320667D01*
X140486776Y-75313440D01*
X140462000Y-75311000D01*
X139573000Y-75311000D01*
X139573000Y-74444132D01*
X139575376Y-74438396D01*
X139611000Y-74259301D01*
X139611000Y-74076699D01*
X139575376Y-73897604D01*
X139573000Y-73891868D01*
X139573000Y-73428132D01*
X139575376Y-73422396D01*
X139611000Y-73243301D01*
X139611000Y-73060699D01*
X139575376Y-72881604D01*
X139573000Y-72875868D01*
X139573000Y-72644000D01*
X139570560Y-72619224D01*
X139563333Y-72595399D01*
X139551597Y-72573443D01*
X139535803Y-72554197D01*
X139516557Y-72538403D01*
X139494601Y-72526667D01*
X139470776Y-72519440D01*
X139446000Y-72517000D01*
X139359976Y-72517000D01*
X139274928Y-72431952D01*
X139123099Y-72330504D01*
X138954396Y-72260624D01*
X138775301Y-72225000D01*
X138592699Y-72225000D01*
X138413604Y-72260624D01*
X138244901Y-72330504D01*
X138184294Y-72371000D01*
X137706348Y-72371000D01*
X137667999Y-72367223D01*
X137629650Y-72371000D01*
X137629640Y-72371000D01*
X137514897Y-72382301D01*
X137367678Y-72426960D01*
X137232000Y-72499481D01*
X137210653Y-72517000D01*
X136906000Y-72517000D01*
X136881224Y-72519440D01*
X136857399Y-72526667D01*
X136835443Y-72538403D01*
X136816197Y-72554197D01*
X135583394Y-73787000D01*
X132359634Y-73787000D01*
X132368914Y-73769116D01*
X132371628Y-73762201D01*
X132381994Y-73735231D01*
X132394050Y-73691533D01*
X132407186Y-73648164D01*
X132408585Y-73640868D01*
X132414863Y-73606833D01*
X132416931Y-73582458D01*
X132421508Y-73558438D01*
X132422129Y-73551036D01*
X132425814Y-73503014D01*
X132425693Y-73497296D01*
X132426309Y-73493297D01*
X133148606Y-72771000D01*
X135636000Y-72771000D01*
X135660776Y-72768560D01*
X135684601Y-72761333D01*
X135706557Y-72749597D01*
X135725803Y-72733803D01*
X135741597Y-72714557D01*
X135753333Y-72692601D01*
X135760560Y-72668776D01*
X135763000Y-72644000D01*
X135763000Y-71501000D01*
X139827000Y-71501000D01*
X139827000Y-72367868D01*
G37*
G04 #@! TD.AperFunction*
M02*
